<?xml version="1.0" encoding="utf-8"?>
<!-- Generator: Adobe Illustrator 25.2.2, SVG Export Plug-In . SVG Version: 6.00 Build 0)  -->
<svg version="1.1" xmlns="http://www.w3.org/2000/svg" xmlns:xlink="http://www.w3.org/1999/xlink" x="0px" y="0px"
	 viewBox="0 0 114 114" style="enable-background:new 0 0 114 114;" xml:space="preserve">
<style type="text/css">
	.st0{fill:#FFFFFF;}
	.st1{fill:#CECECE;}
	.st2{display:none;}
	.st3{display:inline;fill:#3B93FF;stroke:#3B93FF;stroke-miterlimit:10;}
	.st4{display:inline;fill:#FFFFFF;stroke:#FFFFFF;stroke-miterlimit:10;}
</style>
<g id="Layer_1">
	<g>
		<path class="st0" d="M7.8,110.6c-2.4,0-4.3-1.9-4.3-4.3V7.5c0-2.4,1.9-4.3,4.3-4.3h98.8c2.4,0,4.3,1.9,4.3,4.3v98.8
			c0,2.4-1.9,4.3-4.3,4.3H7.8z"/>
		<path class="st1" d="M106.6,4.7c1.6,0,2.8,1.3,2.8,2.8v98.8c0,1.6-1.3,2.8-2.8,2.8H7.8c-1.6,0-2.8-1.3-2.8-2.8V7.5
			c0-1.6,1.3-2.8,2.8-2.8H106.6 M106.6,1.7H7.8C4.6,1.7,2,4.3,2,7.5v98.8c0,3.2,2.6,5.8,5.8,5.8h98.8c3.2,0,5.8-2.6,5.8-5.8V7.5
			C112.4,4.3,109.8,1.7,106.6,1.7L106.6,1.7z"/>
	</g>
</g>
<g id="Layer_1_copy" class="st2">
	<path class="st3" d="M106.6,112.1H7.8c-3.2,0-5.8-2.6-5.8-5.8V7.5c0-3.2,2.6-5.8,5.8-5.8h98.8c3.2,0,5.8,2.6,5.8,5.8v98.8
		C112.4,109.5,109.8,112.1,106.6,112.1z"/>
	<polygon class="st4" points="17.7,60.4 42.5,85.3 97.1,30.7 93.3,26.8 42.5,77.6 21.4,56.5 	"/>
</g>
</svg>
