<?xml version="1.0" encoding="utf-8"?>
<!-- Generator: Adobe Illustrator 25.2.2, SVG Export Plug-In . SVG Version: 6.00 Build 0)  -->
<svg version="1.1" id="Layer_1" xmlns="http://www.w3.org/2000/svg" xmlns:xlink="http://www.w3.org/1999/xlink" x="0px" y="0px"
	 viewBox="0 0 51.7 49.3" style="enable-background:new 0 0 51.7 49.3;" xml:space="preserve">
<style type="text/css">
	.st0{fill:#0FEBFF;}
	.st1{fill:#FFFFFF;}
	.st2{fill:#3B93FF;}
	.st3{fill:#3B93FF;stroke:#3B93FF;stroke-width:1.3;stroke-miterlimit:10;}
	.st4{fill:#3B93FF;stroke:#3B93FF;stroke-width:0.5;stroke-miterlimit:10;}
</style>
<path class="st0" d="M-33.6-98.5c0.5,0.1,1-0.2,1.1-0.6c0.1-0.5-0.2-1-0.6-1.1l-14-3.7c-0.5-0.1-1,0.2-1.1,0.6
	c-0.1,0.5,0.2,1,0.6,1.1L-33.6-98.5z M-49.8-99.3c-0.1,0.5,0.1,1,0.6,1.1l13.9,4c0.5,0.1,1-0.1,1.1-0.6s-0.1-1-0.6-1.1l-13.9-4
	C-49.2-100.1-49.7-99.8-49.8-99.3z M-34.1-78.6l9.6-26.7l-0.5-1.1l-25.8-5.4l-1,0.5l-7.4,19.5c0,0-0.5,1.6,0.6,2.2
	c0,0,1.3,0.3,1.8-0.9l7-17.9l21.2,4.8l-7.5,21.1c0,0-2.2,8.7-6.9,7.8c0,0-6.3-0.7-5.5-8.3l-18.3-6l-0.7,0.3c0,0-1.5,6.5,2.8,9
	l17.1,7.9C-47.5-71.9-38-68.3-34.1-78.6z M-51.4-95.3c-0.1,0.5,0.1,1,0.6,1.1l13.9,4.1c0.5,0.1,1-0.1,1.1-0.6s-0.1-1-0.6-1.1
	l-13.9-4.1C-50.7-96.1-51.2-95.8-51.4-95.3z M-27.9-78.2c-0.7-0.2-1.5,0.2-1.7,0.9c-0.2,0.5-3.8,11.1-16.4,9.7
	c-0.7-0.1-1.4,0.4-1.5,1.2c-0.1,0.7,0.4,1.4,1.2,1.5c14.8,1.8,19.2-11.4,19.3-11.5C-26.8-77.2-27.2-77.9-27.9-78.2z"/>
<path class="st1" d="M-152.9-96.6l-21.5-14.5c-0.9-0.6-2.5-0.6-3.4,0l-21.6,14.6c-0.7,0.3-1.3,1.1-1.3,1.9v21.1c0,1.2,1,2.1,2.1,2.1
	h44.7c1.2,0,2.1-1,2.1-2.1v-21.1C-151.7-95.5-152.2-96.2-152.9-96.6z M-155.8-92.7l-18.9,12.1c-0.9,0.6-2.3,0.6-3.1,0l-18.7-12V-95
	h40.8v2.3H-155.8z"/>
<path class="st2" d="M-114.8-105.2c-1.9-0.6-3.9-0.9-5.9-0.9c-0.9,0-1.6,0.7-1.6,1.6c0,0.1,0,0.2,0,0.3c0.1,0.7,0.8,1.2,1.5,1.2
	c5.8,0,10.9,2.9,13.9,7.4c1.8,2.7,2.9,5.9,2.9,9.3c0,0.9,0.7,1.6,1.6,1.6c0.2,0,0.4,0,0.6-0.1c0.6-0.2,1-0.8,1-1.4l0,0l0,0
	C-100.9-95.1-106.7-102.7-114.8-105.2z M-130.9-76.5c5.8,5.8,12.7,10.5,16.9,10.5c3.1,0,6.4-2,8.5-3.6l0.2-0.1
	c0.5-0.4,0.8-1,0.8-1.6s-0.3-1.2-0.7-1.6l-8.6-7.1c-0.4-0.3-0.8-0.6-1.4-0.6c-0.5,0-1,0.2-1.4,0.6l-1.4,1.4c-0.9,0.9-2.3,0.9-3.1,0
	l-3.9-3.9l-3.9-3.9c-0.9-0.9-0.9-2.3,0-3.1l1.4-1.4c0.4-0.4,0.6-0.9,0.6-1.4s-0.2-1-0.6-1.4l-7.1-8.5c-0.4-0.4-0.9-0.7-1.6-0.7
	s-1.2,0.3-1.6,0.8l-0.1,0.2c-1.5,2.1-3.6,5.4-3.6,8.5C-141.5-89.2-136.6-82.2-130.9-76.5L-130.9-76.5 M-120.7-112.9
	c-0.9,0-1.6,0.7-1.6,1.6s0.7,1.6,1.6,1.6c13,0,23.6,10.6,23.6,23.6c0,0.9,0.7,1.6,1.6,1.6c0.9,0,1.6-0.7,1.6-1.6
	C-94-100.9-106-112.9-120.7-112.9z M-111-86.2c0,0.9,0.7,1.6,1.6,1.6s1.6-0.7,1.6-1.6c0-7-5.7-12.8-12.8-12.8
	c-0.9,0-1.6,0.7-1.6,1.6c0,0.9,0.7,1.6,1.6,1.6C-115.4-95.9-111-91.6-111-86.2z"/>
<polygon class="st2" points="46.5,40.6 14.5,40.6 14.5,36.2 16.8,36.2 16.8,38.3 44.1,38.3 44.1,11.6 16.8,11.6 16.8,13.9 
	14.5,13.9 14.5,9.3 46.5,9.3 "/>
<path class="st2" d="M35.1,17h-9.3V9.3h9.3V17z M28.1,14.7h4.7v-3.1h-4.7V14.7z"/>
<rect x="35.2" y="32.5" class="st2" width="5.9" height="2.3"/>
<g>
	<path class="st2" d="M10.6,24.3H3.9c-1.8,0-3.3-1.6-3.3-3.6S2.1,17,3.9,17h17.7v2.3H3.9c-0.5,0-1,0.6-1,1.3c0,0.7,0.4,1.3,1,1.3
		h6.7V24.3z"/>
	<path class="st2" d="M12.5,29.2H7.6c-2.1,0-3.6-1.6-3.6-3.6c0-2,1.5-3.6,3.3-3.6h11v2.3h-11c-0.5,0-1,0.6-1,1.3
		c0,0.6,0.3,1.3,1.3,1.3h4.9V29.2z"/>
	<path class="st2" d="M14.3,34.2H11c-1.8,0-3.3-1.6-3.3-3.6c0-2,1.5-3.6,3.3-3.6h5.6v2.3H11c-0.5,0-1,0.6-1,1.3c0,0.7,0.4,1.3,1,1.3
		h3.3V34.2z"/>
</g>
<g>
	<g>
		<path class="st3" d="M-68.9,93.5c0,0-0.1,0-0.1,0c-1.7-0.3-2.6-0.8-3-1.7c-0.3-0.7-0.1-1.4,0.5-2.2c0.5-0.8,1.4-1.1,2.2-1.4
			c0.7-0.3,1.3-0.5,1.6-1c0.2-0.3,0.2-0.5,0.1-0.6c-0.3-0.5-2.1-1.3-10.3-0.5c-0.4,0-0.7,0.1-0.8,0.1c-1.6,0.1-3.9,0.1-4.8-1.1
			c-0.3-0.4-0.6-1-0.3-2c0.6-2,3.5-2.2,5.8-2.4c1-0.1,1.9-0.1,2.4-0.3c0.3-0.1,0.7,0,0.8,0.4c0.1,0.3,0,0.7-0.4,0.8
			c-0.7,0.3-1.6,0.3-2.8,0.4c-1.8,0.1-4.3,0.3-4.7,1.5c-0.1,0.5,0,0.7,0.1,0.8c0.2,0.3,1.1,0.8,3.8,0.6c0.1,0,0.4,0,0.8-0.1
			c7.2-0.7,10.6-0.4,11.5,1.1c0.2,0.4,0.4,1-0.1,1.9c-0.5,0.9-1.4,1.2-2.2,1.5c-0.6,0.3-1.3,0.5-1.6,0.9c-0.2,0.3-0.4,0.7-0.3,1
			c0.2,0.4,0.9,0.7,2,0.9c8.9-0.1,22.3-0.4,24-0.6c0.1-0.1,0.3-0.1,0.5,0c0.3,0.1,0.5,0.4,0.5,0.7C-44,93-44,93-56.7,93.2
			C-62.8,93.4-68.9,93.5-68.9,93.5C-68.9,93.5-68.9,93.5-68.9,93.5z"/>
	</g>
	<g>
		<g>
			<g>
				<path class="st3" d="M-65.5,70.5c-0.8-0.8-2.2-0.8-3,0.1c-0.6,0.7-0.8,1.6-0.4,2.4l-6.2,6.4l-0.5,1.6l1.6-0.6l6.2-6.4
					c0.8,0.3,1.7,0.2,2.4-0.5C-64.7,72.7-64.7,71.3-65.5,70.5z"/>
			</g>
			<g>
				<path class="st3" d="M-75.6,81.6c-0.2,0-0.3-0.1-0.4-0.2c-0.2-0.2-0.2-0.4-0.2-0.7l0.5-1.5l2.2-11.8c0-0.2,0.1-0.3,0.3-0.4
					l10.7-7.6c0.3-0.2,0.7-0.1,0.9,0.2c0.2,0.3,0.1,0.7-0.2,0.9L-72.3,68l-2.1,11.5c0,0,0,0.1,0,0.1l-0.1,0.3l0.3-0.1
					c0,0,0.1,0,0.1,0l11.5-2.5l6.9-10.8c0.2-0.3,0.6-0.4,0.9-0.2c0.3,0.2,0.4,0.6,0.2,0.9l-7.1,11c-0.1,0.1-0.2,0.2-0.4,0.3
					L-73.8,81l-1.5,0.6C-75.5,81.6-75.5,81.6-75.6,81.6z"/>
			</g>
			<g>
				<path class="st3" d="M-54.7,67.4C-54.7,67.4-54.7,67.4-54.7,67.4c-0.8,0-1.5-0.3-2-0.8c-1.8-1.7-3.6-3.4-5.3-5.1
					c-1-0.9-1.1-2.6-0.3-3.7C-60.1,54.7-56,50-56,50c0.8-0.9,2.2-0.9,3-0.1l7.7,7.4c0.4,0.4,0.6,0.9,0.6,1.5c0,0.6-0.2,1.1-0.7,1.5
					c0,0-4.5,4.3-7.6,6.6C-53.4,67.2-54,67.4-54.7,67.4z M-54.4,50.6c-0.2,0-0.4,0.1-0.6,0.3c0,0-4.1,4.6-6.3,7.7
					c-0.4,0.6-0.3,1.6,0.2,2.1c1.8,1.7,3.5,3.4,5.3,5.1c0.5,0.5,1.5,0.5,2.1,0.1c3-2.3,7.4-6.5,7.5-6.6c0.2-0.2,0.3-0.4,0.3-0.6
					c0-0.2-0.1-0.4-0.2-0.6l-7.7-7.4C-54,50.6-54.2,50.6-54.4,50.6z"/>
			</g>
		</g>
	</g>
</g>
<g>
	<g>
		<path class="st4" d="M43.9-39.1h-2.6c-0.8,0-1.4-0.6-1.4-1.4c0-0.8,0.6-1.4,1.4-1.4h2.6c0.8,0,1.4,0.6,1.4,1.4
			C45.4-39.8,44.7-39.1,43.9-39.1z"/>
	</g>
	<g>
		<path class="st4" d="M24.2-18.5c-12.2,0-22.1-9.9-22.1-22.1c0-12.2,9.9-22.1,22.1-22.1s22.1,9.9,22.1,22.1
			C46.3-28.4,36.4-18.5,24.2-18.5z M24.2-59.8C13.6-59.8,5-51.2,5-40.5c0,10.6,8.6,19.2,19.2,19.2s19.2-8.6,19.2-19.2
			C43.5-51.2,34.9-59.8,24.2-59.8z"/>
	</g>
	<g>
		<path class="st4" d="M24.2-56.9c-0.8,0-1.4-0.6-1.4-1.4v-2.8c0-0.8,0.6-1.4,1.4-1.4c0.8,0,1.4,0.6,1.4,1.4v2.8
			C25.7-57.5,25-56.9,24.2-56.9z"/>
	</g>
	<g>
		<path class="st4" d="M24.2-18.5c-0.8,0-1.4-0.6-1.4-1.4v-2.8c0-0.8,0.6-1.4,1.4-1.4c0.8,0,1.4,0.6,1.4,1.4v2.8
			C25.7-19.2,25-18.5,24.2-18.5z"/>
	</g>
	<g>
		<path class="st4" d="M6.5-39.1H3.7c-0.8,0-1.4-0.6-1.4-1.4c0-0.8,0.6-1.4,1.4-1.4h2.8c0.8,0,1.4,0.6,1.4,1.4
			C7.9-39.8,7.3-39.1,6.5-39.1z"/>
	</g>
	<g>
		<path class="st4" d="M24.2-39.4c-0.8,0-1.4-0.6-1.4-1.4v-12.4c0-0.8,0.6-1.4,1.4-1.4c0.8,0,1.4,0.6,1.4,1.4v12.4
			C25.7-40.1,25-39.4,24.2-39.4z"/>
	</g>
	<g>
		<path class="st4" d="M33.4-31.1c-0.3,0-0.7-0.1-0.9-0.4l-9.1-8.1c-0.6-0.5-0.6-1.4-0.1-2c0.5-0.6,1.4-0.6,2-0.1l9.1,8.1
			c0.6,0.5,0.6,1.4,0.1,2C34.1-31.2,33.8-31.1,33.4-31.1z"/>
	</g>
</g>
<g>
	<path class="st2" d="M118.1,16.7h-4.5l-2.8-6.3c-0.2-0.5-0.8-0.9-1.3-0.9H90.3c-0.6,0-1.1,0.3-1.3,0.9l-2.8,6.3h-4.5
		c-2.1,0-3.8,1.7-3.8,3.8v23.6c0,2.1,1.7,3.8,3.8,3.8h24.6c0.8,0,1.5-0.7,1.5-1.5s-0.7-1.5-1.5-1.5H81.7c-0.5,0-0.9-0.4-0.9-0.9
		V20.5c0-0.5,0.4-0.9,0.9-0.9h5.4h25.6h5.4c0.5,0,0.9,0.4,0.9,0.9v23.6c0,0.5-0.4,0.9-0.9,0.9h-3.6c-0.8,0-1.5,0.7-1.5,1.5
		s0.7,1.5,1.5,1.5h3.6c2.1,0,3.8-1.7,3.8-3.8V20.5C121.9,18.4,120.2,16.7,118.1,16.7z M89.4,16.7l1.9-4.2h17.3l1.9,4.2H89.4z"/>
	<path class="st2" d="M99.9,20.5c-6.5,0-11.8,5.3-11.8,11.8s5.3,11.8,11.8,11.8c6.5,0,11.8-5.3,11.8-11.8S106.4,20.5,99.9,20.5z
		 M99.9,41.1c-4.9,0-8.8-4-8.8-8.8c0-4.9,4-8.8,8.8-8.8c4.9,0,8.8,4,8.8,8.8C108.7,37.2,104.8,41.1,99.9,41.1z"/>
	<path class="st2" d="M99.9,25.3c-3.8,0-6.9,3.1-6.9,6.9c0,3.8,3.1,6.9,6.9,6.9c3.8,0,6.9-3.1,6.9-6.9
		C106.8,28.5,103.7,25.3,99.9,25.3z M99.9,36.3c-2.2,0-4-1.8-4-4c0-2.2,1.8-4,4-4c2.2,0,4,1.8,4,4C103.9,34.5,102.1,36.3,99.9,36.3z
		"/>
	<rect x="111.1" y="21.3" class="st2" width="2.2" height="2.2"/>
	<rect x="115" y="21.3" class="st2" width="2.2" height="2.2"/>
</g>
</svg>
