<?xml version="1.0" encoding="utf-8"?>
<!-- Generator: Adobe Illustrator 25.2.2, SVG Export Plug-In . SVG Version: 6.00 Build 0)  -->
<svg version="1.1" id="Layer_1" xmlns="http://www.w3.org/2000/svg" xmlns:xlink="http://www.w3.org/1999/xlink" x="0px" y="0px"
	 viewBox="0 0 51.7 49.3" style="enable-background:new 0 0 51.7 49.3;" xml:space="preserve">
<style type="text/css">
	.st0{fill:#0FEBFF;}
	.st1{fill:#FFFFFF;}
	.st2{fill:#3B93FF;}
	.st3{fill:#3B93FF;stroke:#3B93FF;stroke-width:1.3;stroke-miterlimit:10;}
	.st4{fill:#3B93FF;stroke:#3B93FF;stroke-width:0.5;stroke-miterlimit:10;}
</style>
<path class="st0" d="M-33.6-98.5c0.5,0.1,1-0.2,1.1-0.6c0.1-0.5-0.2-1-0.6-1.1l-14-3.7c-0.5-0.1-1,0.2-1.1,0.6
	c-0.1,0.5,0.2,1,0.6,1.1L-33.6-98.5z M-49.8-99.3c-0.1,0.5,0.1,1,0.6,1.1l13.9,4c0.5,0.1,1-0.1,1.1-0.6s-0.1-1-0.6-1.1l-13.9-4
	C-49.2-100.1-49.7-99.8-49.8-99.3z M-34.1-78.6l9.6-26.7l-0.5-1.1l-25.8-5.4l-1,0.5l-7.4,19.5c0,0-0.5,1.6,0.6,2.2
	c0,0,1.3,0.3,1.8-0.9l7-17.9l21.2,4.8l-7.5,21.1c0,0-2.2,8.7-6.9,7.8c0,0-6.3-0.7-5.5-8.3l-18.3-6l-0.7,0.3c0,0-1.5,6.5,2.8,9
	l17.1,7.9C-47.5-71.9-38-68.3-34.1-78.6z M-51.4-95.3c-0.1,0.5,0.1,1,0.6,1.1l13.9,4.1c0.5,0.1,1-0.1,1.1-0.6s-0.1-1-0.6-1.1
	l-13.9-4.1C-50.7-96.1-51.2-95.8-51.4-95.3z M-27.9-78.2c-0.7-0.2-1.5,0.2-1.7,0.9c-0.2,0.5-3.8,11.1-16.4,9.7
	c-0.7-0.1-1.4,0.4-1.5,1.2c-0.1,0.7,0.4,1.4,1.2,1.5c14.8,1.8,19.2-11.4,19.3-11.5C-26.8-77.2-27.2-77.9-27.9-78.2z"/>
<path class="st1" d="M-152.9-96.6l-21.5-14.5c-0.9-0.6-2.5-0.6-3.4,0l-21.6,14.6c-0.7,0.3-1.3,1.1-1.3,1.9v21.1c0,1.2,1,2.1,2.1,2.1
	h44.7c1.2,0,2.1-1,2.1-2.1v-21.1C-151.7-95.5-152.2-96.2-152.9-96.6z M-155.8-92.7l-18.9,12.1c-0.9,0.6-2.3,0.6-3.1,0l-18.7-12V-95
	h40.8v2.3H-155.8z"/>
<path class="st2" d="M-114.8-105.2c-1.9-0.6-3.9-0.9-5.9-0.9c-0.9,0-1.6,0.7-1.6,1.6c0,0.1,0,0.2,0,0.3c0.1,0.7,0.8,1.2,1.5,1.2
	c5.8,0,10.9,2.9,13.9,7.4c1.8,2.7,2.9,5.9,2.9,9.3c0,0.9,0.7,1.6,1.6,1.6c0.2,0,0.4,0,0.6-0.1c0.6-0.2,1-0.8,1-1.4l0,0l0,0
	C-100.9-95.1-106.7-102.7-114.8-105.2z M-130.9-76.5c5.8,5.8,12.7,10.5,16.9,10.5c3.1,0,6.4-2,8.5-3.6l0.2-0.1
	c0.5-0.4,0.8-1,0.8-1.6s-0.3-1.2-0.7-1.6l-8.6-7.1c-0.4-0.3-0.8-0.6-1.4-0.6c-0.5,0-1,0.2-1.4,0.6l-1.4,1.4c-0.9,0.9-2.3,0.9-3.1,0
	l-3.9-3.9l-3.9-3.9c-0.9-0.9-0.9-2.3,0-3.1l1.4-1.4c0.4-0.4,0.6-0.9,0.6-1.4s-0.2-1-0.6-1.4l-7.1-8.5c-0.4-0.4-0.9-0.7-1.6-0.7
	s-1.2,0.3-1.6,0.8l-0.1,0.2c-1.5,2.1-3.6,5.4-3.6,8.5C-141.5-89.2-136.6-82.2-130.9-76.5L-130.9-76.5 M-120.7-112.9
	c-0.9,0-1.6,0.7-1.6,1.6s0.7,1.6,1.6,1.6c13,0,23.6,10.6,23.6,23.6c0,0.9,0.7,1.6,1.6,1.6c0.9,0,1.6-0.7,1.6-1.6
	C-94-100.9-106-112.9-120.7-112.9z M-111-86.2c0,0.9,0.7,1.6,1.6,1.6s1.6-0.7,1.6-1.6c0-7-5.7-12.8-12.8-12.8
	c-0.9,0-1.6,0.7-1.6,1.6c0,0.9,0.7,1.6,1.6,1.6C-115.4-95.9-111-91.6-111-86.2z"/>
<polygon class="st2" points="-44.8,20.5 -76.8,20.5 -76.8,16.2 -74.5,16.2 -74.5,18.2 -47.2,18.2 -47.2,-8.5 -74.5,-8.5 -74.5,-6.1 
	-76.8,-6.1 -76.8,-10.8 -44.8,-10.8 "/>
<path class="st2" d="M-56.2-3.1h-9.3v-7.8h9.3V-3.1z M-63.2-5.4h4.7v-3.1h-4.7V-5.4z"/>
<rect x="-56.1" y="12.4" class="st2" width="5.9" height="2.3"/>
<g>
	<path class="st2" d="M-80.7,4.2h-6.7c-1.8,0-3.3-1.6-3.3-3.6s1.5-3.6,3.3-3.6h17.7v2.3h-17.7c-0.5,0-1,0.6-1,1.3s0.4,1.3,1,1.3h6.7
		V4.2z"/>
	<path class="st2" d="M-78.8,9.2h-4.9c-2.1,0-3.6-1.6-3.6-3.6c0-2,1.5-3.6,3.3-3.6h11v2.3h-11c-0.5,0-1,0.6-1,1.3
		c0,0.6,0.3,1.3,1.3,1.3h4.9V9.2z"/>
	<path class="st2" d="M-77,14.1h-3.3c-1.8,0-3.3-1.6-3.3-3.6c0-2,1.5-3.6,3.3-3.6h5.6v2.3h-5.6c-0.5,0-1,0.6-1,1.3s0.4,1.3,1,1.3
		h3.3V14.1z"/>
</g>
<g>
	<g>
		<path class="st3" d="M-68.9,93.5c0,0-0.1,0-0.1,0c-1.7-0.3-2.6-0.8-3-1.7c-0.3-0.7-0.1-1.4,0.5-2.2c0.5-0.8,1.4-1.1,2.2-1.4
			c0.7-0.3,1.3-0.5,1.6-1c0.2-0.3,0.2-0.5,0.1-0.6c-0.3-0.5-2.1-1.3-10.3-0.5c-0.4,0-0.7,0.1-0.8,0.1c-1.6,0.1-3.9,0.1-4.8-1.1
			c-0.3-0.4-0.6-1-0.3-2c0.6-2,3.5-2.2,5.8-2.4c1-0.1,1.9-0.1,2.4-0.3c0.3-0.1,0.7,0,0.8,0.4c0.1,0.3,0,0.7-0.4,0.8
			c-0.7,0.3-1.6,0.3-2.8,0.4c-1.8,0.1-4.3,0.3-4.7,1.5c-0.1,0.5,0,0.7,0.1,0.8c0.2,0.3,1.1,0.8,3.8,0.6c0.1,0,0.4,0,0.8-0.1
			c7.2-0.7,10.6-0.4,11.5,1.1c0.2,0.4,0.4,1-0.1,1.9c-0.5,0.9-1.4,1.2-2.2,1.5c-0.6,0.3-1.3,0.5-1.6,0.9c-0.2,0.3-0.4,0.7-0.3,1
			c0.2,0.4,0.9,0.7,2,0.9c8.9-0.1,22.3-0.4,24-0.6c0.1-0.1,0.3-0.1,0.5,0c0.3,0.1,0.5,0.4,0.5,0.7C-44,93-44,93-56.7,93.2
			C-62.8,93.4-68.9,93.5-68.9,93.5C-68.9,93.5-68.9,93.5-68.9,93.5z"/>
	</g>
	<g>
		<g>
			<g>
				<path class="st3" d="M-65.5,70.5c-0.8-0.8-2.2-0.8-3,0.1c-0.6,0.7-0.8,1.6-0.4,2.4l-6.2,6.4l-0.5,1.6l1.6-0.6l6.2-6.4
					c0.8,0.3,1.7,0.2,2.4-0.5C-64.7,72.7-64.7,71.3-65.5,70.5z"/>
			</g>
			<g>
				<path class="st3" d="M-75.6,81.6c-0.2,0-0.3-0.1-0.4-0.2c-0.2-0.2-0.2-0.4-0.2-0.7l0.5-1.5l2.2-11.8c0-0.2,0.1-0.3,0.3-0.4
					l10.7-7.6c0.3-0.2,0.7-0.1,0.9,0.2c0.2,0.3,0.1,0.7-0.2,0.9L-72.3,68l-2.1,11.5c0,0,0,0.1,0,0.1l-0.1,0.3l0.3-0.1
					c0,0,0.1,0,0.1,0l11.5-2.5l6.9-10.8c0.2-0.3,0.6-0.4,0.9-0.2c0.3,0.2,0.4,0.6,0.2,0.9l-7.1,11c-0.1,0.1-0.2,0.2-0.4,0.3
					L-73.8,81l-1.5,0.6C-75.5,81.6-75.5,81.6-75.6,81.6z"/>
			</g>
			<g>
				<path class="st3" d="M-54.7,67.4C-54.7,67.4-54.7,67.4-54.7,67.4c-0.8,0-1.5-0.3-2-0.8c-1.8-1.7-3.6-3.4-5.3-5.1
					c-1-0.9-1.1-2.6-0.3-3.7C-60.1,54.7-56,50-56,50c0.8-0.9,2.2-0.9,3-0.1l7.7,7.4c0.4,0.4,0.6,0.9,0.6,1.5c0,0.6-0.2,1.1-0.7,1.5
					c0,0-4.5,4.3-7.6,6.6C-53.4,67.2-54,67.4-54.7,67.4z M-54.4,50.6c-0.2,0-0.4,0.1-0.6,0.3c0,0-4.1,4.6-6.3,7.7
					c-0.4,0.6-0.3,1.6,0.2,2.1c1.8,1.7,3.5,3.4,5.3,5.1c0.5,0.5,1.5,0.5,2.1,0.1c3-2.3,7.4-6.5,7.5-6.6c0.2-0.2,0.3-0.4,0.3-0.6
					c0-0.2-0.1-0.4-0.2-0.6l-7.7-7.4C-54,50.6-54.2,50.6-54.4,50.6z"/>
			</g>
		</g>
	</g>
</g>
<g>
	<g>
		<path class="st4" d="M44.5,26.1h-2.4c-0.7,0-1.3-0.6-1.3-1.3c0-0.7,0.6-1.3,1.3-1.3h2.4c0.7,0,1.3,0.6,1.3,1.3
			C45.8,25.5,45.2,26.1,44.5,26.1z"/>
	</g>
	<g>
		<path class="st4" d="M26.1,45.4c-11.4,0-20.7-9.3-20.7-20.7c0-11.4,9.3-20.7,20.7-20.7s20.7,9.3,20.7,20.7
			C46.8,36.2,37.5,45.4,26.1,45.4z M26.1,6.7c-9.9,0-18,8.1-18,18c0,9.9,8.1,18,18,18s18-8.1,18-18C44.1,14.8,36,6.7,26.1,6.7z"/>
	</g>
	<g>
		<path class="st4" d="M26.1,9.5c-0.7,0-1.3-0.6-1.3-1.3V5.5c0-0.7,0.6-1.3,1.3-1.3c0.7,0,1.3,0.6,1.3,1.3v2.7
			C27.4,8.9,26.8,9.5,26.1,9.5z"/>
	</g>
	<g>
		<path class="st4" d="M26.1,45.3c-0.7,0-1.3-0.6-1.3-1.3v-2.7c0-0.7,0.6-1.3,1.3-1.3c0.7,0,1.3,0.6,1.3,1.3V44
			C27.4,44.8,26.8,45.3,26.1,45.3z"/>
	</g>
	<g>
		<path class="st4" d="M9.5,26.1H6.8c-0.7,0-1.3-0.6-1.3-1.3c0-0.7,0.6-1.3,1.3-1.3h2.7c0.7,0,1.3,0.6,1.3,1.3
			C10.8,25.5,10.2,26.1,9.5,26.1z"/>
	</g>
	<g>
		<path class="st4" d="M26.1,25.8c-0.7,0-1.3-0.6-1.3-1.3V12.9c0-0.7,0.6-1.3,1.3-1.3c0.7,0,1.3,0.6,1.3,1.3v11.6
			C27.4,25.2,26.8,25.8,26.1,25.8z"/>
	</g>
	<g>
		<path class="st4" d="M34.6,33.6c-0.3,0-0.6-0.1-0.9-0.3l-8.5-7.5c-0.5-0.5-0.6-1.3-0.1-1.9c0.5-0.6,1.3-0.6,1.9-0.1l8.5,7.5
			c0.5,0.5,0.6,1.3,0.1,1.9C35.4,33.5,35,33.6,34.6,33.6z"/>
	</g>
</g>
<g>
	<path class="st2" d="M164.6,2.8h-4.2l-2.6-5.9c-0.2-0.5-0.7-0.8-1.3-0.8h-18.1c-0.5,0-1,0.3-1.3,0.8l-2.6,5.9h-4.2
		c-2,0-3.6,1.6-3.6,3.6v22.3c0,2,1.6,3.6,3.6,3.6h23.2c0.8,0,1.4-0.6,1.4-1.4c0-0.8-0.6-1.4-1.4-1.4h-23.2c-0.4,0-0.8-0.4-0.8-0.8
		V6.4c0-0.4,0.4-0.8,0.8-0.8h5.1h24.1h5.1c0.4,0,0.8,0.4,0.8,0.8v22.3c0,0.4-0.4,0.8-0.8,0.8h-3.4c-0.8,0-1.4,0.6-1.4,1.4
		c0,0.8,0.6,1.4,1.4,1.4h3.4c2,0,3.6-1.6,3.6-3.6V6.4C168.2,4.4,166.6,2.8,164.6,2.8z M137.5,2.8l1.8-3.9h16.3l1.8,3.9H137.5z"/>
	<path class="st2" d="M147.5,6.4c-6.1,0-11.1,5-11.1,11.1s5,11.1,11.1,11.1c6.1,0,11.1-5,11.1-11.1S153.6,6.4,147.5,6.4z
		 M147.5,25.8c-4.6,0-8.3-3.7-8.3-8.3c0-4.6,3.7-8.3,8.3-8.3c4.6,0,8.3,3.7,8.3,8.3C155.8,22.1,152,25.8,147.5,25.8z"/>
	<path class="st2" d="M147.5,10.9c-3.6,0-6.6,2.9-6.6,6.6c0,3.6,2.9,6.6,6.6,6.6c3.6,0,6.6-2.9,6.6-6.6
		C154,13.9,151.1,10.9,147.5,10.9z M147.5,21.3c-2.1,0-3.8-1.7-3.8-3.8c0-2.1,1.7-3.8,3.8-3.8c2.1,0,3.8,1.7,3.8,3.8
		C151.2,19.6,149.5,21.3,147.5,21.3z"/>
	<rect x="158" y="7.2" class="st2" width="2.1" height="2.1"/>
	<rect x="161.7" y="7.2" class="st2" width="2.1" height="2.1"/>
</g>
</svg>
