<?xml version="1.0" encoding="utf-8"?>
<!-- Generator: Adobe Illustrator 25.2.2, SVG Export Plug-In . SVG Version: 6.00 Build 0)  -->
<svg version="1.1" id="Layer_1" xmlns="http://www.w3.org/2000/svg" xmlns:xlink="http://www.w3.org/1999/xlink" x="0px" y="0px"
	 viewBox="0 0 51.7 49.3" style="enable-background:new 0 0 51.7 49.3;" xml:space="preserve">
<style type="text/css">
	.st0{fill:#0FEBFF;}
	.st1{fill:#FFFFFF;}
	.st2{fill:#3B93FF;}
	.st3{fill:#3B93FF;stroke:#3B93FF;stroke-width:1.3;stroke-miterlimit:10;}
</style>
<path class="st0" d="M-33.6-98.5c0.5,0.1,1-0.2,1.1-0.6c0.1-0.5-0.2-1-0.6-1.1l-14-3.7c-0.5-0.1-1,0.2-1.1,0.6
	c-0.1,0.5,0.2,1,0.6,1.1L-33.6-98.5z M-49.8-99.3c-0.1,0.5,0.1,1,0.6,1.1l13.9,4c0.5,0.1,1-0.1,1.1-0.6s-0.1-1-0.6-1.1l-13.9-4
	C-49.2-100.1-49.7-99.8-49.8-99.3z M-34.1-78.6l9.6-26.7l-0.5-1.1l-25.8-5.4l-1,0.5l-7.4,19.5c0,0-0.5,1.6,0.6,2.2
	c0,0,1.3,0.3,1.8-0.9l7-17.9l21.2,4.8l-7.5,21.1c0,0-2.2,8.7-6.9,7.8c0,0-6.3-0.7-5.5-8.3l-18.3-6l-0.7,0.3c0,0-1.5,6.5,2.8,9
	l17.1,7.9C-47.5-71.9-38-68.3-34.1-78.6z M-51.4-95.3c-0.1,0.5,0.1,1,0.6,1.1l13.9,4.1c0.5,0.1,1-0.1,1.1-0.6s-0.1-1-0.6-1.1
	l-13.9-4.1C-50.7-96.1-51.2-95.8-51.4-95.3z M-27.9-78.2c-0.7-0.2-1.5,0.2-1.7,0.9c-0.2,0.5-3.8,11.1-16.4,9.7
	c-0.7-0.1-1.4,0.4-1.5,1.2c-0.1,0.7,0.4,1.4,1.2,1.5c14.8,1.8,19.2-11.4,19.3-11.5C-26.8-77.2-27.2-77.9-27.9-78.2z"/>
<path class="st1" d="M-152.9-96.6l-21.5-14.5c-0.9-0.6-2.5-0.6-3.4,0l-21.6,14.6c-0.7,0.3-1.3,1.1-1.3,1.9v21.1c0,1.2,1,2.1,2.1,2.1
	h44.7c1.2,0,2.1-1,2.1-2.1v-21.1C-151.7-95.5-152.2-96.2-152.9-96.6z M-155.8-92.7l-18.9,12.1c-0.9,0.6-2.3,0.6-3.1,0l-18.7-12V-95
	h40.8v2.3H-155.8z"/>
<path class="st2" d="M-114.8-105.2c-1.9-0.6-3.9-0.9-5.9-0.9c-0.9,0-1.6,0.7-1.6,1.6c0,0.1,0,0.2,0,0.3c0.1,0.7,0.8,1.2,1.5,1.2
	c5.8,0,10.9,2.9,13.9,7.4c1.8,2.7,2.9,5.9,2.9,9.3c0,0.9,0.7,1.6,1.6,1.6c0.2,0,0.4,0,0.6-0.1c0.6-0.2,1-0.8,1-1.4l0,0l0,0
	C-100.9-95.1-106.7-102.7-114.8-105.2z M-130.9-76.5c5.8,5.8,12.7,10.5,16.9,10.5c3.1,0,6.4-2,8.5-3.6l0.2-0.1
	c0.5-0.4,0.8-1,0.8-1.6s-0.3-1.2-0.7-1.6l-8.6-7.1c-0.4-0.3-0.8-0.6-1.4-0.6c-0.5,0-1,0.2-1.4,0.6l-1.4,1.4c-0.9,0.9-2.3,0.9-3.1,0
	l-3.9-3.9l-3.9-3.9c-0.9-0.9-0.9-2.3,0-3.1l1.4-1.4c0.4-0.4,0.6-0.9,0.6-1.4s-0.2-1-0.6-1.4l-7.1-8.5c-0.4-0.4-0.9-0.7-1.6-0.7
	s-1.2,0.3-1.6,0.8l-0.1,0.2c-1.5,2.1-3.6,5.4-3.6,8.5C-141.5-89.2-136.6-82.2-130.9-76.5L-130.9-76.5 M-120.7-112.9
	c-0.9,0-1.6,0.7-1.6,1.6s0.7,1.6,1.6,1.6c13,0,23.6,10.6,23.6,23.6c0,0.9,0.7,1.6,1.6,1.6c0.9,0,1.6-0.7,1.6-1.6
	C-94-100.9-106-112.9-120.7-112.9z M-111-86.2c0,0.9,0.7,1.6,1.6,1.6s1.6-0.7,1.6-1.6c0-7-5.7-12.8-12.8-12.8
	c-0.9,0-1.6,0.7-1.6,1.6c0,0.9,0.7,1.6,1.6,1.6C-115.4-95.9-111-91.6-111-86.2z"/>
<polygon class="st2" points="-37.2,38.4 -71.8,38.4 -71.8,33.7 -69.3,33.7 -69.3,35.9 -39.7,35.9 -39.7,7 -69.3,7 -69.3,9.6 
	-71.8,9.6 -71.8,4.5 -37.2,4.5 "/>
<path class="st2" d="M-49.5,12.9h-10V4.5h10V12.9z M-57,10.4h5V7h-5V10.4z"/>
<rect x="-49.3" y="29.7" class="st2" width="6.4" height="2.5"/>
<g>
	<path class="st2" d="M-75.9,20.8h-7.3c-2,0-3.5-1.8-3.5-3.9s1.6-3.9,3.5-3.9H-64v2.5h-19.1c-0.6,0-1,0.7-1,1.4s0.5,1.4,1,1.4h7.3
		V20.8z"/>
	<path class="st2" d="M-73.9,26.1h-5.3c-2.2,0-3.9-1.7-3.9-3.9c0-2.2,1.6-3.9,3.5-3.9h11.9v2.5h-11.9c-0.6,0-1,0.7-1,1.4
		c0,0.7,0.4,1.4,1.4,1.4h5.3V26.1z"/>
	<path class="st2" d="M-71.9,31.5h-3.6c-2,0-3.5-1.8-3.5-3.9c0-2.2,1.6-3.9,3.5-3.9h6v2.5h-6c-0.6,0-1,0.7-1,1.4s0.5,1.4,1,1.4h3.6
		V31.5z"/>
</g>
<g>
	<g>
		<path class="st3" d="M20.4,47.4c0,0-0.1,0-0.1,0c-1.7-0.3-2.6-0.8-3-1.7c-0.3-0.7-0.1-1.4,0.5-2.2c0.5-0.8,1.4-1.1,2.2-1.4
			c0.7-0.3,1.3-0.5,1.6-1c0.2-0.3,0.2-0.5,0.1-0.6c-0.3-0.5-2.1-1.3-10.3-0.5c-0.4,0-0.7,0.1-0.8,0.1c-1.6,0.1-3.9,0.1-4.8-1.1
			c-0.3-0.4-0.6-1-0.3-2c0.6-2,3.5-2.2,5.8-2.4c1-0.1,1.9-0.1,2.4-0.3c0.3-0.1,0.7,0,0.8,0.4c0.1,0.3,0,0.7-0.4,0.8
			c-0.7,0.3-1.6,0.3-2.8,0.4c-1.8,0.1-4.3,0.3-4.7,1.5c-0.1,0.5,0,0.7,0.1,0.8c0.2,0.3,1.1,0.8,3.8,0.6c0.1,0,0.4,0,0.8-0.1
			c7.2-0.7,10.6-0.4,11.5,1.1c0.2,0.4,0.4,1-0.1,1.9c-0.5,0.9-1.4,1.2-2.2,1.5c-0.6,0.3-1.3,0.5-1.6,0.9c-0.2,0.3-0.4,0.7-0.3,1
			c0.2,0.4,0.9,0.7,2,0.9c8.9-0.1,22.3-0.4,24-0.6c0.1-0.1,0.3-0.1,0.5,0c0.3,0.1,0.5,0.4,0.5,0.7c-0.1,0.7-0.1,0.7-12.8,1
			C26.5,47.3,20.4,47.4,20.4,47.4C20.4,47.4,20.4,47.4,20.4,47.4z"/>
	</g>
	<g>
		<g>
			<g>
				<path class="st3" d="M23.8,24.5c-0.8-0.8-2.2-0.8-3,0.1c-0.6,0.7-0.8,1.6-0.4,2.4l-6.2,6.4L13.7,35l1.6-0.6l6.2-6.4
					c0.8,0.3,1.7,0.2,2.4-0.5C24.7,26.6,24.6,25.3,23.8,24.5z"/>
			</g>
			<g>
				<path class="st3" d="M13.7,35.6c-0.2,0-0.3-0.1-0.4-0.2c-0.2-0.2-0.2-0.4-0.2-0.7l0.5-1.5l2.2-11.8c0-0.2,0.1-0.3,0.3-0.4
					l10.7-7.6c0.3-0.2,0.7-0.1,0.9,0.2c0.2,0.3,0.1,0.7-0.2,0.9L17,21.9l-2.1,11.5c0,0,0,0.1,0,0.1l-0.1,0.3l0.3-0.1
					c0,0,0.1,0,0.1,0l11.5-2.5l6.9-10.8c0.2-0.3,0.6-0.4,0.9-0.2c0.3,0.2,0.4,0.6,0.2,0.9l-7.1,11c-0.1,0.1-0.2,0.2-0.4,0.3L15.5,35
					l-1.5,0.6C13.9,35.6,13.8,35.6,13.7,35.6z"/>
			</g>
			<g>
				<path class="st3" d="M34.7,21.4C34.7,21.4,34.7,21.4,34.7,21.4c-0.8,0-1.5-0.3-2-0.8c-1.8-1.7-3.6-3.4-5.3-5.1
					c-1-0.9-1.1-2.6-0.3-3.7C29.3,8.6,33.3,4,33.3,4c0.8-0.9,2.2-0.9,3-0.1l7.7,7.4c0.4,0.4,0.6,0.9,0.6,1.5c0,0.6-0.2,1.1-0.7,1.5
					c0,0-4.5,4.3-7.6,6.6C35.9,21.2,35.3,21.4,34.7,21.4z M34.9,4.5c-0.2,0-0.4,0.1-0.6,0.3c0,0-4.1,4.6-6.3,7.7
					c-0.4,0.6-0.3,1.6,0.2,2.1c1.8,1.7,3.5,3.4,5.3,5.1c0.5,0.5,1.5,0.5,2.1,0.1c3-2.3,7.4-6.5,7.5-6.6c0.2-0.2,0.3-0.4,0.3-0.6
					c0-0.2-0.1-0.4-0.2-0.6l-7.7-7.4C35.3,4.6,35.1,4.5,34.9,4.5z"/>
			</g>
		</g>
	</g>
</g>
</svg>
