<?xml version="1.0" encoding="utf-8"?>
<!-- Generator: Adobe Illustrator 24.1.1, SVG Export Plug-In . SVG Version: 6.00 Build 0)  -->
<svg version="1.1" xmlns="http://www.w3.org/2000/svg" xmlns:xlink="http://www.w3.org/1999/xlink" x="0px" y="0px"
	 viewBox="0 0 200 200" style="enable-background:new 0 0 200 200;" xml:space="preserve">
<style type="text/css">
	.st0{fill:#FFD111;}
	.st1{display:none;}
	.st2{display:inline;opacity:0.25;}
	.st3{fill:#020203;}
	.st4{fill:#010202;}
</style>
<g id="Layer_1">
	<g>
		<path class="st0" d="M125.77,43.21h-52.8c-3.8,0-6.88-3.08-6.88-6.88V11.88c0-3.8,3.08-6.88,6.88-6.88h52.8
			c3.8,0,6.88,3.08,6.88,6.88v24.45C132.65,40.13,129.57,43.21,125.77,43.21z M79.86,29.45h39.04V18.76H79.86V29.45z"/>
	</g>
	<g>
		<path class="st0" d="M139.92,196.35h-81.1c-15.53,0-28.17-12.64-28.17-28.17V36.33c0-3.8,3.08-6.88,6.88-6.88h123.68
			c3.8,0,6.88,3.08,6.88,6.88v131.84C168.09,183.71,155.45,196.35,139.92,196.35z M44.41,43.21v124.96
			c0,7.95,6.46,14.41,14.41,14.41h81.1c7.95,0,14.41-6.46,14.41-14.41V43.21H44.41z"/>
	</g>
	<g>
		<line class="st0" x1="20.87" y1="36.33" x2="177.88" y2="36.33"/>
		<path class="st0" d="M177.88,43.21H20.87c-3.8,0-6.88-3.08-6.88-6.88c0-3.8,3.08-6.88,6.88-6.88h157.02c3.8,0,6.88,3.08,6.88,6.88
			C184.76,40.13,181.68,43.21,177.88,43.21z"/>
	</g>
	<g>
		<line class="st0" x1="129.35" y1="79.32" x2="129.35" y2="140.62"/>
		<path class="st0" d="M129.35,147.5c-3.8,0-6.88-3.08-6.88-6.88v-61.3c0-3.8,3.08-6.88,6.88-6.88c3.8,0,6.88,3.08,6.88,6.88v61.3
			C136.23,144.43,133.15,147.5,129.35,147.5z"/>
	</g>
	<g>
		<line class="st0" x1="99.37" y1="79.32" x2="99.37" y2="140.62"/>
		<path class="st0" d="M99.37,147.5c-3.8,0-6.88-3.08-6.88-6.88v-61.3c0-3.8,3.08-6.88,6.88-6.88c3.8,0,6.88,3.08,6.88,6.88v61.3
			C106.25,144.43,103.17,147.5,99.37,147.5z"/>
	</g>
	<g>
		<line class="st0" x1="69.39" y1="79.32" x2="69.39" y2="140.62"/>
		<path class="st0" d="M69.39,147.5c-3.8,0-6.88-3.08-6.88-6.88v-61.3c0-3.8,3.08-6.88,6.88-6.88s6.88,3.08,6.88,6.88v61.3
			C76.27,144.43,73.19,147.5,69.39,147.5z"/>
	</g>
</g>
<g id="Layer_2" class="st1">
	<g class="st2">
		<g>
			<path class="st3" d="M137.24,132.98c-1.72,0-3.44-0.46-4.97-1.34c-3.15-1.8-5.03-5.05-5.03-8.68v-6.74H92.08
				c-6.52,0-11.83-5.31-11.83-11.83V79.21c0-6.52,5.31-11.83,11.83-11.83h35.16v-6.75c0-3.63,1.88-6.87,5.03-8.68
				c1.53-0.87,3.25-1.34,4.97-1.34c1.76,0,3.51,0.48,5.06,1.39l44.15,31.21c3.02,1.77,4.87,4.99,4.87,8.58
				c0,3.59-1.85,6.81-4.94,8.63l-44.01,31.12C140.75,132.5,139,132.98,137.24,132.98z M92.08,78.43c-0.43,0-0.78,0.35-0.78,0.78
				v25.18c0,0.43,0.35,0.78,0.78,0.78h45.21c0.27,0,0.52,0.11,0.71,0.29s0.29,0.44,0.29,0.71l-0.07,14.81l41.34-29.14l-41.27-29.27
				v14.86c0,0.55-0.45,1-1,1H92.08z"/>
			<path class="st4" d="M137.24,51.61c1.57,0,3.13,0.42,4.56,1.25l44.08,31.17c2.78,1.63,4.44,4.54,4.45,7.76
				c0,3.23-1.66,6.13-4.45,7.76l-44.08,31.17c-1.42,0.83-2.99,1.25-4.56,1.25c-1.53,0-3.07-0.4-4.47-1.2
				c-2.84-1.62-4.53-4.54-4.53-7.81v-7.74H92.08c-5.97,0-10.83-4.86-10.83-10.83V79.21c0-5.97,4.86-10.83,10.83-10.83h36.16v-7.75
				c0-3.27,1.69-6.19,4.53-7.81C134.17,52.02,135.71,51.61,137.24,51.61 M92.08,106.17h45.21l-0.08,16.75l44.08-31.08l-44-31.21
				v16.8H92.08c-0.98,0-1.78,0.8-1.78,1.78v25.18C90.3,105.37,91.1,106.17,92.08,106.17 M137.29,106.17L137.29,106.17 M137.24,49.61
				c-1.9,0-3.79,0.51-5.47,1.47c-3.47,1.99-5.54,5.55-5.54,9.55v5.75H92.08c-7.07,0-12.83,5.76-12.83,12.83v25.18
				c0,7.08,5.76,12.83,12.83,12.83h34.16v5.74c0,3.99,2.07,7.56,5.54,9.55c1.68,0.96,3.57,1.47,5.47,1.47
				c1.94,0,3.86-0.53,5.57-1.53c0.05-0.03,0.1-0.06,0.14-0.09l44.01-31.12c3.36-2,5.36-5.53,5.36-9.44c0-3.91-2-7.44-5.36-9.44
				l-44.01-31.12c-0.05-0.03-0.09-0.06-0.14-0.09C141.11,50.14,139.18,49.61,137.24,49.61L137.24,49.61z M92.3,79.43h44.99
				c1.1,0,2-0.9,2-2V64.5l38.54,27.34l-38.6,27.21l0.06-12.77c0-0.04,0-0.07,0-0.11c0-1.1-0.89-2-2-2h-0.01H92.3V79.43L92.3,79.43z
				 M137.29,108.17L137.29,108.17L137.29,108.17L137.29,108.17z"/>
		</g>
		<g>
			<path class="st3" d="M59.1,196.08c-5.05,0-10.84-2.93-15.94-5.51c-1.73-0.88-3.37-1.71-4.79-2.31c-2.57-1.1-5.24-2.17-7.82-3.2
				c-5.25-2.1-10.67-4.27-15.72-6.89c-7.03-3.64-7.84-10.38-7.84-15.13V12.39c0-2.07,1.01-3.78,2.76-4.7
				c0.86-0.55,1.79-0.83,2.77-0.83h91.11c6.44,0,18.42,0,19.17,12.65c0.42,6.96,0.28,14.11,0.14,21.01
				c-0.07,3.42-0.14,6.96-0.14,10.41c0,3.53-2.78,5.37-5.53,5.37c-2.75,0-5.52-1.85-5.52-5.37V22.86c0-4.29-1.87-5.07-5.55-5.07
				c-0.72,0-1.47,0.03-2.23,0.06c-0.83,0.03-1.68,0.06-2.53,0.06H37.49l15.58,7.24c1.19,0.55,2.46,1.07,3.8,1.62
				c3.48,1.42,7.08,2.89,9.85,5.19c4.34,3.61,4.34,8.69,4.34,12.77v120.95h12.31c2.66,0,5.44,0.11,8.13,0.21
				c2.74,0.11,5.57,0.21,8.32,0.21c3.05,0,5.67-0.14,8-0.42c4.29-0.52,4.33-3.64,4.03-8.7c-0.06-0.99-0.12-2-0.12-2.98v-21.33
				c0-3.53,2.78-5.37,5.53-5.37c2.75,0,5.52,1.85,5.52,5.37v24.2c0,7.15,0,19.11-12.63,19.87c-4.45,0.26-9.33,0.39-14.94,0.39
				c-4.98,0-10.04-0.1-14.94-0.2c-3.04-0.06-6.07-0.12-9.1-0.16c0.18,7.16-0.03,17.99-10.74,19.23
				C60.02,196.06,59.56,196.08,59.1,196.08C59.1,196.08,59.1,196.08,59.1,196.08z M18.04,150.59c0,1.5-0.04,3.02-0.07,4.55
				c-0.07,2.99-0.15,6.07,0.07,9.02c0.26,3.61,2.51,4.56,5.92,5.98l0.96,0.4l28.61,12.26c0.48,0.21,1.01,0.48,1.56,0.76
				c1.16,0.61,2.48,1.29,3.46,1.29c0.5,0,1.07-0.15,1.55-1.28c0.81-1.92,0.48-5.39,0.19-8.45c-0.14-1.44-0.27-2.81-0.27-3.92V50.65
				c0-0.88,0.08-1.88,0.16-2.93c0.17-2.09,0.35-4.45-0.12-6.03c-0.65-2.18-4.44-3.61-7.2-4.65c-0.87-0.33-1.69-0.64-2.34-0.94
				L18.04,21.03V150.59z"/>
			<path class="st4" d="M103.63,7.86c8.4,0,17.53,0.88,18.17,11.71c0.62,10.38,0,20.96,0,31.36c0,2.91-2.27,4.37-4.53,4.37
				c-2.26,0-4.52-1.46-4.52-4.37c0-9.36,0-18.71,0-28.07c0-5.31-2.85-6.07-6.55-6.07c-1.49,0-3.12,0.12-4.76,0.12
				c-22.83,0-45.65,0-68.48,0c6.56,3.05,13.13,6.1,19.69,9.14c4.28,1.99,9.75,3.6,13.44,6.67c3.85,3.2,3.98,7.53,3.98,12
				c0,31.43,0,62.85,0,94.28c0,9.23,0,18.45,0,27.67c4.44,0,8.87,0,13.31,0c5.33,0,10.95,0.43,16.45,0.43
				c2.75,0,5.48-0.11,8.12-0.43c6.61-0.8,4.79-7.33,4.79-12.68c0-7.11,0-14.22,0-21.33c0-2.91,2.27-4.37,4.53-4.37
				c2.26,0,4.52,1.46,4.52,4.37c0,8.07,0,16.13,0,24.2c0,8.62-0.58,18.21-11.69,18.87c-4.93,0.29-9.9,0.39-14.88,0.39
				c-8.35,0-16.74-0.27-25.06-0.36c0.23,8.18,0.1,18.09-9.83,19.25c-0.41,0.05-0.82,0.07-1.24,0.07c-6.54,0-14.85-5.39-20.34-7.74
				c-7.75-3.32-15.98-6.18-23.47-10.06c-5.83-3.02-7.3-8.27-7.3-14.25c0-37.02,0-74.03,0-111.04c0-13.06,0-26.12,0-39.17
				c0-0.04,0-0.08,0-0.12c0-0.11,0-0.21,0-0.32c0-1.9,0.97-3.17,2.27-3.83c0.65-0.43,1.41-0.7,2.26-0.7c19.26,0,38.51,0,57.77,0
				C81.4,7.86,92.51,7.86,103.63,7.86 M58.54,185.87c1,0,1.88-0.49,2.47-1.9c1.31-3.12,0-9.32,0-12.76c0-25.32,0-50.65,0-75.97
				c0-14.86,0-29.72,0-44.59c0-2.66,0.77-6.67,0-9.25C59.99,38,53.73,36.5,50.93,35.2c-11.3-5.25-22.59-10.49-33.89-15.74
				c0,26.01,0,52.02,0,78.03c0,17.7,0,35.4,0,53.1c0,4.5-0.33,9.15,0,13.64c0.34,4.6,3.59,5.57,7.49,7.23
				c9.54,4.09,19.07,8.17,28.61,12.26C54.73,184.42,56.82,185.87,58.54,185.87 M103.63,5.86H70.28H12.51
				c-1.14,0-2.27,0.33-3.27,0.97c-2.07,1.1-3.26,3.12-3.26,5.56v0.29c0,0.06,0,0.12,0,0.18V52v111.04c0,5.01,0.87,12.13,8.38,16.02
				c5.09,2.64,10.54,4.82,15.81,6.93c2.58,1.03,5.24,2.1,7.8,3.19c1.39,0.6,3.02,1.42,4.74,2.29c5.2,2.63,11.1,5.61,16.39,5.61
				c0.5,0,1-0.03,1.47-0.08c11.02-1.28,11.75-12.04,11.65-19.21c2.7,0.04,5.41,0.09,8.06,0.14c4.9,0.1,9.97,0.19,14.96,0.19
				c5.63,0,10.53-0.13,15-0.39c13.57-0.81,13.57-13.36,13.57-20.86v-24.2c0-4.18-3.28-6.37-6.52-6.37c-1.66,0-3.23,0.56-4.42,1.58
				c-1.36,1.17-2.11,2.87-2.11,4.8V154c0,1.01,0.06,2.04,0.12,3.04c0.33,5.6-0.05,7.28-3.15,7.65c-2.29,0.28-4.87,0.41-7.88,0.41
				c-2.74,0-5.56-0.11-8.29-0.21c-2.7-0.1-5.49-0.21-8.17-0.21H72.06v-25.67V44.73c0-4.29,0-9.63-4.7-13.54
				c-2.88-2.4-6.56-3.9-10.11-5.35c-1.33-0.54-2.59-1.06-3.76-1.6l-9.85-4.57l-1.63-0.76h59.42c0.88,0,1.73-0.03,2.57-0.07
				c0.77-0.03,1.5-0.06,2.19-0.06c3.47,0,4.55,0.56,4.55,4.07v28.07c0,4.18,3.28,6.37,6.52,6.37c3.24,0,6.53-2.19,6.53-6.37
				c0-3.44,0.07-6.97,0.14-10.39c0.14-6.93,0.28-14.09-0.14-21.09C122.98,5.86,109.91,5.86,103.63,5.86L103.63,5.86z M58.54,183.87
				c-0.74,0-1.99-0.65-3-1.18c-0.54-0.28-1.09-0.57-1.62-0.8l-14.3-6.13l-14.31-6.13c-0.33-0.14-0.65-0.28-0.97-0.41
				c-3.62-1.52-5.1-2.25-5.31-5.13c-0.21-2.9-0.14-5.97-0.07-8.93c0.04-1.5,0.07-3.05,0.07-4.57v-53.1v-74.9l14.1,6.55l16.95,7.87
				c0.69,0.32,1.52,0.63,2.41,0.97c2.28,0.86,6.09,2.3,6.6,4c0.42,1.4,0.24,3.67,0.08,5.66c-0.09,1.07-0.17,2.09-0.17,3.01v44.59
				v75.97c0,1.16,0.13,2.55,0.27,4.02c0.26,2.8,0.59,6.28-0.11,7.97C58.89,183.87,58.7,183.87,58.54,183.87L58.54,183.87z"/>
		</g>
	</g>
</g>
</svg>
