<?xml version="1.0" encoding="utf-8"?>
<!-- Generator: Adobe Illustrator 24.1.1, SVG Export Plug-In . SVG Version: 6.00 Build 0)  -->
<svg version="1.1" id="레이어_1" xmlns="http://www.w3.org/2000/svg" xmlns:xlink="http://www.w3.org/1999/xlink" x="0px"
	 y="0px" viewBox="0 0 130 130" style="enable-background:new 0 0 130 130;" xml:space="preserve">
<style type="text/css">
	.st0{fill:#1D1D1B;}
	.st1{fill:#444444;}
	.st2{fill:#6CBFA5;}
	.st3{opacity:0.27;fill:#121211;}
	.st4{fill:#FFFFFF;}
</style>
<g>
	<text transform="matrix(1 0 0 1 153.0113 -179.0107)"><tspan x="0" y="0" style="fill:#262C3D; font-family:'SDGothicNeoc-fBd'; font-size:66.4996px;">professional</tspan><tspan x="85.11" y="72" style="fill:#262C3D; font-family:'SDGothicNeoc-fBd'; font-size:66.4996px;">line icon</tspan></text>
</g>
<g>
	<text transform="matrix(1 0 0 1 253.5091 -46.9002)" style="fill:#4B5C8F; font-family:'SDGothicNeoc-cRg'; font-size:34px;">contest exhibit</text>
</g>
<g>
	
		<text transform="matrix(1 0 0 1 -104.1098 -174.3469)" class="st4" style="font-family:'SDGdGothic'; font-size:129.8262px; letter-spacing:6;">12</text>
</g>
<g>
	<path class="st0" d="M114.73,223.79h-12.07l-7.58-16.97c-0.64-1.44-2.07-2.37-3.65-2.37H39.4c-1.58,0-3.01,0.93-3.65,2.37
		l-7.58,16.97H16.1c-5.7,0-10.34,4.64-10.34,10.34v63.99c0,5.7,4.64,10.34,10.34,10.34h66.64c2.21,0,4-1.79,4-4c0-2.21-1.79-4-4-4
		H16.1c-1.29,0-2.34-1.05-2.34-2.34v-63.99c0-1.29,1.05-2.34,2.34-2.34h14.66h69.31h14.66c1.29,0,2.34,1.05,2.34,2.34v63.99
		c0,1.29-1.05,2.34-2.34,2.34H75.06c-2.21,0-4,1.79-4,4c0,2.21,1.79,4,4,4h39.66c5.7,0,10.34-4.64,10.34-10.34v-63.99
		C125.07,228.43,120.43,223.79,114.73,223.79z M36.93,223.79l5.07-11.33h46.84l5.07,11.33H36.93z"/>
	<path class="st0" d="M66.22,238.23c-15.83,0-28.71,12.88-28.71,28.71s12.88,28.71,28.71,28.71c15.83,0,28.71-12.88,28.71-28.71
		S82.05,238.23,66.22,238.23z M66.22,288.45c-11.86,0-21.51-9.65-21.51-21.51c0-11.86,9.65-21.51,21.51-21.51
		c11.86,0,21.51,9.65,21.51,21.51C87.73,278.8,78.08,288.45,66.22,288.45z"/>
	<path class="st0" d="M66.22,250c-9.34,0-16.94,7.6-16.94,16.94c0,9.34,7.6,16.94,16.94,16.94c9.34,0,16.94-7.6,16.94-16.94
		C83.16,257.6,75.56,250,66.22,250z M66.22,276.67c-5.37,0-9.74-4.37-9.74-9.74c0-5.37,4.37-9.74,9.74-9.74
		c5.37,0,9.74,4.37,9.74,9.74C75.96,272.31,71.59,276.67,66.22,276.67z"/>
</g>
<g>
	<path class="st1" d="M320.32,48.45c0-23.05-18.75-41.8-41.8-41.8c-23.05,0-41.8,18.75-41.8,41.8c0,12.14,5.21,23.09,13.5,30.73
		c0,0.01,0,0.02,0,0.03v50.16c0,2.21,1.21,4.25,3.15,5.31c0.9,0.49,1.89,0.73,2.88,0.73c1.14,0,2.29-0.33,3.28-0.97l18.98-12.3
		l18.98,12.3c1.86,1.21,4.22,1.3,6.17,0.24c1.95-1.06,3.15-3.09,3.15-5.3V79.21c0-0.01,0-0.02,0-0.03
		C315.11,71.54,320.32,60.59,320.32,48.45z M244.71,48.45c0-18.64,15.16-33.8,33.8-33.8s33.8,15.16,33.8,33.8
		c0,18.64-15.16,33.8-33.8,33.8S244.71,67.09,244.71,48.45z M258.21,125.76V84.97c1.38,0.77,2.81,1.47,4.28,2.08v35.93
		L258.21,125.76z M276.34,114.01l-5.85,3.79V89.47c2.6,0.51,5.28,0.78,8.03,0.78c2.75,0,5.43-0.27,8.03-0.78v28.33l-5.85-3.79
		C279.37,113.15,277.66,113.15,276.34,114.01z M298.82,125.76l-4.28-2.77V87.05c1.47-0.61,2.9-1.31,4.28-2.08V125.76z"/>
	<path class="st1" d="M278.51,74.95c2.21,0,4-1.79,4-4c0-2.21-1.79-4-4-4c-10.2,0-18.5-8.3-18.5-18.5c0-10.2,8.3-18.5,18.5-18.5
		c10.2,0,18.5,8.3,18.5,18.5c0,2.47-0.48,4.86-1.42,7.11c-0.85,2.04,0.11,4.38,2.15,5.23c2.04,0.85,4.38-0.11,5.23-2.15
		c1.35-3.23,2.03-6.66,2.03-10.19c0-14.61-11.89-26.5-26.5-26.5s-26.5,11.89-26.5,26.5S263.9,74.95,278.51,74.95z"/>
</g>
<path class="st1" d="M492.62,6.95c-27.97,0-50.73,22.76-50.73,50.73v7.98v51.29c0,13.01,31.89,16.49,50.73,16.49
	c7.04,0,13.83-0.4,20.17-1.19c2.19-0.27,3.75-2.27,3.48-4.46c-0.27-2.19-2.27-3.74-4.46-3.48c-6.02,0.75-12.48,1.13-19.19,1.13
	c-25.84,0-41.47-5.56-42.73-8.58V75.26c10.69,5.24,29.79,6.88,42.73,6.88c3.31,0,7.02-0.11,10.89-0.36
	c0.37,1.13,0.58,2.31,0.62,3.51c0.1,3.08,0.72,8.95,4,10.46c4.5,2.09,1.44-13.69,4.75-13.68c4.04,0,4.25,14.75,6.19,18.43
	c2.67,5.08,6.1,2.29,4.81-14.01c-0.14-1.75-0.07-3.51,0.32-5.22c0.19-0.81,0.46-1.67,0.83-2.5c3.87-0.93,7.4-2.09,10.32-3.52v41.58
	c-0.14,0.25-1.1,1.68-5.65,3.45c-2.06,0.8-3.08,3.12-2.28,5.18c0.62,1.58,2.13,2.55,3.73,2.55c0.48,0,0.97-0.09,1.45-0.27
	c7.14-2.77,10.76-6.41,10.76-10.8V65.66v-7.98C543.35,29.71,520.59,6.95,492.62,6.95z M492.62,14.95
	c23.01,0,41.82,18.29,42.69,41.09c-10.7-5.23-29.76-6.86-42.69-6.86c-12.93,0-31.99,1.64-42.69,6.86
	C450.79,33.23,469.61,14.95,492.62,14.95z M492.62,74.14c-25.57,0-41.14-5.44-42.69-8.49c1.54-3.04,17.12-8.49,42.69-8.49
	c25.57,0,41.14,5.44,42.69,8.49C533.76,68.7,518.18,74.14,492.62,74.14z"/>
<path class="st1" d="M761.82,77.14h-8.5V28.51c0-5.11-4.15-9.26-9.26-9.26h-33.34V12.7c0-2.21-1.79-4-4-4c-2.21,0-4,1.79-4,4v6.55
	h-9.9c-2.21,0-4,1.79-4,4s1.79,4,4,4h51.24c0.7,0,1.26,0.57,1.26,1.26v48.63h-77.2V28.51c0-0.7,0.57-1.26,1.26-1.26h3.06
	c2.21,0,4-1.79,4-4s-1.79-4-4-4h-3.06c-5.11,0-9.26,4.15-9.26,9.26v48.63h-8.5c-2.21,0-4,1.79-4,4s1.79,4,4,4h30.11l-23.96,35.25
	c-1.24,1.83-0.77,4.32,1.06,5.56c0.69,0.47,1.47,0.69,2.24,0.69c1.28,0,2.54-0.61,3.31-1.75l26.98-39.7
	c0.01-0.02,0.02-0.03,0.03-0.05h11.33v29.3c0,2.21,1.79,4,4,4c2.21,0,4-1.79,4-4v-29.3h11.33c0.01,0.02,0.02,0.03,0.03,0.05
	l26.98,39.7c0.77,1.14,2.03,1.75,3.31,1.75c0.77,0,1.56-0.22,2.24-0.69c1.83-1.24,2.3-3.73,1.06-5.56l-23.96-35.25h30.11
	c2.21,0,4-1.79,4-4S764.03,77.14,761.82,77.14z"/>
<g>
	
		<text transform="matrix(0.71 0 0 0.75 272.073 282.5553)" class="st1" style="font-family:'SDGothicNeoRound-iHv'; font-size:54.49px;">!</text>
</g>
<g>
	<path class="st1" d="M279.1,222c-11.31-0.1-22.04,4.18-30.22,12.21c-8.17,8.02-12.71,18.67-12.76,29.97
		c-0.05,9.86,3.36,19.47,9.6,27.08c4.84,5.9,7.5,13.43,7.5,21.2v0.59c0,2.21,1.79,4,4,4h18.69c2.21,0,4-1.79,4-4c0-2.21-1.79-4-4-4
		h-14.83c-0.68-8.39-3.88-16.41-9.18-22.86c-5.06-6.17-7.82-13.97-7.78-21.97c0.05-9.15,3.73-17.78,10.37-24.3
		c6.64-6.52,15.34-10.09,24.51-9.92c18.71,0.25,33.92,15.68,33.92,34.4c0,7.91-2.75,15.64-7.75,21.75
		c-5.31,6.49-8.52,14.52-9.2,22.9h-1.89c-2.21,0-4,1.79-4,4c0,2.21,1.79,4,4,4h5.75c2.21,0,4-1.79,4-4v-0.59
		c0-7.76,2.68-15.3,7.54-21.25c6.17-7.54,9.56-17.06,9.56-26.82C320.91,241.33,302.16,222.31,279.1,222z"/>
	<path class="st1" d="M300.21,320.2h-43.39c-2.21,0-4,1.79-4,4c0,2.21,1.79,4,4,4h43.39c2.21,0,4-1.79,4-4
		C304.21,321.99,302.42,320.2,300.21,320.2z"/>
	<path class="st1" d="M295.45,330.15h-33.87c-2.21,0-4,1.79-4,4c0,2.21,1.79,4,4,4h33.87c2.21,0,4-1.79,4-4
		C299.45,331.94,297.66,330.15,295.45,330.15z"/>
	<path class="st1" d="M289.98,340.1h-22.94c-2.21,0-4,1.79-4,4c0,2.21,1.79,4,4,4h22.94c2.21,0,4-1.79,4-4
		C293.98,341.89,292.19,340.1,289.98,340.1z"/>
	<path class="st1" d="M278.21,356.97h0.6c3.45,0,6.24-2.8,6.24-6.24h-13.09C271.97,354.18,274.77,356.97,278.21,356.97z"/>
</g>
<g>
	<path class="st1" d="M497.49,280.19c0.37-0.73,0.58-1.56,0.58-2.43c0-0.72-0.14-1.4-0.39-2.03h18.18c5.7,0,10.34-4.64,10.34-10.34
		v-28.93c0-5.7-4.64-10.34-10.34-10.34h-46.47c-5.7,0-10.34,4.64-10.34,10.34v28.93c0,5.7,4.64,10.34,10.34,10.34h18.18
		c-0.25,0.63-0.39,1.31-0.39,2.03c0,0.87,0.21,1.7,0.58,2.43c-18.89,2.4-33.55,18.57-33.55,38.1c0,21.19,17.24,38.42,38.42,38.42
		c2.21,0,4-1.79,4-4c0-2.21-1.79-4-4-4c-16.77,0-30.42-13.65-30.42-30.42c0-16.77,13.65-30.42,30.42-30.42
		c16.77,0,30.42,13.65,30.42,30.42c0,9.77-4.75,19.02-12.7,24.73c-1.79,1.29-2.21,3.79-0.92,5.58c1.29,1.79,3.79,2.2,5.58,0.92
		c10.04-7.21,16.03-18.88,16.03-31.23C531.04,298.76,516.38,282.59,497.49,280.19z M481.24,267.73v-33.61h22.75v33.61H481.24z
		 M518.19,236.45v28.93c0,1.29-1.05,2.34-2.34,2.34h-3.86v-33.61h3.86C517.14,234.11,518.19,235.16,518.19,236.45z M467.04,265.39
		v-28.93c0-1.29,1.05-2.34,2.34-2.34h3.86v33.61h-3.86C468.09,267.73,467.04,266.68,467.04,265.39z"/>
	<path class="st1" d="M517.3,318.29c0-13.61-11.07-24.69-24.69-24.69c-13.61,0-24.69,11.07-24.69,24.69
		c0,13.61,11.07,24.69,24.69,24.69C506.23,342.98,517.3,331.9,517.3,318.29z M492.62,334.98c-9.2,0-16.69-7.49-16.69-16.69
		c0-9.2,7.49-16.69,16.69-16.69c9.2,0,16.69,7.49,16.69,16.69C509.3,327.49,501.82,334.98,492.62,334.98z"/>
</g>
<g>
	<path class="st1" d="M752.07,240.11c0-5.7-4.64-10.34-10.34-10.34h-45.16c-2.21,0-4,1.79-4,4c0,2.21,1.79,4,4,4h45.16
		c1.29,0,2.34,1.05,2.34,2.34v57.62h-28.37c-5.7,0-10.34,4.64-10.34,10.34v28.37h-33.65c-1.29,0-2.34-1.05-2.34-2.34v-93.99
		c0-1.29,1.05-2.34,2.34-2.34h4.53c2.21,0,4-1.79,4-4c0-2.21-1.79-4-4-4h-4.53c-5.7,0-10.34,4.64-10.34,10.34v93.99
		c0,5.7,4.64,10.34,10.34,10.34h37.65c0.02,0,0.04-0.01,0.06-0.01c0.24,0,0.48-0.02,0.72-0.07c0.1-0.02,0.19-0.06,0.29-0.09
		c0.15-0.04,0.31-0.08,0.46-0.14c0.1-0.04,0.19-0.1,0.28-0.15c0.14-0.07,0.28-0.13,0.41-0.22c0.22-0.15,0.42-0.31,0.61-0.5
		l38.71-38.71c0.17-0.17,0.32-0.36,0.45-0.55c0.04-0.06,0.07-0.11,0.11-0.17c0.09-0.15,0.18-0.31,0.25-0.47
		c0.03-0.06,0.06-0.12,0.08-0.18c0.08-0.22,0.16-0.44,0.2-0.66c0,0,0-0.01,0-0.01c0.05-0.23,0.06-0.47,0.07-0.7
		c0-0.03,0.01-0.05,0.01-0.08V240.11z M715.69,305.74h22.72l-25.06,25.05v-22.71C713.35,306.78,714.4,305.74,715.69,305.74z"/>
	<path class="st1" d="M675.88,257.1c-1.56,1.56-1.56,4.09,0,5.66l9.58,9.58c0.78,0.78,1.8,1.17,2.83,1.17
		c0.98,0,1.97-0.36,2.74-1.09l22.25-20.92c1.61-1.51,1.69-4.04,0.17-5.65c-1.51-1.61-4.04-1.69-5.65-0.17l-19.42,18.26l-6.84-6.84
		C679.98,255.54,677.44,255.54,675.88,257.1z"/>
	<path class="st1" d="M707.8,277.9l-19.42,18.26l-6.84-6.84c-1.56-1.56-4.1-1.56-5.66,0c-1.56,1.56-1.56,4.09,0,5.66l9.58,9.58
		c0.78,0.78,1.8,1.17,2.83,1.17c0.98,0,1.97-0.36,2.74-1.09l22.25-20.92c1.61-1.51,1.69-4.04,0.17-5.65
		C711.94,276.47,709.41,276.39,707.8,277.9z"/>
</g>
<g>
	<path class="st1" d="M103.73,451.11H25.1c-5.7,0-10.34,4.64-10.34,10.34v81.33c0,5.7,4.64,10.34,10.34,10.34h52.3
		c2.21,0,4-1.79,4-4s-1.79-4-4-4H25.1c-1.29,0-2.34-1.05-2.34-2.34v-81.33c0-1.29,1.05-2.34,2.34-2.34h78.63
		c1.29,0,2.34,1.05,2.34,2.34v81.33c0,1.29-1.05,2.34-2.34,2.34h-4.16c-2.21,0-4,1.79-4,4s1.79,4,4,4h4.16
		c5.7,0,10.34-4.64,10.34-10.34v-81.33C114.07,455.74,109.43,451.11,103.73,451.11z"/>
	<path class="st1" d="M100.4,521.45v-52.27c0-2.21-1.79-4-4-4H32.43c-2.21,0-4,1.79-4,4v52.27c0,2.21,1.79,4,4,4H96.4
		C98.61,525.45,100.4,523.66,100.4,521.45z M92.4,473.18v15.09l-6.67-8.6c-0.77-1-1.97-1.61-3.23-1.55
		c-1.26,0.02-2.44,0.64-3.17,1.66l-16.54,23.01L48.6,489.83c-1.41-1.29-3.54-1.4-5.08-0.26l-7.09,5.26v-21.65H92.4z M36.43,517.45
		v-12.65l9.21-6.83l15.07,13.77c0.74,0.68,1.71,1.05,2.7,1.05c0.14,0,0.28-0.01,0.41-0.02c1.14-0.12,2.17-0.72,2.83-1.64
		l16.04-22.32l9.71,12.52v16.13H36.43z"/>
	<path class="st1" d="M68.23,541.45H96.4c2.21,0,4-1.79,4-4s-1.79-4-4-4H68.23c-2.21,0-4,1.79-4,4S66.02,541.45,68.23,541.45z"/>
</g>
<g>
	
		<text transform="matrix(0.71 0 0 0.75 267.5122 514.5069)" class="st1" style="font-family:'SDGothicNeoRound-iHv'; font-size:62.8183px;">?</text>
</g>
<g>
	<path class="st1" d="M321.06,499.04c0-22.86-18.6-41.46-41.46-41.46c-22.86,0-41.46,18.6-41.46,41.46
		c0,22.86,18.6,41.46,41.46,41.46C302.46,540.5,321.06,521.9,321.06,499.04z M279.6,532.5c-18.45,0-33.46-15.01-33.46-33.46
		c0-18.45,15.01-33.46,33.46-33.46c18.45,0,33.46,15.01,33.46,33.46C313.06,517.49,298.05,532.5,279.6,532.5z"/>
	<path class="st1" d="M279.6,443.93c-30.39,0-55.11,24.72-55.11,55.11c0,10.75,3.08,21.1,8.92,30.05l-9.94,25.77
		c-0.57,1.48-0.21,3.17,0.92,4.29c0.76,0.75,1.78,1.15,2.81,1.15c0.5,0,1-0.09,1.48-0.29l27.59-11.04
		c7.33,3.44,15.16,5.18,23.31,5.18c2.21,0,4-1.79,4-4c0-2.21-1.79-4-4-4c-7.5,0-14.68-1.72-21.35-5.12
		c-1.14-0.58-2.43-0.57-3.52-0.05l-20.49,8.2l7.22-18.71c0.69-1.3,0.62-2.92-0.28-4.18c-5.69-8-8.69-17.42-8.69-27.25
		c0-25.98,21.13-47.11,47.11-47.11c25.98,0,47.11,21.13,47.11,47.11c0,17.29-9.45,33.16-24.66,41.43c-1.94,1.05-2.66,3.48-1.61,5.42
		c1.05,1.94,3.48,2.66,5.42,1.61c17.79-9.66,28.84-28.23,28.84-48.46C334.71,468.65,309.99,443.93,279.6,443.93z"/>
</g>
<g>
	<path class="st1" d="M538.73,460.44h-6.59v-6.26c0-2.49-2.01-4.5-4.5-4.5c-2.49,0-4.5,2.01-4.5,4.5v6.26H462.3v-6.26
		c0-2.49-2.01-4.5-4.5-4.5c-2.49,0-4.5,2.01-4.5,4.5v6.26h-6.79c-5.7,0-10.34,4.64-10.34,10.34v62.66c0,5.7,4.64,10.34,10.34,10.34
		h92.22c5.7,0,10.34-4.64,10.34-10.34v-62.66C549.07,465.08,544.43,460.44,538.73,460.44z M446.5,468.44h6.79v6.41
		c0,2.49,2.01,4.5,4.5,4.5c2.49,0,4.5-2.01,4.5-4.5v-6.41h60.83v6.41c0,2.49,2.01,4.5,4.5,4.5c2.49,0,4.5-2.01,4.5-4.5v-6.41h6.59
		c1.29,0,2.34,1.05,2.34,2.34v12.17h-96.9v-12.17C444.16,469.49,445.21,468.44,446.5,468.44z M538.73,535.78H446.5
		c-1.29,0-2.34-1.05-2.34-2.34v-42.49h96.9v42.49C541.07,534.73,540.02,535.78,538.73,535.78z"/>
	<rect x="457.33" y="499.91" class="st1" width="9.07" height="9.07"/>
	<rect x="477.83" y="499.91" class="st1" width="9.07" height="9.07"/>
	<rect x="498.33" y="499.91" class="st1" width="9.07" height="9.07"/>
	<rect x="518.83" y="499.91" class="st1" width="9.07" height="9.07"/>
	<rect x="457.33" y="517.25" class="st1" width="9.07" height="9.07"/>
	<rect x="477.83" y="517.25" class="st1" width="9.07" height="9.07"/>
	<rect x="498.33" y="517.25" class="st1" width="9.07" height="9.07"/>
	<rect x="518.83" y="517.25" class="st1" width="9.07" height="9.07"/>
</g>
<g>
	<path class="st1" d="M754.66,454.73c-14.08-14.08-36.99-14.08-51.07,0c-13.12,13.12-14.01,33.91-2.67,48.08l-7.01,7.01l-6.06-6.06
		c-0.75-0.75-1.77-1.17-2.83-1.17c-1.06,0-2.08,0.42-2.83,1.17l-31.75,31.76c-1.56,1.56-1.56,4.09,0,5.66l17.77,17.77
		c0.78,0.78,1.8,1.17,2.83,1.17c1.02,0,2.05-0.39,2.83-1.17l8.78-8.78c1.56-1.56,1.56-4.09,0-5.66c-1.56-1.56-4.1-1.56-5.66,0
		l-5.95,5.95l-12.11-12.11l16.72-16.72l14.94,14.94c0.78,0.78,1.8,1.17,2.83,1.17l0,0c1.02,0,2.05-0.39,2.83-1.17l9.38-9.38
		c0.75-0.75,1.17-1.77,1.17-2.83c0-1.06-0.42-2.08-1.17-2.83l-6.06-6.06l7.01-7.01c6.57,5.26,14.55,7.89,22.55,7.89
		c9.25,0,18.49-3.52,25.53-10.56C768.74,491.71,768.74,468.81,754.66,454.73z M685.03,512.24l12.11,12.11l-3.72,3.72l-12.11-12.11
		L685.03,512.24z M749,500.14c-10.96,10.96-28.79,10.96-39.76,0c-10.96-10.96-10.96-28.79,0-39.75c5.48-5.48,12.68-8.22,19.88-8.22
		c7.2,0,14.4,2.74,19.88,8.22C759.96,471.34,759.96,489.18,749,500.14z"/>
	<path class="st1" d="M740.87,492c-3.14,3.14-7.31,4.86-11.74,4.86c-4.44,0-8.61-1.73-11.74-4.86c-1.56-1.56-4.09-1.56-5.66,0
		c-1.56,1.56-1.56,4.09,0,5.66c4.65,4.65,10.83,7.21,17.4,7.21c6.57,0,12.75-2.56,17.4-7.21c1.56-1.56,1.56-4.09,0-5.66
		C744.96,490.44,742.43,490.44,740.87,492z"/>
</g>
<g>
	<path class="st2" d="M273.81,156.94h-98.23c-5.8,0-10.51,4.68-10.51,10.44v82.13c0,5.76,4.72,10.44,10.51,10.44h53.16
		c2.25,0,4.07-1.81,4.07-4.04c0-2.23-1.82-4.04-4.07-4.04h-53.16c-1.31,0-2.38-1.06-2.38-2.36v-82.13c0-1.3,1.07-2.36,2.38-2.36
		h98.23c1.31,0,2.38,1.06,2.38,2.36v82.13c0,1.3-1.07,2.36-2.38,2.36h-55.06c-2.25,0-4.07,1.81-4.07,4.04
		c0,2.23,1.82,4.04,4.07,4.04h55.06c5.8,0,10.51-4.68,10.51-10.44v-82.13C284.32,161.63,279.6,156.94,273.81,156.94z"/>
	<path class="st2" d="M270.43,227.97v-52.78c0-2.23-1.82-4.04-4.07-4.04h-83.34c-2.25,0-4.07,1.81-4.07,4.04v52.78
		c0,2.23,1.82,4.04,4.07,4.04h83.34C268.6,232.01,270.43,230.2,270.43,227.97z M262.29,179.23v25.33l-21.02-18.79
		c-0.79-1.01-2-1.62-3.29-1.56c-1.28,0.02-2.48,0.65-3.23,1.68l-20.88,23.24l-13.4-13.09c-1.44-1.3-3.6-1.42-5.17-0.26l-8.22,9.35
		v-25.91H262.29z M187.09,223.93v-6.72l10.38-12.96l14.3,13.91c0.75,0.68,1.73,1.06,2.74,1.06c0.14,0,0.28-0.01,0.42-0.02
		c1.16-0.12,2.2-0.72,2.88-1.66L238.19,195l24.11,19.71v9.22H187.09z"/>
</g>
<rect class="st3" width="130" height="130"/>
<rect x="19.74" y="62.26" transform="matrix(0.7071 -0.7071 0.7071 0.7071 -27.0548 64.946)" class="st4" width="90.26" height="5.74"/>
<rect x="19.74" y="62.26" transform="matrix(0.7071 0.7071 -0.7071 0.7071 65.0544 -26.7931)" class="st4" width="90.26" height="5.74"/>
</svg>
