<?xml version="1.0" encoding="utf-8"?>
<!-- Generator: Adobe Illustrator 24.2.1, SVG Export Plug-In . SVG Version: 6.00 Build 0)  -->
<svg version="1.1" id="Layer_1" xmlns="http://www.w3.org/2000/svg" xmlns:xlink="http://www.w3.org/1999/xlink" x="0px" y="0px"
	 viewBox="0 0 57.4 53.3" style="enable-background:new 0 0 57.4 53.3;" xml:space="preserve">
<style type="text/css">
	.st0{fill:#2A84FF;}
</style>
<path class="st0" d="M55.9,23.7L39.7,2.5c-0.9-1.2-2.3-1.9-3.8-1.9h0c-4,0-6.2,4.5-3.8,7.7l4.4,5.8l0,0l6.1,8H5.2
	c-2.5,0-4.4,2-4.4,4.5c0,2.6,2.1,4.8,4.8,4.8h27.3h9.7l-8.2,10.7l-2.3,3c-2.4,3.2-0.2,7.7,3.8,7.7c1.5,0,2.9-0.7,3.8-1.9l16.3-21.4
	C57.3,27.8,57.3,25.5,55.9,23.7z"/>
</svg>
