<?xml version="1.0" encoding="utf-8"?>
<!-- Generator: Adobe Illustrator 24.2.1, SVG Export Plug-In . SVG Version: 6.00 Build 0)  -->
<svg version="1.1" id="Layer_1" xmlns="http://www.w3.org/2000/svg" xmlns:xlink="http://www.w3.org/1999/xlink" x="0px" y="0px"
	 viewBox="0 0 112.3 77.7" style="enable-background:new 0 0 112.3 77.7;" xml:space="preserve">
<style type="text/css">
	.st0{fill:#2A84FF;}
	.st1{fill:#FFFFFF;}
</style>
<path class="st0" d="M73.4,77.7H38.9C17.4,77.7,0,60.3,0,38.9v0C0,17.4,17.4,0,38.9,0l34.6,0c21.5,0,38.9,17.4,38.9,38.9v0
	C112.3,60.3,94.9,77.7,73.4,77.7z"/>
<path class="st1" d="M75.7,41.3c0-0.1,0.1-0.1,0.1-0.2c0-0.1,0.1-0.1,0.1-0.2c0-0.1,0.1-0.1,0.1-0.2c0-0.1,0.1-0.1,0.1-0.2
	c0-0.1,0.1-0.1,0.1-0.2c0-0.1,0-0.1,0.1-0.2c0-0.1,0-0.1,0.1-0.2c0-0.1,0-0.1,0-0.2c0-0.1,0-0.1,0-0.2c0-0.1,0-0.1,0-0.2
	c0-0.1,0-0.1,0-0.2c0-0.3,0-0.5,0-0.8c0-0.1,0-0.1,0-0.2c0-0.1,0-0.1,0-0.2c0,0,0,0,0,0c0-0.1,0-0.1,0-0.2c0-0.1,0-0.1,0-0.2
	c0-0.1,0-0.1-0.1-0.2c0-0.1,0-0.1-0.1-0.2c0-0.1-0.1-0.1-0.1-0.2c0-0.1-0.1-0.1-0.1-0.2c0-0.1-0.1-0.1-0.1-0.2
	c0-0.1-0.1-0.1-0.1-0.2c0,0,0,0,0,0c0-0.1-0.1-0.1-0.1-0.2c0,0-0.1-0.1-0.1-0.1c0,0,0,0,0,0c-0.1-0.1-0.2-0.2-0.3-0.3L61.3,22
	c-1.6-1.6-4.1-1.6-5.7,0v0c-1.6,1.6-1.6,4.1,0,5.7l7.2,7.2H39c-2.2,0-4,1.8-4,4c0,2.2,1.8,4,4,4h23.7l-7.2,7.2
	c-1.6,1.6-1.6,4.1,0,5.7c1.6,1.6,4.1,1.6,5.7,0l14.1-14.1c0.1-0.1,0.2-0.2,0.3-0.3C75.7,41.4,75.7,41.3,75.7,41.3z"/>
</svg>
