<?xml version="1.0" encoding="utf-8"?>
<!-- Generator: Adobe Illustrator 24.2.1, SVG Export Plug-In . SVG Version: 6.00 Build 0)  -->
<svg version="1.1" id="Layer_1" xmlns="http://www.w3.org/2000/svg" xmlns:xlink="http://www.w3.org/1999/xlink" x="0px" y="0px"
	 viewBox="0 0 165.3 165.3" style="enable-background:new 0 0 165.3 165.3;" xml:space="preserve">
<style type="text/css">
	.st0{fill:#CCCCCC;}
</style>
<path class="st0" d="M109.2,91.4L42,24.2C37,19.3,37,11.3,42,6.4l0,0c4.9-4.9,12.9-4.9,17.9,0l67.2,67.2c4.9,4.9,4.9,12.9,0,17.9
	l0,0C122.1,96.4,114.1,96.4,109.2,91.4z"/>
<path class="st0" d="M109.2,73.8L42,141C37,146,37,154,42,158.9l0,0c4.9,4.9,12.9,4.9,17.9,0l67.2-67.2c4.9-4.9,4.9-12.9,0-17.9l0,0
	C122.1,68.9,114.1,68.9,109.2,73.8z"/>
</svg>
