<?xml version="1.0" encoding="utf-8"?>
<!-- Generator: Adobe Illustrator 25.2.2, SVG Export Plug-In . SVG Version: 6.00 Build 0)  -->
<svg version="1.1" id="Layer_1" xmlns="http://www.w3.org/2000/svg" xmlns:xlink="http://www.w3.org/1999/xlink" x="0px" y="0px"
	 viewBox="0 0 170.1 170.1" style="enable-background:new 0 0 170.1 170.1;" xml:space="preserve">
<style type="text/css">
	.st0{fill:#3B93FF;}
</style>
<path class="st0" d="M165.6,90.8c0.1-0.1,0.2-0.2,0.3-0.4c0.1-0.1,0.2-0.2,0.2-0.4c0.1-0.1,0.1-0.2,0.2-0.4c0.1-0.1,0.1-0.2,0.2-0.4
	c0.1-0.1,0.1-0.2,0.2-0.4c0.1-0.1,0.1-0.2,0.1-0.4c0.1-0.1,0.1-0.2,0.1-0.4c0.1-0.1,0.1-0.2,0.1-0.4c0.1-0.1,0.1-0.3,0.1-0.4
	c0-0.2,0.1-0.3,0.1-0.5c0-0.1,0.1-0.2,0.1-0.4c0.1-0.5,0.1-1.1,0-1.7c0-0.1-0.1-0.2-0.1-0.4c0-0.1-0.1-0.3-0.1-0.4c0,0,0,0,0-0.1
	c0-0.1-0.1-0.3-0.1-0.4c-0.1-0.1-0.1-0.2-0.1-0.4c-0.1-0.1-0.1-0.3-0.1-0.4c-0.1-0.1-0.1-0.2-0.1-0.4c-0.1-0.1-0.1-0.2-0.2-0.4
	c-0.1-0.1-0.1-0.2-0.2-0.4c-0.1-0.1-0.1-0.2-0.2-0.4c-0.1-0.1-0.1-0.2-0.2-0.4c0,0,0,0-0.1-0.1c-0.1-0.1-0.2-0.2-0.3-0.4
	c-0.1-0.1-0.1-0.2-0.2-0.3l0,0c-0.2-0.2-0.4-0.4-0.6-0.7l-47.9-47.9c-3.3-3.3-8.8-3.3-12.1,0l0,0c-3.3,3.3-3.3,8.8,0,12.1L138.1,77
	H13.4c-4.7,0-8.5,3.8-8.5,8.5c-0.1,4.8,3.8,8.6,8.5,8.6h124.7l-33,33c-3.2,3.2-3.6,8.5-0.6,11.9c3.3,3.7,9,3.9,12.5,0.4l47.8-47.8
	c0.2-0.2,0.4-0.4,0.6-0.7C165.4,91,165.5,90.8,165.6,90.8z"/>
</svg>
