<?xml version="1.0" encoding="utf-8"?>
<!-- Generator: Adobe Illustrator 24.2.1, SVG Export Plug-In . SVG Version: 6.00 Build 0)  -->
<svg version="1.1" id="Layer_1" xmlns="http://www.w3.org/2000/svg" xmlns:xlink="http://www.w3.org/1999/xlink" x="0px" y="0px"
	 viewBox="0 0 128.9 117.4" style="enable-background:new 0 0 128.9 117.4;" xml:space="preserve">
<style type="text/css">
	.st0{fill:#2A84FF;}
</style>
<g>
	<path class="st0" d="M120.9,12.3h-15.5V9.4c0-2.2-1.8-4-4-4c-2.2,0-4,1.8-4,4v2.9H81V9.4c0-2.2-1.8-4-4-4s-4,1.8-4,4v2.9H56.7V9.4
		c0-2.2-1.8-4-4-4s-4,1.8-4,4v2.9H32.4V9.4c0-2.2-1.8-4-4-4s-4,1.8-4,4v2.9H8.9c-2.6,0-4.6,2.1-4.6,4.6v15.7c0,2.5,1.9,4.4,4.3,4.6
		v67.5c0,4.4,3.6,8.1,8.1,8.1h96.5c4.4,0,8.1-3.6,8.1-8.1V37.2c2.4-0.2,4.3-2.2,4.3-4.6V16.9C125.5,14.4,123.4,12.3,120.9,12.3z
		 M11.2,19.3h13.2v1.9c0,2.2,1.8,4,4,4s4-1.8,4-4v-1.9h16.3v1.9c0,2.2,1.8,4,4,4s4-1.8,4-4v-1.9H73v1.9c0,2.2,1.8,4,4,4s4-1.8,4-4
		v-1.9h16.3v1.9c0,2.2,1.8,4,4,4c2.2,0,4-1.8,4-4v-1.9h13.2v10.9H11.2V19.3z M113.1,105.8H16.6c-0.6,0-1.1-0.5-1.1-1.1V37.2h98.6
		v67.5C114.2,105.3,113.7,105.8,113.1,105.8z"/>
	<path class="st0" d="M59.4,84.6h-13l5.3-5.4c5.1-5.3,9.5-10,9.5-16.7c0-7-5.1-11.7-12.9-11.7c-5.7,0-11.8,3.5-11.8,7.2
		c0,1.7,1.6,3.2,3.4,3.2c1.1-0.1,1.9-0.7,2.7-1.5c1.4-1.3,2.8-2.8,5.4-2.8c3.3,0,5.8,2.2,5.8,5.9c0,6.6-6.2,11.8-14.6,20.1
		c-1.2,1.2-2.6,2.6-2.6,4.8c0,2.3,1.7,3.2,4.2,3.2h18.7c1.8,0,2.7-1.5,2.7-3C62.1,86.2,61.1,84.6,59.4,84.6z"/>
	<path class="st0" d="M80.9,66.3c-1.6,0-3.8,0.5-5,1.1v-9.6h13.1c1.8,0,2.7-1.5,2.7-3c0-1.7-0.9-3.2-2.7-3.2H74.8
		c-3.5,0-5.1,0.9-5.1,4.5v14.7c0,3.5,3.4,3.6,4.8,2.6c1.3-0.8,3-1.4,4.5-1.4c4.9,0,7.4,2.5,7.4,6.7c0,3.9-2.6,6.7-6.5,6.7
		c-2.7,0-4.5-1.2-5.9-3c-2.4-3.3-7.5-0.1-5.6,3.4c2.1,3.5,6,5.8,11.6,5.8c8.1,0,13.5-5.8,13.5-13.1C93.3,70.4,87.8,66.3,80.9,66.3z"
		/>
</g>
</svg>
