<?xml version="1.0" encoding="utf-8"?>
<!-- Generator: Adobe Illustrator 25.2.2, SVG Export Plug-In . SVG Version: 6.00 Build 0)  -->
<svg version="1.1" id="Layer_1" xmlns="http://www.w3.org/2000/svg" xmlns:xlink="http://www.w3.org/1999/xlink" x="0px" y="0px"
	 viewBox="0 0 51.7 49.3" style="enable-background:new 0 0 51.7 49.3;" xml:space="preserve">
<style type="text/css">
	.st0{fill:#FFFFFF;}
	.st1{fill:#3B93FF;}
</style>
<path class="st0" d="M112.4,14.5c0.5,0.1,1-0.2,1.1-0.6c0.1-0.5-0.2-1-0.6-1.1L98.9,9c-0.5-0.1-1,0.2-1.1,0.6
	c-0.1,0.5,0.2,1,0.6,1.1L112.4,14.5z M96.2,13.6c-0.1,0.5,0.1,1,0.6,1.1l13.9,4c0.5,0.1,1-0.1,1.1-0.6s-0.1-1-0.6-1.1l-13.9-4
	C96.8,12.8,96.3,13.1,96.2,13.6z M111.9,34.3l9.6-26.7L121,6.5L95.2,1.2l-1,0.5l-7.4,19.5c0,0-0.5,1.6,0.6,2.2c0,0,1.3,0.3,1.8-0.9
	l7-17.9l21.2,4.8l-7.4,21c0,0-2.2,8.7-6.9,7.8c0,0-6.3-0.7-5.5-8.3l-18.3-6l-0.7,0.3c0,0-1.5,6.5,2.8,9l17.1,7.9
	C98.5,41.1,108,44.7,111.9,34.3z M94.6,17.6c-0.1,0.5,0.1,1,0.6,1.1l13.9,4.1c0.5,0.1,1-0.1,1.1-0.6s-0.1-1-0.6-1.1L95.8,17
	C95.3,16.8,94.8,17.1,94.6,17.6z M118.1,34.8c-0.7-0.2-1.5,0.2-1.7,0.9c-0.2,0.5-3.8,11.1-16.4,9.7c-0.7-0.1-1.4,0.4-1.5,1.2
	c-0.1,0.7,0.4,1.4,1.2,1.5c14.8,1.8,19.2-11.4,19.3-11.5C119.2,35.8,118.8,35,118.1,34.8z"/>
<path class="st1" d="M49.1,16.4L27.6,1.8c-0.9-0.6-2.5-0.6-3.4,0L2.6,16.4c-0.7,0.3-1.3,1.1-1.3,1.9v21.1c0,1.2,1,2.1,2.1,2.1h44.7
	c1.2,0,2.1-1,2.1-2.1V18.3C50.3,17.5,49.8,16.7,49.1,16.4z M46.2,20.2L27.3,32.3c-0.9,0.6-2.3,0.6-3.1,0l-18.7-12v-2.4h40.8
	L46.2,20.2L46.2,20.2z"/>
<path class="st0" d="M-29.6,64.8c-1.9-0.6-3.8-0.9-5.9-0.9c-0.9,0-1.6,0.7-1.6,1.6c0,0.1,0,0.2,0,0.3c0.1,0.7,0.8,1.2,1.5,1.2
	c5.8,0,10.9,2.9,13.9,7.4c1.8,2.7,2.9,5.9,2.9,9.3c0,0.9,0.7,1.6,1.6,1.6c0.2,0,0.4,0,0.6-0.1c0.6-0.2,1-0.8,1-1.4l0,0l0,0
	C-15.7,74.9-21.6,67.4-29.6,64.8z M-45.7,93.5C-39.9,99.3-33,104-28.8,104c3.1,0,6.4-2,8.5-3.6l0.2-0.1c0.5-0.4,0.8-1,0.8-1.6
	s-0.3-1.2-0.7-1.6l-8.6-7.1c-0.4-0.3-0.8-0.6-1.4-0.6c-0.5,0-1,0.2-1.4,0.6l-1.4,1.4c-0.9,0.9-2.3,0.9-3.1,0l-3.9-3.9l-3.9-3.9
	c-0.9-0.9-0.9-2.3,0-3.1l1.4-1.4c0.4-0.4,0.6-0.9,0.6-1.4s-0.2-1-0.6-1.4l-7.1-8.6c-0.4-0.4-0.9-0.7-1.6-0.7c-0.7,0-1.2,0.3-1.6,0.8
	l-0.1,0.2c-1.5,2.1-3.6,5.4-3.6,8.5C-56.3,80.8-51.4,87.8-45.7,93.5L-45.7,93.5 M-35.5,57.1c-0.9,0-1.6,0.7-1.6,1.6
	c0,0.9,0.7,1.6,1.6,1.6c13,0,23.6,10.6,23.6,23.6c0,0.9,0.7,1.6,1.6,1.6c0.9,0,1.6-0.7,1.6-1.6C-8.8,69.1-20.8,57.1-35.5,57.1z
	 M-25.8,83.8c0,0.9,0.7,1.6,1.6,1.6s1.6-0.7,1.6-1.6c0-7-5.7-12.8-12.8-12.8c-0.9,0-1.6,0.7-1.6,1.6s0.7,1.6,1.6,1.6
	C-30.2,74.1-25.8,78.5-25.8,83.8z"/>
</svg>
