<?xml version="1.0" encoding="utf-8"?>
<!-- Generator: Adobe Illustrator 24.2.3, SVG Export Plug-In . SVG Version: 6.00 Build 0)  -->
<svg version="1.1" id="Layer_1" xmlns="http://www.w3.org/2000/svg" xmlns:xlink="http://www.w3.org/1999/xlink" x="0px" y="0px"
	 viewBox="0 0 51.7 49.3" style="enable-background:new 0 0 51.7 49.3;" xml:space="preserve">
<style type="text/css">
	.st0{fill:#FFFFFF;}
</style>
<path class="st0" d="M146.7,31.3c0.5,0.1,1-0.2,1.1-0.6c0.1-0.5-0.2-1-0.6-1.1l-14-3.7c-0.5-0.1-1,0.2-1.1,0.6
	c-0.1,0.5,0.2,1,0.6,1.1L146.7,31.3z M130.5,30.4c-0.1,0.5,0.1,1,0.6,1.1l13.9,4c0.5,0.1,1-0.1,1.1-0.6c0.1-0.5-0.1-1-0.6-1.1
	l-13.9-4C131.1,29.7,130.6,29.9,130.5,30.4z M146.2,51.2l9.6-26.7l-0.5-1.1L129.5,18l-1,0.5L121.2,38c0,0-0.5,1.6,0.6,2.2
	c0,0,1.3,0.3,1.8-0.9l7-17.9l21.2,4.8l-7.5,21.1c0,0-2.2,8.7-6.9,7.8c0,0-6.3-0.7-5.5-8.3l-18.3-6l-0.7,0.3c0,0-1.5,6.5,2.8,9
	l17.1,7.9C132.8,57.9,142.3,61.5,146.2,51.2z M128.9,34.4c-0.1,0.5,0.1,1,0.6,1.1l13.9,4.1c0.5,0.1,1-0.1,1.1-0.6
	c0.1-0.5-0.1-1-0.6-1.1L130,33.8C129.6,33.7,129,34,128.9,34.4z M152.3,51.6c-0.7-0.2-1.5,0.2-1.7,0.9c-0.2,0.5-3.8,11.1-16.4,9.7
	c-0.7-0.1-1.4,0.4-1.5,1.2c-0.1,0.7,0.4,1.4,1.2,1.5c14.8,1.8,19.2-11.4,19.3-11.5C153.4,52.6,153.1,51.8,152.3,51.6z"/>
<path class="st0" d="M-20.6-22.5L-42-37.1c-0.9-0.6-2.5-0.6-3.4,0L-67-22.5c-0.7,0.3-1.3,1.1-1.3,1.9V0.5c0,1.2,1,2.1,2.1,2.1h44.7
	c1.2,0,2.1-1,2.1-2.1v-21.1C-19.3-21.4-19.8-22.2-20.6-22.5z M-23.4-18.7L-42.4-6.6c-0.9,0.6-2.3,0.6-3.1,0l-18.7-12V-21h40.8V-18.7
	z"/>
<path class="st0" d="M-39,37.2c-1.9-0.6-3.8-0.9-5.9-0.9c-0.9,0-1.6,0.7-1.6,1.6c0,0.1,0,0.2,0,0.3c0.1,0.7,0.8,1.2,1.5,1.2
	c5.8,0,10.9,2.9,13.9,7.4c1.8,2.7,2.9,5.9,2.9,9.3c0,0.9,0.7,1.6,1.6,1.6c0.2,0,0.4,0,0.6-0.1c0.6-0.2,1-0.8,1-1.4v0c0,0,0,0,0,0
	C-25.1,47.2-30.9,39.7-39,37.2z M-55.1,65.9c5.8,5.8,12.7,10.5,16.9,10.5c3.1,0,6.4-2,8.5-3.6l0.2-0.1c0.5-0.4,0.8-1,0.8-1.6
	c0-0.6-0.3-1.2-0.7-1.6l-8.6-7.1c-0.4-0.3-0.8-0.6-1.4-0.6s-1,0.2-1.4,0.6l-1.4,1.4c-0.9,0.9-2.3,0.9-3.1,0l-3.9-3.9l-3.9-3.9
	c-0.9-0.9-0.9-2.3,0-3.1l1.4-1.4c0.4-0.4,0.6-0.9,0.6-1.4c0-0.5-0.2-1-0.6-1.4l-7.1-8.6c-0.4-0.4-0.9-0.7-1.6-0.7
	c-0.7,0-1.2,0.3-1.6,0.8l-0.1,0.2c-1.5,2.1-3.6,5.4-3.6,8.5C-65.7,53.1-60.8,60.1-55.1,65.9L-55.1,65.9 M-44.9,29.4
	c-0.9,0-1.6,0.7-1.6,1.6c0,0.9,0.7,1.6,1.6,1.6c13,0,23.6,10.6,23.6,23.6c0,0.9,0.7,1.6,1.6,1.6c0.9,0,1.6-0.7,1.6-1.6
	C-18.2,41.4-30.2,29.4-44.9,29.4z M-35.2,56.1c0,0.9,0.7,1.6,1.6,1.6c0.9,0,1.6-0.7,1.6-1.6c0-7-5.7-12.8-12.8-12.8
	c-0.9,0-1.6,0.7-1.6,1.6c0,0.9,0.7,1.6,1.6,1.6C-39.6,46.4-35.2,50.8-35.2,56.1z"/>
<path class="st0" d="M44.3,4.4c-0.3-0.7-0.9-0.7-1.3-0.1l-1.5,2.2c-3-2.6-5.8-3.9-8.4-4.4C31,1.4,28.8,1,26.5,0.9
	c-13.1-0.4-24.2,9.9-24.6,23c-0.4,13.1,9.9,24.2,23,24.6c10.4,0.3,21.3-6.6,24.5-16l-6.6-3.4C40.4,35.5,32.2,41,25.2,40.8
	C16.3,40.5,9.3,33,9.6,24.2c0.3-8.8,7.7-15.8,16.6-15.5c4,0.1,7.6,1.7,10.3,4.2c0.1,0.1,0.1,0.2,0.1,0.3l-2.2,3.1
	c-0.4,0.6-0.2,1.1,0.6,1.1L48.8,18c0.7,0,1.1-0.5,0.8-1.2L44.3,4.4z"/>
</svg>
