<?xml version="1.0" encoding="utf-8"?>
<!-- Generator: Adobe Illustrator 25.2.2, SVG Export Plug-In . SVG Version: 6.00 Build 0)  -->
<svg version="1.1" id="Layer_1" xmlns="http://www.w3.org/2000/svg" xmlns:xlink="http://www.w3.org/1999/xlink" x="0px" y="0px"
	 viewBox="0 0 51.7 49.3" style="enable-background:new 0 0 51.7 49.3;" xml:space="preserve">
<style type="text/css">
	.st0{fill:#0FEBFF;}
	.st1{fill:#FFFFFF;}
	.st2{fill:#3B93FF;}
</style>
<path class="st0" d="M110,15.6c0.5,0.1,1-0.2,1.1-0.6c0.1-0.5-0.2-1-0.6-1.1l-14-3.7c-0.5-0.1-1,0.2-1.1,0.6c-0.1,0.5,0.2,1,0.6,1.1
	L110,15.6z M93.8,14.8c-0.1,0.5,0.1,1,0.6,1.1l13.9,4c0.5,0.1,1-0.1,1.1-0.6s-0.1-1-0.6-1.1l-13.9-4C94.4,14,93.9,14.3,93.8,14.8z
	 M109.5,35.5l9.6-26.7l-0.5-1.1L92.8,2.3l-1,0.5l-7.4,19.5c0,0-0.5,1.6,0.6,2.2c0,0,1.3,0.3,1.8-0.9l7-17.9l21.2,4.8l-7.5,21.1
	c0,0-2.2,8.7-6.9,7.8c0,0-6.3-0.7-5.5-8.3l-18.3-6l-0.7,0.3c0,0-1.5,6.5,2.8,9L96,42.3C96.1,42.2,105.6,45.8,109.5,35.5z M92.2,18.8
	c-0.1,0.5,0.1,1,0.6,1.1l13.9,4.1c0.5,0.1,1-0.1,1.1-0.6s-0.1-1-0.6-1.1l-13.9-4.1C92.9,18,92.4,18.3,92.2,18.8z M115.7,35.9
	c-0.7-0.2-1.5,0.2-1.7,0.9c-0.2,0.5-3.8,11.1-16.4,9.7c-0.7-0.1-1.4,0.4-1.5,1.2c-0.1,0.7,0.4,1.4,1.2,1.5
	c14.8,1.8,19.2-11.4,19.3-11.5C116.8,36.9,116.4,36.2,115.7,35.9z"/>
<path class="st1" d="M-9.3,17.5L-30.8,3c-0.9-0.6-2.5-0.6-3.4,0l-21.6,14.6c-0.7,0.3-1.3,1.1-1.3,1.9v21.1c0,1.2,1,2.1,2.1,2.1h44.7
	c1.2,0,2.1-1,2.1-2.1V19.5C-8.1,18.6-8.6,17.9-9.3,17.5z M-12.2,21.4l-18.9,12.1c-0.9,0.6-2.3,0.6-3.1,0l-18.7-12v-2.4h40.8v2.3
	H-12.2z"/>
<path class="st2" d="M28.8,8.9C26.9,8.3,24.9,8,22.9,8c-0.9,0-1.6,0.7-1.6,1.6c0,0.1,0,0.2,0,0.3c0.1,0.7,0.8,1.2,1.5,1.2
	c5.8,0,10.9,2.9,13.9,7.4c1.8,2.7,2.9,5.9,2.9,9.3c0,0.9,0.7,1.6,1.6,1.6c0.2,0,0.4,0,0.6-0.1c0.6-0.2,1-0.8,1-1.4l0,0l0,0
	C42.7,19,36.9,11.4,28.8,8.9z M12.7,37.6c5.8,5.8,12.7,10.5,16.9,10.5c3.1,0,6.4-2,8.5-3.6l0.2-0.1c0.5-0.4,0.8-1,0.8-1.6
	s-0.3-1.2-0.7-1.6l-8.6-7.1c-0.4-0.3-0.8-0.6-1.4-0.6c-0.5,0-1,0.2-1.4,0.6l-1.4,1.4c-0.9,0.9-2.3,0.9-3.1,0l-3.9-3.9l-3.9-3.9
	c-0.9-0.9-0.9-2.3,0-3.1l1.4-1.4c0.4-0.4,0.6-0.9,0.6-1.4s-0.2-1-0.6-1.4L9,11.9c-0.4-0.4-0.9-0.7-1.6-0.7S6.2,11.5,5.8,12l-0.1,0.2
	c-1.5,2.1-3.6,5.4-3.6,8.5C2.1,24.9,7,31.9,12.7,37.6L12.7,37.6 M22.9,1.2c-0.9,0-1.6,0.7-1.6,1.6s0.7,1.6,1.6,1.6
	c13,0,23.6,10.6,23.6,23.6c0,0.9,0.7,1.6,1.6,1.6c0.9,0,1.6-0.7,1.6-1.6C49.6,13.2,37.6,1.2,22.9,1.2z M32.6,27.9
	c0,0.9,0.7,1.6,1.6,1.6c0.9,0,1.6-0.7,1.6-1.6c0-7-5.7-12.8-12.8-12.8c-0.9,0-1.6,0.7-1.6,1.6s0.7,1.6,1.6,1.6
	C28.2,18.2,32.6,22.5,32.6,27.9z"/>
</svg>
