<?xml version="1.0" encoding="utf-8"?>
<!-- Generator: Adobe Illustrator 23.1.0, SVG Export Plug-In . SVG Version: 6.00 Build 0)  -->
<svg version="1.1" id="레이어_1" xmlns="http://www.w3.org/2000/svg" xmlns:xlink="http://www.w3.org/1999/xlink" x="0px"
	 y="0px" viewBox="0 0 108.5 109" style="enable-background:new 0 0 108.5 109;" xml:space="preserve">
<style type="text/css">
	.st0{fill:#FFFFFF;}
</style>
<g>
	<g>
		<g>
			<g>
				<path class="st0" d="M97.5,93.6H10.4c-4.5,0-8.2-3.7-8.2-8.2V26.5c0-2,1.6-3.6,3.6-3.6s3.6,1.6,3.6,3.6v58.9c0,0.5,0.5,1,1,1
					h87.1c0.5,0,1-0.5,1-1V26.5c0-2,1.6-3.6,3.6-3.6c2,0,3.6,1.6,3.6,3.6v58.9C105.7,89.9,102,93.6,97.5,93.6z"/>
				<path class="st0" d="M97.5,94.1H10.4c-4.8,0-8.7-3.9-8.7-8.7V26.5c0-2.3,1.8-4.1,4.1-4.1s4.1,1.8,4.1,4.1v58.9
					c0,0.3,0.2,0.5,0.5,0.5h87.1c0.3,0,0.5-0.2,0.5-0.5V26.5c0-2.3,1.8-4.1,4.1-4.1s4.1,1.8,4.1,4.1v58.9
					C106.2,90.2,102.3,94.1,97.5,94.1z M5.8,23.3c-1.7,0-3.1,1.4-3.1,3.1v58.9c0,4.3,3.5,7.7,7.7,7.7h87.1c4.3,0,7.7-3.5,7.7-7.7
					V26.5c0-1.7-1.4-3.1-3.1-3.1S99,24.7,99,26.5v58.9c0,0.8-0.7,1.5-1.5,1.5H10.4c-0.8,0-1.5-0.7-1.5-1.5V26.5
					C8.9,24.7,7.5,23.3,5.8,23.3z"/>
			</g>
		</g>
		<g>
			<g>
				<path class="st0" d="M100.7,92.2c-1,0-2-0.4-2.7-1.2l-33-36c-1.3-1.5-1.2-3.8,0.2-5.1c1.5-1.3,3.8-1.2,5.1,0.2l33,36
					c1.3,1.5,1.2,3.8-0.2,5.1C102.5,91.9,101.6,92.2,100.7,92.2z"/>
				<path class="st0" d="M100.7,92.7c-1.2,0-2.3-0.5-3-1.3l-33-36c-0.7-0.8-1.1-1.9-1.1-3c0-1.1,0.5-2.1,1.3-2.9s1.9-1.1,3-1.1
					c1.1,0,2.1,0.5,2.9,1.3l33,36c0.7,0.8,1.1,1.9,1.1,3s-0.5,2.1-1.3,2.9C102.7,92.3,101.7,92.7,100.7,92.7z M67.7,49.5
					c-0.8,0-1.5,0.3-2.1,0.8c-1.3,1.2-1.4,3.1-0.2,4.4l33,36c1.1,1.2,3.2,1.3,4.4,0.2c1.3-1.2,1.4-3.1,0.2-4.4l-33-36
					c-0.6-0.6-1.3-1-2.2-1C67.8,49.5,67.8,49.5,67.7,49.5z"/>
			</g>
		</g>
		<g>
			<g>
				<path class="st0" d="M7.2,92.3c-0.9,0-1.7-0.3-2.4-1c-1.5-1.4-1.6-3.6-0.2-5.1l33.1-36c1.3-1.5,3.6-1.6,5.1-0.2
					c1.5,1.4,1.6,3.6,0.2,5.1l-33.1,36C9.1,91.9,8.1,92.3,7.2,92.3z"/>
				<path class="st0" d="M7.2,92.8c-1,0-2-0.4-2.8-1.1c-0.8-0.7-1.3-1.8-1.3-2.9c0-1.1,0.3-2.2,1.1-3l33.1-36
					c1.5-1.7,4.1-1.8,5.8-0.3c0.8,0.7,1.3,1.8,1.3,2.9c0,1.1-0.3,2.1-1.1,3l-33.1,36C9.4,92.3,8.3,92.8,7.2,92.8z M40.2,49.5
					c-0.8,0-1.7,0.3-2.3,1l-33.1,36C4.3,87.2,4,88,4,88.8c0,0.8,0.4,1.6,1,2.2c1.2,1.1,3.3,1,4.4-0.2l33.1-36
					c0.6-0.6,0.9-1.4,0.8-2.2c0-0.8-0.4-1.6-1-2.2C41.7,49.8,41,49.5,40.2,49.5z"/>
			</g>
		</g>
		<g>
			<g>
				<g>
					<path class="st0" d="M54,66.9c-0.8,0-1.6-0.3-2.2-0.8L3.6,28.8c-1-0.8-1.5-2-1.4-3.2c0.5-4.2,4-7.3,8.2-7.3h87.1
						c4.2,0,7.7,3.2,8.2,7.3c0.1,1.2-0.4,2.5-1.4,3.2L56.2,66.1C55.5,66.6,54.7,66.9,54,66.9z M11.1,25.5L54,58.7l42.9-33.2H11.1z"
						/>
					<path class="st0" d="M54,67.4c-0.9,0-1.8-0.3-2.5-0.9L3.3,29.2c-1.1-0.9-1.7-2.3-1.6-3.7c0.5-4.4,4.2-7.8,8.6-7.8h87.1
						c4.4,0,8.2,3.3,8.6,7.8c0.2,1.4-0.4,2.8-1.6,3.7L56.5,66.5C55.8,67.1,54.9,67.4,54,67.4z M10.4,18.7c-3.9,0-7.2,3-7.7,6.9
						c-0.1,1.1,0.3,2.1,1.2,2.8L52,65.7c1.1,0.8,2.7,0.8,3.8,0L104,28.4c0.9-0.7,1.3-1.7,1.2-2.8c-0.4-3.9-3.7-6.9-7.7-6.9H10.4z
						 M54,59.3l-0.3-0.2L9.6,25h88.6L54,59.3z M12.6,26L54,58.1L95.3,26H12.6z"/>
				</g>
			</g>
		</g>
	</g>
</g>
<path d="M-46,105.9H-91c-5.9,0-10.7-4.8-10.7-10.7V14.5c0-5.9,4.8-10.7,10.7-10.7H-46c5.9,0,10.7,4.8,10.7,10.7v80.7
	C-35.2,101.1-40,105.9-46,105.9z M-91,12.7c-1,0-1.7,0.8-1.7,1.7v80.7c0,1,0.8,1.7,1.7,1.7H-46c1,0,1.7-0.8,1.7-1.7V14.5
	c0-1-0.8-1.7-1.7-1.7H-91z"/>
<path d="M-53.6,92.8h-30.8c-0.8,0-1.5-0.7-1.5-1.5v-7.8c0-0.8,0.7-1.5,1.5-1.5h30.8c0.8,0,1.5,0.7,1.5,1.5v7.8
	C-52.1,92.1-52.8,92.8-53.6,92.8z M-82.9,89.8h27.8V85h-27.8V89.8z"/>
<polygon points="-51.7,63.5 -51.7,72.2 -85.3,72.2 -85.3,20.2 -51.7,20.2 -51.7,31.2 "/>
</svg>
