<?xml version="1.0" encoding="utf-8"?>
<!-- Generator: Adobe Illustrator 25.2.2, SVG Export Plug-In . SVG Version: 6.00 Build 0)  -->
<svg version="1.1" id="레이어_1" xmlns="http://www.w3.org/2000/svg" xmlns:xlink="http://www.w3.org/1999/xlink" x="0px"
	 y="0px" viewBox="0 0 130 130" style="enable-background:new 0 0 130 130;" xml:space="preserve">
<style type="text/css">
	.st0{fill:#3B93FF;}
	.st1{fill:#444444;}
</style>
<g>
	<text transform="matrix(1 0 0 1 153.0113 -179.0107)" style="fill:#262C3D; font-family:'ArialMT'; font-size:66.4996px;">professional</text>
	<text transform="matrix(1 0 0 1 238.1213 -107.0107)" style="fill:#262C3D; font-family:'ArialMT'; font-size:66.4996px;">line icon</text>
</g>
<g>
	<text transform="matrix(1 0 0 1 253.5091 -46.9002)" style="fill:#4B5C8F; font-family:'ArialMT'; font-size:34px;">contest exhibit</text>
</g>
<g>
	
		<text transform="matrix(1 0 0 1 -104.1098 -174.3468)" style="fill:#FFFFFF; font-family:'ArialMT'; font-size:129.8262px; letter-spacing:5;">12</text>
</g>
<g>
	<path class="st0" d="M114.7,31.8h-12.1l-7.6-17c-0.6-1.4-2.1-2.4-3.7-2.4h-52c-1.6,0-3,0.9-3.7,2.4l-7.6,17H16.1
		c-5.7,0-10.3,4.6-10.3,10.3v64c0,5.7,4.6,10.3,10.3,10.3h66.6c2.2,0,4-1.8,4-4s-1.8-4-4-4H16.1c-1.3,0-2.3-1.1-2.3-2.3v-64
		c0-1.3,1.1-2.3,2.3-2.3h14.7h69.3h14.7c1.3,0,2.3,1,2.3,2.3v64c0,1.3-1.1,2.3-2.3,2.3H75.1c-2.2,0-4,1.8-4,4s1.8,4,4,4h39.7
		c5.7,0,10.3-4.6,10.3-10.3v-64C125.1,36.4,120.4,31.8,114.7,31.8z M36.9,31.8L42,20.5h46.8l5.1,11.3H36.9z"/>
	<path class="st0" d="M66.2,46.2c-15.8,0-28.7,12.9-28.7,28.7s12.9,28.7,28.7,28.7s28.7-12.9,28.7-28.7S82.1,46.2,66.2,46.2z
		 M66.2,96.4c-11.9,0-21.5-9.7-21.5-21.5s9.7-21.5,21.5-21.5s21.5,9.7,21.5,21.5S78.1,96.4,66.2,96.4z"/>
	<path class="st0" d="M66.2,58c-9.3,0-16.9,7.6-16.9,16.9s7.6,16.9,16.9,16.9s16.9-7.6,16.9-16.9S75.6,58,66.2,58z M66.2,84.7
		c-5.4,0-9.7-4.4-9.7-9.7c0-5.4,4.4-9.7,9.7-9.7s9.7,4.4,9.7,9.7S71.6,84.7,66.2,84.7z"/>
</g>
<g>
	<path class="st1" d="M320.3,48.5c0-23-18.8-41.8-41.8-41.8s-41.8,18.8-41.8,41.8c0,12.1,5.2,23.1,13.5,30.7c0,0,0,0,0,0v50.2
		c0,2.2,1.2,4.3,3.1,5.3c0.9,0.5,1.9,0.7,2.9,0.7c1.1,0,2.3-0.3,3.3-1l19-12.3l19,12.3c1.9,1.2,4.2,1.3,6.2,0.2s3.1-3.1,3.1-5.3
		V79.2c0,0,0,0,0,0C315.1,71.5,320.3,60.6,320.3,48.5z M244.7,48.5c0-18.6,15.2-33.8,33.8-33.8s33.8,15.2,33.8,33.8
		s-15.2,33.8-33.8,33.8S244.7,67.1,244.7,48.5z M258.2,125.8V85c1.4,0.8,2.8,1.5,4.3,2.1V123L258.2,125.8z M276.3,114l-5.9,3.8V89.5
		c2.6,0.5,5.3,0.8,8,0.8s5.4-0.3,8-0.8v28.3l-5.9-3.8C279.4,113.2,277.7,113.2,276.3,114z M298.8,125.8l-4.3-2.8V87.1
		c1.5-0.6,2.9-1.3,4.3-2.1V125.8z"/>
	<path class="st1" d="M278.5,75c2.2,0,4-1.8,4-4s-1.8-4-4-4c-10.2,0-18.5-8.3-18.5-18.5S268.3,30,278.5,30S297,38.3,297,48.5
		c0,2.5-0.5,4.9-1.4,7.1c-0.9,2,0.1,4.4,2.1,5.2s4.4-0.1,5.2-2.2c1.4-3.2,2-6.7,2-10.2c0-14.6-11.9-26.5-26.5-26.5
		S252,33.8,252,48.5S263.9,75,278.5,75z"/>
</g>
<path class="st1" d="M492.6,7c-28,0-50.7,22.8-50.7,50.7v8V117c0,13,31.9,16.5,50.7,16.5c7,0,13.8-0.4,20.2-1.2
	c2.2-0.3,3.8-2.3,3.5-4.5c-0.3-2.2-2.3-3.7-4.5-3.5c-6,0.8-12.5,1.1-19.2,1.1c-25.8,0-41.5-5.6-42.7-8.6V75.3
	c10.7,5.2,29.8,6.9,42.7,6.9c3.3,0,7-0.1,10.9-0.4c0.4,1.1,0.6,2.3,0.6,3.5c0.1,3.1,0.7,8.9,4,10.5c4.5,2.1,1.4-13.7,4.8-13.7
	c4,0,4.3,14.8,6.2,18.4c2.7,5.1,6.1,2.3,4.8-14c-0.1-1.8-0.1-3.5,0.3-5.2c0.2-0.8,0.5-1.7,0.8-2.5c3.9-0.9,7.4-2.1,10.3-3.5v41.6
	c-0.1,0.3-1.1,1.7-5.7,3.4c-2.1,0.8-3.1,3.1-2.3,5.2c0.6,1.6,2.1,2.5,3.7,2.5c0.5,0,1-0.1,1.5-0.3c7.1-2.8,10.8-6.4,10.8-10.8V65.7
	v-8C543.3,29.7,520.6,7,492.6,7z M492.6,15c23,0,41.8,18.3,42.7,41.1c-10.7-5.2-29.8-6.9-42.7-6.9s-32,1.6-42.7,6.9
	C450.8,33.2,469.6,15,492.6,15z M492.6,74.1c-25.6,0-41.1-5.4-42.7-8.5c1.5-3,17.1-8.5,42.7-8.5s41.1,5.4,42.7,8.5
	C533.8,68.7,518.2,74.1,492.6,74.1z"/>
<path class="st1" d="M761.8,77.1h-8.5V28.5c0-5.1-4.2-9.3-9.3-9.3h-33.3v-6.6c0-2.2-1.8-4-4-4s-4,1.8-4,4v6.6h-9.9c-2.2,0-4,1.8-4,4
	s1.8,4,4,4h51.2c0.7,0,1.3,0.6,1.3,1.3v48.6h-77.2V28.5c0-0.7,0.6-1.3,1.3-1.3h3.1c2.2,0,4-1.8,4-4s-1.8-4-4-4h-3.1
	c-5.1,0-9.3,4.1-9.3,9.3v48.6h-8.5c-2.2,0-4,1.8-4,4s1.8,4,4,4h30.1l-24,35.3c-1.2,1.8-0.8,4.3,1.1,5.6c0.7,0.5,1.5,0.7,2.2,0.7
	c1.3,0,2.5-0.6,3.3-1.8l27-39.7c0,0,0,0,0-0.1h11.3v29.3c0,2.2,1.8,4,4,4s4-1.8,4-4V85.1H722c0,0,0,0,0,0.1l27,39.7
	c0.8,1.1,2,1.8,3.3,1.8c0.8,0,1.6-0.2,2.2-0.7c1.8-1.2,2.3-3.7,1.1-5.6l-24-35.3h30.1c2.2,0,4-1.8,4-4S764,77.1,761.8,77.1z"/>
<g>
	<text transform="matrix(0.9467 0 0 1 272.0732 282.5554)" class="st1" style="font-family:'ArialMT'; font-size:40.8675px;">!</text>
</g>
<g>
	<path class="st1" d="M279.1,222c-11.3-0.1-22,4.2-30.2,12.2c-8.2,8-12.7,18.7-12.8,30c-0.1,9.9,3.4,19.5,9.6,27.1
		c4.8,5.9,7.5,13.4,7.5,21.2v0.6c0,2.2,1.8,4,4,4h18.7c2.2,0,4-1.8,4-4s-1.8-4-4-4h-14.8c-0.7-8.4-3.9-16.4-9.2-22.9
		c-5.1-6.2-7.8-14-7.8-22c0.1-9.2,3.7-17.8,10.4-24.3c6.6-6.5,15.3-10.1,24.5-9.9c18.7,0.3,33.9,15.7,33.9,34.4
		c0,7.9-2.8,15.6-7.8,21.8c-5.3,6.5-8.5,14.5-9.2,22.9h-1.9c-2.2,0-4,1.8-4,4s1.8,4,4,4h5.8c2.2,0,4-1.8,4-4v-0.6
		c0-7.8,2.7-15.3,7.5-21.3c6.2-7.5,9.6-17.1,9.6-26.8C320.9,241.3,302.2,222.3,279.1,222z"/>
	<path class="st1" d="M300.2,320.2h-43.4c-2.2,0-4,1.8-4,4s1.8,4,4,4h43.4c2.2,0,4-1.8,4-4C304.2,322,302.4,320.2,300.2,320.2z"/>
	<path class="st1" d="M295.5,330.2h-33.9c-2.2,0-4,1.8-4,4s1.8,4,4,4h33.9c2.2,0,4-1.8,4-4S297.7,330.2,295.5,330.2z"/>
	<path class="st1" d="M290,340.1H267c-2.2,0-4,1.8-4,4s1.8,4,4,4H290c2.2,0,4-1.8,4-4S292.2,340.1,290,340.1z"/>
	<path class="st1" d="M278.2,357h0.6c3.5,0,6.2-2.8,6.2-6.2H272C272,354.2,274.8,357,278.2,357z"/>
</g>
<g>
	<path class="st1" d="M497.5,280.2c0.4-0.7,0.6-1.6,0.6-2.4c0-0.7-0.1-1.4-0.4-2h18.2c5.7,0,10.3-4.6,10.3-10.3v-28.9
		c0-5.7-4.6-10.3-10.3-10.3h-46.5c-5.7,0-10.3,4.6-10.3,10.3v28.9c0,5.7,4.6,10.3,10.3,10.3h18.2c-0.3,0.6-0.4,1.3-0.4,2
		c0,0.9,0.2,1.7,0.6,2.4c-18.9,2.4-33.5,18.6-33.5,38.1c0,21.2,17.2,38.4,38.4,38.4c2.2,0,4-1.8,4-4s-1.8-4-4-4
		c-16.8,0-30.4-13.6-30.4-30.4c0-16.8,13.6-30.4,30.4-30.4c16.8,0,30.4,13.6,30.4,30.4c0,9.8-4.8,19-12.7,24.7
		c-1.8,1.3-2.2,3.8-0.9,5.6c1.3,1.8,3.8,2.2,5.6,0.9c10-7.2,16-18.9,16-31.2C531,298.8,516.4,282.6,497.5,280.2z M481.2,267.7v-33.6
		H504v33.6H481.2z M518.2,236.5v28.9c0,1.3-1,2.3-2.3,2.3H512v-33.6h3.9C517.1,234.1,518.2,235.2,518.2,236.5z M467,265.4v-28.9
		c0-1.3,1-2.3,2.3-2.3h3.9v33.6h-3.9C468.1,267.7,467,266.7,467,265.4z"/>
	<path class="st1" d="M517.3,318.3c0-13.6-11.1-24.7-24.7-24.7c-13.6,0-24.7,11.1-24.7,24.7c0,13.6,11.1,24.7,24.7,24.7
		C506.2,343,517.3,331.9,517.3,318.3z M492.6,335c-9.2,0-16.7-7.5-16.7-16.7s7.5-16.7,16.7-16.7s16.7,7.5,16.7,16.7
		C509.3,327.5,501.8,335,492.6,335z"/>
</g>
<g>
	<path class="st1" d="M752.1,240.1c0-5.7-4.6-10.3-10.3-10.3h-45.2c-2.2,0-4,1.8-4,4s1.8,4,4,4h45.2c1.3,0,2.3,1.1,2.3,2.3v57.6
		h-28.4c-5.7,0-10.3,4.6-10.3,10.3v28.4h-33.7c-1.3,0-2.3-1-2.3-2.3v-94c0-1.3,1-2.3,2.3-2.3h4.5c2.2,0,4-1.8,4-4s-1.8-4-4-4h-4.5
		c-5.7,0-10.3,4.6-10.3,10.3v94c0,5.7,4.6,10.3,10.3,10.3h37.7c0,0,0,0,0.1,0c0.2,0,0.5,0,0.7-0.1c0.1,0,0.2-0.1,0.3-0.1
		c0.2,0,0.3-0.1,0.5-0.1c0.1,0,0.2-0.1,0.3-0.1c0.1-0.1,0.3-0.1,0.4-0.2c0.2-0.1,0.4-0.3,0.6-0.5l38.7-38.7c0.2-0.2,0.3-0.4,0.5-0.5
		c0-0.1,0.1-0.1,0.1-0.2c0.1-0.1,0.2-0.3,0.3-0.5c0-0.1,0.1-0.1,0.1-0.2c0.1-0.2,0.2-0.4,0.2-0.7v0c0-0.2,0.1-0.5,0.1-0.7
		c0,0,0,0,0-0.1V240.1z M715.7,305.7h22.7l-25.1,25v-22.7C713.3,306.8,714.4,305.7,715.7,305.7z"/>
	<path class="st1" d="M675.9,257.1c-1.6,1.6-1.6,4.1,0,5.7l9.6,9.6c0.8,0.8,1.8,1.2,2.8,1.2c1,0,2-0.4,2.7-1.1l22.3-20.9
		c1.6-1.5,1.7-4,0.2-5.6c-1.5-1.6-4-1.7-5.7-0.2l-19.4,18.3l-6.8-6.8C680,255.5,677.4,255.5,675.9,257.1z"/>
	<path class="st1" d="M707.8,277.9l-19.4,18.3l-6.8-6.8c-1.6-1.6-4.1-1.6-5.7,0s-1.6,4.1,0,5.7l9.6,9.6c0.8,0.8,1.8,1.2,2.8,1.2
		c1,0,2-0.4,2.7-1.1l22.3-20.9c1.6-1.5,1.7-4,0.2-5.6C711.9,276.5,709.4,276.4,707.8,277.9z"/>
</g>
<g>
	<path class="st1" d="M103.7,451.1H25.1c-5.7,0-10.3,4.6-10.3,10.3v81.3c0,5.7,4.6,10.3,10.3,10.3h52.3c2.2,0,4-1.8,4-4s-1.8-4-4-4
		H25.1c-1.3,0-2.3-1-2.3-2.3v-81.3c0-1.3,1-2.3,2.3-2.3h78.6c1.3,0,2.3,1,2.3,2.3v81.3c0,1.3-1.1,2.3-2.3,2.3h-4.2c-2.2,0-4,1.8-4,4
		s1.8,4,4,4h4.2c5.7,0,10.3-4.6,10.3-10.3v-81.3C114.1,455.7,109.4,451.1,103.7,451.1z"/>
	<path class="st1" d="M100.4,521.5v-52.3c0-2.2-1.8-4-4-4h-64c-2.2,0-4,1.8-4,4v52.3c0,2.2,1.8,4,4,4h64
		C98.6,525.5,100.4,523.7,100.4,521.5z M92.4,473.2v15.1l-6.7-8.6c-0.8-1-2-1.6-3.2-1.5c-1.3,0-2.4,0.6-3.2,1.7l-16.5,23l-14.2-13
		c-1.4-1.3-3.5-1.4-5.1-0.3l-7.1,5.3v-21.6H92.4z M36.4,517.5v-12.6l9.2-6.8l15.1,13.8c0.7,0.7,1.7,1,2.7,1c0.1,0,0.3,0,0.4,0
		c1.1-0.1,2.2-0.7,2.8-1.6l16-22.3l9.7,12.5v16.1L36.4,517.5L36.4,517.5z"/>
	<path class="st1" d="M68.2,541.5h28.2c2.2,0,4-1.8,4-4s-1.8-4-4-4H68.2c-2.2,0-4,1.8-4,4S66,541.5,68.2,541.5z"/>
</g>
<g>
	<text transform="matrix(0.9467 0 0 1 267.5122 514.507)" class="st1" style="font-family:'ArialMT'; font-size:47.1137px;">?</text>
</g>
<g>
	<path class="st1" d="M321.1,499c0-22.9-18.6-41.5-41.5-41.5c-22.9,0-41.5,18.6-41.5,41.5s18.6,41.5,41.5,41.5
		S321.1,521.9,321.1,499z M279.6,532.5c-18.5,0-33.5-15-33.5-33.5c0-18.5,15-33.5,33.5-33.5c18.5,0,33.5,15,33.5,33.5
		C313.1,517.5,298,532.5,279.6,532.5z"/>
	<path class="st1" d="M279.6,443.9c-30.4,0-55.1,24.7-55.1,55.1c0,10.8,3.1,21.1,8.9,30l-9.9,25.8c-0.6,1.5-0.2,3.2,0.9,4.3
		c0.8,0.8,1.8,1.2,2.8,1.2c0.5,0,1-0.1,1.5-0.3l27.6-11c7.3,3.4,15.2,5.2,23.3,5.2c2.2,0,4-1.8,4-4s-1.8-4-4-4
		c-7.5,0-14.7-1.7-21.4-5.1c-1.1-0.6-2.4-0.6-3.5,0l-20.5,8.2l7.2-18.7c0.7-1.3,0.6-2.9-0.3-4.2c-5.7-8-8.7-17.4-8.7-27.2
		c0-26,21.1-47.1,47.1-47.1c26,0,47.1,21.1,47.1,47.1c0,17.3-9.5,33.2-24.7,41.4c-1.9,1-2.7,3.5-1.6,5.4c1,1.9,3.5,2.7,5.4,1.6
		c17.8-9.7,28.8-28.2,28.8-48.5C334.7,468.7,310,443.9,279.6,443.9z"/>
</g>
<g>
	<path class="st1" d="M538.7,460.4h-6.6v-6.3c0-2.5-2-4.5-4.5-4.5s-4.5,2-4.5,4.5v6.3h-60.8v-6.3c0-2.5-2-4.5-4.5-4.5
		s-4.5,2-4.5,4.5v6.3h-6.8c-5.7,0-10.3,4.6-10.3,10.3v62.7c0,5.7,4.6,10.3,10.3,10.3h92.2c5.7,0,10.3-4.6,10.3-10.3v-62.7
		C549.1,465.1,544.4,460.4,538.7,460.4z M446.5,468.4h6.8v6.4c0,2.5,2,4.5,4.5,4.5s4.5-2,4.5-4.5v-6.4h60.8v6.4c0,2.5,2,4.5,4.5,4.5
		s4.5-2,4.5-4.5v-6.4h6.6c1.3,0,2.3,1,2.3,2.3V483h-96.9v-12.2C444.2,469.5,445.2,468.4,446.5,468.4z M538.7,535.8h-92.2
		c-1.3,0-2.3-1-2.3-2.3V491h96.9v42.5C541.1,534.7,540,535.8,538.7,535.8z"/>
	<rect x="457.3" y="499.9" class="st1" width="9.1" height="9.1"/>
	<rect x="477.8" y="499.9" class="st1" width="9.1" height="9.1"/>
	<rect x="498.3" y="499.9" class="st1" width="9.1" height="9.1"/>
	<rect x="518.8" y="499.9" class="st1" width="9.1" height="9.1"/>
	<rect x="457.3" y="517.3" class="st1" width="9.1" height="9.1"/>
	<rect x="477.8" y="517.3" class="st1" width="9.1" height="9.1"/>
	<rect x="498.3" y="517.3" class="st1" width="9.1" height="9.1"/>
	<rect x="518.8" y="517.3" class="st1" width="9.1" height="9.1"/>
</g>
<g>
	<path class="st1" d="M754.7,454.7c-14.1-14.1-37-14.1-51.1,0c-13.1,13.1-14,33.9-2.7,48.1l-7,7l-6.1-6.1c-0.8-0.8-1.8-1.2-2.8-1.2
		s-2.1,0.4-2.8,1.2l-31.8,31.8c-1.6,1.6-1.6,4.1,0,5.7l17.8,17.8c0.8,0.8,1.8,1.2,2.8,1.2c1,0,2-0.4,2.8-1.2l8.8-8.8
		c1.6-1.6,1.6-4.1,0-5.7c-1.6-1.6-4.1-1.6-5.7,0l-6,6l-12.1-12.1l16.7-16.7l14.9,14.9c0.8,0.8,1.8,1.2,2.8,1.2l0,0
		c1,0,2-0.4,2.8-1.2l9.4-9.4c0.8-0.8,1.2-1.8,1.2-2.8s-0.4-2.1-1.2-2.8l-6.1-6.1l7-7c6.6,5.3,14.5,7.9,22.5,7.9
		c9.3,0,18.5-3.5,25.5-10.6C768.7,491.7,768.7,468.8,754.7,454.7z M685,512.2l12.1,12.1l-3.7,3.7L681.3,516L685,512.2z M749,500.1
		c-11,11-28.8,11-39.8,0c-11-11-11-28.8,0-39.8c5.5-5.5,12.7-8.2,19.9-8.2s14.4,2.7,19.9,8.2C760,471.3,760,489.2,749,500.1z"/>
	<path class="st1" d="M740.9,492c-3.1,3.1-7.3,4.9-11.7,4.9c-4.4,0-8.6-1.7-11.7-4.9c-1.6-1.6-4.1-1.6-5.7,0c-1.6,1.6-1.6,4.1,0,5.7
		c4.7,4.6,10.8,7.2,17.4,7.2s12.8-2.6,17.4-7.2c1.6-1.6,1.6-4.1,0-5.7C745,490.4,742.4,490.4,740.9,492z"/>
</g>
<g>
	<path class="st1" d="M112.8,131.3H16.1c-5.7,0-10.3,4.6-10.3,10.3V223c0,5.7,4.6,10.3,10.3,10.3h52.3c2.2,0,4-1.8,4-4s-1.8-4-4-4
		H16.1c-1.3,0-2.3-1.1-2.3-2.3v-81.3c0-1.3,1.1-2.3,2.3-2.3h96.6c1.3,0,2.3,1.1,2.3,2.3V223c0,1.3-1.1,2.3-2.3,2.3H58.6
		c-2.2,0-4,1.8-4,4s1.8,4,4,4h54.2c5.7,0,10.3-4.6,10.3-10.3v-81.3C123.1,135.9,118.5,131.3,112.8,131.3z"/>
	<path class="st1" d="M109.4,201.6v-52.3c0-2.2-1.8-4-4-4h-82c-2.2,0-4,1.8-4,4v52.3c0,2.2,1.8,4,4,4h82
		C107.7,205.6,109.4,203.8,109.4,201.6z M101.4,153.4v25.1l-20.7-18.6c-0.8-1-2-1.6-3.2-1.6c-1.3,0-2.4,0.6-3.2,1.7l-20.5,23
		l-13.2-13c-1.4-1.3-3.5-1.4-5.1-0.3l-8.1,9.3v-25.7L101.4,153.4L101.4,153.4z M27.5,197.6V191l10.2-12.8l14.1,13.8
		c0.7,0.7,1.7,1.1,2.7,1.1c0.1,0,0.3,0,0.4,0c1.1-0.1,2.2-0.7,2.8-1.6l20-22.3l23.7,19.5v9.1L27.5,197.6L27.5,197.6z"/>
</g>
</svg>
