<?xml version="1.0" encoding="utf-8"?>
<!-- Generator: Adobe Illustrator 23.1.0, SVG Export Plug-In . SVG Version: 6.00 Build 0)  -->
<svg version="1.1" id="레이어_1" xmlns="http://www.w3.org/2000/svg" xmlns:xlink="http://www.w3.org/1999/xlink" x="0px"
	 y="0px" viewBox="0 0 108.5 109" style="enable-background:new 0 0 108.5 109;" xml:space="preserve">
<style type="text/css">
	.st0{fill:#A4A2FF;}
	.st1{fill:#FFFFFF;}
</style>
<g>
	<g>
		<g>
			<g>
				<path class="st0" d="M242.9,95.8h-87.1c-4.5,0-8.2-3.7-8.2-8.2V28.6c0-2,1.6-3.6,3.6-3.6s3.6,1.6,3.6,3.6v58.9c0,0.5,0.5,1,1,1
					h87.1c0.5,0,1-0.5,1-1V28.6c0-2,1.6-3.6,3.6-3.6c2,0,3.6,1.6,3.6,3.6v58.9C251.1,92.1,247.4,95.8,242.9,95.8z"/>
				<path class="st0" d="M242.9,96.3h-87.1c-4.8,0-8.7-3.9-8.7-8.7V28.6c0-2.3,1.8-4.1,4.1-4.1s4.1,1.8,4.1,4.1v58.9
					c0,0.3,0.2,0.5,0.5,0.5h87.1c0.3,0,0.5-0.2,0.5-0.5V28.6c0-2.3,1.8-4.1,4.1-4.1s4.1,1.8,4.1,4.1v58.9
					C251.6,92.4,247.7,96.3,242.9,96.3z M151.2,25.5c-1.7,0-3.1,1.4-3.1,3.1v58.9c0,4.3,3.5,7.7,7.7,7.7h87.1c4.3,0,7.7-3.5,7.7-7.7
					V28.6c0-1.7-1.4-3.1-3.1-3.1s-3.1,1.4-3.1,3.1v58.9c0,0.8-0.7,1.5-1.5,1.5h-87.1c-0.8,0-1.5-0.7-1.5-1.5V28.6
					C154.3,26.9,152.9,25.5,151.2,25.5z"/>
			</g>
		</g>
		<g>
			<g>
				<path class="st0" d="M246.1,94.4c-1,0-2-0.4-2.7-1.2l-33-36c-1.3-1.5-1.2-3.8,0.2-5.1c1.5-1.3,3.8-1.2,5.1,0.2l33,36
					c1.3,1.5,1.2,3.8-0.2,5.1C247.8,94.1,246.9,94.4,246.1,94.4z"/>
				<path class="st0" d="M246.1,94.9c-1.2,0-2.3-0.5-3-1.3l-33-36c-0.7-0.8-1.1-1.9-1.1-3c0-1.1,0.5-2.1,1.3-2.9s1.9-1.1,3-1.1
					c1.1,0,2.1,0.5,2.9,1.3l33,36c0.7,0.8,1.1,1.9,1.1,3s-0.5,2.1-1.3,2.9C248.1,94.5,247.1,94.9,246.1,94.9z M213.1,51.6
					c-0.8,0-1.5,0.3-2.1,0.8c-1.3,1.2-1.4,3.1-0.2,4.4l33,36c1.1,1.2,3.2,1.3,4.4,0.2c1.3-1.2,1.4-3.1,0.2-4.4l-33-36
					c-0.6-0.6-1.3-1-2.2-1C213.2,51.6,213.1,51.6,213.1,51.6z"/>
			</g>
		</g>
		<g>
			<g>
				<path class="st0" d="M152.5,94.4c-0.9,0-1.7-0.3-2.4-1c-1.5-1.4-1.6-3.6-0.2-5.1l33.1-36c1.3-1.5,3.6-1.6,5.1-0.2
					c1.5,1.4,1.6,3.6,0.2,5.1l-33.1,36C154.5,94,153.5,94.4,152.5,94.4z"/>
				<path class="st0" d="M152.5,94.9c-1,0-2-0.4-2.8-1.1c-0.8-0.7-1.3-1.8-1.3-2.9c0-1.1,0.3-2.2,1.1-3l33.1-36
					c1.5-1.7,4.1-1.8,5.8-0.3c0.8,0.7,1.3,1.8,1.3,2.9c0,1.1-0.3,2.1-1.1,3l-33.1,36C154.8,94.4,153.7,94.9,152.5,94.9z M185.6,51.7
					c-0.8,0-1.7,0.3-2.3,1l-33.1,36c-0.6,0.6-0.9,1.4-0.8,2.2c0,0.8,0.4,1.6,1,2.2c1.2,1.1,3.3,1,4.4-0.2l33.1-36
					c0.6-0.6,0.9-1.4,0.8-2.2c0-0.8-0.4-1.6-1-2.2C187.1,51.9,186.3,51.7,185.6,51.7z"/>
			</g>
		</g>
		<g>
			<g>
				<g>
					<path class="st0" d="M199.3,69.1c-0.8,0-1.6-0.3-2.2-0.8L149,31c-1-0.8-1.5-2-1.4-3.2c0.5-4.2,4-7.3,8.2-7.3h87.1
						c4.2,0,7.7,3.2,8.2,7.3c0.1,1.2-0.4,2.5-1.4,3.2l-48.1,37.3C200.9,68.8,200.1,69.1,199.3,69.1z M156.4,27.6l42.9,33.2
						l42.9-33.2H156.4z"/>
					<path class="st0" d="M199.3,69.6c-0.9,0-1.8-0.3-2.5-0.9l-48.1-37.3c-1.1-0.9-1.7-2.3-1.6-3.7c0.5-4.4,4.2-7.8,8.6-7.8h87.1
						c4.4,0,8.2,3.3,8.6,7.8c0.2,1.4-0.4,2.8-1.6,3.7l-48.1,37.3C201.1,69.2,200.2,69.6,199.3,69.6z M155.8,20.9
						c-3.9,0-7.2,3-7.7,6.9c-0.1,1.1,0.3,2.1,1.2,2.8l48.1,37.3c1.1,0.8,2.7,0.8,3.8,0l48.1-37.3c0.9-0.7,1.3-1.7,1.2-2.8
						c-0.4-3.9-3.7-6.9-7.7-6.9H155.8z M199.3,61.5l-0.3-0.2l-44-34.1h88.6L199.3,61.5z M157.9,28.1l41.4,32.1l41.4-32.1H157.9z"/>
				</g>
			</g>
		</g>
	</g>
</g>
<path class="st1" d="M77.8,105.9H31.7c-5.9,0-10.7-4.8-10.7-10.7V14.5c0-5.9,4.8-10.7,10.7-10.7h46.1c5.9,0,10.7,4.8,10.7,10.7v80.7
	C88.5,101.1,83.7,105.9,77.8,105.9z M30.7,11.7c-1,0-1.7,0.8-1.7,1.7v82.7c0,1,0.8,1.7,1.7,1.7h48.1c1,0,1.7-0.8,1.7-1.7V13.5
	c0-1-0.8-1.7-1.7-1.7H30.7z"/>
<path class="st1" d="M71.2,91.8H39.4c-0.8,0-1.5-0.7-1.5-1.5v-7.8c0-0.8,0.7-1.5,1.5-1.5h31.8c0.8,0,1.5,0.7,1.5,1.5v7.8
	C72.7,91.1,72,91.8,71.2,91.8z M40.9,88.8h28.8V84H40.9V88.8z"/>
<polygon class="st1" points="72.1,63.5 72.1,72.2 38.4,72.2 38.4,20.2 72.1,20.2 72.1,31.2 "/>
</svg>
