<?xml version="1.0" encoding="utf-8"?>
<!-- Generator: Adobe Illustrator 24.2.1, SVG Export Plug-In . SVG Version: 6.00 Build 0)  -->
<svg version="1.1" id="Layer_1" xmlns="http://www.w3.org/2000/svg" xmlns:xlink="http://www.w3.org/1999/xlink" x="0px" y="0px"
	 viewBox="0 0 128.9 117.4" style="enable-background:new 0 0 128.9 117.4;" xml:space="preserve">
<style type="text/css">
	.st0{fill:#2A84FF;}
</style>
<g>
	<path class="st0" d="M342.5,24H327v-2.9c0-2.2-1.8-4-4-4c-2.2,0-4,1.8-4,4V24h-16.3v-2.9c0-2.2-1.8-4-4-4c-2.2,0-4,1.8-4,4V24
		h-16.3v-2.9c0-2.2-1.8-4-4-4c-2.2,0-4,1.8-4,4V24H254v-2.9c0-2.2-1.8-4-4-4s-4,1.8-4,4V24h-15.5c-2.6,0-4.6,2.1-4.6,4.6v15.7
		c0,2.5,1.9,4.4,4.3,4.6v67.5c0,4.4,3.6,8.1,8.1,8.1h96.5c4.4,0,8.1-3.6,8.1-8.1V48.9c2.4-0.2,4.3-2.2,4.3-4.6V28.6
		C347.2,26.1,345.1,24,342.5,24z M232.9,31H246v1.9c0,2.2,1.8,4,4,4s4-1.8,4-4V31h16.3v1.9c0,2.2,1.8,4,4,4c2.2,0,4-1.8,4-4V31h16.3
		v1.9c0,2.2,1.8,4,4,4c2.2,0,4-1.8,4-4V31H319v1.9c0,2.2,1.8,4,4,4c2.2,0,4-1.8,4-4V31h13.2v10.9H232.9V31z M334.8,117.5h-96.5
		c-0.6,0-1.1-0.5-1.1-1.1V48.9h98.6v67.5C335.8,117,335.4,117.5,334.8,117.5z"/>
	<path class="st0" d="M281,96.3h-13l5.3-5.4c5.1-5.3,9.5-10,9.5-16.7c0-7-5.1-11.7-12.9-11.7c-5.7,0-11.8,3.5-11.8,7.2
		c0,1.7,1.6,3.2,3.4,3.2c1.1-0.1,1.9-0.7,2.7-1.5c1.4-1.3,2.8-2.8,5.4-2.8c3.3,0,5.8,2.2,5.8,5.9c0,6.6-6.2,11.8-14.6,20.1
		c-1.2,1.2-2.6,2.6-2.6,4.8c0,2.3,1.7,3.2,4.2,3.2H281c1.8,0,2.7-1.5,2.7-3C283.7,97.9,282.8,96.3,281,96.3z"/>
	<path class="st0" d="M302.5,78c-1.6,0-3.8,0.5-5,1.1v-9.6h13.1c1.8,0,2.7-1.5,2.7-3c0-1.7-0.9-3.2-2.7-3.2h-14.3
		c-3.5,0-5.1,0.9-5.1,4.5v14.7c0,3.5,3.4,3.6,4.8,2.6c1.3-0.8,3-1.4,4.5-1.4c4.9,0,7.4,2.5,7.4,6.7c0,3.9-2.6,6.7-6.5,6.7
		c-2.7,0-4.5-1.2-5.9-3c-2.4-3.3-7.5-0.1-5.6,3.4c2.1,3.5,6,5.8,11.6,5.8c8.1,0,13.5-5.8,13.5-13.1C314.9,82.1,309.5,78,302.5,78z"
		/>
</g>
<g>
	<path class="st0" d="M107.1,114.9c-0.8,0-1.7-0.3-2.3-1L81,90.2c-0.6-0.6-1-1.4-1-2.3c0-0.9,0.3-1.7,1-2.3l8.5-8.5
		c0.6-0.6,1.4-1,2.3-1l0,0c0.9,0,1.7,0.3,2.3,1l23.8,23.8c1.3,1.3,1.3,3.3,0,4.6l-8.5,8.5C108.7,114.6,107.9,114.9,107.1,114.9z
		 M87.9,87.9l19.2,19.2l3.9-3.9L91.8,84.1L87.9,87.9z"/>
	<path class="st0" d="M51.1,89.8c-11.3,0-22-4.4-30-12.4c-16.6-16.6-16.6-43.5,0-60.1c8-8,18.7-12.4,30.1-12.4
		c11.4,0,22,4.4,30,12.4c14.3,14.3,16.5,36.8,5.3,53.6c0,0,0,0,0,0c-2.2,3.8-6.2,7.5-8.6,9.5c-0.1,0.1-0.2,0.2-0.3,0.3
		c-0.2,0.1-0.4,0.3-0.5,0.4l-0.2,0.1c-0.4,0.3-0.6,0.5-0.6,0.5c-0.1,0-0.1,0.1-0.2,0.1C68.8,87,60.2,89.8,51.1,89.8z M51.2,11.3
		c-9.6,0-18.7,3.7-25.5,10.5c-14,14-14,36.9,0,50.9c6.8,6.8,15.8,10.5,25.4,10.5c7.7,0,15.1-2.4,21.3-6.9c0,0,0.1-0.1,0.1-0.1
		c0.1-0.1,0.2-0.2,0.4-0.3l0.3-0.2c0,0,0.1-0.1,0.1-0.1c0.1-0.1,0.1-0.1,0.2-0.2c1.6-1.3,5.4-4.6,7.3-7.7c0.1-0.1,0.1-0.3,0.2-0.4
		c9.6-14.2,7.8-33.4-4.4-45.5C69.8,15.1,60.8,11.3,51.2,11.3z"/>
	<path class="st0" d="M87.2,86.6c-0.8,0-1.7-0.3-2.3-1l-8.2-8.2c-1.3-1.3-1.3-3.3,0-4.6c1.3-1.3,3.3-1.3,4.6,0l8.2,8.2
		c1.3,1.3,1.3,3.3,0,4.6C88.8,86.3,88,86.6,87.2,86.6z"/>
	<path class="st0" d="M73.3,30.2c-0.7,0-1.4-0.3-2-0.8c-5.1-5.1-11.9-7.9-19.1-7.9s-14,2.8-19.1,7.9c-1.1,1.1-2.9,1.1-3.9,0
		c-1.1-1.1-1.1-2.9,0-3.9c6.1-6.1,14.3-9.5,23-9.5c8.7,0,16.9,3.4,23,9.5c1.1,1.1,1.1,2.9,0,3.9C74.7,29.9,74,30.2,73.3,30.2z"/>
	<path class="st0" d="M80.5,35.6c1.9,1.9,1.9,4.9,0,6.8c-1.9,1.9-4.9,1.9-6.8,0c-1.9-1.9-1.9-4.9,0-6.8S78.6,33.7,80.5,35.6z"/>
</g>
</svg>
