<?xml version="1.0" encoding="utf-8"?>
<!-- Generator: Adobe Illustrator 24.1.1, SVG Export Plug-In . SVG Version: 6.00 Build 0)  -->
<svg version="1.1" id="Layer_1" xmlns="http://www.w3.org/2000/svg" xmlns:xlink="http://www.w3.org/1999/xlink" x="0px" y="0px"
	 viewBox="0 0 100 100" style="enable-background:new 0 0 100 100;" xml:space="preserve">
<g>
	<path d="M79.6,96.87H4.61c-1.93,0-3.5-1.57-3.5-3.5V6.99c0-1.93,1.57-3.5,3.5-3.5H79.6c1.93,0,3.5,1.57,3.5,3.5v26.56h-7V10.49
		H8.11v79.38H76.1V66.42h7v26.95C83.1,95.31,81.53,96.87,79.6,96.87z"/>
	<rect x="20.03" y="25.69" width="33.45" height="6.13"/>
	<rect x="20.03" y="39.83" width="26.97" height="6.13"/>
	<rect x="20.03" y="53.99" width="26.4" height="6.13"/>
	<rect x="20.03" y="68.13" width="33.45" height="6.13"/>
	<g>
		<path d="M95.5,78.42c-1.04,0-2.06-0.46-2.76-1.34l-9.34-11.87c-1.2-1.52-0.93-3.72,0.59-4.92c1.52-1.2,3.72-0.93,4.92,0.59
			l9.34,11.87c1.2,1.52,0.93,3.72-0.59,4.92C97.02,78.17,96.26,78.42,95.5,78.42z"/>
		<path d="M76.38,69.79c-10.93,0-19.82-8.89-19.82-19.82c0-10.93,8.89-19.82,19.82-19.82c10.93,0,19.82,8.89,19.82,19.82
			C96.19,60.9,87.3,69.79,76.38,69.79z M76.38,37.16c-7.06,0-12.81,5.75-12.81,12.81c0,7.07,5.75,12.82,12.81,12.82
			c7.06,0,12.81-5.75,12.81-12.82C89.19,42.91,83.44,37.16,76.38,37.16z"/>
	</g>
</g>
</svg>
