<?xml version="1.0" encoding="utf-8"?>
<!-- Generator: Adobe Illustrator 25.2.2, SVG Export Plug-In . SVG Version: 6.00 Build 0)  -->
<svg version="1.1" id="Layer_1" xmlns="http://www.w3.org/2000/svg" xmlns:xlink="http://www.w3.org/1999/xlink" x="0px" y="0px"
	 viewBox="0 0 283.5 283.5" style="enable-background:new 0 0 283.5 283.5;" xml:space="preserve">
<style type="text/css">
	.st0{fill:none;}
	.st1{fill:#FFFFFF;}
</style>
<g>
	<g>
		<g>
			<line class="st0" x1="-46.6" y1="608.3" x2="187.1" y2="608.3"/>
			<path d="M187.1,615.9H-46.6c-4.2,0-7.7-3.4-7.7-7.7s3.4-7.7,7.7-7.7h233.7c4.2,0,7.7,3.4,7.7,7.7S191.3,615.9,187.1,615.9z"/>
		</g>
	</g>
	<g>
		<path d="M158.5,569L158.5,569l-38.1-0.1c-2,0-4-0.8-5.4-2.3c-1.4-1.4-2.2-3.4-2.2-5.4l0.3-94.5c0-2,0.8-4,2.3-5.4
			c1.4-1.4,3.6-2.2,5.4-2.2l38.1,0.1c4.2,0,7.7,3.5,7.6,7.7l-0.3,94.5C166.1,565.6,162.7,569,158.5,569z M128.1,553.6l22.8,0.1
			l0.2-79.2l-22.8-0.1L128.1,553.6z"/>
		<path d="M89.2,569H51.1c-4.2,0-7.7-3.4-7.7-7.7V395.1c0-4.2,3.4-7.7,7.7-7.7h38.1c4.2,0,7.7,3.4,7.7,7.7v166.2
			C96.9,565.5,93.5,569,89.2,569z M58.8,553.6h22.8V402.8H58.8V553.6z"/>
		<path d="M19.8,569h-38.1c-4.2,0-7.7-3.4-7.7-7.7v-122c0-4.2,3.4-7.7,7.7-7.7h38.1c4.2,0,7.7,3.4,7.7,7.7v122
			C27.5,565.5,24.1,569,19.8,569z M-10.6,553.6h22.8V447h-22.8V553.6z"/>
	</g>
</g>
<g>
	<g>
		<g>
			<path class="st1" d="M-212.9,269.8L-212.9,269.8c-2.9,0-5.2-2.3-5.2-5.2V218c0-2.9-2.3-5.2-5.2-5.2h-24.1c-2.9,0-5.2-2.3-5.2-5.2
				l0,0c0-2.9,2.3-5.2,5.2-5.2h34.5c2.9,0,5.2,2.3,5.2,5.2v57C-207.7,267.5-210.1,269.8-212.9,269.8z"/>
		</g>
		<g>
			<path class="st1" d="M-271.5,402.6h-106.1V202.4h45.9v10.4h-35.5v179.5h95.7c2.9,0,5.2,2.3,5.2,5.2l0,0
				C-266.3,400.3-268.6,402.6-271.5,402.6z"/>
		</g>
		<g>
			<rect x="-301.9" y="298.1" class="st1" width="34" height="10.4"/>
		</g>
		<g>
			<rect x="-301.9" y="329.6" class="st1" width="34" height="10.4"/>
		</g>
		<g>
			<path class="st1" d="M-247.4,228.8h-89.4v-42.3h89.4V228.8z M-326.4,218.4h68.6v-21.6h-68.6V218.4z"/>
		</g>
		<g>
			<polygon class="st1" points="-334.9,279.1 -350.7,263.4 -343.3,256 -334.9,264.5 -320.2,249.7 -312.8,257.1 			"/>
		</g>
		<g>
			<polygon class="st1" points="-334.9,310.6 -350.7,294.9 -343.3,287.6 -334.9,296 -320.2,281.2 -312.8,288.6 			"/>
		</g>
		<g>
			<polygon class="st1" points="-334.9,342.2 -350.7,326.4 -343.3,319.1 -334.9,327.5 -320.2,312.7 -312.8,320.1 			"/>
		</g>
		<g>
			<rect x="-301.9" y="266.6" class="st1" width="63.8" height="10.4"/>
		</g>
	</g>
	<g>
		<path class="st1" d="M-125.3,299.5H-140l-9.3-20.7c-0.8-1.8-2.5-2.9-4.5-2.9h-63.6c-1.9,0-3.7,1.1-4.5,2.9l-9.3,20.7h-14.7
			c-7,0-12.6,5.7-12.6,12.6v78.2c0,7,5.7,12.6,12.6,12.6h81.5c2.7,0,4.9-2.2,4.9-4.9c0-2.7-2.2-4.9-4.9-4.9h-81.5
			c-1.6,0-2.9-1.3-2.9-2.9V312c0-1.6,1.3-2.9,2.9-2.9h17.9h84.7h17.9c1.6,0,2.9,1.3,2.9,2.9v78.2c0,1.6-1.3,2.9-2.9,2.9h-51.8
			c-2.7,0-4.9,2.2-4.9,4.9c0,2.7,2.2,4.9,4.9,4.9h51.8c7,0,12.6-5.7,12.6-12.6v-78.2C-112.6,305.1-118.3,299.5-125.3,299.5z
			 M-220.3,299.5l6.2-13.9h57.3l6.2,13.9H-220.3z"/>
		<path class="st1" d="M-185.5,312.2c-21.5,0-39,17.5-39,39s17.5,39,39,39s39-17.5,39-39S-164,312.2-185.5,312.2z M-185.5,380.4
			c-16.1,0-29.2-13.1-29.2-29.2s13.1-29.2,29.2-29.2s29.2,13.1,29.2,29.2S-169.4,380.4-185.5,380.4z"/>
		<path class="st1" d="M-185.5,328.2c-12.7,0-23,10.3-23,23s10.3,23,23,23s23-10.3,23-23S-172.8,328.2-185.5,328.2z M-185.5,364.5
			c-7.3,0-13.2-5.9-13.2-13.2c0-7.3,5.9-13.2,13.2-13.2s13.2,5.9,13.2,13.2C-172.3,358.5-178.2,364.5-185.5,364.5z"/>
		<rect x="-148.5" y="315" class="st1" width="7.3" height="7.3"/>
		<rect x="-135.4" y="315" class="st1" width="7.3" height="7.3"/>
	</g>
</g>
<g>
	<g>
		<g>
			<polygon class="st1" points="536.8,-43.1 344.6,-43.1 344.6,-229.2 406.3,-290.9 536.8,-290.9 536.8,-214.2 524.9,-214.2 
				524.9,-279 411.3,-279 356.5,-224.2 356.5,-55 524.9,-55 524.9,-105.9 536.8,-105.9 			"/>
		</g>
		<g>
			<polygon class="st1" points="414.7,-220.8 350.5,-220.8 350.5,-232.7 402.8,-232.7 402.8,-285 414.7,-285 			"/>
		</g>
		<g>
			<path class="st1" d="M556.5-102.7l-31.1-31.1L502-110.5l-31.7-104l104,31.7L551-159.5l31.1,31.1L556.5-102.7z M525.4-150.7
				l31.1,31.1l8.8-8.8l-31.1-31.1l17.7-17.7l-63.7-19.4l19.4,63.7L525.4-150.7z"/>
		</g>
	</g>
	<g>
		<rect x="396.2" y="-178.8" class="st1" width="71" height="11.9"/>
	</g>
	<g>
		<rect x="396.2" y="-152.1" class="st1" width="75.8" height="11.9"/>
	</g>
	<g>
		<rect x="396.2" y="-125.5" class="st1" width="80.5" height="11.9"/>
	</g>
</g>
<g>
	<g>
		<path class="st1" d="M220.5,260.5H78.2v-11.2c9.3,0,16.9-7.6,16.9-16.9V55.8c0-15.5,12.6-28.1,28.1-28.1h142.3v11.2
			c-9.3,0-16.9,7.6-16.9,16.9v176.6C248.6,247.9,236,260.5,220.5,260.5z M100.6,249.3h119.9c9.3,0,16.9-7.6,16.9-16.9V55.8
			c0-6.3,2.1-12.2,5.7-16.9H123.2c-9.3,0-16.9,7.6-16.9,16.9v176.6C106.3,238.7,104.2,244.6,100.6,249.3z"/>
	</g>
	<g>
		<g>
			<path class="st1" d="M70.2,132.3H33.9V45.9c0-10,8.1-18.2,18.2-18.2c10,0,18.2,8.1,18.2,18.2v86.4H70.2z M45.1,121.1h14V45.9
				c0-3.9-3.1-7-7-7s-7,3.1-7,7V121.1z"/>
		</g>
		<g>
			<polygon class="st1" points="52.1,262.5 33.9,227.7 33.9,141.4 45.1,141.4 45.1,225 52.1,238.4 59.1,225 59.1,141.4 70.2,141.4 
				70.2,227.7 			"/>
		</g>
		<g>
			<rect x="13.6" y="46.8" class="st1" width="11.2" height="51.8"/>
		</g>
	</g>
	<g>
		<rect x="141.8" y="69.4" class="st1" width="60.1" height="11.2"/>
	</g>
	<g>
		<g>
			<g>
				<rect x="148.9" y="114.1" class="st1" width="70.5" height="11.2"/>
			</g>
			<g>
				<rect x="124.4" y="114.1" class="st1" width="13.6" height="11.2"/>
			</g>
		</g>
		<g>
			<g>
				<rect x="148.9" y="140" class="st1" width="70.5" height="11.2"/>
			</g>
			<g>
				<rect x="124.4" y="140" class="st1" width="13.6" height="11.2"/>
			</g>
		</g>
		<g>
			<g>
				<rect x="148.9" y="165.9" class="st1" width="70.5" height="11.2"/>
			</g>
			<g>
				<rect x="124.4" y="165.9" class="st1" width="13.6" height="11.2"/>
			</g>
		</g>
	</g>
</g>
<g>
	<g>
		<g>
			<g>
				<path class="st1" d="M-71.9-57.1h-11.7v-173.2c0-6.6,2.2-12.8,5.9-17.7h-149v-11.7h172.4v11.7c-9.7,0-17.7,7.9-17.7,17.7
					L-71.9-57.1L-71.9-57.1z"/>
			</g>
		</g>
		<g>
			<polygon class="st1" points="-95.1,-33.9 -106.8,-33.9 -106.8,-224.8 -249.8,-224.8 -249.8,-236.5 -95.1,-236.5 			"/>
		</g>
		<g>
			<path class="st1" d="M-118.3-4.8h-160.5v-208.4h160.5L-118.3-4.8L-118.3-4.8z M-267.2-16.5H-130v-185.1h-137.2V-16.5z"/>
		</g>
		<g>
			<rect x="-233.3" y="-77.7" class="st1" width="69.5" height="11.7"/>
		</g>
		<g>
			<rect x="-233.3" y="-55.7" class="st1" width="69.5" height="11.7"/>
		</g>
	</g>
	<g>
		<g>
			<line class="st0" x1="-176.3" y1="-139.3" x2="-218.8" y2="-139.3"/>
			<path class="st1" d="M-176.3-132.8h-42.3c-3.3,0-6.2-2.4-6.6-5.6c-0.5-3.9,2.6-7.3,6.4-7.3h42.3c3.3,0,6.2,2.4,6.6,5.6
				C-169.4-136.2-172.5-132.8-176.3-132.8z"/>
		</g>
		<g>
			<line class="st0" x1="-197.5" y1="-160.6" x2="-197.5" y2="-118"/>
			<path class="st1" d="M-198.3-111.6c-3.3-0.4-5.6-3.3-5.6-6.6c0-8.9,0-33.1,0-42c0-3.3,2.4-6.2,5.6-6.6c3.9-0.5,7.3,2.6,7.3,6.4
				v42.5C-191.1-114.2-194.4-111.2-198.3-111.6z"/>
		</g>
		<g>
			<line class="st0" x1="-197.5" y1="-160.6" x2="-197.5" y2="-118"/>
			<path class="st1" d="M-198.3-111.6c-3.3-0.4-5.6-3.3-5.6-6.6c0-8.9,0-33.1,0-42c0-3.3,2.4-6.2,5.6-6.6c3.9-0.5,7.3,2.6,7.3,6.4
				v42.5C-191.1-114.2-194.4-111.2-198.3-111.6z"/>
		</g>
		<g>
			<line class="st0" x1="-197.5" y1="-160.6" x2="-197.5" y2="-118"/>
			<path class="st1" d="M-198.3-111.6c-3.3-0.4-5.6-3.3-5.6-6.6c0-8.9,0-33.1,0-42c0-3.3,2.4-6.2,5.6-6.6c3.9-0.5,7.3,2.6,7.3,6.4
				v42.5C-191.1-114.2-194.4-111.2-198.3-111.6z"/>
		</g>
	</g>
</g>
</svg>
