<?xml version="1.0" encoding="utf-8"?>
<!-- Generator: Adobe Illustrator 24.2.1, SVG Export Plug-In . SVG Version: 6.00 Build 0)  -->
<svg version="1.1" id="Layer_1" xmlns="http://www.w3.org/2000/svg" xmlns:xlink="http://www.w3.org/1999/xlink" x="0px" y="0px"
	 viewBox="0 0 283.5 283.5" style="enable-background:new 0 0 283.5 283.5;" xml:space="preserve">
<style type="text/css">
	.st0{fill:#FFFFFF;}
</style>
<g>
	<g>
		<g>
			<line x1="8.9" y1="557.5" x2="250.9" y2="557.5"/>
			<path d="M250.9,565.5H8.9c-4.4,0-7.9-3.6-7.9-7.9s3.6-7.9,7.9-7.9h242c4.4,0,7.9,3.6,7.9,7.9S255.3,565.5,250.9,565.5z"/>
		</g>
	</g>
	<g>
		<path d="M221.3,516.9C221.3,516.9,221.3,516.9,221.3,516.9l-39.5-0.1c-2.1,0-4.1-0.8-5.6-2.3c-1.5-1.5-2.3-3.5-2.3-5.6l0.3-97.9
			c0-2.1,0.8-4.1,2.3-5.6c1.5-1.5,3.7-2.3,5.6-2.3l39.5,0.1c4.4,0,7.9,3.6,7.9,8l-0.3,97.9C229.3,513.3,225.7,516.9,221.3,516.9z
			 M189.8,500.9l23.6,0.1l0.2-82l-23.6-0.1L189.8,500.9z"/>
		<path d="M149.6,516.8h-39.5c-4.4,0-7.9-3.6-7.9-7.9V336.8c0-4.4,3.6-7.9,7.9-7.9h39.5c4.4,0,7.9,3.6,7.9,7.9v172.1
			C157.5,513.3,154,516.8,149.6,516.8z M118,500.9h23.6V344.7H118V500.9z"/>
		<path d="M77.7,516.8H38.2c-4.4,0-7.9-3.6-7.9-7.9V382.6c0-4.4,3.6-7.9,7.9-7.9h39.5c4.4,0,7.9,3.6,7.9,7.9v126.3
			C85.6,513.3,82.1,516.8,77.7,516.8z M46.2,500.9h23.6V390.5H46.2V500.9z"/>
	</g>
</g>
<g>
	<g>
		<g>
			<path class="st0" d="M241.9,218.2h-11.7V45c0-6.6,2.2-12.8,5.9-17.7h-149V15.6h172.4v11.7c-9.7,0-17.7,7.9-17.7,17.7V218.2z"/>
		</g>
	</g>
	<g>
		<polygon class="st0" points="218.7,241.4 207,241.4 207,50.5 64,50.5 64,38.8 218.7,38.8 		"/>
	</g>
	<g>
		<path class="st0" d="M195.5,270.4H34.9V62h160.5V270.4z M46.6,258.7h137.2V73.7H46.6V258.7z"/>
	</g>
	<g>
		<rect x="80.5" y="197.6" class="st0" width="69.5" height="11.7"/>
	</g>
	<g>
		<rect x="80.5" y="219.5" class="st0" width="69.5" height="11.7"/>
	</g>
</g>
<g>
	<g>
		<g>
			<path class="st0" d="M-141.4,263L-141.4,263c-2.9,0-5.2-2.3-5.2-5.2v-46.6c0-2.9-2.3-5.2-5.2-5.2h-24.1c-2.9,0-5.2-2.3-5.2-5.2
				l0,0c0-2.9,2.3-5.2,5.2-5.2h34.5c2.9,0,5.2,2.3,5.2,5.2v57C-136.2,260.6-138.6,263-141.4,263z"/>
		</g>
		<g>
			<path class="st0" d="M-200,395.8H-306V195.6h45.9V206h-35.5v179.5h95.7c2.9,0,5.2,2.3,5.2,5.2l0,0
				C-194.8,393.5-197.1,395.8-200,395.8z"/>
		</g>
		<g>
			<rect x="-230.4" y="291.3" class="st0" width="34" height="10.4"/>
		</g>
		<g>
			<rect x="-230.4" y="322.8" class="st0" width="34" height="10.4"/>
		</g>
		<g>
			<path class="st0" d="M-175.9,221.9h-89.4v-42.3h89.4V221.9z M-254.9,211.5h68.6V190h-68.6V211.5z"/>
		</g>
		<g>
			<polygon class="st0" points="-263.4,272.3 -279.2,256.5 -271.8,249.2 -263.4,257.6 -248.7,242.9 -241.3,250.2 			"/>
		</g>
		<g>
			<polygon class="st0" points="-263.4,303.8 -279.2,288.1 -271.8,280.7 -263.4,289.1 -248.7,274.4 -241.3,281.7 			"/>
		</g>
		<g>
			<polygon class="st0" points="-263.4,335.3 -279.2,319.6 -271.8,312.2 -263.4,320.6 -248.7,305.9 -241.3,313.2 			"/>
		</g>
		<g>
			<rect x="-230.4" y="259.8" class="st0" width="63.8" height="10.4"/>
		</g>
	</g>
	<g>
		<path class="st0" d="M-53.7,292.6h-14.7l-9.3-20.7c-0.8-1.8-2.5-2.9-4.5-2.9h-63.6c-1.9,0-3.7,1.1-4.5,2.9l-9.3,20.7h-14.7
			c-7,0-12.6,5.7-12.6,12.6v78.2c0,7,5.7,12.6,12.6,12.6h81.5c2.7,0,4.9-2.2,4.9-4.9c0-2.7-2.2-4.9-4.9-4.9h-81.5
			c-1.6,0-2.9-1.3-2.9-2.9v-78.2c0-1.6,1.3-2.9,2.9-2.9h17.9h84.7h17.9c1.6,0,2.9,1.3,2.9,2.9v78.2c0,1.6-1.3,2.9-2.9,2.9h-51.8
			c-2.7,0-4.9,2.2-4.9,4.9c0,2.7,2.2,4.9,4.9,4.9h51.8c7,0,12.6-5.7,12.6-12.6v-78.2C-41.1,298.3-46.8,292.6-53.7,292.6z
			 M-148.8,292.6l6.2-13.9h57.3l6.2,13.9H-148.8z"/>
		<path class="st0" d="M-114,305.4c-21.5,0-39,17.5-39,39c0,21.5,17.5,39,39,39c21.5,0,39-17.5,39-39
			C-75,322.9-92.5,305.4-114,305.4z M-114,373.6c-16.1,0-29.2-13.1-29.2-29.2c0-16.1,13.1-29.2,29.2-29.2
			c16.1,0,29.2,13.1,29.2,29.2C-84.8,360.5-97.9,373.6-114,373.6z"/>
		<path class="st0" d="M-114,321.4c-12.7,0-23,10.3-23,23c0,12.7,10.3,23,23,23c12.7,0,23-10.3,23-23
			C-91,331.7-101.3,321.4-114,321.4z M-114,357.6c-7.3,0-13.2-5.9-13.2-13.2c0-7.3,5.9-13.2,13.2-13.2c7.3,0,13.2,5.9,13.2,13.2
			C-100.8,351.7-106.7,357.6-114,357.6z"/>
		<rect x="-77" y="308.1" class="st0" width="7.3" height="7.3"/>
		<rect x="-63.9" y="308.1" class="st0" width="7.3" height="7.3"/>
	</g>
</g>
<g>
	<g>
		<g>
			<polygon points="571,213.5 378.9,213.5 378.9,27.4 440.6,-34.3 571,-34.3 571,42.4 559.1,42.4 559.1,-22.4 445.5,-22.4 
				390.7,32.4 390.7,201.6 559.1,201.6 559.1,150.7 571,150.7 			"/>
		</g>
		<g>
			<polygon points="449,35.9 384.8,35.9 384.8,24 437.1,24 437.1,-28.4 449,-28.4 			"/>
		</g>
		<g>
			<path d="M590.8,153.9l-31.1-31.1l-23.3,23.3l-31.7-104l104,31.7l-23.3,23.3l31.1,31.1L590.8,153.9z M559.6,106l31.1,31.1l8.8-8.8
				l-31.1-31.1l17.7-17.7L522.5,60l19.4,63.7L559.6,106z"/>
		</g>
	</g>
	<g>
		<rect x="430.5" y="77.8" width="71" height="11.9"/>
	</g>
	<g>
		<rect x="430.5" y="104.5" width="75.8" height="11.9"/>
	</g>
	<g>
		<rect x="430.5" y="131.1" width="80.5" height="11.9"/>
	</g>
</g>
<g>
	<g>
		<path d="M540.3,575.3H398v-11.2c9.3,0,16.9-7.6,16.9-16.9V370.6c0-15.5,12.6-28.1,28.1-28.1h142.3v11.2c-9.3,0-16.9,7.6-16.9,16.9
			v176.6C568.4,562.7,555.8,575.3,540.3,575.3z M420.4,564.1h119.9c9.3,0,16.9-7.6,16.9-16.9V370.6c0-6.3,2.1-12.2,5.7-16.9H443
			c-9.3,0-16.9,7.6-16.9,16.9v176.6C426.1,553.5,424,559.4,420.4,564.1z"/>
	</g>
	<g>
		<g>
			<path d="M390,447.1h-36.3v-86.4c0-10,8.1-18.2,18.2-18.2c10,0,18.2,8.1,18.2,18.2V447.1z M364.9,435.9h14v-75.2c0-3.9-3.1-7-7-7
				c-3.9,0-7,3.1-7,7V435.9z"/>
		</g>
		<g>
			<polygon points="371.9,577.3 353.7,542.5 353.7,456.2 364.9,456.2 364.9,539.8 371.9,553.2 378.9,539.8 378.9,456.2 390,456.2 
				390,542.5 			"/>
		</g>
		<g>
			<rect x="333.4" y="361.6" width="11.2" height="51.8"/>
		</g>
	</g>
	<g>
		<rect x="461.6" y="384.2" width="60.1" height="11.2"/>
	</g>
	<g>
		<g>
			<g>
				<rect x="468.7" y="429" width="70.5" height="11.2"/>
			</g>
			<g>
				<rect x="444.2" y="429" width="13.6" height="11.2"/>
			</g>
		</g>
		<g>
			<g>
				<rect x="468.7" y="454.8" width="70.5" height="11.2"/>
			</g>
			<g>
				<rect x="444.2" y="454.8" width="13.6" height="11.2"/>
			</g>
		</g>
		<g>
			<g>
				<rect x="468.7" y="480.7" width="70.5" height="11.2"/>
			</g>
			<g>
				<rect x="444.2" y="480.7" width="13.6" height="11.2"/>
			</g>
		</g>
	</g>
</g>
<g>
	<g>
		<line class="st0" x1="137.5" y1="136" x2="95" y2="136"/>
		<path class="st0" d="M137.5,142.4l-42.3,0c-3.3,0-6.2-2.4-6.6-5.6c-0.5-3.9,2.6-7.3,6.4-7.3l42.3,0c3.3,0,6.2,2.4,6.6,5.6
			C144.4,139.1,141.4,142.4,137.5,142.4z"/>
	</g>
	<g>
		<line class="st0" x1="116.3" y1="114.7" x2="116.3" y2="157.2"/>
		<path class="st0" d="M115.5,163.6c-3.3-0.4-5.6-3.3-5.6-6.6c0-8.9,0-33.1,0-42c0-3.3,2.4-6.2,5.6-6.6c3.9-0.5,7.3,2.6,7.3,6.4
			v42.5C122.7,161.1,119.4,164.1,115.5,163.6z"/>
	</g>
	<g>
		<line class="st0" x1="116.3" y1="114.7" x2="116.3" y2="157.2"/>
		<path class="st0" d="M115.5,163.6c-3.3-0.4-5.6-3.3-5.6-6.6c0-8.9,0-33.1,0-42c0-3.3,2.4-6.2,5.6-6.6c3.9-0.5,7.3,2.6,7.3,6.4
			v42.5C122.7,161.1,119.4,164.1,115.5,163.6z"/>
	</g>
	<g>
		<line class="st0" x1="116.3" y1="114.7" x2="116.3" y2="157.2"/>
		<path class="st0" d="M115.5,163.6c-3.3-0.4-5.6-3.3-5.6-6.6c0-8.9,0-33.1,0-42c0-3.3,2.4-6.2,5.6-6.6c3.9-0.5,7.3,2.6,7.3,6.4
			v42.5C122.7,161.1,119.4,164.1,115.5,163.6z"/>
	</g>
</g>
</svg>
