<?xml version="1.0" encoding="utf-8"?>
<!-- Generator: Adobe Illustrator 25.2.2, SVG Export Plug-In . SVG Version: 6.00 Build 0)  -->
<svg version="1.1" id="Layer_1" xmlns="http://www.w3.org/2000/svg" xmlns:xlink="http://www.w3.org/1999/xlink" x="0px" y="0px"
	 viewBox="0 0 283.5 283.5" style="enable-background:new 0 0 283.5 283.5;" xml:space="preserve">
<style type="text/css">
	.st0{fill:#3B93FF;}
</style>
<g>
	<path class="st0" d="M236.7,78.9h-16.2l-10.8-17c-2.9-4.6-7.9-7.3-13.3-7.3h-36.4c-5.4,0-10.4,2.7-13.3,7.3l-10.8,17h-89
		c-8.7,0-15.8,7.1-15.8,15.8v112.9c0,8.7,7.1,15.8,15.8,15.8h189.9c8.7,0,15.8-7.1,15.8-15.8V94.7C252.5,86,245.4,78.9,236.7,78.9z
		 M155.5,67.6c1-1.5,2.6-2.4,4.4-2.4h36.4c1.8,0,3.5,0.9,4.4,2.4l7.2,11.3h-59.7L155.5,67.6z M242,207.6c0,2.9-2.4,5.3-5.3,5.3H46.8
		c-2.9,0-5.3-2.4-5.3-5.3V94.7c0-2.9,2.4-5.3,5.3-5.3h91.9h79h19.1c2.9,0,5.3,2.4,5.3,5.3V207.6z"/>
	<path class="st0" d="M67.3,98.4H56.8c-2.9,0-5.3,2.4-5.3,5.3s2.4,5.3,5.3,5.3h10.6c2.9,0,5.3-2.4,5.3-5.3S70.3,98.4,67.3,98.4z"/>
	<path class="st0" d="M141.2,101c-27.6,0-50.1,22.5-50.1,50.1s22.5,50.1,50.1,50.1c27.6,0,50.1-22.5,50.1-50.1S168.8,101,141.2,101z
		 M141.2,190.7c-21.8,0-39.6-17.8-39.6-39.6s17.8-39.6,39.6-39.6c21.8,0,39.6,17.8,39.6,39.6S163,190.7,141.2,190.7z"/>
	<path class="st0" d="M141.2,122.1c-16,0-29,13-29,29c0,2.9,2.4,5.3,5.3,5.3c2.9,0,5.3-2.4,5.3-5.3c0-10.2,8.3-18.5,18.5-18.5
		c2.9,0,5.3-2.4,5.3-5.3C146.5,124.5,144.1,122.1,141.2,122.1z"/>
</g>
</svg>
