<?xml version="1.0" encoding="utf-8"?>
<!-- Generator: Adobe Illustrator 23.1.0, SVG Export Plug-In . SVG Version: 6.00 Build 0)  -->
<svg version="1.1" id="레이어_1" xmlns="http://www.w3.org/2000/svg" xmlns:xlink="http://www.w3.org/1999/xlink" x="0px"
	 y="0px" viewBox="0 0 595.5 672" style="enable-background:new 0 0 595.5 672;" xml:space="preserve">
<style type="text/css">
	.st0{fill:#333333;}
	.st1{fill:#FFDA1A;}
	.st2{fill:#BCBCBC;}
	.st3{fill:#FFFFFF;}
</style>
<g>
	<rect x="221.9" y="608.5" transform="matrix(0.1409 -0.99 0.99 0.1409 -393.7451 770.3157)" class="st0" width="50.1" height="7"/>
</g>
<g>
	<rect x="347.6" y="587" transform="matrix(0.99 -0.1408 0.1408 0.99 -82.6636 55.5229)" class="st0" width="7" height="50.1"/>
</g>
<g>
	<path class="st0" d="M583.6,538.9H14.4c-1.9,0-3.5-1.6-3.5-3.5V232.7c0-8,6.5-14.6,14.6-14.6h547c8,0,14.6,6.5,14.6,14.6v302.7
		C587.1,537.4,585.6,538.9,583.6,538.9z M17.9,531.9h562.2V232.7c0-4.2-3.4-7.6-7.6-7.6h-547c-4.2,0-7.6,3.4-7.6,7.6V531.9z"/>
</g>
<g>
	<path class="st0" d="M572.6,590.7h-547c-8,0-14.6-6.5-14.6-14.6v-40.7h7v40.7c0,4.2,3.4,7.6,7.6,7.6h547c4.2,0,7.6-3.4,7.6-7.6
		v-40.7h7v40.7C587.1,584.2,580.6,590.7,572.6,590.7z"/>
</g>
<g>
	<path class="st0" d="M550.5,518.5H47.6c-4.5,0-8.1-3.6-8.1-8.1V254.8c0-4.5,3.6-8.1,8.1-8.1h502.8c4.5,0,8.1,3.6,8.1,8.1v255.6
		C558.5,514.8,554.9,518.5,550.5,518.5z M47.6,253.7c-0.6,0-1.1,0.5-1.1,1.1v255.6c0,0.6,0.5,1.1,1.1,1.1h502.8
		c0.6,0,1.1-0.5,1.1-1.1V254.8c0-0.6-0.5-1.1-1.1-1.1H47.6z"/>
</g>
<g>
	<path class="st0" d="M421.8,664.9H176.3c-1.9,0-3.5-1.6-3.5-3.5c0-16,15.4-28,35.8-28h181c20.4,0,35.8,12.1,35.8,28
		C425.3,663.3,423.7,664.9,421.8,664.9z M180.1,657.9h237.8c-2.3-11.4-15.7-17.5-28.4-17.5h-181
		C195.9,640.4,182.4,646.5,180.1,657.9z"/>
</g>
<g>
	<path class="st0" d="M299,578.9c-9.7,0-17.6-7.9-17.6-17.6c0-9.7,7.9-17.6,17.6-17.6c9.7,0,17.6,7.9,17.6,17.6
		C316.6,571,308.7,578.9,299,578.9z M299,550.8c-5.8,0-10.6,4.7-10.6,10.6c0,5.8,4.7,10.6,10.6,10.6c5.8,0,10.6-4.7,10.6-10.6
		C309.6,555.5,304.9,550.8,299,550.8z"/>
</g>
<g>
	<g>
		<path class="st0" d="M299,484.2c-16.8,0-23.9-9.5-26.9-13.6c-0.2-0.3-0.4-0.6-0.6-0.8l3.9-3.1c0.2,0.3,0.4,0.6,0.7,0.9
			c2.8,3.7,8.5,11.5,22.9,11.5c14.3,0,20.1-7.8,22.9-11.5c0.3-0.4,0.5-0.7,0.7-0.9l3.9,3.1c-0.2,0.2-0.4,0.5-0.6,0.8
			C322.9,474.7,315.9,484.2,299,484.2z"/>
	</g>
	<path class="st1" d="M349.3,376.3c7.4-8.5,13.2-15.4,13.2-31.9c0-17.4,5.3-29.6,13-40.2c7.7-10.6,38.4-44.3,38.4-99
		S362.1,97.7,299,97.7c-63.1,0-114.8,52.9-114.8,107.6s30.7,88.4,38.4,99c7.7,10.6,13,22.8,13,40.2c0,16.5,5.8,23.5,13.2,31.9"/>
	<path class="st2" d="M299,376.3h52.8v11.3c0,0,0.1,2.2-2.2,3.9c-2.4,1.8-2,3.3-0.6,4.6c1.7,1.6,4.5,3.1,2.3,5.2
		c-2.3,2.1-4.4,3.1-2.5,5.1c1.7,1.8,4.8,3.6,2.2,5.9c-2.4,2.2-4.5,3.5-1.8,5.7c2.4,2.1,3.7,3.2,1.6,5c-2,1.8-3.6,3.1-1.7,4.9
		c1.9,1.7,4.7,3.3,2.3,5.6c-2.3,2.1-4.2,3.7-2.4,5.8c1.9,2.2,3.8,2.6,2.6,6.5c-1.2,4.2-6.2,11.3-9.9,15.3
		c-4.3,4.5-12.6,10.1-16.8,10.1c-4.1,0-25.7,0-25.7,0s-22.8,0-26.9,0c-4.1,0-12-4.5-15.9-8c-3.8-3.5-8.1-9.3-9.6-12.1
		c-1.9-3.5,0.7-4.3,2.6-6.5c1.8-2.1-0.2-3.6-2.4-5.8c-2.4-2.3,0.3-3.9,2.3-5.6c1.9-1.7,0.3-3-1.7-4.9c-2.1-1.8-0.8-3,1.6-5
		c2.6-2.2,0.5-3.6-2-5.6c-2.9-2.3,0.7-4.2,2.4-6c1.8-2-0.3-3-2.5-5.1c-2.3-2.1,0.6-3.7,2.3-5.2c1.4-1.3,1.8-2.8-0.6-4.6
		c-2.3-1.7-2.2-3.9-2.2-3.9v-16.6H299z"/>
	<g>
		<path class="st0" d="M317.4,376.3h-5v-69.9c0-0.1,0-0.2,0-0.3c1.4-11.6,10.7-33.1,16.9-47.4c0.5-1.1,0.9-2.2,1.4-3.2
			c-0.1,0-0.2,0-0.2,0c-3.9-0.3-7.5-1.4-10.4-3.1c-2.3,1.1-5,1.8-8.1,2.1c-4.6,0.4-9.7-0.4-13.8-2.4c-5.5,2.9-13,2.8-19.2,0.7
			c-0.9-0.3-1.8-0.7-2.7-1.1c-3,2-5.8,3.2-8.3,3.9c6.4,13.5,15.5,35.1,20,51.7c0.1,0.2,0.1,0.4,0.1,0.7v68.3h-5v-67.9
			c-4.6-16.9-14-38.9-20.3-52c-2.7,0-4.9-0.5-6.4-1c-4-1.4-7.1-4.1-7.8-7c-0.9-3.3,1-6.9,4.2-8.2c2.8-1.1,6.8-0.6,9.7,4.5
			c0.8,1.4,2,3.6,3.3,6.3c1.8-0.4,3.7-1,5.9-2.2c-2.5-2.3-3.7-5-3.3-7.8c0.7-5.1,4.2-7.2,7.1-7.6c3.6-0.4,7.1,1.5,8.4,4.7
			c0.6,1.6,1.4,5.4-3.1,10.1c4,1.3,8.8,1.7,12.6,0.6c-1-1.1-1.8-2.3-2.4-3.7c-1.8-4.5-0.9-8.5,2.4-10.8c3.1-2.2,7.5-2,10.2,0.4
			c1.4,1.3,4.2,5,0.3,12c-0.4,0.7-0.8,1.3-1.3,1.9c2.7,0.9,5.8,1.2,9,1c0.8-0.1,2.3-0.2,3.9-0.7c-0.7-0.8-1.4-1.7-1.9-2.6
			c-2-3.7-1.7-7.4,1-10c2.5-2.5,6.5-3.2,9.4-1.6c1.4,0.8,4.5,3.2,3.2,9.4c-0.4,1.9-1.3,3.6-2.6,5.1c1.9,0.8,4,1.3,6.3,1.4
			c0.6,0.1,1.3,0.1,1.9,0.1c0.9-2.1,1.6-3.9,1.9-4.9c1.4-4.3,4.3-7,7.8-7.4c2.8-0.3,5.4,1,6.6,3.3c1.3,2.3,0.9,5.3-1.1,7.8
			c-2.6,3.3-6.8,5.4-11.8,6c-0.7,1.6-1.5,3.4-2.3,5.3c-6,13.9-15,34.9-16.5,45.9V376.3z M255.1,244.8c-0.2,0-0.4,0-0.6,0.1
			c-0.9,0.4-1.5,1.4-1.2,2.3c0.2,0.8,1.9,2.6,4.6,3.5c0.6,0.2,1.3,0.4,2.2,0.6c-0.8-1.6-1.6-3-2.1-4
			C257.6,246.5,256.4,244.8,255.1,244.8z M343.2,243.4c-0.1,0-0.1,0-0.2,0c-1.5,0.1-2.8,1.6-3.5,3.9c-0.2,0.7-0.5,1.6-1,2.6
			c2.4-0.7,4.3-1.9,5.6-3.5c0.7-0.9,1-1.8,0.7-2.3C344.5,243.7,343.8,243.4,343.2,243.4z M320.5,238.8c-0.8,0-1.8,0.4-2.5,1
			c-1.3,1.3-0.8,2.9-0.1,4.1c0.5,1,1.3,1.8,2.2,2.6c1-0.9,1.8-2,2.1-3.5c0.2-1,0.6-3.3-0.7-4C321.3,238.9,320.9,238.8,320.5,238.8z
			 M298.2,237.9c-0.7,0-1.5,0.2-2,0.6c-1.6,1.1-1.2,3.3-0.6,4.9c0.4,1.1,1.3,2.1,2.4,3c0.6-0.6,1.1-1.2,1.5-1.9
			c1.5-2.7,1.8-4.9,0.7-5.9C299.6,238.1,298.9,237.9,298.2,237.9z M276.3,238.5c-0.1,0-0.3,0-0.4,0c-1.5,0.2-2.5,1.3-2.8,3.3
			c-0.2,1.3,0.8,2.8,2.7,4.1c3.1-2.6,3.7-4.7,3.2-5.9C278.7,239.1,277.5,238.5,276.3,238.5z"/>
	</g>
	<g>
		
			<rect x="246.5" y="389.1" transform="matrix(0.9985 -5.390572e-02 5.390572e-02 0.9985 -20.6738 16.7081)" class="st0" width="105.7" height="5"/>
	</g>
	<g>
		
			<rect x="246.2" y="400.1" transform="matrix(0.9985 -5.410190e-02 5.410190e-02 0.9985 -21.3423 16.7687)" class="st0" width="105.7" height="5"/>
	</g>
	<g>
		
			<rect x="246.2" y="411" transform="matrix(0.9985 -5.392893e-02 5.392893e-02 0.9985 -21.8622 16.729)" class="st0" width="105.7" height="5"/>
	</g>
	<g>
		
			<rect x="246.5" y="421.3" transform="matrix(0.9985 -5.390572e-02 5.390572e-02 0.9985 -22.4108 16.755)" class="st0" width="105.7" height="5"/>
	</g>
	<g>
		
			<rect x="246.1" y="432.3" transform="matrix(0.9985 -5.390572e-02 5.390572e-02 0.9985 -23.0053 16.7465)" class="st0" width="105.7" height="5"/>
	</g>
	<g>
		
			<rect x="246.1" y="444" transform="matrix(0.9985 -5.390572e-02 5.390572e-02 0.9985 -23.6361 16.7635)" class="st0" width="105.7" height="5"/>
	</g>
</g>
<g>
	<rect x="295.5" y="19" class="st0" width="7" height="47"/>
</g>
<g>
	<rect x="225.9" y="34.4" transform="matrix(0.9063 -0.4226 0.4226 0.9063 -2.957 102.3657)" class="st0" width="7" height="47"/>
</g>
<g>
	<rect x="169.2" y="77.7" transform="matrix(0.6428 -0.7661 0.7661 0.6428 -15.8006 168.4795)" class="st0" width="7" height="47"/>
</g>
<g>
	
		<rect x="136.2" y="140.9" transform="matrix(0.2588 -0.9659 0.9659 0.2588 -55.2301 256.8043)" class="st0" width="7" height="47"/>
</g>
<g>
	<rect x="344.7" y="54.4" transform="matrix(0.4226 -0.9063 0.9063 0.4226 160.16 367.1004)" class="st0" width="47" height="7"/>
</g>
<g>
	<rect x="401.3" y="97.7" transform="matrix(0.766 -0.6428 0.6428 0.766 34.3652 296.7724)" class="st0" width="47" height="7"/>
</g>
<g>
	<rect x="434.4" y="160.9" transform="matrix(0.9659 -0.2589 0.2589 0.9659 -26.9501 124.152)" class="st0" width="47" height="7"/>
</g>
<g>
	<path class="st3" d="M209.1,212.5h-8c0-23.7,8.6-46.7,24.2-64.6c15.4-17.7,36.7-29.3,59.8-32.7l1.2,7.9
		C242.2,129.6,209.1,168,209.1,212.5z"/>
</g>
<g>
	<rect x="296.5" y="481.7" class="st0" width="5" height="33.2"/>
</g>
</svg>
