<?xml version="1.0" encoding="utf-8"?>
<!-- Generator: Adobe Illustrator 25.2.2, SVG Export Plug-In . SVG Version: 6.00 Build 0)  -->
<svg version="1.1" id="Layer_1" xmlns="http://www.w3.org/2000/svg" xmlns:xlink="http://www.w3.org/1999/xlink" x="0px" y="0px"
	 viewBox="0 0 149.8 149.8" style="enable-background:new 0 0 149.8 149.8;" xml:space="preserve">
<style type="text/css">
	.st0{fill:none;stroke:#D7E9FF;stroke-width:2;stroke-miterlimit:10;}
	.st1{fill:#D7E9FF;}
	.st2{fill:#3B93FF;}
</style>
<circle class="st0" cx="-34.4" cy="-99.5" r="68.6"/>
<circle class="st1" cx="-34.4" cy="-99.5" r="64"/>
<g>
	<path class="st2" d="M-32.4-106h-3l-0.6-13.1h4.3L-32.4-106z M-32-101.5c0,0.3-0.1,0.6-0.3,0.8c-0.2,0.2-0.5,0.3-0.9,0.3H-36v-4h4
		V-101.5z"/>
</g>
<g>
	<path class="st2" d="M-33.7-134c-5.5-0.1-10.8,2.1-14.8,6c-4,3.9-6.2,9.1-6.3,14.7c0,4.8,1.6,9.5,4.7,13.3
		c2.4,2.9,3.7,6.6,3.7,10.4v0.3c0,1.1,0.9,2,2,2h9.2c1.1,0,2-0.9,2-2c0-1.1-0.9-2-2-2h-7.3c-0.3-4.1-1.9-8-4.5-11.2
		c-2.5-3-3.8-6.8-3.8-10.8c0-4.5,1.8-8.7,5.1-11.9c3.3-3.2,7.5-4.9,12-4.9c9.2,0.1,16.6,7.7,16.6,16.9c0,3.9-1.3,7.7-3.8,10.7
		c-2.6,3.2-4.2,7.1-4.5,11.2h-0.9c-1.1,0-2,0.9-2,2c0,1.1,0.9,2,2,2h2.8c1.1,0,2-0.9,2-2v-0.3c0-3.8,1.3-7.5,3.7-10.4
		c3-3.7,4.7-8.4,4.7-13.1C-13.3-124.5-22.4-133.8-33.7-134z"/>
	<path class="st2" d="M-23.4-85.9h-21.3c-1.1,0-2,0.9-2,2s0.9,2,2,2h21.3c1.1,0,2-0.9,2-2S-22.3-85.9-23.4-85.9z"/>
	<path class="st2" d="M-25.7-81h-16.6c-1.1,0-2,0.9-2,2c0,1.1,0.9,2,2,2h16.6c1.1,0,2-0.9,2-2C-23.8-80.1-24.7-81-25.7-81z"/>
	<path class="st2" d="M-28.4-76.1h-11.2c-1.1,0-2,0.9-2,2c0,1.1,0.9,2,2,2h11.2c1.1,0,2-0.9,2-2C-26.5-75.3-27.3-76.1-28.4-76.1z"/>
	<path class="st2" d="M-34.2-67.9h0.3c1.7,0,3.1-1.4,3.1-3.1h-6.4C-37.2-69.2-35.9-67.9-34.2-67.9z"/>
</g>
<g>
	<path class="st2" d="M97.1,131.7l-0.9-8c3.9-0.4,6.9-1.5,8.2-2.3c5.3-3.2,8.8-9.8,9.4-18.1l8,0.6c-0.8,11-5.7,19.9-13.3,24.4
		C105.8,129.9,101.5,131.2,97.1,131.7z"/>
	<path class="st2" d="M116.1,60.6c-2.7-21.5-20.2-37.1-41.6-37.1c-21.4,0-38.9,15.6-41.5,37.1l-7.9-1c3.2-25.6,24-44.1,49.5-44.1
		c25.5,0,46.4,18.6,49.6,44.1L116.1,60.6z"/>
	<path class="st2" d="M113.4,107.6h-1c-0.1,0-0.3,0-0.4,0c-3.2-0.3-5.6-3.2-5.6-6.8V60.1c0-3.6,2.4-6.5,5.6-6.8c0.1,0,0.3,0,0.4,0h1
		c13.1,0,24.4,9.2,26.7,21.9c0.8,4.2,0.1,9.9,0,10.6c0,0.1,0,0.2-0.1,0.3C137.4,98.5,126.2,107.6,113.4,107.6z M114.5,61.2v38.3
		c8.5-0.5,15.9-6.7,17.7-15.1c0.2-1.6,0.5-5.6,0-8C130.6,68,123.3,61.7,114.5,61.2z"/>
	<path class="st2" d="M37.4,107.6h-1c-12.8,0-24-9.1-26.6-21.6c0-0.1,0-0.2-0.1-0.3c-0.1-1.2-0.8-7.2,0-10.8
		c3-12.8,14-21.7,26.6-21.7h1c0.1,0,0.3,0,0.4,0c3.2,0.3,5.5,3.2,5.5,6.8v40.7c0,3.6-2.4,6.5-5.5,6.8
		C37.7,107.6,37.6,107.6,37.4,107.6z M17.7,84.5c1.8,8.4,9.2,14.6,17.7,15.1V61.2c-8.5,0.5-15.7,6.7-17.8,15.5
		C17.2,78.3,17.4,82.2,17.7,84.5z"/>
	<path class="st2" d="M99.1,127.9c0,3.5-2.9,6.4-6.4,6.4h-9.5c-3.5,0-6.4-2.9-6.4-6.4l0,0c0-3.5,2.9-6.4,6.4-6.4h9.5
		C96.2,121.5,99.1,124.4,99.1,127.9L99.1,127.9z"/>
</g>
</svg>
