<?xml version="1.0" encoding="utf-8"?>
<!-- Generator: Adobe Illustrator 25.2.2, SVG Export Plug-In . SVG Version: 6.00 Build 0)  -->
<svg version="1.1" id="Layer_1" xmlns="http://www.w3.org/2000/svg" xmlns:xlink="http://www.w3.org/1999/xlink" x="0px" y="0px"
	 viewBox="0 0 149.8 149.8" style="enable-background:new 0 0 149.8 149.8;" xml:space="preserve">
<style type="text/css">
	.st0{fill:none;stroke:#D7E9FF;stroke-width:2;stroke-miterlimit:10;}
	.st1{fill:#D7E9FF;}
	.st2{fill:#3B93FF;}
	.st3{fill:url(#SVGID_1_);}
</style>
<circle class="st0" cx="74.9" cy="74.9" r="68.6"/>
<circle class="st1" cx="74.9" cy="74.9" r="64"/>
<g>
	<path class="st2" d="M76.9,68.5h-3l-0.6-13.1h4.3L76.9,68.5z M77.3,72.9c0,0.3-0.1,0.6-0.3,0.8c-0.2,0.2-0.5,0.3-0.9,0.3h-2.8v-4h4
		V72.9z"/>
</g>
<g>
	<path class="st2" d="M75.6,40.4c-5.5-0.1-10.8,2.1-14.8,6c-4,3.9-6.2,9.1-6.3,14.7c0,4.8,1.6,9.5,4.7,13.3
		c2.4,2.9,3.7,6.6,3.7,10.4V85c0,1.1,0.9,2,2,2H74c1.1,0,2-0.9,2-2c0-1.1-0.9-2-2-2h-7.3c-0.3-4.1-1.9-8-4.5-11.2
		c-2.5-3-3.8-6.8-3.8-10.8c0-4.5,1.8-8.7,5.1-11.9c3.3-3.2,7.5-4.9,12-4.9c9.2,0.1,16.6,7.7,16.6,16.9c0,3.9-1.3,7.7-3.8,10.7
		c-2.6,3.2-4.2,7.1-4.5,11.2h-0.9c-1.1,0-2,0.9-2,2c0,1.1,0.9,2,2,2h2.8c1.1,0,2-0.9,2-2v-0.3c0-3.8,1.3-7.5,3.7-10.4
		c3-3.7,4.7-8.4,4.7-13.1C96,49.9,86.9,40.6,75.6,40.4z"/>
	<path class="st2" d="M85.9,88.5H64.6c-1.1,0-2,0.9-2,2s0.9,2,2,2h21.3c1.1,0,2-0.9,2-2S87,88.5,85.9,88.5z"/>
	<path class="st2" d="M83.6,93.4H67c-1.1,0-2,0.9-2,2c0,1.1,0.9,2,2,2h16.6c1.1,0,2-0.9,2-2C85.5,94.3,84.7,93.4,83.6,93.4z"/>
	<path class="st2" d="M80.9,98.3H69.7c-1.1,0-2,0.9-2,2c0,1.1,0.9,2,2,2h11.2c1.1,0,2-0.9,2-2C82.9,99.2,82,98.3,80.9,98.3z"/>
	<path class="st2" d="M75.1,106.6h0.3c1.7,0,3.1-1.4,3.1-3.1h-6.4C72.1,105.2,73.4,106.6,75.1,106.6z"/>
</g>
<g>
	<path class="st2" d="M110.2,337.5l-0.9-8c3.9-0.4,6.9-1.5,8.2-2.3c5.3-3.2,8.8-9.8,9.4-18.1l8,0.6c-0.8,11-5.7,19.9-13.3,24.4
		C118.8,335.7,114.5,337,110.2,337.5z"/>
	<path class="st2" d="M129.1,266.4c-2.7-21.5-20.2-37.1-41.6-37.1c-21.4,0-38.9,15.6-41.5,37.1l-7.9-1c3.2-25.6,24-44.1,49.5-44.1
		c25.5,0,46.4,18.6,49.6,44.1L129.1,266.4z"/>
	<path class="st2" d="M126.4,313.4h-1c-0.1,0-0.3,0-0.4,0c-3.2-0.3-5.6-3.2-5.6-6.8v-40.7c0-3.6,2.4-6.5,5.6-6.8c0.1,0,0.3,0,0.4,0
		h1c13.1,0,24.4,9.2,26.7,21.9c0.8,4.2,0.1,9.9,0,10.6c0,0.1,0,0.2-0.1,0.3C150.4,304.3,139.2,313.4,126.4,313.4z M127.5,267v38.3
		c8.5-0.5,15.9-6.7,17.7-15.1c0.2-1.6,0.5-5.6,0-8C143.7,273.8,136.3,267.5,127.5,267z"/>
	<path class="st2" d="M50.4,313.4h-1c-12.8,0-24-9.1-26.6-21.6c0-0.1,0-0.2-0.1-0.3c-0.1-1.2-0.8-7.2,0-10.8
		c3-12.8,14-21.7,26.6-21.7h1c0.1,0,0.3,0,0.4,0c3.2,0.3,5.5,3.2,5.5,6.8v40.7c0,3.6-2.4,6.5-5.5,6.8
		C50.7,313.4,50.6,313.4,50.4,313.4z M30.7,290.3c1.8,8.4,9.2,14.6,17.7,15.1V267c-8.5,0.5-15.7,6.7-17.8,15.5
		C30.2,284.1,30.4,288,30.7,290.3z"/>
	<linearGradient id="SVGID_1_" gradientUnits="userSpaceOnUse" x1="89.7697" y1="333.7239" x2="112.0842" y2="333.7239">
		<stop  offset="0" style="stop-color:#F25838"/>
		<stop  offset="0.2126" style="stop-color:#ED4B30"/>
		<stop  offset="0.6063" style="stop-color:#DE291A"/>
		<stop  offset="1" style="stop-color:#CD0000"/>
	</linearGradient>
	<path class="st3" d="M112.1,333.7c0,3.5-2.9,6.4-6.4,6.4h-9.5c-3.5,0-6.4-2.9-6.4-6.4l0,0c0-3.5,2.9-6.4,6.4-6.4h9.5
		C109.2,327.3,112.1,330.2,112.1,333.7L112.1,333.7z"/>
</g>
</svg>
