<?xml version="1.0" encoding="utf-8"?>
<!-- Generator: Adobe Illustrator 25.2.3, SVG Export Plug-In . SVG Version: 6.00 Build 0)  -->
<svg version="1.1" id="Layer_1" xmlns="http://www.w3.org/2000/svg" xmlns:xlink="http://www.w3.org/1999/xlink" x="0px" y="0px"
	 viewBox="0 0 186.3 186.3" style="enable-background:new 0 0 186.3 186.3;" xml:space="preserve">
<style type="text/css">
	.st0{fill:#CDCDCD;}
	.st1{fill:#CDCDCD;stroke:#CDCDCD;stroke-linecap:round;stroke-miterlimit:10;}
</style>
<path class="st0" d="M149.1,173.3H34.9V14.1h114.2V173.3z M40.6,167.6h102.8V19.8H40.6V167.6z"/>
<path class="st0" d="M120,36.4H64.2c-2.6,0-4.7,1.9-4.7,4.4l0,0c0,2.4,2.1,4.4,4.7,4.4H120c2.6,0,4.7-1.9,4.7-4.4l0,0
	C124.7,38.3,122.6,36.4,120,36.4z"/>
<path class="st0" d="M123.4,55.9H60.8c-0.7,0-1.3,0.6-1.3,1.3l0,0c0,0.7,0.6,1.3,1.3,1.3h62.6c0.7,0,1.3-0.6,1.3-1.3l0,0
	C124.7,56.5,124.1,55.9,123.4,55.9z"/>
<path class="st0" d="M123.4,63.7H60.8c-0.7,0-1.3,0.6-1.3,1.3l0,0c0,0.7,0.6,1.3,1.3,1.3h62.6c0.7,0,1.3-0.6,1.3-1.3l0,0
	C124.7,64.3,124.1,63.7,123.4,63.7z"/>
<path class="st0" d="M123.4,71.5H60.8c-0.7,0-1.3,0.6-1.3,1.3l0,0c0,0.7,0.6,1.3,1.3,1.3h62.6c0.7,0,1.3-0.6,1.3-1.3l0,0
	C124.7,72.1,124.1,71.5,123.4,71.5z"/>
<path class="st0" d="M123.4,79.3H60.8c-0.7,0-1.3,0.6-1.3,1.3l0,0c0,0.7,0.6,1.3,1.3,1.3h62.6c0.7,0,1.3-0.6,1.3-1.3l0,0
	C124.7,79.9,124.1,79.3,123.4,79.3z"/>
<path class="st0" d="M123.4,87H60.8c-0.7,0-1.3,0.6-1.3,1.3l0,0c0,0.7,0.6,1.3,1.3,1.3h62.6c0.7,0,1.3-0.6,1.3-1.3l0,0
	C124.7,87.6,124.1,87,123.4,87z"/>
<path class="st0" d="M87.1,96.4H61c-0.7,0-1.3,0.6-1.3,1.3l0,0c0,0.7,0.6,1.3,1.3,1.3h26.1c0.7,0,1.3-0.6,1.3-1.3l0,0
	C88.4,97,87.9,96.4,87.1,96.4z"/>
<path class="st1" d="M121.7,151.1c-3.6-1.5-7.6-2.7-12-3.5c-2.7,0.7-6,1.4-10,2c-6.8,0.9-11.9,1.3-15.8,1.3
	c-14.1,0.1-12.2-4.5-0.1-5.5c6.7-0.6,13.7-0.4,20.4,0.4c1.8,0.2,3.6,0.5,5.4,0.9c2.1-0.6,5.4-1.7,6.3-3.1c0.8-1.2-0.6-2.1-2.2-2.6
	c-4.2-1.5-11.4-1.4-16-1l0.1-0.5c5.5-0.4,12.7-0.8,17,0.7c2.3,0.8,4,2.1,2.9,3.7c-0.8,1.2-4.1,2.5-6.1,3.2
	C113.9,147.5,120.1,149.1,121.7,151.1L121.7,151.1z M107.6,147.2c-1.2-0.2-2.4-0.4-3.6-0.6c-6.5-0.9-13.4-1-19.9-0.4
	c-9.4,0.9-9.9,3.9-0.1,3.8c3.7,0,8.7-0.4,15.4-1.3C102.6,148.2,105.3,147.7,107.6,147.2L107.6,147.2z"/>
<path class="st0" d="M123.2,102.6c-0.7-0.6-1.5-1.2-2.2-1.8c-0.8-0.6-1.5-1.1-2.3-1.6c-0.8-0.5-1.6-1-2.4-1.4
	c-0.8-0.5-1.6-0.9-2.5-1.3l0,0c-0.1,0-0.1,0-0.2,0.1l-2.5,5.3c0,0-0.1,0-0.1,0c-0.1,0-0.3,0-0.4,0.1c-0.3,0.2-0.7,0.7-0.9,1.2
	c-0.1,0.2-0.2,0.4-0.2,0.6c0,0.2,0,0.4,0,0.6c0,0.2,0.2,0.4,0.3,0.5c0,0.1-0.1,0.2-0.1,0.3c-0.5,1-0.7,1.6-0.6,1.9
	c0,0.3,0.2,0.5,0.5,0.6c-2.6,4.4-5.3,8-8.5,11.8c0,0,0,0.1,0,0.1c0.2,3.1-0.2,6.5-0.7,9.9c-0.7,3.9-1.8,7.7-2.7,10.4l0,0
	c0,0,0,0,0,0l0.1,0l0,0.1l0.2,0.1l0-0.1l0.1,0c0,0,0,0,0,0l0,0c1.6-2.3,3.9-5.2,6.6-7.8c2.3-2.2,4.9-4.3,7.3-5.6
	c0,0,0.1-0.1,0.1-0.1c1.3-5.1,2.8-9.5,4.8-14.2c0.2,0.2,0.4,0.3,0.7,0.1c0.3-0.1,0.6-0.6,1.2-1.6l0.1-0.3c0.2,0.1,0.4,0.1,0.6,0.1
	c0.2-0.1,0.3-0.2,0.5-0.3c0.1-0.1,0.3-0.3,0.4-0.5c0.3-0.5,0.5-1.1,0.4-1.5c0-0.2-0.1-0.3-0.1-0.5c0,0,0-0.1-0.1-0.1l0-0.1l2.8-5
	l0,0C123.2,102.8,123.2,102.7,123.2,102.6z"/>
</svg>
