<?xml version="1.0" encoding="utf-8"?>
<!-- Generator: Adobe Illustrator 24.2.1, SVG Export Plug-In . SVG Version: 6.00 Build 0)  -->
<svg version="1.1" id="Layer_1" xmlns="http://www.w3.org/2000/svg" xmlns:xlink="http://www.w3.org/1999/xlink" x="0px" y="0px"
	 viewBox="0 0 242.8 233.6" style="enable-background:new 0 0 242.8 233.6;" xml:space="preserve">
<style type="text/css">
	.st0{fill:#FFFFFF;stroke:#231815;stroke-miterlimit:10;}
	.st1{fill:#D8D8D8;}
	.st2{opacity:0.5;fill:#D0D2EA;}
	.st3{fill:#2A84FF;}
	.st4{fill:#FFD14C;}
	.st5{fill:none;stroke:#FF9834;stroke-miterlimit:10;}
	.st6{fill:none;stroke:#FFFFFF;stroke-width:2;stroke-linecap:round;stroke-linejoin:round;stroke-miterlimit:10;}
	.st7{fill:#FFFFFF;stroke:#231815;stroke-linecap:round;stroke-linejoin:round;stroke-miterlimit:10;}
	.st8{fill:#231815;}
	.st9{fill:#FFFFFF;stroke:#231815;stroke-linecap:round;stroke-miterlimit:10;}
	.st10{fill:none;stroke:#500B02;stroke-miterlimit:10;}
	.st11{fill:none;stroke:#231815;stroke-width:2;stroke-miterlimit:10;}
	.st12{fill:none;stroke:#FFFFFF;stroke-miterlimit:10;}
</style>
<path class="st0" d="M225,70.4c0-3.9-3.2-7.1-7.1-7.1H113.1c3.9,0,7.1,3.2,7.1,7.1v7.1h0v137.9H225V77.5h0V70.4z"/>
<path class="st0" d="M113.1,63.3c-3.9,0-7.1,3.2-7.1,7.1v4.1h14.2v-4.1C120.2,66.5,117,63.3,113.1,63.3z"/>
<g>
	<rect x="146.8" y="85.7" class="st1" width="51.5" height="1.2"/>
	<rect x="146.8" y="91" class="st1" width="51.5" height="1.2"/>
	<rect x="129.5" y="102" class="st1" width="86.3" height="1.2"/>
	<rect x="129.5" y="109.7" class="st1" width="86.3" height="1.2"/>
	<rect x="129.5" y="117.4" class="st1" width="86.3" height="1.2"/>
	<rect x="129.5" y="125" class="st1" width="86.3" height="1.2"/>
	<rect x="129.5" y="132.7" class="st1" width="86.3" height="1.2"/>
	<rect x="129.5" y="140.4" class="st1" width="86.3" height="1.2"/>
	<rect x="129.5" y="148.1" class="st1" width="86.3" height="1.2"/>
	<rect x="129.5" y="155.7" class="st1" width="86.3" height="1.2"/>
	<rect x="129.5" y="163.4" class="st1" width="86.3" height="1.2"/>
	<rect x="129.5" y="171.1" class="st1" width="86.3" height="1.2"/>
	<rect x="129.5" y="178.8" class="st1" width="86.3" height="1.2"/>
	<rect x="178.2" y="199.8" class="st1" width="33.8" height="1.2"/>
</g>
<path class="st2" d="M230.2,68.6c-0.7-0.6-0.9-1.6-0.5-2.4h0c0.5-1.1,0-2.4-1.2-2.8v0c-0.9-0.3-1.4-1.1-1.4-2
	c0.1-1.2-0.9-2.2-2.2-2.2c-0.9,0-1.7-0.5-2-1.4c-0.4-1.2-1.7-1.7-2.8-1.2l0,0c-0.8,0.4-1.8,0.2-2.4-0.5v0c-0.8-0.9-2.2-0.9-3.1,0v0
	c-0.6,0.7-1.6,0.9-2.4,0.5l0,0c-1.1-0.5-2.4,0-2.8,1.2c-0.3,0.9-1.1,1.4-2,1.4c-1.2-0.1-2.2,0.9-2.2,2.2c0,0.9-0.5,1.7-1.4,2v0
	c-1.2,0.4-1.7,1.7-1.2,2.8c0.4,0.8,0.2,1.8-0.5,2.4c-0.9,0.8-0.9,2.2,0,3.1c0.7,0.6,0.9,1.6,0.5,2.4c-0.5,1.1,0,2.4,1.2,2.8l0,0
	c0.9,0.3,1.4,1.1,1.4,2c-0.1,1.2,0.9,2.2,2.2,2.2c0.9,0,1.7,0.5,2,1.4c0.2,0.6,0.7,1,1.2,1.2v16.4l5.6-3.7l5.6,3.7V83.7
	c0.5-0.2,1-0.6,1.2-1.2c0.3-0.9,1.1-1.4,2-1.4c1.2,0.1,2.2-0.9,2.2-2.2c0-0.9,0.5-1.7,1.4-2l0,0c1.2-0.4,1.7-1.7,1.2-2.8h0
	c-0.4-0.8-0.2-1.8,0.5-2.4C231.1,70.9,231.1,69.4,230.2,68.6z"/>
<g>
	<polygon class="st3" points="220.1,98.5 214.5,94.8 209,98.5 209,75.5 220.1,75.5 	"/>
	<path class="st4" d="M216.1,54.5L216.1,54.5c0.6,0.7,1.6,0.9,2.4,0.5v0c1.1-0.5,2.4,0,2.8,1.2v0c0.3,0.9,1.1,1.4,2,1.4l0,0
		c1.2-0.1,2.2,0.9,2.2,2.2v0c0,0.9,0.5,1.7,1.4,2l0,0c1.2,0.4,1.7,1.7,1.2,2.8l0,0c-0.4,0.8-0.2,1.8,0.5,2.4v0
		c0.9,0.8,0.9,2.2,0,3.1l0,0c-0.7,0.6-0.9,1.6-0.5,2.4v0c0.5,1.1,0,2.4-1.2,2.8v0c-0.9,0.3-1.4,1.1-1.4,2l0,0
		c0.1,1.2-0.9,2.2-2.2,2.2l0,0c-0.9,0-1.7,0.5-2,1.4v0c-0.4,1.2-1.7,1.7-2.8,1.2l0,0c-0.8-0.4-1.8-0.2-2.4,0.5h0
		c-0.8,0.9-2.2,0.9-3.1,0h0c-0.6-0.7-1.6-0.9-2.4-0.5l0,0c-1.1,0.5-2.4,0-2.8-1.2v0c-0.3-0.9-1.1-1.4-2-1.4l0,0
		c-1.2,0.1-2.2-0.9-2.2-2.2l0,0c0-0.9-0.5-1.7-1.4-2v0c-1.2-0.4-1.7-1.7-1.2-2.8v0c0.4-0.8,0.2-1.8-0.5-2.4l0,0
		c-0.9-0.8-0.9-2.2,0-3.1v0c0.7-0.6,0.9-1.6,0.5-2.4l0,0c-0.5-1.1,0-2.4,1.2-2.8l0,0c0.9-0.3,1.4-1.1,1.4-2v0
		c-0.1-1.2,0.9-2.2,2.2-2.2l0,0c0.9,0,1.7-0.5,2-1.4v0c0.4-1.2,1.7-1.7,2.8-1.2v0c0.8,0.4,1.8,0.2,2.4-0.5l0,0
		C213.8,53.6,215.3,53.6,216.1,54.5z"/>
	<path class="st5" d="M214.5,81.4c-0.1,0-0.1,0-0.2-0.1c-0.7-0.8-1.8-1.3-2.9-1.3c-0.6,0-1.1,0.1-1.7,0.4c0,0-0.1,0-0.1,0
		c-0.1,0-0.2,0-0.2-0.2c-0.6-1.5-2-2.6-3.7-2.6c-0.1,0-0.1,0-0.2,0c0,0,0,0,0,0c-0.1,0-0.2,0-0.2-0.1c0-0.1-0.1-0.1-0.1-0.2
		c0.1-1.7-0.9-3.3-2.6-3.9c-0.1,0-0.1-0.1-0.1-0.1s0-0.1,0-0.2c0.7-1.6,0.4-3.4-0.9-4.5c-0.1,0-0.1-0.1-0.1-0.2s0-0.1,0.1-0.2
		c1.3-1.2,1.6-3,0.9-4.5c0-0.1,0-0.1,0-0.2c0-0.1,0.1-0.1,0.1-0.1c1.6-0.6,2.7-2.1,2.6-3.9c0-0.1,0-0.1,0.1-0.2c0,0,0.1-0.1,0.2-0.1
		c0.1,0,0.1,0,0.2,0c1.6,0,3.1-1,3.7-2.6c0-0.1,0.2-0.2,0.2-0.2c0,0,0.1,0,0.1,0c0.5,0.2,1.1,0.4,1.7,0.4c1.1,0,2.1-0.5,2.9-1.3
		c0-0.1,0.1-0.1,0.2-0.1c0.1,0,0.1,0,0.2,0.1c0.7,0.8,1.8,1.3,2.9,1.3c0.6,0,1.1-0.1,1.7-0.4c0,0,0.1,0,0.1,0c0.1,0,0.2,0,0.2,0.2
		c0.6,1.5,2,2.6,3.7,2.6c0.1,0,0.1,0,0.2,0c0,0,0,0,0,0c0.1,0,0.2,0,0.2,0.1c0,0.1,0.1,0.1,0.1,0.2c-0.1,1.7,0.9,3.3,2.6,3.9
		c0.1,0,0.1,0.1,0.1,0.1c0,0.1,0,0.1,0,0.2c-0.7,1.6-0.4,3.4,0.9,4.5c0.1,0,0.1,0.1,0.1,0.2s0,0.1-0.1,0.2c-1.3,1.2-1.6,3-0.9,4.5
		c0,0.1,0,0.1,0,0.2c0,0.1-0.1,0.1-0.1,0.1c-1.6,0.6-2.7,2.1-2.6,3.9c0,0.1,0,0.1-0.1,0.2c0,0-0.1,0.1-0.2,0.1c-0.1,0-0.1,0-0.2,0
		c-1.6,0-3.1,1-3.7,2.6c0,0.1-0.2,0.2-0.2,0.2c0,0-0.1,0-0.1,0c-0.5-0.2-1.1-0.4-1.7-0.4c-1.1,0-2.1,0.5-2.9,1.3
		C214.7,81.4,214.6,81.4,214.5,81.4z"/>
	<polyline class="st6" points="221.4,64.9 213.4,72.9 208.6,68.1 	"/>
</g>
<path class="st7" d="M146.2,214.8c-0.3-0.1-5.5-3.3-9.6-7.4l-12.3-56.4c-2-8.1-7.4-11.5-12.2-10.3c-12.8,3.1-8.9,17.7-8.9,17.7
	l16.1,55.4c0.8,3.1,1.8,6.8,2.6,8.9l0.1,0.3l0,0c0.2,0.6,0.4,1,0.6,1.2C149.5,228.1,146.2,214.8,146.2,214.8z"/>
<g>
	<g>
		<g>
			<g>
				<g>
					<g>
						<path class="st0" d="M94,38.1c0,0,4.9-5.7,7.1-4.4c2.2,1.3,0.4,2.3,0.4,2.3s3.7-0.1,3.6,2c0,0,2.5,0.5,2.7,2.7
							c0.6,0.7,2.8-0.9,1.9,3.1c-0.9,3.9-9.2,16.3-9.2,16.3s-9.7,0.6-9.7,0.6c-0.2-0.1-0.1-1-0.1-1.2c0-0.9,0-1.9,0-2.8
							c0.1-2.5,0.2-5,0.3-7.5c0.1-1.3,0.2-2.7,0.1-4c0-1.5-0.9-3.4-0.2-4.7C91.5,39.2,92.9,38.6,94,38.1z"/>
					</g>
				</g>
			</g>
		</g>
		<g>
			
				<rect x="104.4" y="46.6" transform="matrix(0.7897 -0.6134 0.6134 0.7897 -7.7511 75.079)" class="st0" width="2.4" height="4.4"/>
			<polygon class="st0" points="103.5,49.6 107,46.9 94.4,29.8 89.8,33.4 			"/>
		</g>
		<path class="st0" d="M100.2,34.1c0,0-2.9,2.3-2.7,4.4c0.2,2.1,1.8,3.1,4.9-1.6C103.8,34.7,101.8,32.7,100.2,34.1z"/>
		<path class="st0" d="M102.5,36.1c0,0-2.9,2.3-2.7,4.4c0.2,2.1,1.8,3.1,4.9-1.6C106.2,36.7,104.1,34.7,102.5,36.1z"/>
		<path class="st0" d="M104.9,38.1c0,0-2.9,2.3-2.7,4.4c0.2,2.1,1.8,3.1,4.9-1.6C108.5,38.7,106.5,36.7,104.9,38.1z"/>
		<path class="st0" d="M107.2,40.1c0,0-2.9,2.3-2.7,4.4c0.1,2.1,1.8,3.1,4.9-1.6C110.8,40.7,108.8,38.7,107.2,40.1z"/>
		<path class="st0" d="M99.7,39.9c0,0,1.5-0.6,3.2-4.2"/>
		<path class="st0" d="M102.1,41.9c0,0,1.5-0.6,3.2-4.2"/>
		<path class="st0" d="M104.3,43.9c0,0,1.5-0.6,3.2-4.2"/>
		<path class="st0" d="M106.6,46c0,0,1,0.2,2.7-3.4"/>
		<path class="st7" d="M95.7,44.9c0,0,0.9-1.7-0.3-4.1"/>
		<path class="st0" d="M98.5,35.8c0,0,0.4-1,1.3-1.2"/>
	</g>
	<g>
		<g>
			<path class="st0" d="M92.8,14.5C87.7,9.7,80,10,75.7,15.3c-4.4,5.2-3.7,13.4,1.4,18.2c5.1,4.8,12.8,4.5,17.1-0.7
				C98.5,27.5,97.9,19.3,92.8,14.5z M92.3,30.9c-3.5,4.2-9.6,4.4-13.7,0.6c-4.1-3.8-4.6-10.3-1.1-14.5c3.5-4.2,9.6-4.4,13.7-0.6
				C95.3,20.3,95.8,26.8,92.3,30.9z"/>
			<path class="st0" d="M77.6,17c-3.5,4.2-3,10.7,1.1,14.5c4.1,3.8,10.2,3.6,13.7-0.6c3.5-4.2,3-10.7-1.1-14.5
				C87.2,12.6,81,12.9,77.6,17z"/>
		</g>
	</g>
</g>
<path class="st8" d="M50.8,14.4c0,5.8-4.7,10.5-10.5,10.5c-5.8,0-10.5-4.7-10.5-10.5c0-5.8,4.7-10.5,10.5-10.5
	C46.1,3.9,50.8,8.6,50.8,14.4z"/>
<path class="st0" d="M67.8,54.1c-3.8-4.2-11.6-5.2-16.5-4.8c-14.3,1.1-26.2,9.3-29.7,23.9c-1.4,5.7,0.5,31-0.7,38.3l45-2.3
	c1.4-10.9,2.5-21.8,3.3-32.7c0.4-5.7,2.7-15.8-0.4-21C68.6,55,68.2,54.6,67.8,54.1z"/>
<path class="st0" d="M67.6,53.6c0,0,9,7.5,22.5,26.6l3.7,5.3l-20.1,8.6C73.8,94.1,52.4,68,67.6,53.6z"/>
<path class="st7" d="M47.1,34.4c-0.8,6.6-1.8,16.2-1.8,16.2c10.7,7.5,13.3,1.2,13.3,1.2c0.1-1.2,0.2-2.7,0.4-4.2l0.2-1.4
	c0.2-1.9,0.5-3.7,0.6-4.7c0.7-0.1,1.4-0.3,2-0.7c5-3.3,3.5-12.2,3.5-15c-0.1-2.2-0.3-5.3-1.8-7.1c-1.2-1.5-3.4-1.4-5.1-1.7
	c-2.2-0.3-4.4-0.6-6.6-0.2c-2.3,0.5-4.8,1.8-6.6,3.3"/>
<path class="st8" d="M47.6,27.7c4.4-1,12.1-4.4,13.3-9.1c1.2,2.6,2.5,5.7,4.4,7.8c-0.3-0.3,3.1-5,0.2-10c-1.9-2.9-6-4.4-9.3-4.7
	c-4.9-0.4-18.8,1.7-13.4,16.6"/>
<path class="st7" d="M46.9,29.1c0,0-1.7-3.3-4.2-1.6c-2.5,1.7-1.7,6,4.4,6.7"/>
<path class="st8" d="M55.5,28.4c-0.8-0.6-1.1,1-0.9,1.5c0.4,1.1,1.2-0.4,1-1.3L55.5,28.4z"/>
<path class="st8" d="M63.1,27.9c-0.7-0.5-1,0.9-0.8,1.3c0.3,1,1.1-0.3,0.9-1.1L63.1,27.9z"/>
<line class="st9" x1="44.1" y1="29.5" x2="45.5" y2="30.8"/>
<path class="st0" d="M78.1,87.9C68.2,80.4,58.3,73,48.7,65.2c-3.9-3.2-9.5-4.5-14.4-3.2c-5.7,1.6-9.4,7.4-9.6,13.1
	c-0.2,5.2,3.4,9.7,7,13.1c2.4,2.2,5,4.2,7.8,6c6.2,4.1,12.3,8.3,18.8,11.9c3.2,1.8,8.3,2,13.6,1.5c0.1,0,0.3,0,0.4,0l31-0.4"/>
<path class="st0" d="M118.8,105.3l-4-17L82,90.5"/>
<g>
	<path class="st7" d="M86.9,53.3l-9.6,34l16.8,13.5c0,0,10.6-38.6,11.3-42.9L86.9,53.3z"/>
</g>
<line class="st10" x1="114.9" y1="105" x2="112.1" y2="90.9"/>
<path class="st7" d="M101.2,144.7c-8.7-5.8-18.4,7.2-18.4,7.2l-28.1,58.4c-0.9,1.3-1.8,2.8-2.5,4.3c-2.6,6-0.4,12-0.4,12h7.7h33.4
	c1.3-3.9-11-6.9-15.7-10.7c-2.3-1.9-2.9-3.9-2.8-5.4l29-50C107.3,153.2,105.3,147.4,101.2,144.7z"/>
<g>
	<path class="st7" d="M51.3,228.4c2.5,1,18.6,0.3,21.5,0.5c5.3,0.4,10.9,0.5,16.2-0.1c4.6-0.6,10.8-2.1,5.9-6.9
		c-3.3-3.2-7.3-5.3-11.4-7.4c-4-2-7.2-5.7-11.6-3.9c-3.1,1.3-3.7,5.6-6.7,7.2c-1.5,0.8-14,1.6-15.1,0.1
		C50.5,221.5,48.8,227.4,51.3,228.4z"/>
</g>
<g>
	<path class="st7" d="M121.4,228.9c2.5,1,18.6,0.3,21.5,0.5c5.3,0.4,10.9,0.5,16.2-0.1c4.6-0.6,10.8-2.1,5.9-6.9
		c-3.3-3.2-7.3-5.3-11.4-7.4c-4-2-7.2-5.7-11.6-3.9c-3.1,1.3-3.7,5.6-6.7,7.2c-1.5,0.8-14,1.6-15.1,0.1
		C120.6,222,118.9,227.9,121.4,228.9z"/>
</g>
<path class="st4" d="M21.8,106.9c-4.7,12.6-6.3,28.9,1.7,40.6c3.7,5.4,10.8,12.1,17.8,12c4.6,0,9.2-0.1,13.8-0.2
	c11.1-0.3,22.3,0,33.5-0.1c2.7,0,5.3,0,8,0c0,0,7.7-1,15.5-11.6c7.7-10.7,3.9-17.4,3.9-17.4l-43.7-8.7l-3-14.5"/>
<polygon class="st0" points="114.4,79.7 98.8,112.6 73,112.6 73,115.6 97.4,115.6 105.7,115.6 145.2,115.6 161.6,79.7 "/>
<line class="st7" x1="66.7" y1="104.6" x2="42.3" y2="87.1"/>
<g>
	<path class="st7" d="M59.7,49.8c2.2-0.9,7,5.1,5.6,6.3c-1.7,1.5-6.6-1.8-6.8-2.9c0,0,1.1,3,1,3.9c-0.2,1.8,0.3,4.6-4.1,3.7
		c-6.5-1.5-13.5-8.5-13.5-8.5l3.1-4.3C44.9,48,55.5,51.4,59.7,49.8z"/>
</g>
<line class="st0" x1="88.8" y1="58.3" x2="101.4" y2="61.4"/>
<polyline class="st11" points="4.7,58.3 21.2,159 69.6,159 "/>
<path class="st12" d="M35.5,107.8v18c0,0,0,19,19,19s57.5,0,57.5,0"/>
<polyline class="st7" points="59.3,28.3 61.7,34.3 59.3,35.2 "/>
<g>
	<path d="M158.8,119c1.5-1.9,3.1-3.5,5.5-4.5c2.4-1,5.2-1.6,8.4-1.6c3.4,0,6.3,0.5,8.7,1.4c2.4,0.9,4.3,2.3,5.5,4
		c1.3,1.8,1.9,3.9,1.9,6.4v0c0,1.5-0.3,2.9-0.8,4.1c-0.5,1.2-1.2,2.3-1.9,3.1s-1.8,2-3.1,3.2c-1.4,1.4-2.6,2.6-3.5,3.6
		c-0.9,1-1.6,2.3-2.2,3.8c-0.3,0.7-0.5,1.5-0.7,2.4c-0.3,1.6-1.7,2.7-3.3,2.7h-1.8c-2.1,0-3.8-2-3.3-4.1c0.2-0.7,0.4-1.3,0.6-1.9
		c0.7-1.8,1.5-3.2,2.5-4.4c1-1.2,2.2-2.6,3.8-4.2c1.1-1.2,2-2.1,2.7-2.9c0.7-0.8,1.2-1.6,1.6-2.5c0.4-0.9,0.6-1.9,0.6-3v0
		c0-1.8-0.6-3.3-1.9-4.3c-1.3-1-3-1.5-5.3-1.5c-2.3,0-4.1,0.6-5.4,1.9c0,0-0.7,0.9-1.3,2.3c-0.8,1.9-2.7,3.1-4.7,3.1h0
		c-2.6,0-4.5-2.5-3.6-5C158.1,120.3,158.4,119.5,158.8,119z M171,152.7h2.4c1.9,0,3.4,1.5,3.4,3.4v0c0,1.9-1.5,3.4-3.4,3.4H171
		c-1.9,0-3.4-1.5-3.4-3.4v0C167.6,154.2,169.1,152.7,171,152.7z"/>
</g>
</svg>
