<?xml version="1.0" encoding="utf-8"?>
<!-- Generator: Adobe Illustrator 24.2.3, SVG Export Plug-In . SVG Version: 6.00 Build 0)  -->
<svg version="1.1" id="Layer_1" xmlns="http://www.w3.org/2000/svg" xmlns:xlink="http://www.w3.org/1999/xlink" x="0px" y="0px"
	 viewBox="0 0 186.3 186.3" style="enable-background:new 0 0 186.3 186.3;" xml:space="preserve">
<style type="text/css">
	.st0{fill:#CDCDCD;}
	.st1{fill:url(#SVGID_1_);}
</style>
<path class="st0" d="M95.8,18.1v-4.7h6.4V3.9H84.5v9.5h6.4v4.7c-13.5,0.6-26.8,6-37.1,16.2c-21.7,21.6-21.7,57.3,0,78.9
	c21.7,21.7,57.3,21.7,79,0c21.7-21.6,21.7-57.3,0-78.9C122.6,24.1,109.3,18.7,95.8,18.1L95.8,18.1z M100.4,73.3
	c0.1,6.7-8,10.3-12.8,5.5c-4.5-4.5-2-11.5,3.9-12.8V35.8c0-1.9,2.8-2,2.8,0.1v30.1c1.7,0.2,2.9,1,3.9,2.1l24-9.1
	c4-1.5,5.5,4,2.2,5.2L100.4,73.3L100.4,73.3z M126.1,41c17.9,17.9,17.9,47.5,0,65.4c-18,18-47.4,18-65.5,0
	C42.7,88.5,42.7,59,60.6,41C78.6,23.1,108.1,23.1,126.1,41L126.1,41z"/>
<linearGradient id="SVGID_1_" gradientUnits="userSpaceOnUse" x1="-365.4258" y1="326.9334" x2="-365.4258" y2="376.4692" gradientTransform="matrix(1.0691 0 0 1.0691 484.033 -220.0021)">
	<stop  offset="1.000000e-02" style="stop-color:#D9D9D9"/>
	<stop  offset="0.99" style="stop-color:#FFFFFF"/>
</linearGradient>
<path class="st1" d="M37.7,182.5c0.7-13.4,6.1-26.6,16.2-36.7c21.7-21.7,57.3-21.7,79,0c10.1,10.1,15.5,23.3,16.2,36.7h-9.6
	c-0.7-10.9-5.1-21.6-13.4-29.9c-18-18-47.4-18-65.5,0c-8.3,8.3-12.7,19-13.4,29.9H37.7L37.7,182.5z M99.7,182.5
	c-2-4.4-8.2-6.1-12.2-2.2c-0.7,0.7-1.2,1.4-1.6,2.2H99.7L99.7,182.5z"/>
</svg>
