<?xml version="1.0" encoding="utf-8"?>
<!-- Generator: Adobe Illustrator 24.2.1, SVG Export Plug-In . SVG Version: 6.00 Build 0)  -->
<svg version="1.1" id="Layer_1" xmlns="http://www.w3.org/2000/svg" xmlns:xlink="http://www.w3.org/1999/xlink" x="0px" y="0px"
	 viewBox="0 0 310.8 167.6" style="enable-background:new 0 0 310.8 167.6;" xml:space="preserve">
<style type="text/css">
	.st0{fill:#FFD14C;}
	.st1{fill:#FD9D4C;}
	.st2{stroke:#FFFFFF;stroke-width:5;stroke-linecap:round;stroke-linejoin:round;stroke-miterlimit:10;}
</style>
<g>
	<polygon class="st0" points="260.2,32.1 75,17 79.9,68 	"/>
	<polygon class="st0" points="86.3,135.6 124,116.7 269.2,43.4 81.1,80.8 	"/>
	<polygon class="st1" points="112.6,136.8 116.5,150.9 206.8,89.5 129.5,128.3 	"/>
	<path d="M16.2,51.6c0.4,0.1,0.8,0.1,1.3,0L53.9,47c0.5-0.1,0.9-0.2,1.3-0.4c1.4-0.6,2.4-1.8,2.8-3.2c0.2-0.6,0.2-1.3,0.2-2
		c-0.1-0.7-0.3-1.3-0.6-1.9c-0.7-1.3-2.1-2.2-3.6-2.4c-0.5-0.1-0.9-0.1-1.4,0l-36.4,4.6c-0.4,0.1-0.8,0.2-1.2,0.3
		c-1.7,0.7-2.9,2.2-3.1,4c-0.1,0.4-0.1,0.8,0,1.3c0.1,0.4,0.2,0.8,0.3,1.2C12.9,50.1,14.4,51.3,16.2,51.6z"/>
	<path d="M6.7,86C7.1,86,7.6,86.1,8,86l36.4-4.6c0.5-0.1,0.9-0.2,1.3-0.4c1.4-0.6,2.4-1.8,2.8-3.2c0.2-0.6,0.2-1.3,0.2-2
		c-0.1-0.7-0.3-1.3-0.6-1.9c-0.7-1.3-2.1-2.2-3.6-2.4c-0.5-0.1-0.9-0.1-1.4,0L6.8,76.1c-0.4,0.1-0.8,0.2-1.2,0.3
		c-1.7,0.7-2.9,2.2-3.1,4c-0.1,0.4-0.1,0.8,0,1.3c0.1,0.4,0.2,0.8,0.3,1.2C3.4,84.6,4.9,85.7,6.7,86z"/>
	<path d="M22.5,107.9c-1.7,0.7-2.9,2.2-3.1,4c-0.1,0.4-0.1,0.8,0,1.3c0.1,0.4,0.2,0.8,0.3,1.2c0.7,1.7,2.2,2.9,4,3.1
		c0.4,0.1,0.8,0.1,1.3,0l36.4-4.6c0.5-0.1,0.9-0.2,1.3-0.4c1.4-0.6,2.4-1.8,2.8-3.2c0.2-0.6,0.2-1.3,0.2-2c-0.1-0.7-0.3-1.3-0.6-1.9
		c-0.7-1.3-2.1-2.2-3.6-2.4c-0.5-0.1-0.9-0.1-1.4,0l-36.4,4.6C23.3,107.6,22.9,107.7,22.5,107.9z"/>
	<path class="st2" d="M303.7,40.7c3.5-3.1,5.9-6.8,4.8-11.1c-1.1-4.1-4.5-6.9-8.4-7L71.2,3.8l-0.3,0l-0.3,0
		c-2.4,0.1-4.6,1.1-6.2,2.9c-1.8,2-2.6,4.7-2.4,7.5L74,141.8c0.3,3.4,2.2,6.3,5,7.8c1.3,0.7,2.6,1,4,1c1.4,0,2.7-0.3,3.9-1l14-7
		l3.9,14.2c1,3.7,3.5,6.6,6.8,7.9c1.1,0.4,2.3,0.6,3.4,0.6c1.9,0,3.8-0.6,5.5-1.7c10.1-6.7,20.1-13.5,30.2-20.2
		c21.9-14.6,43.7-29.3,65.6-43.9C233.2,88.2,250.2,77.3,267,66c8.5-5.7,16.9-11.4,25.3-17.3C295.2,46.7,300,44,303.7,40.7z
		 M116.5,150.9l-3.9-14.1l16.9-8.5l77.3-38.7L116.5,150.9z M124,116.7l-37.7,18.9l-5.2-54.8l188.1-37.4L124,116.7z M260.2,32.1
		L79.9,68L75,17L260.2,32.1z"/>
</g>
</svg>
