<?xml version="1.0" encoding="utf-8"?>
<!-- Generator: Adobe Illustrator 24.2.1, SVG Export Plug-In . SVG Version: 6.00 Build 0)  -->
<svg version="1.1" id="Layer_1" xmlns="http://www.w3.org/2000/svg" xmlns:xlink="http://www.w3.org/1999/xlink" x="0px" y="0px"
	 viewBox="0 0 709.3 536.2" style="enable-background:new 0 0 709.3 536.2;" xml:space="preserve">
<style type="text/css">
	.st0{fill:#FFFFFF;}
	.st1{fill:#F893B1;}
	.st2{fill:none;stroke:#000000;stroke-miterlimit:10;}
	.st3{fill:#FFFFFF;stroke:#000000;stroke-linecap:round;stroke-linejoin:round;stroke-miterlimit:10;}
	.st4{fill:#FFCE3F;}
	.st5{fill:#FFFFFF;stroke:#000000;stroke-miterlimit:10;}
	.st6{fill:#040001;}
	.st7{clip-path:url(#SVGID_2_);}
	.st8{opacity:0.5;}
	.st9{clip-path:url(#SVGID_4_);fill:#FB7985;}
	.st10{clip-path:url(#SVGID_6_);fill:#FB7985;}
	.st11{clip-path:url(#SVGID_8_);fill:#FB7985;}
	.st12{clip-path:url(#SVGID_10_);fill:#FB7985;}
	.st13{clip-path:url(#SVGID_12_);fill:#FB7985;}
	.st14{fill:#23261D;}
	.st15{clip-path:url(#SVGID_14_);}
	.st16{clip-path:url(#SVGID_16_);fill:#FFCE3F;}
	.st17{clip-path:url(#SVGID_18_);fill:#FFCE3F;}
	.st18{clip-path:url(#SVGID_20_);fill:#FFCE3F;}
	.st19{clip-path:url(#SVGID_22_);fill:#FFCE3F;}
	.st20{clip-path:url(#SVGID_24_);fill:#FFCE3F;}
	.st21{clip-path:url(#SVGID_26_);fill:#FFCE3F;}
	.st22{fill:#333333;}
	.st23{fill:#666666;}
	.st24{fill:#BBBAB5;}
	.st25{opacity:0.51;}
	.st26{fill:#9E9E9E;}
	.st27{font-family:'ArialMT';}
	.st28{font-size:4.2308px;}
	.st29{opacity:0.5;fill:#EAEAEA;enable-background:new    ;}
	.st30{fill:#CCCCCC;}
	.st31{fill:#7F7F7F;}
	.st32{fill:#BABABA;}
	.st33{fill:#6B6B6B;}
	.st34{fill:#ADADAD;}
	.st35{fill:#3D3D3D;}
	.st36{fill:#5C5C5C;}
	.st37{enable-background:new    ;}
	.st38{font-family:'NanumSquareR';}
	.st39{font-size:32.6402px;}
	.st40{fill:#494949;}
	.st41{fill:#969696;}
	.st42{opacity:0.75;}
	.st43{fill:#A5A5A5;}
	.st44{fill:#D3D3D3;}
	.st45{fill:#C6C6C6;}
	.st46{fill:#A8A8A8;}
</style>
<g>
	<path class="st0" d="M542.6,220c-1.3,0-7.3-0.3-12-3.1c-1.7-1.1-2.7-2.1-2.6-3c0-0.9,1.1-1.5,1.1-1.5l0,0l11.5-9.7l12.1,3.4
		L542.6,220z"/>
	<path d="M540.8,203.2l11.2,3.2l-9.6,13.1c-1.6,0-7.1-0.4-11.4-3.1c-2.2-1.3-2.4-2.2-2.4-2.5c0-0.6,0.8-1.1,0.8-1.1l0.1-0.1l0.1-0.1
		L540.8,203.2 M540.6,202.1l-11.6,9.8c0,0-3.9,2,1.5,5.4c5.1,3.1,11.6,3.2,12.4,3.2c0.1,0,0.1,0,0.1,0l10.7-14.7L540.6,202.1
		L540.6,202.1z"/>
</g>
<path class="st1" d="M457.9,323c-0.6,10.9-0.6,21.8-0.2,32.7c0.1,1.6,2.6,1.6,2.5,0c-0.4-10.9-0.4-21.8,0.2-32.7
	C460.5,321.4,458,321.4,457.9,323"/>
<polygon class="st2" points="225.8,426.9 274.7,340.1 227.6,281.8 161.6,311.6 "/>
<g>
	<path class="st0" d="M463,399.4c-20.8,0-29-50.8-29.5-54.4l39.4-53.4l43.2,24.9c-0.9,4.6-11.2,54-41,77.8
		C470.8,397.7,466.8,399.4,463,399.4z"/>
	<path d="M473,292.3l42.5,24.5c-1.3,6.3-11.7,54-40.7,77.2c-4.1,3.3-8.1,5-11.8,5c-20,0-28.2-48.8-29-53.8L473,292.3 M472.7,290.9
		l-39.8,53.9c0,0,7.9,55.1,30,55.1c3.7,0,7.8-1.6,12.4-5.2c31.6-25.3,41.2-78.5,41.2-78.5L472.7,290.9L472.7,290.9z"/>
</g>
<path class="st3" d="M697.6,200.7c3.9-1.5,3.3-4.5-0.5-3.3c-1.7,0.6-4.9,0.3-7.3,0.2c2,0.1,4.6,0,6.2-0.7c2.5-1.1,0.2-2.1-3.4-1.8
	c-2.8,0.2-6.1-0.1-7.1-0.3c0,0,4.7-1.6,5.9-2.9c1.2-1.4-0.2-2.7-1.8-1.6c-1.7,1-3.5,1.3-6.9,1.4c-3.1,0-5.3,2.1-5.6,2.5
	c-4.5,1-12.2,2.9-12.2,2.9l3.7,13.1l7.1-6.4c0,0,0,0,0.1,0c1.8,0.9,6.4,3,11.2,3.6c0,0,6.5,0.6,9.1-0.9c0,0,1.7-2-2.4-2
	c-1.5,0-2.8,0-3.8-0.1c2.1,0.1,5.1,0,7.6-0.9c3.3-1.1,2.3-3.1-1-2.6c-2.7,0.4-6.5,0-7.8-0.1"/>
<path class="st3" d="M557.7,73.3c1.3-4.7,3.3-2.5,3.3,1.1c0,1.8-0.6,4.9-0.6,7.3c0.1-2,0.3-4.6,1.1-6.2c1.2-2.4,2.1-0.1,1.6,3.5
	c0,0-0.6,5.9,0.8,5.7c0,0,0.8-3.2,2.3-4.4c1.4-1.1,2.7,0.3,1.5,1.9c-1.1,1.6-1.6,3.4-1.8,6.8c-0.2,3.1-2.4,5.1-2.8,5.5
	c-1.3,4.5-3.6,12-3.6,12l-12.8-4.5l6.8-6.7c0,0,0,0,0-0.1c-0.8-1.9-2.6-6.6-2.9-11.4c0,0-0.2-6.5,1.4-9.1c0,0,2.1-1.6,1.9,2.5
	c-0.1,1.5-0.1,2.8-0.1,3.8c0.1-2.1,0.3-5,1.3-7.5c1.3-3.2,3.2-2.1,2.5,1.2c-0.6,2.7-0.4,6.5-0.4,7.8"/>
<path d="M547.8,204.9c5.4,8,15.9,11.2,25.5,10.9c3.5-0.1,7.3-0.7,10.1-2.9c2.7-2.1,4.2-5.5,6.4-8.2c4.4-5.4,12-8,18.9-6.4
	c3.7,0.9,7.1,2.9,10.8,4c6.1,1.7,12.9,0.4,18-3.4c1.7-1.3,3.2-2.9,4.1-4.8c0.7-1.5,0.8-3.2,1.3-4.8c1.3-4.4,5-8,9.4-9.3
	c2.3-0.7,4.7-0.7,7-1.3c8-1.9,13.9-9.7,14.7-17.9s-2.8-16.4-8.6-22.4c-8.2-8.5-21-12.6-32.4-9.4c-11.4,3.1-20.5,13.9-20.8,25.7
	c-0.1,2.8,0.3,5.6-0.2,8.3s-2.2,5.5-4.9,6.2s-5.6-0.8-7.6-2.8s-3.6-4.4-5.9-6.1c-4.2-3-10.2-2.8-14.5-0.1c-4.3,2.8-7,7.7-7.7,12.8
	c-0.4,3.4,0,6.8-0.6,10.1s-2.5,6.8-5.8,7.7"/>
<path class="st4" d="M503,207.5c5.1-53.7,36.8-106.3,36.8-106.3c18.3-2.5,33.2,5.5,33.2,5.5l-21.9,48.2c-11,28.5-18.7,56-20.8,69.8
	S500.2,237.6,503,207.5"/>
<path class="st4" d="M562.5,254.9c53.8-4.1,107-34.8,107-34.8c2.9-18.3-4.9-33.3-4.9-33.3l-48.6,21c-28.7,10.5-56.3,17.7-70.2,19.5
	C532,229.1,532.3,257.2,562.5,254.9"/>
<g>
	<path class="st3" d="M22,148c-1.1-0.5-4.6-2-6.8-3.7c-2.6-2-4.4-0.8-2.1,1.7c1.8,2,4.3,3.6,6.2,4.5c-0.9-0.4-2-1-3.4-1.8
		c-3.6-2-3.1,0.6-3.1,0.6c1.6,2.5,7.5,5.2,7.5,5.2c4.4,1.8,9.4,2.3,11.4,2.4c0,0,0,0,0.1,0l6.9,7.5l8-8.6c0,0-7.5-5.5-11.5-8.3
		c-0.3-1-1.3-3.2-3.5-4.5c-3-1.7-4.4-2.9-5.3-4.6c-0.9-1.7-2.8-1.3-2.4,0.5s3.6,5,3.6,5c-1-0.4-3.8-1.2-6.1-2.8
		c-3-2-5.4-2.2-3.8-0.1c1.1,1.4,3.2,2.7,5,3.7c-2.1-1.1-4.9-2.6-6.2-3.7c-2.2-2-4-0.1-2.6,2.1"/>
	<path class="st3" d="M122.5,78.1c-0.6-1.1-2.3-4.5-2.9-7.1c-0.7-3.2-2.9-3.4-2.8,0c0.1,2.7,1.2,5.5,2,7.4c-0.4-0.9-0.9-2.1-1.5-3.5
		c-1.5-3.8-2.7-1.5-2.7-1.5c-0.4,3,2.5,8.8,2.5,8.8c2.3,4.2,5.9,7.6,7.4,9c0,0,0,0,0,0.1l1.7,9.8l11.3-3.1c0,0-2.9-7.9-4.4-12.2
		c0.4-1.1,0.8-3.2,0-5.4c-1.3-3.2-1.6-5-1.3-6.9s-1.4-2.7-2.2-1.1s-0.2,4.9-0.2,4.9s-2.3-2.1-3.2-4.8c-1.1-3.5-2.9-5.1-3-2.5
		c-0.1,1.8,0.8,4.2,1.6,6c-1-2.2-1.9-5.2-2.5-6.8c-1.9-5-4.1-2.4-3.3,0.5"/>
</g>
<path class="st4" d="M190.3,198.3c-8.5-53.3-43.5-103.8-43.5-103.8c-18.5-1.4-32.8,7.6-32.8,7.6l24.9,46.7
	c12.8,27.8,22.2,54.7,25.2,68.3C167.1,230.8,195,228.2,190.3,198.3"/>
<path class="st4" d="M133.3,247.3C83,227.9,32.7,173.9,32.7,173.9c2.5-18.3,10.4-24.4,10.4-24.4l42.4,26.9c1.3,0.8,2.5,1.7,3.7,2.6
	c23.9,17.7,47.3,31.9,59.8,37.6C161.8,222.2,161.6,258.2,133.3,247.3"/>
<path class="st5" d="M549.1,172.2c0,0-11.5,9.5-14.5,16.4s-1.5,13.5,7.9,17.6s21.8-3.8,27.3-10.3s5.5-16.5-1.2-22.6
	C561.9,167.3,553.6,168.1,549.1,172.2"/>
<path class="st6" d="M543.8,185.9c-0.6,0.8-1.6,1.1-2.2,0.7c-0.5-0.4-0.5-1.4,0.2-2.3c0.6-0.8,1.6-1.1,2.2-0.7
	C544.5,184,544.5,185.1,543.8,185.9"/>
<path class="st6" d="M551.6,191.6c-0.6,0.8-1.6,1.1-2.2,0.7c-0.5-0.4-0.5-1.4,0.2-2.3c0.6-0.8,1.6-1.1,2.2-0.7
	C552.3,189.7,552.2,190.7,551.6,191.6"/>
<path d="M560.2,168.7c0,0-12,15.7,3.4,33.2l-10.7,4.8c0,0,8.8,4.6,20.9-3.8c7.7-5.3,8.9-16.6,3.8-26.3
	C572.5,167,563.8,165.2,560.2,168.7"/>
<path d="M562.2,168.8c0,0-3-3.2-7.2-3.3s-10.4,2-13.8,11.4l-1.5,5C539.7,181.9,552.7,168.5,562.2,168.8"/>
<path d="M561.5,168.7c0,0-10-0.6-14.8,3.9s2.9,11.4,5.4,6.2C557.2,167.9,561.5,168.7,561.5,168.7"/>
<g>
	<g>
		<g>
			<defs>
				<rect id="SVGID_1_" x="541.5" y="185.9" width="5.6" height="6.5"/>
			</defs>
			<clipPath id="SVGID_2_">
				<use xlink:href="#SVGID_1_"  style="overflow:visible;"/>
			</clipPath>
			<path class="st7" d="M546.4,186c-1.3,0.8-2.6,1.8-3.8,2.9c-0.3,0.3-0.6,0.5-0.8,0.8c-0.3,0.3-0.5,0.6-0.3,0.9
				c0.2,0.3,0.5,0.6,0.8,0.9c0.3,0.3,0.6,0.6,0.9,0.8c0.2,0.1,0.4,0.2,0.6,0c0.1-0.1,0.2-0.4,0-0.6c-0.3-0.2-0.5-0.4-0.8-0.7
				c-0.1-0.1-0.2-0.2-0.4-0.4c-0.1-0.1-0.2-0.3-0.3-0.4c0,0,0-0.1-0.1-0.1c0,0.2,0,0.2,0,0.1c0,0,0.1-0.1,0.2-0.2
				c0.1-0.1,0.2-0.2,0.4-0.4s0.5-0.5,0.7-0.7c1-0.9,2.1-1.7,3.2-2.4C547.3,186.4,546.9,185.7,546.4,186"/>
		</g>
	</g>
</g>
<g>
	<path class="st0" d="M561.9,210c-1.4,0-2.7-0.3-3.7-0.8c-2.4-1.3-3-2.3-3-2.8l8.9-4.4c0.1,0,0.5-0.1,1-0.1c1.7,0,2.7,0.7,3.1,2.2
		c0.3,1.5,0.1,2.7-0.7,3.7C566.4,209.2,564.2,210,561.9,210z"/>
	<path d="M565,202.4L565,202.4c2.2,0,2.5,1.4,2.6,1.8c0.3,1.3,0.1,2.4-0.6,3.3c-1,1.2-3,2-5.2,2c-1.3,0-2.6-0.3-3.5-0.8
		c-1.8-1-2.4-1.7-2.6-2.1l8.4-4.2C564.3,202.5,564.7,202.4,565,202.4 M565,201.4c-0.7,0-1.2,0.1-1.2,0.1l-9.2,4.6
		c0,0-0.6,1.4,3.3,3.5c1.1,0.6,2.5,0.9,4,0.9c3.8,0,7.8-2.1,6.7-6.5C568.1,201.8,566.3,201.4,565,201.4L565,201.4z"/>
</g>
<path d="M564.8,201l-7.4,3.7l5.4-6.2C562.8,198.5,567.2,197.2,564.8,201"/>
<path class="st6" d="M545.5,180.7c0.1,0,0.3,0,0.4,0c0.1,0,0.1,0,0.2,0h0.1c-0.1,0,0,0,0,0c0.3,0,0.5,0.1,0.7,0.2l0,0h0.1
	c0.1,0,0.1,0.1,0.2,0.1c0.1,0.1,0.2,0.1,0.3,0.2c0.1,0.1,0.2,0.1,0.3,0.2c0.1,0.1,0.2,0.2,0.3,0.3c0.1,0.2,0.4,0.1,0.6,0
	c0.2-0.2,0.1-0.4,0-0.6c-0.8-0.9-2-1.4-3.2-1.3c-0.2,0-0.4,0.2-0.4,0.4C545.1,180.5,545.2,180.7,545.5,180.7"/>
<path class="st6" d="M553.3,185.1c0.2,0.1,0.5,0.2,0.7,0.4c0,0,0.1,0,0.1,0.1c-0.1-0.1,0,0,0,0l0.1,0.1c0.1,0.1,0.2,0.2,0.3,0.3
	c0,0,0.1,0.1,0.1,0.2c0,0,0.1,0.1,0,0c0,0,0,0,0,0.1c0.1,0.1,0.2,0.2,0.2,0.3c0.1,0.1,0.1,0.2,0.2,0.4c0,0,0,0.1,0,0v0.1
	c0,0.1,0,0.1,0.1,0.2c0.1,0.2,0.3,0.4,0.5,0.3c0.2-0.1,0.4-0.3,0.3-0.5c-0.4-1.2-1.2-2.2-2.4-2.7c-0.2-0.1-0.5-0.1-0.6,0.1
	C553.1,184.7,553.1,185,553.3,185.1"/>
<path class="st0" d="M517.3,322.1c2.2-7.1,4.8-13.9,7.7-20c20.9-44.5,27-73.8,19.8-85.5s-7.5-7.1-7.5-7.1s-1.8-1.8-11.1,1.1
	c-5.8,1.8-49.9,38.2-68.3,75.5C447.6,307,495.7,313.1,517.3,322.1"/>
<path class="st4" d="M530.4,209.3c-18.2,6.7-19.5,29.3-19.5,29.3c-33.4,36.8-56.8,96.5-56.8,96.5l-26.2-15.4
	c16.7-36.7,39.8-75.1,57.7-92.7C504.7,208.2,518.9,205.2,530.4,209.3"/>
<path class="st4" d="M544.7,216.5c0,0,3.5,19.6-17.8,30.4c0,0-29.9,54.2-47.8,99.6l36.2,19.2c0,0,9.2-35.9,24.5-69.7
	c18.8-41.4,22.1-53.8,18.9-63.7C555.6,222.5,544.7,216.5,544.7,216.5"/>
<g class="st8">
	<g>
		<g>
			<defs>
				<rect id="SVGID_3_" x="479.2" y="216.5" width="69.4" height="149.3"/>
			</defs>
			<clipPath id="SVGID_4_">
				<use xlink:href="#SVGID_3_"  style="overflow:visible;"/>
			</clipPath>
			<path class="st9" d="M515.4,365.8l-36.2-19.2C497.1,301.2,527,247,527,247c21.2-10.8,17.8-30.4,17.8-30.4s1.6,0.9,3.8,2.6
				c-0.4,8.4-3.2,23.6-18.1,31.2c0,0-26.2,47.6-44.2,93l30.8,16.4C516,363.5,515.4,365.8,515.4,365.8"/>
		</g>
	</g>
</g>
<g>
	<g>
		<g>
			<defs>
				<rect id="SVGID_5_" x="530.1" y="251.7" width="3.6" height="3.6"/>
			</defs>
			<clipPath id="SVGID_6_">
				<use xlink:href="#SVGID_5_"  style="overflow:visible;"/>
			</clipPath>
			<path class="st10" d="M530.1,253.8c-0.2-1,0.5-1.9,1.5-2.1c1-0.2,1.9,0.5,2.1,1.5c0.1,1-0.5,1.9-1.5,2.1
				C531.2,255.5,530.3,254.8,530.1,253.8"/>
		</g>
	</g>
</g>
<g>
	<g>
		<g>
			<defs>
				<rect id="SVGID_7_" x="520.5" y="270.5" width="3.6" height="3.6"/>
			</defs>
			<clipPath id="SVGID_8_">
				<use xlink:href="#SVGID_7_"  style="overflow:visible;"/>
			</clipPath>
			<path class="st11" d="M520.8,271.3c0.6-0.8,1.7-1,2.5-0.4s1,1.7,0.4,2.5s-1.7,1-2.5,0.4C520.4,273.2,520.2,272.1,520.8,271.3"/>
		</g>
	</g>
</g>
<g>
	<g>
		<g>
			<defs>
				<rect id="SVGID_9_" x="510.7" y="289.1" width="3.6" height="3.6"/>
			</defs>
			<clipPath id="SVGID_10_">
				<use xlink:href="#SVGID_9_"  style="overflow:visible;"/>
			</clipPath>
			<path class="st12" d="M511,289.9c0.6-0.8,1.7-1,2.5-0.4s1,1.7,0.4,2.5s-1.7,1-2.5,0.4S510.4,290.7,511,289.9"/>
		</g>
	</g>
</g>
<g>
	<g>
		<g>
			<defs>
				<rect id="SVGID_11_" x="499.5" y="312.7" width="3.6" height="3.6"/>
			</defs>
			<clipPath id="SVGID_12_">
				<use xlink:href="#SVGID_11_"  style="overflow:visible;"/>
			</clipPath>
			<path class="st13" d="M499.9,313.4c0.6-0.8,1.7-1,2.5-0.4s1,1.7,0.4,2.5s-1.7,1-2.5,0.4C499.4,315.4,499.3,314.2,499.9,313.4"/>
		</g>
	</g>
</g>
<path class="st3" d="M540.2,191c0,0,1.9,1.9,6.1,3.5c0,0-2.2,5.6-5.1,4.1C538.3,197.2,539,193.2,540.2,191"/>
<path class="st0" d="M542.9,354.5c0,0,1.3,2.1,4.6,4.5c0,0-3.3,4.5-5.5,2.5S541.3,356.1,542.9,354.5"/>
<path class="st4" d="M147.1,202.9c-21.8,9.3-19.2,42.4-4.9,77.6c9.9,24.2,19.6,40.3,24.7,48c2.2,3.2,6.2,4.7,9.9,3.5
	c14.2-4.5,49.7-17.6,74-43.3c3.5-3.7,3.1-9.7-0.9-12.8c-10.4-8.3-30-25.7-46.6-50.8C179.4,189,172.4,192,147.1,202.9"/>
<g>
	<path class="st0" d="M151.4,205.6c-1.1,0-1.9-0.1-2.2-0.1l-9.7-14.7l13.4-2.4l10.4,10.8l0,0c0,0,1,0.7,1,1.6
		c-0.1,0.9-1.1,1.8-2.9,2.7C158,205.2,154.1,205.6,151.4,205.6L151.4,205.6z"/>
	<path d="M152.7,188.9l10.2,10.6l0.1,0.1l0.1,0.1c0,0,0.8,0.5,0.7,1.2c0,0.3-0.3,1.2-2.6,2.3c-3.3,1.6-7.2,2-9.8,2
		c-0.9,0-1.5,0-1.9-0.1l-9.1-13.9L152.7,188.9 M153,187.9l-14.4,2.5l10.2,15.5c0,0,1,0.1,2.5,0.1c2.6,0,6.6-0.3,10.2-2.1
		c5.7-2.8,2-5.2,2-5.2L153,187.9L153,187.9z"/>
</g>
<path class="st14" d="M128,155.8c0,0,2.5-3.6,6.7-4.2c4.2-0.6,10.5,0.7,15.2,9.5l2.1,4.8C152,166,128.2,170.8,128,155.8"/>
<path class="st5" d="M144.1,164.5c-3.4,0.8-7-0.1-9.7-2c-2.2-1.6-4.7-3.5-5.7-6.1c-2.3,0.9-4.5,2.4-6.4,4.7
	c-5.9,6.9-4.6,16.9,1.7,22.6c6.3,5.7,19.6,12,28.4,6.7c8.8-5.2,9.4-12,5.6-18.5c-2-3.3-6.6-7.6-10.3-10.4
	C146.8,163.2,145.9,164.1,144.1,164.5"/>
<path class="st6" d="M148.1,170.1c0.7,0.7,1.7,0.9,2.2,0.4s0.3-1.5-0.5-2.2c-0.7-0.7-1.7-0.9-2.2-0.4
	C147.2,168.4,147.4,169.4,148.1,170.1"/>
<path class="st6" d="M141.5,177.1c0.7,0.7,1.7,0.9,2.2,0.4s0.3-1.5-0.5-2.2c-0.7-0.7-1.7-0.9-2.2-0.4
	C140.5,175.3,140.7,176.3,141.5,177.1"/>
<path class="st14" d="M129.9,155.5c0,0,8.3,10.7,2.5,29.9l9,8.5c0,0-7.6,4-20.6-2.8c-8.3-4.3-11-15.3-7.1-25.6
	C117.6,155.4,126,152.5,129.9,155.5"/>
<g>
	<g>
		<g>
			<defs>
				<rect id="SVGID_13_" x="145.3" y="170.9" width="6" height="6"/>
			</defs>
			<clipPath id="SVGID_14_">
				<use xlink:href="#SVGID_13_"  style="overflow:visible;"/>
			</clipPath>
			<path class="st15" d="M145.5,171.7c0.9,0.4,1.8,0.9,2.7,1.4c0.4,0.3,0.9,0.5,1.3,0.8c0.2,0.1,0.4,0.3,0.6,0.4
				c0.1,0.1,0.4,0.3,0.5,0.4c0-0.1,0-0.1-0.1-0.2c0,0.1-0.2,0.3-0.2,0.4c-0.1,0.2-0.2,0.3-0.3,0.4c-0.2,0.3-0.5,0.6-0.7,0.8
				c-0.4,0.4,0.2,1,0.6,0.6c0.5-0.5,1.1-1.2,1.4-1.8c0.2-0.4,0.1-0.7-0.3-1c-0.3-0.2-0.6-0.5-1-0.7c-1.3-0.9-2.7-1.7-4.1-2.3
				c-0.2-0.1-0.4-0.1-0.6,0.1C145.2,171.3,145.3,171.6,145.5,171.7"/>
		</g>
	</g>
</g>
<g>
	<path class="st0" d="M132.4,196.8c-2,0-3.8-0.6-4.7-1.7c-0.8-0.9-1.1-2-1-3.4c0.2-2.3,2.3-2.6,3.5-2.6c0.1,0,0.3,0,0.3,0l9.4,3.3
		c0,0.4-0.5,1.5-2.7,3.1C136,196.3,134.2,196.8,132.4,196.8L132.4,196.8z"/>
	<path d="M130.1,189.5c0.1,0,0.2,0,0.2,0l8.9,3.1c-0.2,0.4-0.7,1.2-2.4,2.4c-1.1,0.8-2.8,1.3-4.5,1.3c-1.9,0-3.5-0.6-4.4-1.6
		c-0.7-0.8-1-1.8-0.8-3C127.3,189.9,128.9,189.5,130.1,189.5 M130.1,188.5c-1,0-3.7,0.3-4,3.1c-0.4,4,2.8,5.7,6.2,5.7
		c1.9,0,3.8-0.5,5.1-1.5c3.6-2.6,2.8-3.9,2.8-3.9l-9.7-3.4C130.5,188.5,130.4,188.5,130.1,188.5L130.1,188.5z"/>
</g>
<path class="st6" d="M147.1,164.2c-1.2,0.1-2.4,0.7-3.1,1.8c-0.1,0.2,0,0.5,0.1,0.6c0.2,0.1,0.4,0,0.6-0.1c0-0.1,0.1-0.1,0.1-0.2
	l0,0c0,0,0-0.1,0.1-0.1c0.1-0.1,0.2-0.2,0.3-0.3c0.2-0.2,0.3-0.3,0.6-0.4c0.1-0.1,0.2-0.1,0.3-0.2l0,0h0.1c0.1,0,0.1,0,0.2-0.1
	c0.1,0,0.2-0.1,0.4-0.1h0.1c0.1,0-0.1,0,0,0s0.1,0,0.2,0c0.2,0,0.4-0.2,0.4-0.4C147.5,164.4,147.3,164.2,147.1,164.2"/>
<path class="st6" d="M138.6,171.1c-1,0.6-1.8,1.7-2,2.9c0,0.2,0.1,0.5,0.3,0.5s0.5-0.1,0.5-0.3c0-0.3,0.1-0.5,0.2-0.8l0,0v-0.1
	c0-0.1,0.1-0.1,0.1-0.2c0.1-0.1,0.1-0.2,0.2-0.3c0-0.1,0.1-0.1,0.1-0.2l0,0c0,0,0-0.1,0.1-0.1c0.1-0.1,0.2-0.2,0.3-0.3
	c0,0,0.1-0.1,0.2-0.1c0,0,0,0,0.1-0.1c0,0,0.1-0.1,0,0c0.1-0.1,0.2-0.2,0.3-0.2c0.2-0.1,0.3-0.4,0.1-0.6
	C139.1,171,138.8,170.9,138.6,171.1"/>
<path class="st3" d="M148.3,179.1"/>
<path class="st3" d="M148.3,179.1c0,0,5.4,0.9,5.3-4.6"/>
<g>
	<polygon class="st0" points="143,206.4 145.2,200.4 161.7,204 159.8,214.6 	"/>
	<path d="M145.5,201l15.6,3.4l-1.7,9.4l-15.8-7.6L145.5,201 M144.9,199.9l-2.5,6.8l17.8,8.6l2.1-11.7L144.9,199.9L144.9,199.9z"/>
</g>
<g>
	<polygon class="st0" points="162.8,203.1 160.4,195.6 163.6,197.1 169.6,204.1 	"/>
	<path d="M161.3,196.6l2.1,1l5.1,5.9l-5.1-0.8L161.3,196.6 M159.6,194.7l2.9,8.9l8.4,1.3l-6.9-8.1L159.6,194.7L159.6,194.7z"/>
</g>
<g>
	<g>
		<path d="M213.8,285.8c-25.2-31.3-51.4-81.6-51.7-82.1l0.7-0.4c0.3,0.5,26.4,50.7,51.6,82L213.8,285.8z"/>
	</g>
</g>
<g>
	<g>
		<g>
			<defs>
				<rect id="SVGID_15_" x="171.7" y="197.1" width="17.6" height="8.7"/>
			</defs>
			<clipPath id="SVGID_16_">
				<use xlink:href="#SVGID_15_"  style="overflow:visible;"/>
			</clipPath>
			<path class="st16" d="M172.3,198.7c5.8,1,11.2,3.4,15.8,6.9c0.9,0.6,1.7-0.8,0.8-1.4c-4.8-3.6-10.4-6-16.2-7.1
				C171.6,196.9,171.2,198.5,172.3,198.7"/>
		</g>
	</g>
</g>
<g>
	<g>
		<g>
			<defs>
				<rect id="SVGID_17_" x="135.6" y="209.5" width="19.3" height="9.1"/>
			</defs>
			<clipPath id="SVGID_18_">
				<use xlink:href="#SVGID_17_"  style="overflow:visible;"/>
			</clipPath>
			<path class="st17" d="M136,211.1c5.6,3.3,11.6,5.8,17.8,7.6c1,0.3,1.5-1.3,0.4-1.6c-6.1-1.7-12-4.2-17.4-7.4
				C135.9,209.1,135.1,210.5,136,211.1"/>
		</g>
	</g>
</g>
<g>
	<g>
		<g>
			<defs>
				<rect id="SVGID_19_" x="554.8" y="234.8" width="5.4" height="22.8"/>
			</defs>
			<clipPath id="SVGID_20_">
				<use xlink:href="#SVGID_19_"  style="overflow:visible;"/>
			</clipPath>
			<path class="st18" d="M558.5,235.6c-0.1,7.1-1.3,14.2-3.7,20.9c-0.3,1,1.3,1.4,1.6,0.4c2.4-6.9,3.6-14.1,3.7-21.4
				C560.2,234.5,558.6,234.5,558.5,235.6"/>
		</g>
	</g>
</g>
<g>
	<g>
		<g>
			<defs>
				<rect id="SVGID_21_" x="505.4" y="204.8" width="22.1" height="7.9"/>
			</defs>
			<clipPath id="SVGID_22_">
				<use xlink:href="#SVGID_21_"  style="overflow:visible;"/>
			</clipPath>
			<path class="st19" d="M506.6,212.5c5.9-4.2,12.9-6.3,20.1-6.1c1.1,0,1.1-1.6,0-1.7c-7.5-0.3-14.9,1.9-21,6.3
				C504.9,211.7,505.8,213.2,506.6,212.5"/>
		</g>
	</g>
</g>
<g>
	<g>
		<g>
			<defs>
				<rect id="SVGID_23_" x="657.5" y="191.8" width="5.3" height="31.2"/>
			</defs>
			<clipPath id="SVGID_24_">
				<use xlink:href="#SVGID_23_"  style="overflow:visible;"/>
			</clipPath>
			<path class="st20" d="M657.6,192.8c3.6,9.3,4.5,19.4,2.5,29.2c-0.2,1,1.4,1.5,1.6,0.4c2.1-10,1.2-20.5-2.5-30.1
				C658.8,191.4,657.2,191.8,657.6,192.8"/>
		</g>
	</g>
</g>
<g>
	<g>
		<g>
			<defs>
				<rect id="SVGID_25_" x="538.2" y="107.8" width="26.8" height="8.6"/>
			</defs>
			<clipPath id="SVGID_26_">
				<use xlink:href="#SVGID_25_"  style="overflow:visible;"/>
			</clipPath>
			<path class="st21" d="M539.2,109.8c8.5-1.2,17.5,1.1,24.3,6.4c0.8,0.6,2-0.5,1.2-1.2c-7.3-5.7-16.7-8.2-25.9-6.8
				C537.7,108.3,538.2,109.9,539.2,109.8"/>
		</g>
	</g>
</g>
<g>
	<g>
		<g>
			<defs>
				<rect id="SVGID_27_" x="122.4" y="100.1" width="25.9" height="7.6"/>
			</defs>
			<clipPath id="SVGID_28_">
				<use xlink:href="#SVGID_27_"  style="overflow:visible;"/>
			</clipPath>
		</g>
	</g>
</g>
<g>
	
		<image style="overflow:visible;opacity:0.2;enable-background:new    ;" width="1971" height="3512" xlink:href="57986EC9.png"  transform="matrix(0.1554 0 0 0.144 201.6682 14.9432)">
	</image>
	<g>
		<g>
			<path class="st22" d="M449.9,505.2H251.3c-16.1,0-29.1-13-29.1-29.1V49.9c0-16.1,13-29.1,29.1-29.1h198.6
				c16.1,0,29.1,13,29.1,29.1V476C479,492.1,466,505.2,449.9,505.2z"/>
			<path class="st0" d="M470.1,49.9V476c0,11.1-9,20.2-20.2,20.2H251.3c-11.1,0-20.2-9-20.2-20.2V49.9c0-11.1,9-20.2,20.2-20.2h30.3
				c2.2,0,4.1,1.4,4.6,3.5c1.4,5.4,5.4,9.7,10.5,11.6c1.9,0.7,3.9,1.1,6,1.1h95.8c4.1,0,7.9-1.5,10.9-3.9c2.7-2.2,4.7-5.3,5.6-8.8
				c0.5-2.1,2.5-3.5,4.6-3.5h30.3C461.1,29.7,470.1,38.8,470.1,49.9z"/>
			<rect x="245.4" y="53.5" class="st23" width="12.2" height="2.8"/>
			<polyline class="st23" points="245.4,60 260.7,60 260.7,62.9 245.4,62.9 			"/>
			<g>
				<path class="st23" d="M425,56.7l-0.9,0.9c-1.2-1.2-2.8-1.9-4.5-1.9c-1.8,0-3.4,0.7-4.5,1.9l-0.9-0.9c1.4-1.4,3.3-2.3,5.4-2.3
					C421.7,54.5,423.7,55.3,425,56.7z"/>
				<path class="st23" d="M423.2,58.5l-0.9,0.8c-0.7-0.7-1.7-1.2-2.8-1.2c-1.1,0-2.1,0.4-2.8,1.2l0,0l-0.8-0.8l0,0
					c0.9-0.9,2.2-1.5,3.6-1.5C421,57,422.3,57.6,423.2,58.5z"/>
				<path class="st23" d="M421.4,60.3l-1.8,1.8l0,0l0,0l-1.8-1.8l0,0c0.5-0.5,1.1-0.8,1.8-0.8S421,59.8,421.4,60.3z"/>
				<path class="st23" d="M450.4,60.9h-8.1c-0.5,0-0.9-0.4-0.9-0.9v-3.7c0-0.5,0.4-0.9,0.9-0.9h8.1V60.9z"/>
				<path class="st23" d="M455.3,56.6h-0.7v-0.4c0-1.1-0.9-2.1-2.1-2.1h-10.4c-1.1,0-2.1,0.9-2.1,2.1v3.9c0,1.1,0.9,2.1,2.1,2.1
					h10.4c1.1,0,2.1-0.9,2.1-2.1v-0.4h0.7V56.6z M453.8,60.1c0,0.7-0.6,1.3-1.3,1.3h-10.4c-0.7,0-1.3-0.6-1.3-1.3v-3.9
					c0-0.7,0.6-1.3,1.3-1.3h10.4c0.7,0,1.3,0.6,1.3,1.3V60.1z"/>
				<path class="st23" d="M433.7,57.5v-0.7c0-0.7-0.6-1.2-1.2-1.2s-1.2,0.6-1.2,1.2v0.7h-0.5v3.2h3.6v-3.2H433.7z M431.7,56.8
					c0-0.4,0.3-0.7,0.7-0.7c0.4,0,0.7,0.3,0.7,0.7v0.7h-1.5L431.7,56.8L431.7,56.8z"/>
				<path class="st23" d="M436.3,59.1l0.9-0.9h-0.5c-0.1-2.3-1.9-4.1-4.2-4.1c-2.3,0-4.2,1.9-4.2,4.2s1.9,4.2,4.2,4.2
					c1.6,0,3-0.9,3.7-2.2l-0.6-0.3c-0.6,1.2-1.8,1.9-3.1,1.9c-2,0-3.5-1.6-3.5-3.5c0-2,1.6-3.5,3.5-3.5s3.5,1.5,3.5,3.4h-0.5
					L436.3,59.1z"/>
			</g>
		</g>
	</g>
</g>
<g>
	<path class="st24" d="M370.6,459c0,1.9-1.6,3.5-3.5,3.5s-3.5-1.6-3.5-3.5s1.6-3.5,3.5-3.5C369.1,455.6,370.6,457.1,370.6,459z"/>
	<path d="M355.8,459c0,1.9-1.6,3.5-3.5,3.5s-3.5-1.6-3.5-3.5s1.6-3.5,3.5-3.5C354.3,455.6,355.8,457.1,355.8,459z"/>
	<path class="st24" d="M341,459c0,1.9-1.6,3.5-3.5,3.5s-3.5-1.6-3.5-3.5s1.6-3.5,3.5-3.5S341,457.1,341,459z"/>
</g>
<g class="st25">
	<g>
		<text transform="matrix(1 0 0 1 243.9287 171.3908)" class="st26 st27 st28"> Lorem ipsum dolor sit amet mea deleniti patrioque eud ludus mandamus deterruisset sea Eu nam nisl erat</text>
		<text transform="matrix(1 0 0 1 243.9287 176.4908)" class="st26 st27 st28">melius Te erant iudicabit dissentiunt vis has vidisse epicuri et etiam ludus pro an Ex commune suscipit nec n</text>
		<text transform="matrix(1 0 0 1 243.9287 181.5908)" class="st26 st27 st28">o his omnesque moderatius Quidam antiopam sit no an timeam imperdiet intellegam quo id vis illud justo fa</text>
		<text transform="matrix(1 0 0 1 243.9287 186.5908)" class="st26 st27 st28">cilis Quis accusamus necessitatibus sea ne.</text>
		<text transform="matrix(1 0 0 1 243.9287 191.6908)" class="st26 st27 st28"> Lorem ipsum dolor sit amet mea deleniti patrioque eud ludus mandamus deterruisset sea Eu nam nisl er.</text>
		<text transform="matrix(1 0 0 1 243.9287 196.7908)" class="st26 st27 st28">melius Te erant iudicabit dissentiunt vis has vidisse epicuri et etiam ludus pro an Ex commune suscipit nec n</text>
		<text transform="matrix(1 0 0 1 243.9287 201.8908)" class="st26 st27 st28">o his omnesque moderatius.</text>
		<text transform="matrix(1 0 0 1 243.9287 206.8908)" class="st26 st27 st28"> Lorem ipsum dolor sit amet mea deleniti patrioque eud ludus mandamus deterruisset sea Eu nam nisl erat</text>
		<text transform="matrix(1 0 0 1 243.9287 211.9908)" class="st26 st27 st28">melius Te erant iudicabit dissentiunt vis has vidisse epicuri et etiam ludus pro an Ex commune suscipit nec n</text>
		<text transform="matrix(1 0 0 1 243.9287 217.0908)" class="st26 st27 st28">o his omnesque moderatius Quidam antiopam sit no an timeam imperdiet intellegam quo id vis illud justo fa</text>
		<text transform="matrix(1 0 0 1 243.9287 222.1908)" class="st26 st27 st28">cilis Quis accusamus necessitatibus sea ne.</text>
	</g>
	<path class="st29" d="M316.6,332.2c0,1.1-1,2-2.3,2h-68c-1.3,0-2.3-0.9-2.3-2v-88.4c0-1.1,1-2,2.3-2h68c1.3,0,2.3,0.9,2.3,2V332.2z
		"/>
	<g>
		<g>
			<rect x="252.4" y="256.4" class="st30" width="3.6" height="77.6"/>
			<rect x="258.9" y="250.6" class="st31" width="3.6" height="83.4"/>
			<rect x="265.4" y="275.4" class="st30" width="3.6" height="58.6"/>
			<rect x="271.9" y="298.2" class="st32" width="3.6" height="35.8"/>
		</g>
		<g>
			<rect x="284.9" y="280.5" class="st33" width="3.6" height="53.5"/>
			<rect x="291.4" y="309.3" class="st30" width="3.6" height="24.7"/>
			<rect x="297.9" y="293.2" class="st30" width="3.6" height="40.7"/>
			<rect x="304.4" y="260" class="st34" width="3.6" height="74"/>
		</g>
	</g>
	<path class="st35" d="M255.1,253.1c0,0.5-0.4,0.9-0.9,0.9s-0.9-0.4-0.9-0.9s0.4-0.9,0.9-0.9C254.7,252.2,255.1,252.6,255.1,253.1z"
		/>
	<path class="st35" d="M261.6,247.3c0,0.5-0.4,0.9-0.9,0.9s-0.9-0.4-0.9-0.9s0.4-0.9,0.9-0.9C261.2,246.4,261.6,246.8,261.6,247.3z"
		/>
	<path class="st35" d="M287.6,277.3c0,0.5-0.4,0.9-0.9,0.9s-0.9-0.4-0.9-0.9s0.4-0.9,0.9-0.9C287.2,276.3,287.6,276.8,287.6,277.3z"
		/>
	<path class="st35" d="M294.1,306.1c0,0.5-0.4,0.9-0.9,0.9s-0.9-0.4-0.9-0.9s0.4-0.9,0.9-0.9S294.1,305.6,294.1,306.1z"/>
	<path class="st35" d="M300.6,290c0,0.5-0.4,0.9-0.9,0.9s-0.9-0.4-0.9-0.9s0.4-0.9,0.9-0.9S300.6,289.5,300.6,290z"/>
	<circle class="st35" cx="306.2" cy="256.7" r="0.9"/>
	<path class="st35" d="M268.1,272.2c0,0.5-0.4,0.9-0.9,0.9s-0.9-0.4-0.9-0.9s0.4-0.9,0.9-0.9C267.7,271.2,268.1,271.6,268.1,272.2z"
		/>
	<path class="st35" d="M274.6,295c0,0.5-0.4,0.9-0.9,0.9s-0.9-0.4-0.9-0.9s0.4-0.9,0.9-0.9C274.2,294,274.6,294.5,274.6,295z"/>
	<polygon class="st35" points="273.6,295 267.1,272.2 260.6,247.5 254.2,253.2 254.1,253.1 260.7,247.1 260.8,247.3 267.3,272.1 
		273.8,294.9 	"/>
	<polygon class="st35" points="293.2,306.4 286.6,277.3 286.8,277.2 293.2,305.8 299.6,290 306.1,256.7 306.3,256.8 299.8,290 	"/>
	<g>
		<text transform="matrix(1 0 0 1 336.1328 245.318)" class="st33 st27 st28"> Lorem ipsum</text>
		<text transform="matrix(1 0 0 1 366.4328 245.318)" class="st36 st27 st28"> dolor sit amet mea deleniti patrioque e</text>
		<text transform="matrix(1 0 0 1 336.1328 250.418)" class="st36 st27 st28">udus mandamus deterruisset sea Eu nam nisl erat</text>
		<text transform="matrix(1 0 0 1 435.5328 250.418)" class="st36 st27 st28">melius</text>
		<text transform="matrix(1 0 0 1 336.1328 255.518)" class="st36 st27 st28">Te erant iudicabit dissentiunt vis has vidisse epicuri et eti</text>
		<text transform="matrix(1 0 0 1 336.1328 260.518)" class="st36 st27 st28">am ludus pro an Ex commune suscipit nec.</text>
		<text transform="matrix(1 0 0 1 336.1328 265.618)" class="st36 st27 st28"> o his omnesque moderatius Quidam antiopam sit no ant</text>
		<text transform="matrix(1 0 0 1 336.1328 270.718)" class="st36 st27 st28">imeam imperdiet intellegam quo id vis illud justo fa</text>
		<text transform="matrix(1 0 0 1 336.1328 275.818)" class="st36 st27 st28">cilis Quis accusamus necessitatibus sea ne.</text>
		<text transform="matrix(1 0 0 1 336.1328 280.818)" class="st36 st27 st28"> </text>
		<text transform="matrix(1 0 0 1 337.5328 280.818)" class="st36 st27 st28">Lorem ipsum dolor sit amet mea deleniti patrioque eudl</text>
		<text transform="matrix(1 0 0 1 336.1328 285.918)" class="st36 st27 st28">udus mandamus deterruisset sea Eu nam nisl erat</text>
		<text transform="matrix(1 0 0 1 435.7328 285.918)" class="st36 st27 st28">melius</text>
		<text transform="matrix(1 0 0 1 336.1328 291.018)" class="st36 st27 st28">Te erant iudicabit dissentiunt vis has vidisse epicuri et eti</text>
		<text transform="matrix(1 0 0 1 336.1328 296.118)" class="st36 st27 st28">am ludus pro an Ex commune suscipit nec no his omnesq</text>
		<text transform="matrix(1 0 0 1 336.1328 301.118)" class="st36 st27 st28">ue moderatius.</text>
	</g>
	<g>
		<text transform="matrix(1 0 0 1 336.1328 317.5944)" class="st36 st27 st28"> Lorem ipsum </text>
		<text transform="matrix(1 0 0 1 364.4328 317.5944)" class="st36 st27 st28">dolor sit amet</text>
		<text transform="matrix(1 0 0 1 391.5328 317.5944)" class="st36 st27 st28"> mea deleniti patrioque eud</text>
		<text transform="matrix(1 0 0 1 336.1328 322.6944)" class="st36 st27 st28">udus mandamus deterruisset sea Eu nam nisl erat</text>
		<text transform="matrix(1 0 0 1 435.5328 322.6944)" class="st36 st27 st28">melius</text>
		<text transform="matrix(1 0 0 1 336.1328 327.7944)" class="st36 st27 st28">Te erant iudicabit dissentiunt vis has vidisse epicuri et eti</text>
		<text transform="matrix(1 0 0 1 336.1328 332.7944)" class="st36 st27 st28">am ludus pro an Ex commune suscipit nec.</text>
	</g>
</g>
<g class="st37">
	<path d="M260.4,126.5c1.5,0,2.6-0.3,3.2-0.8c0.7-0.5,1-1.2,1-2v-0.4c0-1-0.4-1.7-1.1-2.1c-0.7-0.5-1.7-0.8-3.1-1.2
		c-1-0.2-2-0.4-2.9-0.7c-1-0.2-1.9-0.6-2.7-1.1c-0.8-0.5-1.4-1.1-1.9-1.9c-0.5-0.8-0.7-1.9-0.7-3.3v-0.4c0-0.7,0.1-1.5,0.4-2.2
		c0.3-0.8,0.7-1.5,1.4-2.1s1.5-1.2,2.6-1.6c1.1-0.4,2.4-0.6,4-0.6c1.3,0,2.5,0.1,3.7,0.4c1.2,0.3,2.4,0.8,3.6,1.5l-1.9,3.2
		c-1-0.6-1.8-1-2.7-1.2c-0.8-0.2-1.7-0.3-2.6-0.3c-0.7,0-1.4,0.1-1.9,0.3c-0.5,0.2-1,0.4-1.3,0.7c-0.4,0.3-0.6,0.6-0.8,0.9
		s-0.3,0.6-0.3,1v0.4c0,0.6,0.1,1,0.4,1.4c0.3,0.3,0.6,0.6,1.1,0.9c0.5,0.2,1,0.4,1.6,0.6c0.6,0.1,1.3,0.3,2,0.4
		c1.4,0.3,2.5,0.7,3.5,1.1c0.9,0.4,1.7,0.9,2.3,1.5c0.6,0.6,1,1.2,1.2,1.9s0.4,1.4,0.4,2.2v0.4c0,1.3-0.2,2.4-0.7,3.3
		c-0.5,0.9-1.1,1.6-1.9,2.1c-0.8,0.5-1.7,0.9-2.8,1.1c-1,0.2-2.1,0.3-3.2,0.3c-0.8,0-1.7-0.1-2.5-0.2c-0.8-0.1-1.6-0.3-2.3-0.6
		c-0.7-0.2-1.4-0.5-2-0.9c-0.6-0.3-1.2-0.7-1.6-1.1l2-3.3c0.7,0.6,1.6,1.1,2.8,1.6C257.8,126.3,259,126.5,260.4,126.5z"/>
	<path d="M292.2,111.6c0.8,0,1.6,0.1,2.4,0.4c0.7,0.3,1.4,0.7,2,1.3s1,1.3,1.3,2.1c0.3,0.8,0.5,1.8,0.5,3v11.5h-4.1v-10.7
		c0-0.8-0.1-1.5-0.3-2c-0.2-0.5-0.4-0.9-0.7-1.2c-0.3-0.3-0.6-0.5-1-0.6c-0.4-0.1-0.8-0.2-1.2-0.2c-0.4,0-0.8,0.1-1.2,0.2
		c-0.4,0.1-0.8,0.3-1.1,0.6c-0.3,0.3-0.6,0.7-0.7,1.2s-0.3,1.1-0.3,1.9v10.8h-4.1v-10.7c0-0.8-0.1-1.4-0.3-1.9
		c-0.2-0.5-0.4-0.9-0.7-1.2c-0.3-0.3-0.6-0.5-1-0.6c-0.4-0.1-0.8-0.2-1.3-0.2c-1,0-1.8,0.3-2.4,0.9c-0.6,0.6-0.9,1.5-0.9,2.8v11H273
		V112h3.9v2.3h0.1c0.4-0.8,1.1-1.5,1.9-1.9c0.8-0.5,1.8-0.7,3-0.7c1.1,0,2.1,0.2,3,0.7c0.9,0.5,1.5,1.2,1.8,2c0.6-0.9,1.4-1.6,2.2-2
		C289.7,111.8,290.8,111.6,292.2,111.6z"/>
	<path d="M308.2,130.1c-1.9,0-3.4-0.4-4.5-1.3c-1.1-0.9-1.6-2.1-1.6-3.7v-1c0-0.7,0.1-1.4,0.3-2c0.2-0.6,0.6-1.2,1.1-1.6
		c0.5-0.5,1.2-0.8,2.1-1.1c0.9-0.3,1.9-0.4,3.2-0.4h4.1v-0.7c0-1.1-0.3-1.9-0.8-2.4c-0.5-0.5-1.3-0.7-2.4-0.7
		c-1.9,0-3.6,0.6-5.1,1.8l-2-3c0.9-0.6,1.9-1.2,3.1-1.7c1.1-0.5,2.5-0.7,4-0.7c1,0,2,0.1,2.9,0.4c0.9,0.3,1.7,0.6,2.3,1.1
		c0.6,0.5,1.1,1.1,1.5,1.8c0.4,0.7,0.5,1.5,0.5,2.4v12.6h-3.7l-0.1-2.2c-0.2,0.4-0.4,0.7-0.8,1.1c-0.4,0.3-0.8,0.6-1.3,0.8
		c-0.5,0.2-1,0.4-1.5,0.5C309.2,130.1,308.7,130.1,308.2,130.1z M313,122.2h-4c-1.1,0-1.8,0.2-2.3,0.6c-0.4,0.4-0.6,1-0.6,1.7v0.4
		c0,0.6,0.2,1,0.6,1.4c0.4,0.3,1,0.5,1.8,0.5c1.7,0,2.9-0.4,3.7-1.2c0.4-0.4,0.6-0.8,0.6-1.2c0.1-0.4,0.1-1,0.1-1.6V122.2z"/>
	<path d="M332,115.7c-0.3-0.1-0.6-0.2-1-0.3c-0.3-0.1-0.8-0.1-1.3-0.1c-0.6,0-1.1,0.1-1.6,0.3s-0.9,0.5-1.3,0.8
		c-0.4,0.4-0.6,0.8-0.8,1.3c-0.2,0.5-0.3,1-0.3,1.6v10.6h-4.1V112h3.9v2.6h0.1c0.5-0.9,1.1-1.6,1.9-2.2c0.8-0.5,1.8-0.8,3.1-0.8
		c0.5,0,0.9,0,1.4,0.1c0.5,0.1,0.8,0.2,1.2,0.3L332,115.7z"/>
	<path d="M337.5,115.4h-2.9V112h2.9v-4.6h4.1v4.6h4.5v3.4h-4.5v9.4c0,0.8,0.2,1.3,0.5,1.5c0.3,0.2,0.7,0.4,1.3,0.4
		c0.4,0,0.8,0,1.2-0.1c0.4-0.1,0.8-0.2,1.3-0.4l0.6,3.3c-0.4,0.2-0.9,0.3-1.5,0.5c-0.6,0.2-1.4,0.2-2.2,0.2c-1,0-1.9-0.1-2.6-0.4
		c-0.7-0.2-1.2-0.6-1.7-1c-0.4-0.5-0.7-1-0.9-1.7c-0.2-0.7-0.3-1.4-0.3-2.3V115.4z"/>
</g>
<text transform="matrix(1 0 0 1 356.9498 129.1687)" class="st38 st39"> </text>
<g class="st37">
	<path class="st40" d="M378.1,121.8c-1,0.1-2.1,0.2-3.3,0.3c-1.2,0.1-2.6,0.2-4.1,0.2c-1.5,0.1-3.3,0.1-5.2,0.1c-1.9,0-4.2,0-6.6,0
		v-2c1.6,0,3.1,0,4.4,0c1.3,0,2.6,0,3.7,0v-2.3c-1.9-0.1-3.3-0.6-4.2-1.3c-0.9-0.8-1.4-1.6-1.4-2.7v-0.8c0-1.1,0.6-2.1,1.7-2.9
		c1.1-0.8,2.8-1.2,5-1.2c2.3,0,3.9,0.4,5,1.2c1.1,0.8,1.7,1.7,1.7,2.8v0.8c0,1-0.5,1.9-1.4,2.7c-0.9,0.7-2.3,1.2-4.2,1.3v2.2
		c1.8,0,3.4-0.1,4.8-0.2c1.4-0.1,2.7-0.2,3.9-0.3L378.1,121.8z M366.9,106.2v-2.8h2.3v2.8h7v1.9h-16.2v-1.9H366.9z M362.8,125h19.5
		v8.8H380V127h-17.2V125z M368,111.3c-1.5,0-2.7,0.2-3.4,0.7c-0.7,0.5-1.1,1-1.1,1.6v0.6c0,0.6,0.4,1.1,1.1,1.6
		c0.7,0.5,1.9,0.7,3.4,0.7c1.5,0,2.7-0.2,3.4-0.7c0.7-0.5,1.1-1,1.1-1.6v-0.6c0-0.6-0.4-1.1-1.1-1.6
		C370.7,111.6,369.5,111.3,368,111.3z M382.3,113.3h4.4v2h-4.4v7.9H380v-19.5h2.3V113.3z"/>
	<path class="st40" d="M397,120.1c-1.1,0-2.1-0.2-3-0.6c-0.9-0.4-1.7-0.9-2.3-1.5c-0.6-0.6-1.1-1.3-1.5-2.1
		c-0.3-0.8-0.5-1.6-0.5-2.4v-1.9c0-0.8,0.2-1.6,0.5-2.4c0.3-0.8,0.8-1.5,1.5-2.1s1.4-1.1,2.3-1.5c0.9-0.4,1.9-0.6,3-0.6
		c1.1,0,2.1,0.2,3,0.6c0.9,0.4,1.7,0.9,2.3,1.5s1.1,1.3,1.5,2.1c0.3,0.8,0.5,1.6,0.5,2.4v1.9c0,0.8-0.2,1.6-0.5,2.4
		c-0.3,0.8-0.8,1.5-1.5,2.1c-0.6,0.6-1.4,1.1-2.3,1.5C399.1,119.9,398.1,120.1,397,120.1z M397,107.1c-0.8,0-1.5,0.1-2.1,0.4
		s-1.2,0.6-1.6,1c-0.4,0.4-0.8,0.9-1,1.5c-0.3,0.6-0.4,1.1-0.4,1.8v1.6c0,0.6,0.1,1.2,0.4,1.8c0.2,0.6,0.6,1.1,1,1.5
		c0.4,0.4,1,0.8,1.6,1s1.3,0.4,2.1,0.4s1.5-0.1,2.1-0.4c0.6-0.3,1.2-0.6,1.6-1c0.4-0.4,0.8-0.9,1-1.5c0.2-0.6,0.4-1.1,0.4-1.8v-1.6
		c0-0.6-0.1-1.2-0.4-1.8s-0.6-1.1-1-1.5c-0.4-0.4-1-0.8-1.6-1C398.4,107.2,397.7,107.1,397,107.1z M397,131.1h16.6v2h-18.9v-9.7h2.3
		V131.1z M412.8,125h-2.3v-21.2h2.3V125z"/>
	<path class="st40" d="M423.2,119.1c0.5-0.6,0.9-1.1,1.2-1.6c0.3-0.5,0.5-0.9,0.7-1.4c0.2-0.5,0.3-0.9,0.3-1.4
		c0.1-0.5,0.1-1.1,0.1-1.7v-7h2.4v6.8c0,0.6,0,1.2,0.1,1.6c0,0.5,0.1,0.9,0.3,1.3c0.1,0.4,0.3,0.8,0.6,1.3c0.3,0.4,0.6,0.9,1,1.4
		c0.6,0.8,1.4,1.6,2.4,2.6c0.9,1,2,2,3.3,3.1l-1.5,1.6c-1-1-2-1.9-2.9-2.8c-0.9-0.9-1.6-1.7-2.3-2.4c-0.5-0.5-0.9-1-1.3-1.5
		c-0.4-0.5-0.6-0.8-0.7-1h0c0,0.1-0.1,0.3-0.3,0.5c-0.2,0.2-0.3,0.5-0.6,0.8c-0.2,0.3-0.5,0.6-0.7,0.9c-0.3,0.3-0.5,0.6-0.7,0.9
		c-0.3,0.3-0.6,0.7-1,1.1c-0.4,0.4-0.8,0.8-1.3,1.3c-0.5,0.5-0.9,0.9-1.4,1.4c-0.5,0.5-1,0.9-1.5,1.3l-1.5-1.6c1.1-1,2.1-1.9,3-2.7
		C421.6,120.8,422.5,120,423.2,119.1z M442.4,133.5h-2.3v-18.2h-7v-2.1h7v-9.4h2.3V133.5z"/>
</g>
<g class="st25">
	<path class="st41" d="M321.5,420.5H248c-1.1,0-2,0.9-2,1.9c0,1.1,0.9,1.9,2,1.9h73.5c1.1,0,2-0.9,2-1.9S322.6,420.5,321.5,420.5z"
		/>
	<path class="st41" d="M321.5,433.4H248c-1.1,0-2,0.9-2,1.9c0,1.1,0.9,1.9,2,1.9h73.5c1.1,0,2-0.9,2-1.9S322.6,433.4,321.5,433.4z"
		/>
</g>
<g class="st42">
	<g>
		<path class="st43" d="M395.2,366.2h0.2c-1.1,0-2,0.9-2,1.9c0,1.1,0.9,1.9,2,1.9h-0.2c1.1,0,2-0.9,2-1.9S396.3,366.2,395.2,366.2z"
			/>
		<path class="st43" d="M395.2,379.1h0.2c-1.1,0-2,0.9-2,1.9c0,1.1,0.9,1.9,2,1.9h-0.2c1.1,0,2-0.9,2-1.9S396.3,379.1,395.2,379.1z"
			/>
		<path class="st43" d="M395.2,392.1h0.2c-1.1,0-2,0.9-2,1.9c0,1.1,0.9,1.9,2,1.9h-0.2c1.1,0,2-0.9,2-1.9
			C397.2,392.9,396.3,392.1,395.2,392.1z"/>
	</g>
	<g>
		<path class="st41" d="M446.3,366.2h-41.5c-1.1,0-2,0.9-2,1.9c0,1.1,0.9,1.9,2,1.9h41.5c1.1,0,2-0.9,2-1.9S447.4,366.2,446.3,366.2
			z"/>
		<path class="st41" d="M446.3,379.1h-41.5c-1.1,0-2,0.9-2,1.9c0,1.1,0.9,1.9,2,1.9h41.5c1.1,0,2-0.9,2-1.9S447.4,379.1,446.3,379.1
			z"/>
		<path class="st41" d="M446.3,392.1h-41.5c-1.1,0-2,0.9-2,1.9c0,1.1,0.9,1.9,2,1.9h41.5c1.1,0,2-0.9,2-1.9
			C448.3,392.9,447.4,392.1,446.3,392.1z"/>
	</g>
</g>
<g>
	<rect x="305.6" y="356.6" class="st44" width="13.5" height="54"/>
	<rect x="287.2" y="393.8" class="st44" width="13.5" height="16.8"/>
	<rect x="268.8" y="375.2" class="st44" width="13.5" height="35.4"/>
	<rect x="250.4" y="383.6" class="st44" width="13.5" height="27"/>
</g>
<g class="st42">
	<path class="st41" d="M446.3,420.1H342.6c-1.1,0-2,0.9-2,1.9c0,1.1,0.9,1.9,2,1.9h103.7c1.1,0,2-0.9,2-1.9S447.4,420.1,446.3,420.1
		z"/>
	<path class="st41" d="M446.3,432.8H342.6c-1.1,0-2,0.9-2,1.9s0.9,1.9,2,1.9h103.7c1.1,0,2-0.9,2-1.9S447.4,432.8,446.3,432.8z"/>
</g>
<g class="st42">
	<path class="st45" d="M385.1,381c0-12.5-10.2-22.7-22.7-22.7s-22.7,10.2-22.7,22.7s10.2,22.7,22.7,22.7S385.1,393.6,385.1,381z"/>
	<path class="st46" d="M342.1,370.8l20.3,10.2L348,398.7C339.9,392.1,337.2,380.5,342.1,370.8z"/>
	<path class="st46" d="M372.8,360.9c2.9,1.5,5.4,3.6,7.3,6L362.3,381l1.3-22.7C366.8,358.6,369.9,359.4,372.8,360.9z"/>
</g>
<line class="st2" x1="479.4" y1="283.2" x2="501.7" y2="296.1"/>
<path class="st3" d="M525.2,211.9c0,0-2.4,2.8,0.3,4.6s6.8-2.7,6.8-2.7s-3.3,10.7,5.7,8.4s7.9-5.6,7.9-5.6s-8.2,0.6-13.6-2.7
	c-5.4-3.3,1.5-5.3,1.5-5.3"/>
<path class="st2" d="M48.5,156.4c0,0-7.7,5.6-8.8,20.1"/>
<path class="st2" d="M122.4,107.7c0,0,11.9-8.2,25.1-3.8"/>
<ellipse transform="matrix(0.9365 -0.3506 0.3506 0.9365 -65.3089 75.4209)" cx="175.7" cy="218.1" rx="1.5" ry="2.3"/>
<ellipse transform="matrix(0.9365 -0.3506 0.3506 0.9365 -71.204 80.1973)" cx="185.9" cy="236.8" rx="1.5" ry="2.3"/>
<ellipse transform="matrix(0.9365 -0.3506 0.3506 0.9365 -76.2498 85.052)" cx="196.8" cy="253.1" rx="1.5" ry="2.3"/>
</svg>
