<?xml version="1.0" encoding="utf-8"?>
<!-- Generator: Adobe Illustrator 25.2.2, SVG Export Plug-In . SVG Version: 6.00 Build 0)  -->
<svg version="1.1" id="Layer_1" xmlns="http://www.w3.org/2000/svg" xmlns:xlink="http://www.w3.org/1999/xlink" x="0px" y="0px"
	 viewBox="0 0 872.7 500" style="enable-background:new 0 0 872.7 500;" xml:space="preserve">
<style type="text/css">
	.st0{fill:#ADADAD;}
	.st1{fill:#3B93FF;}
</style>
<path d="M414.3,316.8c0.1,0,0.1,0,0.2-0.1C414.5,316.7,414.4,316.8,414.3,316.8L414.3,316.8z"/>
<path d="M635.4,419.7L635.4,419.7c0.2,0,0.3,0,0.5,0.1C635.7,419.8,635.6,419.8,635.4,419.7z"/>
<path d="M648.5,409.4c0,0.6-0.1,1.2-0.2,1.7l0,0C648.4,410.6,648.5,410,648.5,409.4C648.5,409.5,648.5,409.5,648.5,409.4z"/>
<path d="M666.2,166.4c-2.3-1.7-5.1-2.8-7.9-3.6l0,0C661.1,163.6,663.8,164.7,666.2,166.4L666.2,166.4z"/>
<path d="M640,420.1c0.1,0,0.3,0,0.4,0c0.1,0,0.1-0.1,0.2-0.1C640.4,420,640.2,420,640,420.1z"/>
<path d="M668.5,168.3L668.5,168.3c-0.7-0.7-1.5-1.3-2.2-1.8c0,0,0,0-0.1,0C667,167,667.8,167.6,668.5,168.3z"/>
<path d="M674,175.7L674,175.7c-0.4-0.8-0.7-1.5-1.2-2.1l0,0C673.3,174.3,673.7,175,674,175.7z"/>
<path d="M672.6,173.1L672.6,173.1c-1.1-1.7-2.4-3.2-3.8-4.6l0,0C670.2,169.8,671.5,171.4,672.6,173.1z"/>
<path d="M676.5,214.3v27.9l0,0V214.3z"/>
<path d="M642.7,419.1c-0.2,0.1-0.3,0.1-0.5,0.2c0.1-0.1,0.2-0.1,0.3-0.1C642.6,419.1,642.7,419.1,642.7,419.1z"/>
<path d="M674.3,176.3L674.3,176.3L674.3,176.3L674.3,176.3z"/>
<path d="M355.8,370.3c0.1,0,0.2,0,0.3-0.1c0.2-0.1,0.3-0.1,0.5-0.2C356.3,370.1,356,370.2,355.8,370.3z"/>
<path d="M361.6,368.3L361.6,368.3c0.1-0.1,0.2-0.1,0.3-0.1C361.8,368.2,361.7,368.3,361.6,368.3z"/>
<path d="M367.3,365.7c0,0,0.1,0,0.1-0.1c0.1-0.1,0.2-0.1,0.4-0.2C367.6,365.5,367.4,365.6,367.3,365.7z"/>
<path d="M232.9,419.2c0.1,0.1,0.2,0.1,0.4,0.1c-0.2-0.1-0.4-0.1-0.5-0.2C232.8,419.1,232.9,419.2,232.9,419.2z"/>
<path d="M227.1,409.5c0,0.6,0.1,1.1,0.2,1.7C227.1,410.6,227.1,410,227.1,409.5L227.1,409.5z"/>
<path d="M295.9,385.5c0.8-0.5,1.5-0.9,2.3-1.4c-17.4,10.8-34.7,21.5-52.1,32.3C262.2,406.4,278.5,396.3,295.9,385.5z"/>
<path d="M338,372.8c-0.1,0-0.3,0-0.4,0C337.7,372.8,337.8,372.8,338,372.8C337.9,372.8,338,372.8,338,372.8z"/>
<path d="M234.9,419.9c0.1,0,0.2,0.1,0.2,0.1c0.1,0,0.3,0,0.4,0C235.3,420,235.1,420,234.9,419.9z"/>
<path d="M305,377.9C305,377.8,305,377.8,305,377.9C305,377.8,305,377.8,305,377.9C305,377.8,305,377.8,305,377.9z"/>
<path d="M239.6,419.9c0.1,0,0.2,0,0.3-0.1h0.1C240,419.8,239.8,419.8,239.6,419.9z"/>
<path d="M674.3,176.3L674.3,176.3c-0.1-0.2-0.2-0.4-0.3-0.6l0,0C674.1,175.9,674.2,176.1,674.3,176.3z"/>
<path d="M672.9,173.6C672.8,173.6,672.8,173.6,672.9,173.6C672.8,173.5,672.8,173.6,672.9,173.6
	C672.8,173.6,672.8,173.6,672.9,173.6z"/>
<path d="M672.6,173.1L672.6,173.1L672.6,173.1L672.6,173.1z"/>
<path d="M668.7,168.5C668.7,168.5,668.7,168.4,668.7,168.5C668.7,168.4,668.7,168.4,668.7,168.5L668.7,168.5z"/>
<path d="M668.5,168.3L668.5,168.3L668.5,168.3L668.5,168.3z"/>
<path d="M666.2,166.4C666.2,166.4,666.3,166.4,666.2,166.4L666.2,166.4L666.2,166.4L666.2,166.4z"/>
<path d="M648.3,411.2C648.3,411.2,648.3,411.1,648.3,411.2C648.3,411.1,648.3,411.1,648.3,411.2L648.3,411.2z"/>
<path d="M657.5,162.4c0.3,0.1,0.5,0.3,0.7,0.3l0,0C658,162.7,657.8,162.5,657.5,162.4z"/>
<path class="st0" d="M655,446.7c9.7-1,17.6-7.7,20.4-16.8c0.7-2.3,1.1-4.7,1.1-7.1V242.3v-56c0-3.6-0.8-7-2.2-10.1l0,0
	c-0.1-0.2-0.2-0.4-0.3-0.6c-0.4-0.7-0.8-1.5-1.2-2.2c-0.1-0.2-0.2-0.3-0.3-0.5c-1.1-1.7-2.4-3.3-3.9-4.6c0,0,0,0-0.1-0.1l-0.1-0.1
	c-0.7-0.7-1.5-1.3-2.3-1.9l0,0c-2.3-1.7-5.1-2.8-7.9-3.6c-2.1-0.6-4.2-1-6.4-1H418.5c-1.1,0-2.1,0.3-2.9,0.8c-0.4,0.2-0.7,0.5-1,0.8
	c-1,1-1.6,2.4-1.6,4v9.9c0,1.2,0.4,2.2,1,3.1c0.7,1.1,1.9,1.9,3.2,2.3c0.5,0.1,0.9,0.2,1.4,0.2H652c0.2,0,0.4,0.1,0.6,0.1
	c1.2,0.2,2.2,1,2.7,2.1c0.2,0.4,0.3,0.9,0.3,1.3v28V226l0,0c-1,0.2-2,0.6-2.9,1l0,0l-212.5,99.8l-21.6-10.1c-0.3-0.2-0.7-0.3-1-0.3
	c-0.1,0-0.3,0-0.4,0c-0.2,0-0.4-0.1-0.6,0c-0.2,0-0.3,0-0.5,0.1c-0.2,0-0.4,0-0.6,0.1c-0.2,0-0.3,0.1-0.5,0.2
	c-0.1,0.1-0.3,0.1-0.4,0.2l0,0c-0.2,0.1-0.4,0.3-0.6,0.4c-0.3,0.3-0.6,0.5-0.9,0.9c0,0,0,0-0.1,0.1c-0.2,0.2-0.3,0.5-0.4,0.8
	c0,0.1-0.1,0.1-0.1,0.2c-0.1,0.3-0.2,0.7-0.3,1.1c-0.6,3.8-1.5,7.6-2.7,11.2c0.6-1.8,1.1-3.7,1.6-5.5c-0.4,1.9-1,3.7-1.6,5.5
	c-0.7,2.1,0.3,4.5,2.4,5.5l21,9.8c1.1,0.5,2.2,0.9,3.3,1.2c2.5,0.6,5,0.7,7.5,0.1c1.2-0.3,2.5-0.7,3.7-1.2l39.8-18.7L633.4,419
	c0.6,0.4,1.3,0.7,1.9,0.9c0.1,0.1,0.3,0.1,0.4,0.2c0,0,0.1,0,0.1,0.1h-0.1c0.2,0.1,0.3,0.1,0.5,0.1c-0.1,0-0.2,0-0.4-0.1
	c0.6,0.2,1.1,0.3,1.7,0.4c0.1,0,0.2,0,0.3,0s0.1,0,0.2,0c0,0,0,0-0.1,0c0.2,0,0.4,0,0.7,0c-0.1,0-0.2,0-0.3,0c0.1,0,0.3,0,0.4,0
	c0.1,0,0.3,0,0.4,0c0.4,0,0.8-0.1,1.1-0.1c0.1,0,0.3,0,0.5-0.1c-0.1,0-0.3,0-0.4,0c0.2,0,0.4-0.1,0.6-0.1c-0.1,0-0.1,0.1-0.2,0.1
	c0.1,0,0.3-0.1,0.4-0.1c0.4-0.1,0.9-0.3,1.3-0.5c0.2-0.1,0.3-0.1,0.5-0.2c0.1,0,0.1-0.1,0.2-0.1c0.1-0.1,0.2-0.1,0.3-0.2
	c0.4-0.2,0.8-0.5,1.1-0.8c0.1-0.1,0.3-0.2,0.4-0.3c0.3-0.3,0.7-0.6,1-1c0.1-0.1,0.2-0.2,0.2-0.3c0.4-0.5,0.7-0.9,1-1.4
	c0.1-0.1,0.1-0.2,0.2-0.3c0.2-0.4,0.4-0.9,0.6-1.3c0.1-0.2,0.1-0.3,0.2-0.5c0.1-0.4,0.3-0.9,0.4-1.3c0-0.1,0.1-0.3,0.1-0.4l0,0
	c0.1-0.6,0.2-1.1,0.2-1.7c0,0,0,0,0,0.1c0,0.6-0.1,1.1-0.2,1.6c0.1-0.5,0.2-1.1,0.2-1.6c0,0,0,0,0-0.1v-0.1c0-0.6,0-1.1-0.1-1.7
	c0-0.1,0-0.2-0.1-0.3c-0.1-0.6-0.3-1.2-0.5-1.7l0,0c-0.2-0.6-0.5-1.1-0.9-1.6c-0.1-0.1-0.1-0.2-0.2-0.3c-0.4-0.5-0.8-1-1.2-1.4
	c-0.1-0.1-0.2-0.1-0.3-0.2c-0.5-0.5-1.1-0.9-1.7-1.3l-134.2-83.2l108.3-50.9l37.7-17.7v173.9c0,0.4-0.1,0.8-0.2,1.1
	c-0.2,0.5-0.6,1-1.1,1.3s-1,0.5-1.6,0.5h-425c-1.6,0-2.9-1.3-2.9-2.9V258.6l0,0v-8.8l18.9,8.8l-18.9-8.8l31.2,14.6
	c0.4,0.2,0.8,0.3,1.3,0.4c0.2,0,0.4,0,0.6,0s0.4,0,0.7,0c0.2,0,0.5-0.1,0.7-0.1s0.4-0.1,0.6-0.1c0.3-0.1,0.6-0.3,0.9-0.4
	c0.1,0,0.2-0.1,0.2-0.1c0.1-0.1,0.2-0.1,0.3-0.2c0.2-0.2,0.5-0.4,0.7-0.6s0.3-0.3,0.4-0.5s0.2-0.3,0.3-0.5c0.1-0.2,0.2-0.5,0.3-0.7
	c0.1-0.1,0.1-0.3,0.2-0.4c0.1-0.4,0.2-0.9,0.2-1.3V247c0-0.9-0.3-1.9-0.8-2.6c-0.2-0.3-0.5-0.7-0.8-0.9c-0.4-0.4-0.9-0.8-1.4-1
	l-32.3-15.1c-0.4-0.2-0.9-0.4-1.3-0.6c-0.1,0-0.2-0.1-0.2-0.1c-0.5-0.2-1.1-0.4-1.6-0.5v-39.8c0-1.9,1.6-3.5,3.5-3.5h29.3
	c0.6,0,1.2-0.1,1.7-0.3c1.1-0.3,2-1,2.7-1.9s1.2-2.1,1.2-3.4v-9.9c0-3.1-2.5-5.6-5.6-5.6H228c-0.1,0-0.3,0-0.4,0
	c-0.7,0-1.5,0-2.2,0.1c-0.4,0-0.8,0.1-1.1,0.2c-0.5,0.1-0.9,0.1-1.4,0.2c-0.4,0.1-0.9,0.2-1.3,0.3c-0.4,0.1-0.8,0.2-1.2,0.3
	s-0.9,0.3-1.3,0.5c-0.4,0.1-0.7,0.3-1.1,0.4l0,0c-5.6,2.5-10,7-12.5,12.5c-0.2,0.4-0.3,0.7-0.4,1.1c-0.2,0.4-0.3,0.8-0.5,1.3
	c-0.1,0.4-0.2,0.8-0.3,1.2s-0.2,0.8-0.3,1.2c-0.1,0.5-0.2,1-0.2,1.5c-0.1,0.4-0.1,0.7-0.2,1.1c-0.1,0.7-0.1,1.5-0.1,2.2
	c0,0.1,0,0.2,0,0.4v40.2v16.6l0,0v179.6c0,1.2,0.1,2.4,0.3,3.5c1.6,10.8,10.3,19.3,21.3,20.4c0.8,0.1,1.6,0.1,2.5,0.1h425
	C653.3,446.8,654.1,446.8,655,446.7z M676.5,214.3v27.9l0,0V214.3z M414.3,316.8L414.3,316.8c0.1,0,0.1-0.1,0.2-0.1
	C414.5,316.7,414.4,316.8,414.3,316.8z M642.7,419.1l-0.1,0.1c-0.1,0.1-0.2,0.1-0.3,0.1C642.4,419.2,642.6,419.2,642.7,419.1z"/>
<path d="M675.4,179c-0.3-1-0.7-1.9-1.1-2.8l0,0C674.7,177.2,675.1,178.1,675.4,179z"/>
<path d="M658.3,162.8c2.8,0.8,5.6,1.9,7.9,3.6C663.8,164.7,661.1,163.6,658.3,162.8z"/>
<path d="M672.8,173.6C672.8,173.6,672.8,173.5,672.8,173.6c-0.1-0.2-0.2-0.3-0.3-0.4l0,0C672.7,173.2,672.7,173.4,672.8,173.6z"/>
<path d="M668.6,168.4l-0.1-0.1l0,0C668.6,168.3,668.6,168.4,668.6,168.4z"/>
<path d="M287.3,366.4c-0.1,0-0.1,0-0.2,0.1c0.2-0.1,0.3-0.2,0.5-0.2C287.5,366.3,287.4,366.4,287.3,366.4z"/>
<path d="M287.1,366.5L287.1,366.5c0.1-0.1,0.2-0.1,0.2-0.1C287.2,366.5,287.1,366.5,287.1,366.5z"/>
<path d="M299.5,383.3c-0.5,0.3-0.9,0.6-1.4,0.8c-0.8,0.5-1.5,0.9-2.3,1.4C297.1,384.8,298.2,384.1,299.5,383.3z"/>
<path class="st0" d="M304.1,380.3c0.1-0.1,0.1-0.2,0.2-0.3c0.1-0.1,0.2-0.3,0.3-0.4c0.1-0.1,0.1-0.3,0.1-0.4
	c0.1-0.2,0.1-0.3,0.2-0.5c0-0.2,0-0.4,0-0.5s0-0.2,0-0.4v0.1v-0.1l0,0l0,0c0-0.3-0.1-0.6-0.2-0.9c-0.1-0.2-0.2-0.4-0.3-0.6
	c0-0.1-0.1-0.2-0.1-0.3c-0.1-0.2-0.3-0.3-0.4-0.5c-0.1-0.1-0.1-0.1-0.2-0.2c-0.2-0.2-0.5-0.4-0.8-0.6c-4.2-2.2-8.3-4.9-12-7.9
	c-0.1-0.1-0.3-0.2-0.4-0.3c-0.2-0.1-0.4-0.2-0.6-0.3c-0.1,0-0.2,0-0.3-0.1c-0.3-0.1-0.6-0.1-0.8-0.1h-0.1c-0.2,0-0.3,0-0.4,0.1
	c-0.1,0-0.3,0-0.4,0.1c-0.2,0.1-0.4,0.2-0.6,0.3c0.1,0,0.2-0.1,0.3-0.1c-0.2,0.1-0.4,0.1-0.5,0.2c0,0-0.1,0-0.1,0.1
	c-0.7,0.4-1.4,0.9-2.1,1.3c-17.2,10.7-34.4,21.3-51.5,31.9l-1.4,0.9c-0.6,0.4-1.2,0.8-1.7,1.3c-0.1,0.1-0.2,0.1-0.3,0.2
	c-0.5,0.4-0.9,0.9-1.2,1.4c-0.1,0.1-0.1,0.2-0.2,0.3c-0.7,1-1.1,2.1-1.3,3.4c0,0.1,0,0.2-0.1,0.3c-0.1,0.5-0.1,1.1-0.1,1.7v0.1
	c0,0,0,0,0,0.1c0,0.6,0.1,1.1,0.2,1.7c0,0.1,0.1,0.3,0.1,0.4c0.1,0.4,0.2,0.9,0.4,1.3c0.1,0.2,0.1,0.3,0.2,0.5
	c0.2,0.5,0.4,0.9,0.6,1.3c0.1,0.1,0.1,0.2,0.2,0.3c0.3,0.5,0.6,1,1,1.5c0.1,0.1,0.2,0.2,0.2,0.3c0.3,0.4,0.6,0.7,1,1
	c0.1,0.1,0.3,0.2,0.4,0.3c0.3,0.3,0.7,0.5,1.1,0.8c0.1,0.1,0.2,0.2,0.4,0.2c0.1,0,0.1,0.1,0.2,0.1c0.2,0.1,0.3,0.1,0.5,0.2
	c0.4,0.2,0.8,0.4,1.3,0.5c0.1,0,0.3,0.1,0.4,0.1c-0.1,0-0.2-0.1-0.2-0.1c0.2,0.1,0.4,0.1,0.6,0.1c-0.1,0-0.3,0-0.4,0
	c0.2,0,0.3,0,0.5,0.1c0.4,0.1,0.7,0.1,1.1,0.1c0.1,0,0.3,0,0.4,0c0.1,0,0.3,0,0.4,0c-0.1,0-0.2,0-0.3,0c0.2,0,0.4,0,0.7,0
	c0,0,0,0-0.1,0c0.1,0,0.1,0,0.2,0c0.1,0,0.2,0,0.3,0c0.5-0.1,1.1-0.2,1.6-0.4c-0.1,0-0.2,0-0.3,0.1c0.2,0,0.3-0.1,0.5-0.1h-0.1
	c0,0,0.1,0,0.1-0.1c0.1,0,0.3-0.1,0.4-0.2c0.6-0.2,1.3-0.5,1.9-0.9c17.4-10.8,34.8-21.6,53.4-33.1c-17.4,10.8-33.6,20.9-49.9,30.9
	c17.4-10.8,34.7-21.5,52.1-32.3c1.8-1.1,3.4-2.1,5.3-3.3C303.6,380.7,303.9,380.5,304.1,380.3z M227.1,409.5L227.1,409.5
	c0,0.5,0.1,1.1,0.2,1.7C227.1,410.6,227.1,410,227.1,409.5z M232.9,419.2c-0.1,0-0.1-0.1-0.2-0.1c0.2,0.1,0.3,0.2,0.5,0.2
	C233.2,419.3,233.1,419.2,232.9,419.2z"/>
<path d="M399.1,84.6c0,0.1,0.1,0.3,0.1,0.4c0.2,0.5,0.4,0.9,0.5,1.4C399.5,85.8,399.3,85.2,399.1,84.6z"/>
<path d="M324.2,317.5c-0.1-0.1-0.2-0.1-0.3-0.2c-0.2-0.1-0.3-0.2-0.5-0.3C323.6,317.2,323.9,317.3,324.2,317.5z"/>
<path d="M330.7,320c0.1,0,0.2,0,0.3,0.1l0,0C330.9,320,330.8,320,330.7,320z"/>
<path d="M338.7,321L338.7,321c0.4,0,0.7,0,1,0C339.3,321,339,321,338.7,321z"/>
<path class="st1" d="M291.3,352.4c7.1,7.7,15.8,13.3,25.3,16.7c0.1,0,0.1,0,0.2,0.1c1.9,0.7,3.9,1.3,5.9,1.8h0.1
	c4.1,1,8.4,1.6,12.7,1.8c0.8,0,1.7,0,2.5,0c0.2,0,0.4,0,0.6,0c1.5,0,3-0.1,4.5-0.2c0.6,0,1.2-0.1,1.7-0.2c1.5-0.2,2.9-0.4,4.4-0.6
	c0.6-0.1,1.1-0.2,1.7-0.3c1.5-0.3,2.9-0.6,4.4-1c0.3-0.1,0.5-0.2,0.8-0.2c-0.1,0-0.2,0-0.3,0.1c0.3-0.1,0.5-0.2,0.8-0.2
	c-0.2,0.1-0.3,0.1-0.5,0.2c0.3-0.1,0.5-0.2,0.8-0.3c1.3-0.4,2.5-0.8,3.8-1.3c0.2-0.1,0.5-0.1,0.7-0.2c0.1,0,0.2-0.1,0.4-0.2
	c0,0,0,0-0.1,0c0.1,0,0.2-0.1,0.3-0.1c-0.1,0-0.1,0.1-0.2,0.1c0.3-0.1,0.7-0.3,1-0.4c1.3-0.5,2.5-1.1,3.7-1.7c0.3-0.2,0.7-0.3,1-0.5
	c0,0-0.1,0-0.1,0.1c0.2-0.1,0.3-0.2,0.5-0.3c-0.1,0.1-0.2,0.1-0.4,0.2c0.2-0.1,0.4-0.2,0.6-0.4c1.3-0.7,2.5-1.4,3.8-2.2
	c0.5-0.3,1-0.6,1.5-0.9c1.3-0.9,2.6-1.8,3.8-2.7c0.4-0.3,0.8-0.6,1.2-0.9c1.3-1.1,2.6-2.2,3.8-3.3c0.2-0.2,0.3-0.3,0.5-0.4
	c0.2-0.2,0.4-0.4,0.6-0.6c0.9-0.9,1.7-1.7,2.5-2.7c0.4-0.4,0.8-0.8,1.1-1.3c0.8-1,1.7-2,2.5-3.1c0.4-0.5,0.8-1,1.2-1.6
	c0.7-1,1.5-2.1,2.2-3.2c0.3-0.5,0.6-1,0.9-1.5c0.5-0.9,1.1-1.9,1.6-2.8c0.2-0.3,0.4-0.6,0.5-0.9c-0.1,0.3-0.3,0.6-0.5,0.9
	c1.1-2.1,2.1-4.3,2.9-6.5c-0.1,0.2-0.1,0.4-0.2,0.6c0.1-0.2,0.1-0.4,0.2-0.6c0.6-1.4,1-2.9,1.5-4.3c0.2-0.5,0.3-1.1,0.5-1.6
	c0.4-1.4,0.8-2.9,1.1-4.4c0.1-0.6,0.2-1.1,0.3-1.7c0.3-1.5,0.5-3,0.6-4.6c0-0.5,0.1-1,0.1-1.4c0.1-1.5,0.2-3,0.2-4.4
	c0-0.2,0-0.5,0-0.7V101.8c0-5.8-1.1-11.5-3.1-16.8c-0.3-0.7-0.5-1.5-0.8-2.2c0,0,0,0.1,0.1,0.1c0-0.1,0-0.1-0.1-0.2
	c-0.5-1-1-2-1.5-3c0.4,0.9,0.9,1.7,1.3,2.6c-0.6-1.2-1.2-2.5-1.8-3.6c-2.3-4.2-5.3-8-8.8-11.3c-3-2.9-6.3-5.2-9.9-7.2
	c-0.5-0.3-0.9-0.6-1.4-0.8c-0.4-0.2-0.8-0.3-1.1-0.5l0,0h-0.1c-1-0.5-2-0.9-3-1.3c0.1,0,0.1,0,0.2,0.1c-0.2-0.1-0.3-0.1-0.5-0.2
	c-0.9-0.3-1.8-0.6-2.7-0.9c0.5,0.2,1.1,0.4,1.6,0.6c-1-0.3-1.9-0.7-2.9-1c0.2,0,0.3,0.1,0.5,0.1c-0.3-0.1-0.6-0.2-0.9-0.3
	c0,0,0,0-0.1,0c-1.5-0.4-3-0.7-4.5-1c-0.3,0-0.5-0.1-0.8-0.1c-1.3-0.2-2.6-0.3-3.9-0.4c-0.4,0-0.8,0-1.2-0.1c-0.7,0-1.3-0.1-2-0.1
	c-0.8,0-1.6,0-2.4,0.1c-1.6,0.1-3.2,0.3-4.7,0.5l0,0c-1.5,0.2-3,0.5-4.4,0.9c-0.2,0.1-0.5,0.1-0.7,0.2c-1.2,0.3-2.4,0.7-3.6,1.1
	c-0.3,0.1-0.6,0.2-0.9,0.4c-0.8,0.3-1.7,0.6-2.5,1c0.7-0.3,1.5-0.6,2.3-0.9c-14.8,5.9-25.8,19.1-29.3,35c-0.4,1.9-0.9,3.8-1.1,5.7
	c0,0.2,0,0.3,0,0.5c-0.1,1.5-0.2,3-0.2,4.6v186.1c0,2.3,0.3,4.5,0.7,6.7c0.1,0.3,0.1,0.5,0.2,0.8c0.2,0.8,0.4,1.6,0.6,2.4
	c0.2,0.5,0.4,0.9,0.5,1.4c0.2,0.6,0.4,1.1,0.6,1.7c0.2,0.4,0.4,0.8,0.6,1.2c0.3,0.6,0.6,1.2,0.9,1.7c0.1,0.2,0.2,0.4,0.3,0.5
	c1.6,2.6,3.5,5,5.8,7.1c2,1.8,4.1,3.2,6.4,4.5c0.4,0.2,0.8,0.5,1.3,0.7c-0.1,0-0.1-0.1-0.2-0.1c0.6,0.3,1.2,0.5,1.8,0.8
	c-0.2-0.1-0.4-0.2-0.5-0.2c0.6,0.3,1.3,0.5,1.9,0.8c-0.1,0-0.2,0-0.2-0.1c0.2,0.1,0.5,0.2,0.7,0.3c0.3,0.1,0.6,0.2,1,0.3
	c-0.1,0-0.2-0.1-0.4-0.1c0.6,0.2,1.2,0.4,1.9,0.5l0,0l0,0c0.4,0.1,0.9,0.2,1.3,0.3c0.6,0.1,1.1,0.2,1.7,0.3c0.5,0.1,1,0.1,1.5,0.2
	c0.3,0,0.6,0,1,0.1c1.8,0.1,3.6,0.2,5.5,0c7.9-0.7,15.2-4.5,20.5-10.7c5.3-6.1,8.2-13.8,8.2-21.9v-151c0-3.5-2.9-6.4-6.4-6.4h-8.4
	c-3.5,0-6.4,2.9-6.4,6.4v152c0,3.2-1.4,6.2-3.9,8.3s-5.8,2.8-9,2.2c-4.9-1-8.4-5.5-8.4-10.7V101.8c0-7.3,3.1-14.4,8.4-19.4
	c1.3-1.3,2.8-2.4,4.3-3.3c0.1-0.1,0.3-0.2,0.4-0.2c0.6-0.4,1.3-0.7,1.9-1c0.3-0.1,0.6-0.3,0.9-0.4c0.5-0.2,1-0.5,1.6-0.7
	c0.3-0.1,0.6-0.2,0.9-0.3c0.6-0.2,1.1-0.4,1.7-0.5c0.2,0,0.4-0.1,0.5-0.1c2.5-0.6,5-0.8,7.7-0.6c5.1,0.3,9.7,2.2,13.6,5.1
	c0.1,0.1,0.2,0.2,0.3,0.2c0.4,0.3,0.7,0.6,1,0.9s0.6,0.5,0.9,0.8c0.2,0.1,0.3,0.3,0.5,0.5c0.5,0.4,0.9,0.9,1.3,1.4l0,0
	c2.2,2.5,4,5.4,5.2,8.5c0,0.1,0.1,0.3,0.1,0.4c0.2,0.7,0.5,1.3,0.7,2c0.7,2.5,1.1,5.1,1.1,7.8v205.6c0,2.6-0.3,5.1-0.7,7.6
	c-0.1,0.4-0.1,0.9-0.2,1.3c-0.1,0.6-0.3,1.2-0.5,1.8c-0.2,0.8-0.4,1.7-0.7,2.5c-0.1,0.3-0.3,0.6-0.4,1c-0.4,1.1-0.7,2.1-1.2,3.1
	c-0.1,0.2-0.2,0.4-0.3,0.6c-0.5,1.1-1,2.2-1.6,3.3c-0.2,0.4-0.4,0.7-0.7,1.1c-0.5,0.9-1,1.7-1.6,2.5c-1.7,2.4-3.6,4.6-5.7,6.6
	c-1.7,1.6-3.5,3-5.3,4.3c-0.4,0.3-0.8,0.6-1.3,0.9c-0.4,0.3-0.8,0.5-1.3,0.7c-0.8,0.5-1.6,1-2.5,1.4c-0.4,0.2-0.8,0.3-1.2,0.5
	c-0.9,0.4-1.8,0.8-2.7,1.2c-0.5,0.2-0.9,0.3-1.4,0.5c-0.8,0.3-1.7,0.6-2.6,0.8c-0.6,0.2-1.2,0.3-1.8,0.4c-0.8,0.2-1.5,0.4-2.3,0.5
	c-0.7,0.1-1.4,0.2-2.1,0.3c-0.7,0.1-1.4,0.2-2.1,0.2c-0.8,0.1-1.6,0.1-2.4,0.1c-0.9,0-1.8,0-2.7,0c-0.2,0-0.4,0-0.6,0
	c-3.7-0.2-7.3-0.9-10.7-2c-15.1-4.8-26.4-17.9-29.6-33.6c-0.1-0.3-0.1-0.7-0.2-1c-0.2-0.9-0.3-1.8-0.4-2.6c-0.1-0.5-0.1-1-0.2-1.5
	c-0.1-0.8-0.1-1.7-0.1-2.5c0-0.4,0-0.8,0-1.3v-173c0-3.5-2.9-6.4-6.4-6.4h-8.4c-3.5,0-6.4,2.9-6.4,6.4v172.7
	c0,8.6,1.6,16.9,4.8,24.8C281.3,339.3,285.7,346.3,291.3,352.4z M352.8,54.2c0.6,0,1.3,0,1.9,0c0.4,0,0.8,0,1.2,0.1
	C354.9,54.2,353.8,54.2,352.8,54.2z M338,372.8C338,372.8,337.9,372.8,338,372.8c-0.2,0-0.3,0-0.4,0
	C337.7,372.8,337.8,372.8,338,372.8z"/>
<path d="M334,320.7L334,320.7c-0.2,0-0.3,0-0.5-0.1C333.7,320.6,333.8,320.6,334,320.7z"/>
<path d="M308,93.6c0.1-0.4,0.3-0.8,0.4-1.2c0.2-0.9,0.3-1.8,0.5-2.7C308.5,91,308.2,92.3,308,93.6z"/>
<path d="M396.3,78.5C396.3,78.6,396.3,78.6,396.3,78.5c0.1,0.1,0.1,0.1,0.1,0.2C396.3,78.6,396.3,78.6,396.3,78.5z"/>
<path d="M332.6,320.4c-0.1,0-0.2,0-0.3-0.1l0,0C332.3,320.4,332.4,320.4,332.6,320.4z"/>
<path d="M337,321c-0.2,0-0.4,0-0.7,0c-0.1,0-0.2,0-0.3,0C336.4,320.9,336.7,320.9,337,321z"/>
<path d="M331,320.1L331,320.1L331,320.1L331,320.1z"/>
<path class="st0" d="M158.2,261h-76c-6,0-10.9-4.9-10.9-10.9l0,0c0-6,4.9-10.9,10.9-10.9h76c6,0,10.9,4.9,10.9,10.9l0,0
	C169,256.1,164.2,261,158.2,261z"/>
<path class="st0" d="M158.2,369.6h-76c-6,0-10.9-4.9-10.9-10.9l0,0c0-6,4.9-10.9,10.9-10.9h76c6,0,10.9,4.9,10.9,10.9l0,0
	C169,364.7,164.2,369.6,158.2,369.6z"/>
<path class="st0" d="M147.1,315.3H22.5c-6,0-10.9-4.9-10.9-10.9l0,0c0-6,4.9-10.9,10.9-10.9h124.7c6,0,10.9,4.9,10.9,10.9l0,0
	C158,310.4,153.1,315.3,147.1,315.3z"/>
</svg>
