<?xml version="1.0" encoding="utf-8"?>
<!-- Generator: Adobe Illustrator 25.2.2, SVG Export Plug-In . SVG Version: 6.00 Build 0)  -->
<svg version="1.1" xmlns="http://www.w3.org/2000/svg" xmlns:xlink="http://www.w3.org/1999/xlink" x="0px" y="0px"
	 viewBox="0 0 141.7 141.7" style="enable-background:new 0 0 141.7 141.7;" xml:space="preserve">
<style type="text/css">
	.st0{display:none;}
	.st1{opacity:0.3;fill:#777777;}
	.st2{opacity:0.31;fill:#777777;}
</style>
<g id="Layer_1" class="st0">
	
		<image style="display:inline;overflow:visible;" width="160" height="140" xlink:href="72D326D7.jpg"  transform="matrix(0.9999 0 0 0.9999 151.2832 -4.4003)">
	</image>
	
		<image style="display:inline;overflow:visible;" width="100" height="111" xlink:href="72D326D5.jpg"  transform="matrix(0.9999 0 0 0.9999 187.3724 22.9369)">
	</image>
</g>
<g id="Layer_2">
	<circle class="st1" cx="36.4" cy="29.3" r="20.7"/>
	<path class="st1" d="M101.9,66.1h37.5c0,0-41.7,67-98.8,67S0.4,69.5,25.3,50c0,0-19.9,13.9-18.8,41.6s38.3,19.3,38.3,19.3
		S75.9,104.4,101.9,66.1z"/>
	<path class="st1" d="M40.2,64.2h20.3c0,0-19.1,26-37.9,24.9C3.8,87.9,8,62.2,25.7,50c0,0-14.8,21.7-1,22.8
		C32.6,73.5,40.2,64.2,40.2,64.2z"/>
	<path class="st1" d="M73.9,64.2H98c0,0,21.1-41.7-15.3-45.6c0,0-13.8-1.1-24.1,7.3c0,0,26.4-10.7,26,11.9S73.9,64.2,73.9,64.2z"/>
	<path class="st2" d="M259.2,116.1v131.7c0,0,18.9-5.5,61-5.5s53.6,5.5,53.6,5.5v-35.5h-71.1v-85.6
		C302.7,126.7,285.5,128.9,259.2,116.1z"/>
	<path class="st2" d="M329.5,126.7v66.2h37.2v-76.8C366.6,116.1,356.3,123.6,329.5,126.7z"/>
</g>
</svg>
