<?xml version="1.0" encoding="utf-8"?>
<!-- Generator: Adobe Illustrator 25.2.2, SVG Export Plug-In . SVG Version: 6.00 Build 0)  -->
<svg version="1.1" xmlns="http://www.w3.org/2000/svg" xmlns:xlink="http://www.w3.org/1999/xlink" x="0px" y="0px"
	 viewBox="0 0 141.7 141.7" style="enable-background:new 0 0 141.7 141.7;" xml:space="preserve">
<style type="text/css">
	.st0{display:none;}
	.st1{fill:#777777;}
	.st2{opacity:0.31;fill:#777777;}
</style>
<g id="Layer_1" class="st0">
	
		<image style="display:inline;overflow:visible;" width="160" height="140" xlink:href="B8C4D28F.jpg"  transform="matrix(0.9999 0 0 0.9999 151.2832 -4.4003)">
	</image>
	
		<image style="display:inline;overflow:visible;" width="100" height="111" xlink:href="B8C4D28A.jpg"  transform="matrix(0.9999 0 0 0.9999 187.3724 22.9369)">
	</image>
</g>
<g id="Layer_2">
	<circle class="st1" cx="64.2" cy="310.7" r="20.7"/>
	<path class="st1" d="M129.8,347.4h37.5c0,0-41.7,67-98.8,67s-40.2-63.6-15.3-83.1c0,0-19.9,13.9-18.8,41.6
		c1.2,27.7,38.3,19.3,38.3,19.3S103.7,385.7,129.8,347.4z"/>
	<path class="st1" d="M68,345.5h20.3c0,0-19.1,26-37.9,24.9c-18.8-1.1-14.6-26.8,3.1-39.1c0,0-14.8,21.7-1,22.8
		C60.4,354.8,68,345.5,68,345.5z"/>
	<path class="st1" d="M101.7,345.5h24.1c0,0,21.1-41.7-15.3-45.6c0,0-13.8-1.1-24.1,7.3c0,0,26.4-10.7,26,11.9
		C112.1,341.7,101.7,345.5,101.7,345.5z"/>
	<path class="st2" d="M14.9,5v131.7c0,0,18.9-5.5,61-5.5s53.6,5.5,53.6,5.5v-35.5H58.3V15.6C58.3,15.6,41.1,17.8,14.9,5z"/>
	<path class="st2" d="M85.1,15.6v66.2h37.2V5C122.3,5,111.9,12.6,85.1,15.6z"/>
</g>
</svg>
