<?xml version="1.0" encoding="utf-8"?>
<!-- Generator: Adobe Illustrator 24.2.1, SVG Export Plug-In . SVG Version: 6.00 Build 0)  -->
<svg version="1.1" id="Layer_1" xmlns="http://www.w3.org/2000/svg" xmlns:xlink="http://www.w3.org/1999/xlink" x="0px" y="0px"
	 viewBox="0 0 530.5 74.9" style="enable-background:new 0 0 530.5 74.9;" xml:space="preserve">
<style type="text/css">
	.st0{fill:#898989;}
</style>
<g>
	<path d="M25.4,61.1c4.1,0,7.1-0.7,9-2.2c1.9-1.5,2.8-3.3,2.8-5.5v-1c0-2.6-1-4.6-2.9-5.9c-2-1.3-4.8-2.4-8.5-3.2
		c-2.7-0.6-5.4-1.2-8.1-1.9c-2.7-0.7-5.2-1.6-7.4-3c-2.2-1.3-4-3.1-5.4-5.4c-1.4-2.3-2.1-5.3-2.1-9v-1.2c0-2,0.4-4,1.2-6.2
		c0.8-2.1,2.1-4.1,3.9-5.9C9.7,9,12.1,7.5,15,6.4c3-1.2,6.6-1.8,11-1.8c3.6,0,7,0.4,10.4,1.1c3.3,0.8,6.6,2.2,9.9,4.3l-5.4,8.9
		c-2.6-1.7-5.1-2.8-7.4-3.3c-2.3-0.5-4.7-0.8-7.3-0.8c-2,0-3.8,0.2-5.3,0.7c-1.5,0.5-2.7,1.1-3.7,1.9c-1,0.8-1.7,1.6-2.2,2.5
		c-0.5,0.9-0.7,1.8-0.7,2.7v1.1c0,1.6,0.4,2.8,1.1,3.8c0.8,1,1.8,1.8,3,2.4s2.7,1.1,4.5,1.5c1.7,0.4,3.5,0.8,5.4,1.2
		c3.8,0.8,7.1,1.9,9.7,3.1c2.6,1.2,4.7,2.6,6.3,4.2c1.6,1.6,2.7,3.3,3.4,5.2c0.7,1.9,1,3.9,1,6.2v1.2c0,3.6-0.6,6.6-1.9,9
		c-1.3,2.4-3,4.4-5.3,5.8c-2.2,1.5-4.8,2.5-7.7,3.2s-5.9,0.9-9,0.9c-2.3,0-4.6-0.2-6.9-0.6c-2.3-0.4-4.4-0.9-6.3-1.6
		c-2-0.7-3.8-1.5-5.5-2.4C4.4,66,2.9,65,1.7,64l5.6-9.2c2,1.7,4.5,3.2,7.7,4.4C18,60.5,21.5,61.1,25.4,61.1z"/>
	<path d="M74.9,25.5c-0.5-1.1-1-2.5-1.4-4c-0.5-1.5-1.1-3.5-1.9-5.8v54.8H60.8V5.6h16.4l15.9,40.3l15.3-40.3H125v64.9h-10.9V15.7
		c-0.7,2.7-1.2,4.7-1.7,6.1c-0.5,1.4-0.9,2.6-1.4,3.7L97.4,59.7h-9.2L74.9,25.5z"/>
	<path d="M192.8,70.5h-12.5l-6.3-17.8h-21.9l-6.4,17.8h-11.8L158,5.6h10.3L192.8,70.5z M155.4,43.1h15.2l-4.4-13.2
		c-0.8-2.2-1.4-4-1.8-5.4c-0.5-1.5-0.9-3-1.4-4.5c-0.2,0.9-0.5,1.7-0.7,2.4c-0.2,0.7-0.4,1.5-0.7,2.2c-0.2,0.8-0.5,1.5-0.8,2.4
		c-0.3,0.8-0.6,1.8-1,3L155.4,43.1z"/>
	<path d="M226.4,44.5h-13.2v26h-11.5V5.6h24.6c3.4,0,6.3,0.4,9,1.3c2.6,0.9,4.8,2.1,6.6,3.7c1.8,1.6,3.1,3.4,4,5.6
		c0.9,2.2,1.4,4.6,1.4,7.2v3.3c0,3.4-0.8,6.5-2.5,9.2c-1.7,2.7-4.2,4.8-7.6,6.3c2.2,4.7,4.3,9.4,6.3,14.1c2.1,4.7,4.2,9.3,6.3,14.1
		h-12.5L226.4,44.5z M213.2,15.2v19.6h10.6c4.4,0,7.5-0.8,9.3-2.3c1.8-1.6,2.7-3.6,2.7-6v-2.7c0-2.5-0.8-4.6-2.5-6.2
		c-1.7-1.6-4.5-2.4-8.5-2.4H213.2z"/>
	<path d="M304.3,5.6v9.7h-19v55.2h-11.5V15.3h-19.1V5.6H304.3z"/>
	<path class="st0" d="M376,45.9c-2.4,0.3-5,0.6-7.8,0.8c-2.8,0.2-6,0.4-9.6,0.5c-3.6,0.2-7.7,0.3-12.2,0.3
		c-4.6,0.1-9.7,0.1-15.5,0.1V43c3.8,0,7.2,0,10.3,0c3.1,0,6,0,8.7-0.1v-5.3c-4.4-0.3-7.7-1.3-9.8-3.1c-2.2-1.8-3.2-3.8-3.2-6.2v-1.8
		c0-2.6,1.3-4.9,3.9-6.7c2.6-1.8,6.5-2.7,11.8-2.7c5.3,0,9.2,0.9,11.8,2.8c2.6,1.8,3.9,4.1,3.9,6.6v1.8c0,2.4-1.1,4.5-3.2,6.2
		c-2.1,1.7-5.4,2.8-9.7,3.1v5.2c4.3-0.1,8.1-0.3,11.2-0.5c3.2-0.2,6.2-0.5,9.1-0.8L376,45.9z M349.8,9.4V2.8h5.3v6.6h16.3v4.6h-38
		V9.4H349.8z M340.3,53.3h45.5v20.5h-5.2V58h-40.3V53.3z M352.5,21.4c-3.6,0-6.3,0.5-8,1.6c-1.7,1.1-2.6,2.3-2.6,3.6V28
		c0,1.4,0.9,2.6,2.6,3.6c1.7,1.1,4.4,1.6,8,1.6c3.6,0,6.3-0.5,8-1.6c1.7-1.1,2.6-2.3,2.6-3.6v-1.4c0-1.4-0.9-2.6-2.6-3.6
		C358.7,21.9,356.1,21.4,352.5,21.4z M385.8,25.9h10.4v4.8h-10.4v18.5h-5.3V3.7h5.3V25.9z"/>
	<path class="st0" d="M420.3,41.8c-2.6,0-4.9-0.4-7.1-1.3c-2.1-0.9-3.9-2.1-5.4-3.5c-1.5-1.4-2.6-3.1-3.4-4.9
		c-0.8-1.8-1.2-3.7-1.2-5.5V22c0-1.9,0.4-3.7,1.2-5.5c0.8-1.8,1.9-3.5,3.4-4.9c1.5-1.4,3.3-2.6,5.4-3.5c2.1-0.9,4.5-1.3,7.1-1.3
		c2.6,0,4.9,0.4,7.1,1.3c2.1,0.9,3.9,2.1,5.4,3.5c1.5,1.4,2.6,3.1,3.4,4.9c0.8,1.8,1.2,3.7,1.2,5.5v4.6c0,1.9-0.4,3.7-1.2,5.5
		c-0.8,1.8-2,3.5-3.4,4.9c-1.5,1.4-3.3,2.6-5.4,3.5C425.2,41.4,422.9,41.8,420.3,41.8z M420.3,11.5c-1.8,0-3.4,0.3-4.9,0.9
		c-1.5,0.6-2.7,1.4-3.8,2.4c-1,1-1.8,2.2-2.4,3.5c-0.6,1.3-0.9,2.7-0.9,4.1v3.6c0,1.4,0.3,2.8,0.9,4.1c0.6,1.3,1.4,2.5,2.4,3.5
		c1,1,2.3,1.8,3.8,2.4c1.5,0.6,3.1,0.9,4.9,0.9c1.8,0,3.4-0.3,4.9-0.9c1.5-0.6,2.7-1.4,3.8-2.4c1-1,1.8-2.2,2.4-3.5
		c0.6-1.3,0.9-2.7,0.9-4.1v-3.6c0-1.4-0.3-2.8-0.9-4.1c-0.6-1.3-1.4-2.5-2.4-3.5c-1-1-2.3-1.8-3.8-2.4
		C423.7,11.8,422,11.5,420.3,11.5z M420.3,67.6h38.8v4.7h-44.2V49.6h5.4V67.6z M457.4,53.4H452V3.7h5.3V53.4z"/>
	<path class="st0" d="M481.7,39.5c1.2-1.4,2.2-2.6,2.9-3.7c0.7-1.1,1.3-2.2,1.7-3.3c0.4-1.1,0.7-2.2,0.8-3.4c0.1-1.2,0.2-2.5,0.2-4
		V8.8h5.5v16c0,1.5,0.1,2.7,0.2,3.8c0.1,1.1,0.3,2.1,0.6,3.1c0.3,1,0.8,2,1.4,2.9c0.6,1,1.4,2,2.4,3.2c1.5,1.8,3.4,3.8,5.6,6
		c2.2,2.2,4.7,4.6,7.6,7.2l-3.5,3.6c-2.4-2.3-4.7-4.4-6.7-6.5c-2.1-2.1-3.8-3.9-5.4-5.5c-1.2-1.2-2.2-2.4-3.2-3.5
		c-0.9-1.1-1.5-1.9-1.7-2.4H490c-0.1,0.3-0.3,0.6-0.6,1.2c-0.4,0.5-0.8,1.1-1.3,1.8c-0.5,0.7-1.1,1.4-1.7,2.1
		c-0.6,0.7-1.2,1.4-1.7,2c-0.7,0.7-1.5,1.5-2.4,2.5c-0.9,1-1.9,2-3,3c-1.1,1.1-2.2,2.2-3.3,3.3c-1.2,1.1-2.3,2.2-3.4,3.1l-3.6-3.7
		c2.5-2.2,4.9-4.4,7-6.4C478,43.6,479.9,41.6,481.7,39.5z M526.7,73.1h-5.3V30.6h-16.5v-4.9h16.5v-22h5.3V73.1z"/>
</g>
</svg>
