<?xml version="1.0" encoding="utf-8"?>
<!-- Generator: Adobe Illustrator 24.2.1, SVG Export Plug-In . SVG Version: 6.00 Build 0)  -->
<svg version="1.1" id="Layer_1" xmlns="http://www.w3.org/2000/svg" xmlns:xlink="http://www.w3.org/1999/xlink" x="0px" y="0px"
	 viewBox="0 0 99.2 99.2" style="enable-background:new 0 0 99.2 99.2;" xml:space="preserve">
<path d="M89.3,26.5H41.4c-4.4,0-8-3.6-8-8v0c0-4.4,3.6-8,8-8h47.9c4.4,0,8,3.6,8,8v0C97.3,22.9,93.7,26.5,89.3,26.5z"/>
<path d="M89.3,57.5H10.3c-4.4,0-8-3.6-8-8v0c0-4.4,3.6-8,8-8h78.9c4.4,0,8,3.6,8,8v0C97.3,53.9,93.7,57.5,89.3,57.5z"/>
<path d="M89.3,88.4h-63c-4.4,0-8-3.6-8-8v0c0-4.4,3.6-8,8-8h63c4.4,0,8,3.6,8,8v0C97.3,84.8,93.7,88.4,89.3,88.4z"/>
</svg>
