<?xml version="1.0" encoding="utf-8"?>
<!-- Generator: Adobe Illustrator 24.1.1, SVG Export Plug-In . SVG Version: 6.00 Build 0)  -->
<svg version="1.1" xmlns="http://www.w3.org/2000/svg" xmlns:xlink="http://www.w3.org/1999/xlink" x="0px" y="0px"
	 viewBox="0 0 200 200" style="enable-background:new 0 0 200 200;" xml:space="preserve">
<style type="text/css">
	.st0{display:none;}
	.st1{display:inline;}
	.st2{fill:#FFD111;}
	.st3{fill:none;}
	.st4{display:inline;opacity:0.25;}
	.st5{fill:#020203;}
	.st6{fill:#010202;}
	.st7{fill:#FFD111;stroke:#FFD111;stroke-miterlimit:10;}
</style>
<g id="Layer_1" class="st0">
	<g id="Layer_1_1_" class="st1">
		<g>
			<path class="st2" d="M125.8,43.2H73c-3.8,0-6.9-3.1-6.9-6.9V11.9C66.1,8.1,69.2,5,73,5h52.8c3.8,0,6.9,3.1,6.9,6.9v24.5
				C132.6,40.1,129.6,43.2,125.8,43.2z M79.9,29.5h39V18.8h-39V29.5z"/>
		</g>
		<g>
			<path class="st2" d="M139.9,196.4H58.8c-15.5,0-28.2-12.6-28.2-28.2V36.3c0-3.8,3.1-6.9,6.9-6.9h123.7c3.8,0,6.9,3.1,6.9,6.9
				v131.8C168.1,183.7,155.4,196.4,139.9,196.4z M44.4,43.2v125c0,7.9,6.5,14.4,14.4,14.4h81.1c7.9,0,14.4-6.5,14.4-14.4v-125H44.4z
				"/>
		</g>
		<g>
			<line class="st3" x1="20.9" y1="36.3" x2="177.9" y2="36.3"/>
			<path class="st2" d="M177.9,43.2h-157c-3.8,0-6.9-3.1-6.9-6.9s3.1-6.9,6.9-6.9h157c3.8,0,6.9,3.1,6.9,6.9
				C184.8,40.1,181.7,43.2,177.9,43.2z"/>
		</g>
		<g>
			<line class="st3" x1="129.4" y1="79.3" x2="129.4" y2="140.6"/>
			<path class="st2" d="M129.4,147.5c-3.8,0-6.9-3.1-6.9-6.9V79.3c0-3.8,3.1-6.9,6.9-6.9c3.8,0,6.9,3.1,6.9,6.9v61.3
				C136.2,144.4,133.1,147.5,129.4,147.5z"/>
		</g>
		<g>
			<line class="st3" x1="99.4" y1="79.3" x2="99.4" y2="140.6"/>
			<path class="st2" d="M99.4,147.5c-3.8,0-6.9-3.1-6.9-6.9V79.3c0-3.8,3.1-6.9,6.9-6.9c3.8,0,6.9,3.1,6.9,6.9v61.3
				C106.3,144.4,103.2,147.5,99.4,147.5z"/>
		</g>
		<g>
			<line class="st3" x1="69.4" y1="79.3" x2="69.4" y2="140.6"/>
			<path class="st2" d="M69.4,147.5c-3.8,0-6.9-3.1-6.9-6.9V79.3c0-3.8,3.1-6.9,6.9-6.9s6.9,3.1,6.9,6.9v61.3
				C76.3,144.4,73.2,147.5,69.4,147.5z"/>
		</g>
	</g>
	<g id="Layer_2_1_">
		<g class="st4">
			<g>
				<path class="st5" d="M137.2,133c-1.7,0-3.4-0.5-5-1.3c-3.1-1.8-5-5.1-5-8.7v-6.7H92.1c-6.5,0-11.8-5.3-11.8-11.8V79.2
					c0-6.5,5.3-11.8,11.8-11.8h35.2v-6.8c0-3.6,1.9-6.9,5-8.7c1.5-0.9,3.3-1.3,5-1.3c1.8,0,3.5,0.5,5.1,1.4l44.2,31.2
					c3,1.8,4.9,5,4.9,8.6c0,3.6-1.9,6.8-4.9,8.6l-44,31.1C140.8,132.5,139,133,137.2,133z M92.1,78.4c-0.4,0-0.8,0.3-0.8,0.8v25.2
					c0,0.4,0.3,0.8,0.8,0.8h45.2c0.3,0,0.5,0.1,0.7,0.3s0.3,0.4,0.3,0.7l-0.1,14.8l41.3-29.1l-41.3-29.3v14.9c0,0.6-0.4,1-1,1
					C137.3,78.4,92.1,78.4,92.1,78.4z"/>
				<path class="st6" d="M137.2,51.6c1.6,0,3.1,0.4,4.6,1.3L185.9,84c2.8,1.6,4.4,4.5,4.4,7.8c0,3.2-1.7,6.1-4.4,7.8l-44.1,31.2
					c-1.4,0.8-3,1.3-4.6,1.3c-1.5,0-3.1-0.4-4.5-1.2c-2.8-1.6-4.5-4.5-4.5-7.8v-7.7H92.1c-6,0-10.8-4.9-10.8-10.8V79.2
					c0-6,4.9-10.8,10.8-10.8h36.2v-7.8c0-3.3,1.7-6.2,4.5-7.8C134.2,52,135.7,51.6,137.2,51.6 M92.1,106.2h45.2l-0.1,16.8l44.1-31.1
					l-44-31.2v16.8H92.1c-1,0-1.8,0.8-1.8,1.8v25.2C90.3,105.4,91.1,106.2,92.1,106.2 M137.3,106.2L137.3,106.2 M137.2,49.6
					c-1.9,0-3.8,0.5-5.5,1.5c-3.5,2-5.5,5.5-5.5,9.5v5.8H92.1c-7.1,0-12.8,5.8-12.8,12.8v25.2c0,7.1,5.8,12.8,12.8,12.8h34.2v5.7
					c0,4,2.1,7.6,5.5,9.6c1.7,1,3.6,1.5,5.5,1.5c1.9,0,3.9-0.5,5.6-1.5c0.1,0,0.1-0.1,0.1-0.1l44-31.1c3.4-2,5.4-5.5,5.4-9.4
					s-2-7.4-5.4-9.4l-44-31.1c-0.1,0-0.1-0.1-0.1-0.1C141.1,50.1,139.2,49.6,137.2,49.6L137.2,49.6z M92.3,79.4h45c1.1,0,2-0.9,2-2
					V64.5l38.5,27.3L139.2,119l0.1-12.8c0,0,0-0.1,0-0.1c0-1.1-0.9-2-2-2h0h-45V79.4L92.3,79.4z M137.3,108.2L137.3,108.2
					L137.3,108.2L137.3,108.2z"/>
			</g>
			<g>
				<path class="st5" d="M59.1,196.1c-5,0-10.8-2.9-15.9-5.5c-1.7-0.9-3.4-1.7-4.8-2.3c-2.6-1.1-5.2-2.2-7.8-3.2
					c-5.3-2.1-10.7-4.3-15.7-6.9C7.8,174.5,7,167.8,7,163V12.4c0-2.1,1-3.8,2.8-4.7c0.9-0.6,1.8-0.8,2.8-0.8h91.1
					c6.4,0,18.4,0,19.2,12.6c0.4,7,0.3,14.1,0.1,21c-0.1,3.4-0.1,7-0.1,10.4c0,3.5-2.8,5.4-5.5,5.4s-5.5-1.8-5.5-5.4V22.9
					c0-4.3-1.9-5.1-5.6-5.1c-0.7,0-1.5,0-2.2,0.1c-0.8,0-1.7,0.1-2.5,0.1H37.5l15.6,7.2c1.2,0.5,2.5,1.1,3.8,1.6
					c3.5,1.4,7.1,2.9,9.9,5.2c4.3,3.6,4.3,8.7,4.3,12.8v120.9h12.3c2.7,0,5.4,0.1,8.1,0.2c2.7,0.1,5.6,0.2,8.3,0.2
					c3.1,0,5.7-0.1,8-0.4c4.3-0.5,4.3-3.6,4-8.7c-0.1-1-0.1-2-0.1-3v-21.3c0-3.5,2.8-5.4,5.5-5.4s5.5,1.8,5.5,5.4v24.2
					c0,7.1,0,19.1-12.6,19.9c-4.4,0.3-9.3,0.4-14.9,0.4c-5,0-10-0.1-14.9-0.2c-3-0.1-6.1-0.1-9.1-0.2c0.2,7.2,0,18-10.7,19.2
					C60,196.1,59.6,196.1,59.1,196.1L59.1,196.1z M18,150.6c0,1.5,0,3-0.1,4.6c-0.1,3-0.1,6.1,0.1,9c0.3,3.6,2.5,4.6,5.9,6l1,0.4
					l28.6,12.3c0.5,0.2,1,0.5,1.6,0.8c1.2,0.6,2.5,1.3,3.5,1.3c0.5,0,1.1-0.1,1.5-1.3c0.8-1.9,0.5-5.4,0.2-8.4
					c-0.1-1.4-0.3-2.8-0.3-3.9V50.7c0-0.9,0.1-1.9,0.2-2.9c0.2-2.1,0.3-4.5-0.1-6c-0.7-2.2-4.4-3.6-7.2-4.7
					c-0.9-0.3-1.7-0.6-2.3-0.9L18,21V150.6z"/>
				<path class="st6" d="M103.6,7.9c8.4,0,17.5,0.9,18.2,11.7c0.6,10.4,0,21,0,31.4c0,2.9-2.3,4.4-4.5,4.4s-4.5-1.5-4.5-4.4
					c0-9.4,0-18.7,0-28.1c0-5.3-2.8-6.1-6.6-6.1c-1.5,0-3.1,0.1-4.8,0.1c-22.8,0-45.7,0-68.5,0c6.6,3,13.1,6.1,19.7,9.1
					c4.3,2,9.8,3.6,13.4,6.7c3.8,3.2,4,7.5,4,12c0,31.4,0,62.8,0,94.3c0,9.2,0,18.4,0,27.7c4.4,0,8.9,0,13.3,0
					c5.3,0,10.9,0.4,16.5,0.4c2.8,0,5.5-0.1,8.1-0.4c6.6-0.8,4.8-7.3,4.8-12.7c0-7.1,0-14.2,0-21.3c0-2.9,2.3-4.4,4.5-4.4
					s4.5,1.5,4.5,4.4c0,8.1,0,16.1,0,24.2c0,8.6-0.6,18.2-11.7,18.9c-4.9,0.3-9.9,0.4-14.9,0.4c-8.3,0-16.7-0.3-25.1-0.4
					c0.2,8.2,0.1,18.1-9.8,19.3c-0.4,0.1-0.8,0.1-1.2,0.1c-6.5,0-14.9-5.4-20.3-7.7c-7.8-3.3-16-6.2-23.5-10.1
					C9.5,174.3,8,169,8,163c0-37,0-74,0-111c0-13.1,0-26.1,0-39.2c0,0,0-0.1,0-0.1c0-0.1,0-0.2,0-0.3c0-1.9,1-3.2,2.3-3.8
					c0.6-0.4,1.4-0.7,2.3-0.7c19.3,0,38.5,0,57.8,0C81.4,7.9,92.5,7.9,103.6,7.9 M58.5,185.9c1,0,1.9-0.5,2.5-1.9
					c1.3-3.1,0-9.3,0-12.8c0-25.3,0-50.7,0-76c0-14.9,0-29.7,0-44.6c0-2.7,0.8-6.7,0-9.3c-1-3.4-7.3-4.9-10.1-6.2
					C39.6,30,28.3,24.7,17,19.5c0,26,0,52,0,78c0,17.7,0,35.4,0,53.1c0,4.5-0.3,9.1,0,13.6c0.3,4.6,3.6,5.6,7.5,7.2
					c9.5,4.1,19.1,8.2,28.6,12.3C54.7,184.4,56.8,185.9,58.5,185.9 M103.6,5.9H70.3H12.5c-1.1,0-2.3,0.3-3.3,1C7.2,7.9,6,9.9,6,12.4
					v0.3c0,0.1,0,0.1,0,0.2V52v111c0,5,0.9,12.1,8.4,16c5.1,2.6,10.5,4.8,15.8,6.9c2.6,1,5.2,2.1,7.8,3.2c1.4,0.6,3,1.4,4.7,2.3
					c5.2,2.6,11.1,5.6,16.4,5.6c0.5,0,1,0,1.5-0.1c11-1.3,11.8-12,11.7-19.2c2.7,0,5.4,0.1,8.1,0.1c4.9,0.1,10,0.2,15,0.2
					c5.6,0,10.5-0.1,15-0.4c13.6-0.8,13.6-13.4,13.6-20.9v-24.2c0-4.2-3.3-6.4-6.5-6.4c-1.7,0-3.2,0.6-4.4,1.6
					c-1.4,1.2-2.1,2.9-2.1,4.8V154c0,1,0.1,2,0.1,3c0.3,5.6-0.1,7.3-3.2,7.6c-2.3,0.3-4.9,0.4-7.9,0.4c-2.7,0-5.6-0.1-8.3-0.2
					c-2.7-0.1-5.5-0.2-8.2-0.2H72.1V139V44.7c0-4.3,0-9.6-4.7-13.5c-2.9-2.4-6.6-3.9-10.1-5.4c-1.3-0.5-2.6-1.1-3.8-1.6l-9.9-4.6
					L42,18.9h59.4c0.9,0,1.7,0,2.6-0.1c0.8,0,1.5-0.1,2.2-0.1c3.5,0,4.6,0.6,4.6,4.1v28.1c0,4.2,3.3,6.4,6.5,6.4s6.5-2.2,6.5-6.4
					c0-3.4,0.1-7,0.1-10.4c0.1-6.9,0.3-14.1-0.1-21.1C123,5.9,109.9,5.9,103.6,5.9L103.6,5.9z M58.5,183.9c-0.7,0-2-0.6-3-1.2
					c-0.5-0.3-1.1-0.6-1.6-0.8l-14.3-6.1l-14.3-6.1c-0.3-0.1-0.6-0.3-1-0.4c-3.6-1.5-5.1-2.3-5.3-5.1c-0.2-2.9-0.1-6-0.1-8.9
					c0-1.5,0.1-3.1,0.1-4.6V97.5V22.6l14.1,6.5l17,7.9c0.7,0.3,1.5,0.6,2.4,1c2.3,0.9,6.1,2.3,6.6,4c0.4,1.4,0.2,3.7,0.1,5.7
					c-0.1,1.1-0.2,2.1-0.2,3v44.6v76c0,1.2,0.1,2.6,0.3,4c0.3,2.8,0.6,6.3-0.1,8C58.9,183.9,58.7,183.9,58.5,183.9L58.5,183.9z"/>
			</g>
		</g>
	</g>
</g>
<g id="Layer_2">
	<g>
		<g>
			<g>
				<path class="st7" d="M79.3,172.2c-1.5,0-3.1-0.6-4.2-1.8l-45.7-45.7c-1.1-1.1-1.8-2.6-1.8-4.2c0-1.6,0.6-3.1,1.8-4.2L131,14.8
					c2.3-2.3,6.1-2.3,8.5,0l45.7,45.7c1.1,1.1,1.7,2.6,1.7,4.2c0,1.6-0.6,3.1-1.7,4.2L83.5,170.4C82.4,171.6,80.8,172.2,79.3,172.2z
					 M42.1,120.6l37.2,37.2l93.1-93.1l-37.2-37.2L42.1,120.6z"/>
			</g>
			<g>
				<path class="st7" d="M18.3,187.6c-1.6,0-3.1-0.6-4.2-1.8c-1.5-1.5-2.1-3.6-1.6-5.6l14-59.6c0.8-3.2,4-5.2,7.2-4.5
					c3.2,0.8,5.2,4,4.5,7.2l-11.8,50.3l50.3-11.8c3.2-0.8,6.4,1.2,7.2,4.5c0.8,3.2-1.2,6.4-4.5,7.2l-59.6,14
					C19.2,187.5,18.7,187.6,18.3,187.6z"/>
			</g>
			<g>
				<path class="st7" d="M163.9,87.6c-1.5,0-3.1-0.6-4.2-1.8L114,40.1c-2.3-2.3-2.3-6.1,0-8.5c2.3-2.3,6.1-2.3,8.5,0l45.7,45.7
					c2.3,2.3,2.3,6.1,0,8.5C167,87,165.5,87.6,163.9,87.6z"/>
			</g>
			<g>
				
					<rect x="23.3" y="160.1" transform="matrix(0.7072 -0.707 0.707 0.7072 -112.2837 70.7477)" class="st7" width="12" height="21.6"/>
			</g>
			<g>
				
					<rect x="31.7" y="90" transform="matrix(0.7071 -0.7071 0.7071 0.7071 -40.0575 91.747)" class="st7" width="118" height="8.5"/>
			</g>
			<g>
				
					<rect x="47" y="105.2" transform="matrix(0.7071 -0.7071 0.7071 0.7071 -46.3786 107.0079)" class="st7" width="118" height="8.5"/>
			</g>
		</g>
	</g>
</g>
</svg>
