<?xml version="1.0" encoding="utf-8"?>
<!-- Generator: Adobe Illustrator 25.2.3, SVG Export Plug-In . SVG Version: 6.00 Build 0)  -->
<svg version="1.1" id="Layer_1" xmlns="http://www.w3.org/2000/svg" xmlns:xlink="http://www.w3.org/1999/xlink" x="0px" y="0px"
	 viewBox="0 0 538 145" style="enable-background:new 0 0 538 145;" xml:space="preserve">
<style type="text/css">
	.st0{fill:#898989;}
	.st1{fill:#FF0000;}
	.st2{fill:#FFFFFF;}
	.st3{fill:#999999;}
</style>
<g>
	<path d="M29.4,341.4c4.1,0,7.1-0.7,9-2.2s2.8-3.3,2.8-5.5v-1c0-2.6-1-4.6-2.9-5.9c-2-1.3-4.8-2.4-8.5-3.2c-2.7-0.6-5.4-1.2-8.1-1.9
		s-5.2-1.6-7.4-3c-2.2-1.3-4-3.1-5.4-5.4c-1.4-2.3-2.1-5.3-2.1-9v-1.2c0-2,0.4-4,1.2-6.2c0.8-2.1,2.1-4.1,3.9-5.9
		c1.8-1.8,4.2-3.3,7.2-4.5c3-1.2,6.6-1.8,11-1.8c3.6,0,7,0.4,10.4,1.1c3.3,0.8,6.6,2.2,9.9,4.3L45,299c-2.6-1.7-5.1-2.8-7.4-3.3
		c-2.3-0.5-4.7-0.8-7.3-0.8c-2,0-3.8,0.2-5.3,0.7s-2.7,1.1-3.7,1.9c-1,0.8-1.7,1.6-2.2,2.5c-0.5,0.9-0.7,1.8-0.7,2.7v1.1
		c0,1.6,0.4,2.8,1.1,3.8c0.8,1,1.8,1.8,3,2.4c1.2,0.6,2.7,1.1,4.5,1.5c1.7,0.4,3.5,0.8,5.4,1.2c3.8,0.8,7.1,1.9,9.7,3.1
		s4.7,2.6,6.3,4.2c1.6,1.6,2.7,3.3,3.4,5.2s1,3.9,1,6.2v1.2c0,3.6-0.6,6.6-1.9,9c-1.3,2.4-3,4.4-5.3,5.8c-2.2,1.5-4.8,2.5-7.7,3.2
		s-5.9,0.9-9,0.9c-2.3,0-4.6-0.2-6.9-0.6c-2.3-0.4-4.4-0.9-6.3-1.6c-2-0.7-3.8-1.5-5.5-2.4S7,345,5.7,344l5.6-9.2
		c2,1.7,4.5,3.2,7.7,4.4C22,340.8,25.5,341.4,29.4,341.4z"/>
	<path d="M78.9,305.8c-0.5-1.1-1-2.5-1.4-4c-0.5-1.5-1.1-3.5-1.9-5.8v54.8H64.8v-64.9h16.4l15.9,40.3l15.3-40.3H129v64.9h-10.9V296
		c-0.7,2.7-1.2,4.7-1.7,6.1s-0.9,2.6-1.4,3.7L101.4,340h-9.2L78.9,305.8z"/>
	<path d="M196.8,350.8h-12.5L178,333h-21.9l-6.4,17.8h-11.8l24.1-64.9h10.3L196.8,350.8z M159.4,323.4h15.2l-4.4-13.2
		c-0.8-2.2-1.4-4-1.8-5.4c-0.5-1.5-0.9-3-1.4-4.5c-0.2,0.9-0.5,1.7-0.7,2.4c-0.2,0.7-0.4,1.5-0.7,2.2c-0.2,0.8-0.5,1.5-0.8,2.4
		c-0.3,0.8-0.6,1.8-1,3L159.4,323.4z"/>
	<path d="M230.4,324.8h-13.2v26h-11.5v-64.9h24.6c3.4,0,6.3,0.4,9,1.3c2.6,0.9,4.8,2.1,6.6,3.7s3.1,3.4,4,5.6s1.4,4.6,1.4,7.2v3.3
		c0,3.4-0.8,6.5-2.5,9.2c-1.7,2.7-4.2,4.8-7.6,6.3c2.2,4.7,4.3,9.4,6.3,14.1c2.1,4.7,4.2,9.3,6.3,14.1h-12.5L230.4,324.8z
		 M217.2,295.5v19.6h10.6c4.4,0,7.5-0.8,9.3-2.3c1.8-1.6,2.7-3.6,2.7-6v-2.7c0-2.5-0.8-4.6-2.5-6.2s-4.5-2.4-8.5-2.4H217.2z"/>
	<path d="M308.3,285.9v9.7h-19v55.2h-11.5v-55.2h-19.1v-9.7H308.3z"/>
	<path class="st0" d="M380,326.2c-2.4,0.3-5,0.6-7.8,0.8s-6,0.4-9.6,0.5c-3.6,0.2-7.7,0.3-12.2,0.3c-4.6,0.1-9.7,0.1-15.5,0.1v-4.7
		c3.8,0,7.2,0,10.3,0c3.1,0,6,0,8.7-0.1v-5.3c-4.4-0.3-7.7-1.3-9.8-3.1c-2.2-1.8-3.2-3.8-3.2-6.2v-1.8c0-2.6,1.3-4.9,3.9-6.7
		s6.5-2.7,11.8-2.7s9.2,0.9,11.8,2.8c2.6,1.8,3.9,4.1,3.9,6.6v1.8c0,2.4-1.1,4.5-3.2,6.2s-5.4,2.8-9.7,3.1v5.2
		c4.3-0.1,8.1-0.3,11.2-0.5c3.2-0.2,6.2-0.5,9.1-0.8L380,326.2z M353.8,289.7v-6.6h5.3v6.6h16.3v4.6h-38v-4.6H353.8z M344.3,333.6
		h45.5v20.5h-5.2v-15.8h-40.3V333.6z M356.5,301.7c-3.6,0-6.3,0.5-8,1.6c-1.7,1.1-2.6,2.3-2.6,3.6v1.4c0,1.4,0.9,2.6,2.6,3.6
		c1.7,1.1,4.4,1.6,8,1.6s6.3-0.5,8-1.6s2.6-2.3,2.6-3.6v-1.4c0-1.4-0.9-2.6-2.6-3.6C362.7,302.2,360.1,301.7,356.5,301.7z
		 M389.8,306.2h10.4v4.8h-10.4v18.5h-5.3V284h5.3V306.2z"/>
	<path class="st0" d="M424.3,322.1c-2.6,0-4.9-0.4-7.1-1.3c-2.1-0.9-3.9-2.1-5.4-3.5c-1.5-1.4-2.6-3.1-3.4-4.9s-1.2-3.7-1.2-5.5
		v-4.6c0-1.9,0.4-3.7,1.2-5.5c0.8-1.8,1.9-3.5,3.4-4.9s3.3-2.6,5.4-3.5s4.5-1.3,7.1-1.3s4.9,0.4,7.1,1.3c2.1,0.9,3.9,2.1,5.4,3.5
		s2.6,3.1,3.4,4.9c0.8,1.8,1.2,3.7,1.2,5.5v4.6c0,1.9-0.4,3.7-1.2,5.5c-0.8,1.8-2,3.5-3.4,4.9c-1.5,1.4-3.3,2.6-5.4,3.5
		C429.2,321.7,426.9,322.1,424.3,322.1z M424.3,291.8c-1.8,0-3.4,0.3-4.9,0.9c-1.5,0.6-2.7,1.4-3.8,2.4c-1,1-1.8,2.2-2.4,3.5
		s-0.9,2.7-0.9,4.1v3.6c0,1.4,0.3,2.8,0.9,4.1c0.6,1.3,1.4,2.5,2.4,3.5s2.3,1.8,3.8,2.4c1.5,0.6,3.1,0.9,4.9,0.9s3.4-0.3,4.9-0.9
		c1.5-0.6,2.7-1.4,3.8-2.4c1-1,1.8-2.2,2.4-3.5c0.6-1.3,0.9-2.7,0.9-4.1v-3.6c0-1.4-0.3-2.8-0.9-4.1c-0.6-1.3-1.4-2.5-2.4-3.5
		s-2.3-1.8-3.8-2.4C427.7,292.1,426,291.8,424.3,291.8z M424.3,347.9h38.8v4.7h-44.2v-22.7h5.4L424.3,347.9L424.3,347.9z
		 M461.4,333.7H456V284h5.3v49.7H461.4z"/>
	<path class="st0" d="M485.7,319.8c1.2-1.4,2.2-2.6,2.9-3.7c0.7-1.1,1.3-2.2,1.7-3.3c0.4-1.1,0.7-2.2,0.8-3.4c0.1-1.2,0.2-2.5,0.2-4
		v-16.3h5.5v16c0,1.5,0.1,2.7,0.2,3.8s0.3,2.1,0.6,3.1c0.3,1,0.8,2,1.4,2.9c0.6,1,1.4,2,2.4,3.2c1.5,1.8,3.4,3.8,5.6,6
		c2.2,2.2,4.7,4.6,7.6,7.2l-3.5,3.6c-2.4-2.3-4.7-4.4-6.7-6.5c-2.1-2.1-3.8-3.9-5.4-5.5c-1.2-1.2-2.2-2.4-3.2-3.5
		c-0.9-1.1-1.5-1.9-1.7-2.4H494c-0.1,0.3-0.3,0.6-0.6,1.2c-0.4,0.5-0.8,1.1-1.3,1.8c-0.5,0.7-1.1,1.4-1.7,2.1
		c-0.6,0.7-1.2,1.4-1.7,2c-0.7,0.7-1.5,1.5-2.4,2.5s-1.9,2-3,3c-1.1,1.1-2.2,2.2-3.3,3.3c-1.2,1.1-2.3,2.2-3.4,3.1l-3.6-3.7
		c2.5-2.2,4.9-4.4,7-6.4C482,323.9,483.9,321.9,485.7,319.8z M530.7,353.4h-5.3v-42.5h-16.5V306h16.5v-22h5.3V353.4z"/>
</g>
<path class="st1" d="M120.9,270.5H17.1c-4.4,0-8-3.6-8-8v-33c0-4.4,3.6-8,8-8h103.8c4.4,0,8,3.6,8,8v32.9
	C129,266.9,125.4,270.5,120.9,270.5z"/>
<g>
	<path class="st2" d="M31.6,234.6h5l8.4,14.9c0.2,0.5,0.5,1,0.8,1.7s0.5,1.4,0.7,2.2v-18.8h4.1v24.5h-5l-8.4-14.9
		c-0.3-0.5-0.6-1.1-0.9-1.8c-0.3-0.6-0.5-1.3-0.6-2v18.7h-4.1C31.6,259.1,31.6,234.6,31.6,234.6z"/>
	<path class="st2" d="M71.9,234.6v3.6H60.4v6.6h10.7v3.5H60.4v7.2h11.7v3.6h-16v-24.5H71.9z"/>
	<path class="st2" d="M74.9,234.6h4.5l4.5,18.2l5-18.2h4.2l4.9,18.2l4.7-18.2h4.2l-6.8,24.5H96l-5-18.9l-5.2,18.9h-4.2L74.9,234.6z"
		/>
</g>
<g>
	<path d="M175.5,71.4c-0.4-0.9-0.9-2.1-1.2-3.3c-0.4-1.2-1-2.9-1.6-4.8v45.6h-9.4v-54h14.2l13.8,33.5l13.3-33.5h14.4v54h-9.4V63.3
		c-0.6,2.2-1,3.9-1.5,5.1c-0.4,1.2-0.8,2.2-1.2,3.1L195,99.9h-8L175.5,71.4z"/>
	<path d="M277.6,108.9h-10.8l-5.5-14.8h-19l-5.5,14.8h-10.2l20.9-54h8.9L277.6,108.9z M245.2,86.1h13.2l-3.8-11
		c-0.7-1.8-1.2-3.3-1.6-4.5c-0.4-1.2-0.8-2.5-1.2-3.7c-0.2,0.7-0.4,1.4-0.6,2c-0.2,0.6-0.3,1.2-0.6,1.8c-0.2,0.7-0.4,1.2-0.7,2
		c-0.3,0.7-0.5,1.5-0.9,2.5L245.2,86.1z"/>
	<path d="M306.8,87.2h-11.4v21.6h-10v-54h21.3c2.9,0,5.5,0.3,7.8,1.1c2.3,0.7,4.2,1.7,5.7,3.1c1.6,1.3,2.7,2.8,3.5,4.7
		c0.8,1.8,1.2,3.8,1.2,6v2.7c0,2.8-0.7,5.4-2.2,7.7c-1.5,2.2-3.6,4-6.6,5.2c1.9,3.9,3.7,7.8,5.5,11.7c1.8,3.9,3.6,7.7,5.5,11.7
		h-10.8L306.8,87.2z M295.3,62.9v16.3h9.2c3.8,0,6.5-0.7,8.1-1.9c1.6-1.3,2.3-3,2.3-5V70c0-2.1-0.7-3.8-2.2-5.2
		c-1.5-1.3-3.9-2-7.4-2H295.3z"/>
	<path d="M374.3,54.9v8.1h-16.5v45.9h-10V62.9h-16.6v-8.1H374.3z"/>
</g>
<g>
	<path class="st3" d="M387.7,73.6c0-2.5,1.3-4.4,3.2-5.7c2.6-1.6,6.4-2.4,11-2.4c4.5,0,8.4,0.7,11,2.4c1.9,1.3,3.1,3.2,3.1,5.7
		c0,2.7-1.4,4.7-3.8,6c-1.9,1-4.2,1.7-7,2v4h7.9c4.8,0,8.4-1,10.3-2.3V55h6.5v16.4h7.9v5.7h-7.9v15.6h-6.5v-4.5
		c-2.2,1.7-6,2.6-12,2.6h-25.7v-5.2h13v-3.9c-3.1-0.3-5.9-1.1-7.8-2.4C389,77.8,387.7,76,387.7,73.6z M398.7,53.4h6.6v4.8h12.2v4.9
		h-31v-4.9h12.2V53.4z M389.2,95.7h40.7V110h-6.5v-9.1h-34.1V95.7z M393.9,73.6c0,0.7,0.4,1.4,1,1.9c1.3,1,3.8,1.4,7,1.4
		c3,0,5.4-0.4,6.7-1.3c0.8-0.5,1.3-1.2,1.3-2.1c0-0.8-0.5-1.6-1.3-2.1c-1.3-0.9-3.6-1.3-6.7-1.3c-3.1,0-5.6,0.4-6.9,1.4
		C394.3,72.1,393.9,72.8,393.9,73.6z"/>
	<path class="st3" d="M439.7,70.3c0-5.5,1.7-9.7,4.5-12.4c2.4-2.1,5.7-3.3,9.7-3.3c4,0,7.3,1.1,9.7,3.3c2.9,2.6,4.5,6.9,4.5,12.4
		c0,5.6-1.6,9.8-4.5,12.4c-2.4,2.1-5.7,3.3-9.7,3.3c-3.9,0-7.2-1.1-9.7-3.3C441.3,80,439.7,75.8,439.7,70.3z M485.1,109.4h-41.4V91
		h6.5v12.8h34.9V109.4z M446,70.3c0,3.6,0.9,6.3,2.6,8.1c1.3,1.3,3.1,2,5.3,2s4-0.7,5.4-2c1.6-1.7,2.5-4.4,2.5-8.1
		c0-3.6-0.9-6.3-2.5-8c-1.4-1.3-3.2-2-5.4-2s-4,0.7-5.3,2C446.9,63.9,446,66.7,446,70.3z M484.2,92.9h-6.5V55h6.5V92.9z"/>
	<path class="st3" d="M506.9,92c-2.4,6.2-8.7,11.2-15.6,13.5v-6c6.5-3,12.4-8.5,12.4-23.6V55.6h6.4v20.3c0,15.1,5.9,20.5,12.4,23.6
		v6C515.7,103.2,509.3,98.1,506.9,92z M536.9,55v54.1h-6.5v-29h-12.6v-5.7h12.6V55H536.9z"/>
</g>
<g>
	<path class="st1" d="M57.4,58.6c0.3-0.3,0.7-0.8,1-1.4c0.4-0.8,0.8-1.1,1.3-1.1c0.7,0,1.1,0.5,1.3,1.6l1.3,9.9l0.2,1.2
		c0,0.7-0.3,1-1,1c-0.5,0-0.9-0.1-1.1-0.3c-0.2-0.2-0.7-1-1.3-2.2c-1.1-2.2-2.9-4.1-5.5-5.8c-2.5-1.7-5.1-2.6-7.7-2.6
		c-2.5,0-4.6,0.7-6.2,2c-1.7,1.3-2.5,3-2.5,5.1c0,1.6,0.8,3.1,2.3,4.4c1.5,1.3,4.5,2.5,8.9,3.7c6.9,1.8,11.5,4.1,14,6.8
		c2.4,2.7,3.6,5.7,3.6,9c0,3.4-0.9,6.2-2.7,8.5c-1.8,2.3-3.9,4.1-6.4,5.4c-2.5,1.3-5.6,2-9.5,2c-2.2,0-4.4-0.3-6.8-0.9
		c-2.3-0.6-4.8-1.5-7.2-2.7c-0.5,0.6-1,1.3-1.3,2.2c-0.4,1-0.9,1.5-1.5,1.5c-0.6,0-1-0.7-1.2-2l-1.1-13.2c-0.1-0.6-0.1-0.9-0.1-1.1
		c0-0.7,0.4-1.1,1.2-1.1c0.6,0,1.1,0.6,1.6,1.8c1.6,3.6,3.7,6.7,6.4,9.1c2.7,2.4,5.8,3.6,9.4,3.6c3,0,5.5-0.8,7.3-2.5
		c1.9-1.7,2.8-3.6,2.8-5.8c0-2.2-0.9-4-2.6-5.4c-1.7-1.5-4.8-2.9-9.3-4.2c-4.3-1.3-7.6-2.6-9.7-3.8c-2.1-1.2-3.8-2.9-5.1-5
		c-1.3-2.1-1.9-4.3-1.9-6.4c0-3.8,1.6-7,4.7-9.7c3.1-2.7,7.4-4,12.7-4C48.7,56.1,52.5,56.9,57.4,58.6z"/>
</g>
<path d="M149.8,65.6c-1.8-1.1-3.7-2.4-5.7-3.1c-3.3-1.2-7.7-1.4-11.1-0.3c-1.3,0.4-2.3,0.9-3.2,1.6c-0.9,0.7-1.5,1.4-1.9,2.1
	c-1,1.8-1,4.9,0.3,6.5c0.7,0.9,1.6,1.5,2.6,2.1c1,0.5,2.3,0.9,3.9,1.3c1.5,0.3,3,0.7,4.7,1c2.7,0.6,5.3,1.4,7.8,2.4
	c2.4,1,4.8,2.2,6.6,4.1c5.3,5.4,5,12.3,1.8,17.9c-1.1,2-2.9,3.5-4.8,4.8c-5.6,3.6-12.4,4.6-18.8,3c-3.2-0.7-6.2-2-9-3.7
	c-0.7-0.4-7-4.4-6.8-5c0,0,4.7-7,4.7-7c4.7,4.1,9.6,7.2,15.8,7.7c3.1,0.2,6.4-0.3,8.7-2c2.4-1.8,3.5-5.2,2.4-7.8
	c-1.2-2.9-4.7-4.4-7.5-5.3c-5.7-1.8-12.2-1.9-17.3-5.4c-5.4-3.7-6.9-11.4-4.7-17.3c0.7-1.8,1.8-3.5,3.4-5.1c1.6-1.5,3.9-3,6.5-4.1
	c2.6-1,5.7-1.5,9.6-1.5c3.1,0,6,0.5,8.9,1.4c3.1,0.9,5.5,2.3,8.3,4.3C154.8,58.3,149.8,65.6,149.8,65.6z"/>
<g>
	<g>
		<polygon class="st1" points="89.3,122.5 5.3,122.5 5.3,38.4 58.2,38.4 58.2,34.7 5.3,34.7 1.5,34.7 1.5,38.4 1.5,122.5 1.5,126.2 
			5.3,126.2 89.3,126.2 93.1,126.2 93.1,122.5 93.1,69.2 89.3,69.2 		"/>
		<polygon class="st1" points="58.2,45.3 58.2,41.6 8.5,41.6 8.5,41.9 8.5,45.3 8.5,115.5 8.5,119.3 12.2,119.3 82.4,119.3 
			84.3,119.3 86.1,119.3 86.1,69.2 82.4,69.2 82.4,115.5 12.2,115.5 12.2,45.3 		"/>
		<polygon class="st1" points="82.4,62.1 86.1,62.1 86.1,45.3 86.1,41.6 82.4,41.6 65.6,41.6 65.6,45.3 82.4,45.3 		"/>
		<polygon class="st1" points="89.3,41.6 89.3,45.3 89.3,62.1 93.1,62.1 93.1,45.3 109.9,45.3 109.9,41.6 93.1,41.6 		"/>
		<polygon class="st1" points="93.1,34.7 93.1,17.9 89.3,17.9 89.3,34.7 89.3,38.4 93.1,38.4 109.9,38.4 109.9,34.7 		"/>
		<polygon class="st1" points="86.1,38.4 86.1,34.7 86.1,17.9 82.4,17.9 82.4,34.7 65.6,34.7 65.6,38.4 82.4,38.4 		"/>
	</g>
</g>
</svg>
