<?xml version="1.0" encoding="utf-8"?>
<!-- Generator: Adobe Illustrator 24.0.2, SVG Export Plug-In . SVG Version: 6.00 Build 0)  -->
<svg version="1.1" id="Layer_2" xmlns="http://www.w3.org/2000/svg" xmlns:xlink="http://www.w3.org/1999/xlink" x="0px" y="0px"
	 viewBox="0 0 121.3 44.61" style="enable-background:new 0 0 121.3 44.61;" xml:space="preserve">
<style type="text/css">
	.st0{fill:#1E1E1E;}
</style>
<path class="st0" d="M11.54,29.93c0,0-6.46-4.7-5.87-11.15S10.37,6.06,22.5,6.07c13.73,0,17.02,10.17,16.63,12.91
	S37.76,31.3,19.76,32.09l-9.39,6.07L11.54,29.93z"/>
<path class="st0" d="M61.24,7.04c-5.48-0.2-6.85,4.3-6.85,4.3V8.02h-4.11v30.13h5.09v-7.83h4.75c7.09-0.78,8.95-6.46,9.73-12.72
	C70.63,11.35,66.72,7.24,61.24,7.04z M63.78,18.98c-0.2,5.28-0.98,8.02-8.02,7.24v-13.5c0,0,0.59-0.78,3.13-0.98
	C61.43,11.54,63.98,13.7,63.78,18.98z"/>
<path class="st0" d="M82.76,7.04c-4.11-0.2-8.61,2.35-8.61,2.35l2.15,3.91c0,0,0.98-1.96,5.85-1.58c4.87,0.38,4.13,5.1,4.13,5.1
	h-3.13c-8.22,0.39-9.78,3.13-10.17,6.09c-0.39,2.96,2.54,7.02,7.24,7.02c4.7,0,7.24-2.15,7.24-2.15v2.15h3.91V13.3
	C90.78,9.39,86.87,7.24,82.76,7.04z M86.28,25.04c0,0-5.67,3.13-7.43,0c-1.76-3.13,3.31-4.7,3.31-4.7h4.13V25.04z"/>
<path class="st0" d="M94.3,8.61l5.09-1.57l5.67,16.35l5.67-16.37l5.67,1.39c0,0-8.41,27.78-15.06,30.72l-4.11-2.93l5.28-6.26
	L94.3,8.61z"/>
</svg>
