<?xml version="1.0" encoding="utf-8"?>
<!-- Generator: Adobe Illustrator 23.1.0, SVG Export Plug-In . SVG Version: 6.00 Build 0)  -->
<svg version="1.1" xmlns="http://www.w3.org/2000/svg" xmlns:xlink="http://www.w3.org/1999/xlink" x="0px" y="0px"
	 viewBox="0 0 95.8 91.8" style="enable-background:new 0 0 95.8 91.8;" xml:space="preserve">
<style type="text/css">
	.st0{display:none;}
	.st1{fill-rule:evenodd;clip-rule:evenodd;fill:#FFFFFF;}
	.st2{fill-rule:evenodd;clip-rule:evenodd;fill:#4A4A4A;}
	.st3{fill-rule:evenodd;clip-rule:evenodd;fill:#231815;}
</style>
<g id="_xF917_叱" class="st0">
</g>
<g id="Layer_1" class="st0">
</g>
<g id="及灑婆增鏑" class="st0">
</g>
<g id="昆穽設陷" class="st0">
</g>
<g id="Page_1" class="st0">
</g>
<g id="Layer_1_1_">
	<polygon class="st1" points="435.6,906 -301.4,906 -301.4,225.7 435.6,225.7 435.6,906 	"/>
	<path class="st2" d="M-301,219.2l-46.9,0c-17.4,0-17.4,22.5-0.5,22.5l47.3,0c-2.8,2.5-5.5,5.1-8.4,7.7
		c-12.4,12.9,4.9,29.4,16.4,15.5l30.8-34.5l-30.8-34.4c-11.3-14.1-29.3,3.5-16.6,15.3L-301,219.2L-301,219.2z"/>
	<path class="st2" d="M208,219.2l46.9,0c17.4,0,17.4,22.5,0.5,22.5l-47.3,0c2.8,2.5,5.5,5.1,8.4,7.7c12.4,12.9-4.9,29.4-16.4,15.5
		l-30.8-34.5l30.8-34.4c11.3-14.1,29.3,3.5,16.6,15.3L208,219.2L208,219.2z"/>
	<path class="st3" d="M44.3,90.3l-5.6-29.5l-5.4,5.5C12.6,52.4,9.3,23,34.1,2.4C0.8,19.5-5.4,59.7,19.7,80.1l-5.2,5.3L44.3,90.3
		L44.3,90.3z M51.6,2.4L57.2,32l5.4-5.5c20.7,13.9,24,43.2-0.9,63.8C95,73.2,101.3,33,76.2,12.6l5.2-5.3L51.6,2.4L51.6,2.4z"/>
	<path class="st2" d="M-156.9,179.4c3.9-1.8,8.5-1.8,12.6,0.4l56.5,30.3c4,2.2,6.6,6,7.3,10.2l-52.4,6.2L-156.9,179.4L-156.9,179.4z
		 M-123.9,231l43.3-5.4c-0.3,1.2-0.7,2.4-1.3,3.6l-17.9,33.4c-0.9,1.7-2.2,3.2-3.6,4.4L-123.9,231L-123.9,231L-123.9,231z
		 M-183,224.5c0.2-1.9,0.7-3.7,1.6-5.5l17.9-33.4c0.6-1.2,1.4-2.2,2.2-3.1l19.6,39l0,0L-183,224.5L-183,224.5z M-119,268.4
		l-56.5-30.3c-3.6-1.9-6-5.2-7-8.9l43.3-2.8l3.1,6.1l6.7-0.8l21.6,37.6C-111.4,270.5-115.4,270.3-119,268.4L-119,268.4z"/>
	<path class="st2" d="M211.5,63.5c-6.2,7.7-14.9,18.8-18.1,22.6c-9.4,11.3-26.5-2.9-17.1-14.2c3.2-3.8,11-13,18.5-21.6
		c-3.6-5.1-5.9-11.2-6.5-17.8C186.6,12.1,201.9-6,222.6-7.8c20.7-1.8,39,13.2,40.8,33.7c1.8,20.4-13.6,38.4-34.3,40.3
		C222.9,66.7,216.9,65.7,211.5,63.5L211.5,63.5z M223.4,0.6c16-1.4,30.1,10.2,31.5,26c1.4,15.8-10.5,29.7-26.5,31.1
		c-16,1.4-30.1-10.2-31.5-26C195.5,15.9,207.3,2,223.4,0.6L223.4,0.6z"/>
	<path class="st2" d="M14.7,208.4h66.6V261H14.7V208.4L14.7,208.4z M48.7,246v5.3H28.8c0.2-2,0.9-3.9,1.9-5.7
		c1.1-1.8,3.2-4.2,6.4-7.1c2.4-2.3,8.6-7.5,4.8-11.2c-1.4-1.4-4.2-1.4-5.6,0.1c-0.7,0.7-1.1,1.9-1.2,3.6l-5.7-0.6
		c0.3-3.1,1.4-5.4,3.2-6.7c3.6-2.8,10.2-2.9,13.5,0.3c6.1,5.7,0.4,13-4.2,17.3c-1.5,1.4-3.5,3.1-4.6,4.9H48.7L48.7,246z M67,251.3
		h-5.7v-21.4c-2.1,1.9-4.5,3.4-7.3,4.3V229c3.3-1.1,7.2-4.1,8.4-7.5H67V251.3L67,251.3z M16.5,183h4.1v5.8c-1.8,0.8-3,2-3,4.3
		c0,2.3,2.2,4.9,5.2,4.9c3,0,5.7-2.6,5.7-4.9c0-2.3-1.3-3.6-3.2-4.3V183h11.6v5.7c-2,0.7-3.2,2.1-3.2,4.4c0,2.3,2.5,4.8,5.5,4.8
		c3,0,5.1-2.5,5.1-4.7c0-2.2-1.2-3.7-2.8-4.5V183h11v6.1c-1.5,0.8-2.8,1.9-2.8,4c0,2.2,2,4.9,5.3,4.8c3.3-0.1,5.3-1.6,5.5-4.3
		c0.2-2.7-1.3-4.1-3.4-4.7V183h13.4v5.5c-2.1,0.6-3,2.2-3,4.6c0,2.4,2.4,4.8,5.4,4.8c3,0,5.2-2.4,5.2-4.8c0-2.4-1.1-4.3-3-4.4V183
		h4.1c5.4,0,9.8,4.4,9.8,9.8v67.5c0,5.4-4.4,9.8-9.8,9.8H16.5c-5.4,0-9.8-4.4-9.8-9.8v-67.5C6.7,187.4,11.1,183,16.5,183L16.5,183z"
		/>
	<path class="st2" d="M-173,48.6h7.6c0.9,0,1.6,0.7,1.6,1.6v1c0,0.9-0.7,1.6-1.6,1.6h-7.6c-0.9,0-1.6-0.7-1.6-1.6v-1
		C-174.6,49.3-173.9,48.6-173,48.6L-173,48.6z M-161.7,82.2h60c1.2,0,2.2,1,2.2,2.2l0,0c0,1.2-1,2.2-2.2,2.2h-60
		c-1.2,0-2.2-1-2.2-2.2l0,0C-163.9,83.2-162.9,82.2-161.7,82.2L-161.7,82.2z M-151.7,31.7V-1.6v-1.6h1.6h24.5h0.4l0.4,0.2l12.2,6.7
		l0.8,0.5v0.9v26.6v1.6h-1.6h-36.7h-1.6V31.7L-151.7,31.7z M-144.5,23.3h25.5v3h-25.5V23.3L-144.5,23.3z M-144.5,15.3h25.5v3h-25.5
		V15.3L-144.5,15.3z M-144.5,7.3h25.5v3h-25.5V7.3L-144.5,7.3z M-148.5,0v30.1h33.5V6l-11-6H-148.5L-148.5,0z M-91.8,53.6
		c-1.6,0-2.9-1.3-2.9-2.9c0-1.6,1.3-2.9,2.9-2.9c1.6,0,2.9,1.3,2.9,2.9C-88.8,52.3-90.2,53.6-91.8,53.6L-91.8,53.6z M-93.6,90.3
		h-76.2V80h-10V47.2l4.6-4.6h5.4v-7.1h76.2v-1.6h0v8.7h5.4l4.6,4.6V80h-10V90.3L-93.6,90.3z"/>
	<path class="st2" d="M178.8,525c0-4.8,0-9.4,0-14.5c49.5,1.4,78,32.3,81,78.4c-4.4,0-9.5,0.1-13.8,0.1
		C243.9,551.6,218,525,178.8,525L178.8,525z M216.4,589.3c5.4-0.1,9.4-0.1,14.4-0.1c-3.4-32.4-20.4-48.2-52.1-49.2
		c0,4.9,0,9.1,0,13.6C203.9,554.4,215,567.8,216.4,589.3L216.4,589.3z M188.1,570.9c6,0,10.8,4.7,10.9,10.6
		c0,5.9-4.8,10.7-10.7,10.7c-6,0-10.8-4.7-10.9-10.6C177.3,575.7,182.1,570.9,188.1,570.9L188.1,570.9z"/>
	<path class="st2" d="M-359.1,586.7h32.7c3,0,3,5.5,0,5.5h-32.7C-362.1,592.2-362.1,586.7-359.1,586.7L-359.1,586.7z M-280.2,520
		c-8.7,14.2-17.4,28.3-26.1,42.5c-1.4,2.3-4.8,0.2-3.4-2.1c8.7-14.2,17.4-28.3,26.1-42.5C-282.3,515.6-278.8,517.7-280.2,520
		L-280.2,520z M-298.8,575.6c-4.2,14-26.2,2.2-16.3-8.7C-315.9,575.6-305.6,580.7-298.8,575.6L-298.8,575.6z M-283.2,509.5
		c6.8,4,13.5,8.1,20.3,12.1c1.1,0.6,1.4,2,0.8,3.1l-33.5,56.1c-6.2,3-12.5,6-18.7,9c-4.8,4-6.4,3-5.5-3.3l-0.8-18.9l34.3-57.3
		C-285.7,509.2-284.3,508.9-283.2,509.5L-283.2,509.5z"/>
	<path class="st2" d="M-311.7,14l41.6,41v35.3h-26.7V51.9h-28.8v38.4H-352V54.1L-311.7,14L-311.7,14z M-311.8-9.9l-58.1,57.6l6.9,7
		l51.4-51l51.4,51l6.9-7l-16.9-16.7V6.3h-14.3v10.5l-26.9-26.7H-311.8L-311.8-9.9z"/>
	<path class="st2" d="M-125.2,391.6c0-14.4-14.8-13.1-19.7,1.4C-154.3,420.9-125.2,420.8-125.2,391.6L-125.2,391.6z M-83.9,421.7
		c-8.8,18.1-26.4,24.2-45.4,24c-72.1-0.9-61.9-94.6,0.3-94.6c29.8,0,42.3,19.8,41.7,39c-0.9,30.8-32.9,42.5-41.8,30.1
		c-19.6,13.1-36.7-7.6-30.4-29.4c5.9-20.4,27.5-26.6,37.4-15l0.9-3.9c4.9,0,9.9,0,14.8,0l-8.2,39.7c-0.4,4.8,16.6-5.5,16.6-22.9
		c0-17.3-14.4-26.3-30-26.8c-49.3-1.5-58.3,72.7-0.9,72.7c12.3,0,24.5-2.7,32.4-12.9C-92.2,421.7-88,421.7-83.9,421.7L-83.9,421.7z"
		/>
	<path class="st2" d="M218.6,353.2c25.4,0,46,20.7,46,46.2c0,25.5-20.6,46.2-46,46.2c-25.4,0-46-20.7-46-46.2
		C172.5,373.9,193.2,353.2,218.6,353.2L218.6,353.2z M203.4,402.6c3.8-8.8,8.9-11.9,12.2-12.7c6.8-1.6,15.4,0.7,12.1,13.7
		c-1.4,5.6-2.7,11.6-4,17.3c-1.8,7.6,7.4,4.3,10-0.8c-2,7.7-6.8,10.7-12.9,11.2c-6.8,0.6-14.7-1.7-12.3-11.7
		c1.1-4.6,3.2-13.6,4.3-18.2C215.2,392.5,207.2,397.7,203.4,402.6L203.4,402.6z M221.4,383.9c4,1.8,8.8-0.2,10.9-4.5
		c2-4.4,0.4-9.4-3.5-11.2c-4-1.8-8.8,0.2-10.9,4.5C215.8,377.1,217.4,382.1,221.4,383.9L221.4,383.9z"/>
	<path class="st2" d="M-312.7,413c15,5.9,21.4,18.6,23.1,32.7h-73.1c1.8-14,8.2-26.7,23.1-32.7c-7.2-4.4-12-12.2-11.9-21.1
		c0.1-13.6,11.6-24.4,25.6-24.3c14,0.2,25.2,11.3,25,24.8C-300.9,401.1-305.6,408.7-312.7,413L-312.7,413z M-260.6,428.6
		c-0.9-11.1-5.4-21.5-17-26.1c5.3-3.2,8.7-8.9,8.7-15.3c-0.2-16.3-21.6-23.1-32.7-11.7c9.2,11.7,5.8,31.4-3.2,36.9
		c5.9,2,12.2,9.3,14.8,16.3H-260.6L-260.6,428.6z"/>
	<path class="st2" d="M24.5,592.2H4.2c-2.3,0-4.2-1.9-4.2-4.2v-32.9c0-2.3,1.9-4.2,4.2-4.2h20.4c2.3,0,4.2,1.9,4.2,4.2V588
		C28.7,590.3,26.8,592.2,24.5,592.2L24.5,592.2z M91.7,592.2H71.3c-2.3,0-4.2-1.9-4.2-4.2v-44.2c0-2.3,1.9-4.2,4.2-4.2h20.4
		c2.3,0,4.2,1.9,4.2,4.2V588C95.8,590.3,94,592.2,91.7,592.2L91.7,592.2z M58,592.2H37.7c-2.3,0-4.2-1.9-4.2-4.2v-60.9
		c0-2.3,1.9-4.2,4.2-4.2H58c2.3,0,4.2,1.9,4.2,4.2V588C62.2,590.3,60.3,592.2,58,592.2L58,592.2z"/>
	<path class="st2" d="M-161.5,592.2h-18.7c-2.3,0-4.1-1.9-4.1-4.1v-18.7c0-2.3,1.9-4.1,4.1-4.1h18.7c2.3,0,4.1,1.9,4.1,4.1V588
		C-157.4,590.3-159.2,592.2-161.5,592.2L-161.5,592.2z M-147.3,576v5.3h-8.2V576H-147.3L-147.3,576z M-108.1,576v5.3h-8.2V576
		H-108.1L-108.1,576z M-128.6,563.7h-5.3v-8.2h5.3V563.7L-128.6,563.7z M-83.2,592.2h-18.7c-2.3,0-4.1-1.9-4.1-4.1v-18.7
		c0-2.3,1.9-4.1,4.1-4.1h18.7c2.3,0,4.1,1.9,4.1,4.1V588C-79.1,590.3-80.9,592.2-83.2,592.2L-83.2,592.2z M-121.9,554h-18.7
		c-2.3,0-4.1-1.9-4.1-4.1v-18.7c0-2.3,1.9-4.1,4.1-4.1h18.7c2.3,0,4.1,1.9,4.1,4.1v18.7C-117.8,552.1-119.6,554-121.9,554
		L-121.9,554z M-122.3,592.2h-18.7c-2.3,0-4.1-1.9-4.1-4.1v-18.7c0-2.3,1.9-4.1,4.1-4.1h18.7c2.3,0,4.1,1.9,4.1,4.1V588
		C-118.2,590.3-120.1,592.2-122.3,592.2L-122.3,592.2z"/>
	<path class="st2" d="M64.2,420.1l2.7-2.7c1.3-1.3,1.3-3.4,0-4.7l-30.7-30.9c-1.3-1.3-3.4-1.3-4.7,0l-2.7,2.7
		c-1.3,1.3-1.3,3.4,0,4.7l30.7,30.9C60.8,421.4,62.9,421.4,64.2,420.1L64.2,420.1z M49.1,437.7l-10.7-10.8l0.4-13.8L56,430.5
		c14.7,14.8,36.5-6.1,21.1-21.6l-17-17.1l13.8-0.3L84.3,402C108.9,426.7,72.9,461.6,49.1,437.7L49.1,437.7z M11.2,399.6l10.7,10.8
		l13.8-0.3l-17.3-17.4c-14.7-14.8,6.3-36.5,21.7-21l17,17.1l0.4-13.8l-10.4-10.5C22.5,339.8-12.6,375.6,11.2,399.6L11.2,399.6z"/>
</g>
</svg>
