<?xml version="1.0" encoding="utf-8"?>
<!-- Generator: Adobe Illustrator 25.2.2, SVG Export Plug-In . SVG Version: 6.00 Build 0)  -->
<svg version="1.1" xmlns="http://www.w3.org/2000/svg" xmlns:xlink="http://www.w3.org/1999/xlink" x="0px" y="0px"
	 viewBox="0 0 141.7 141.7" style="enable-background:new 0 0 141.7 141.7;" xml:space="preserve">
<style type="text/css">
	.st0{display:none;}
	.st1{opacity:0.3;fill:#3B93FF;}
	.st2{opacity:0.31;fill:#3B93FF;}
</style>
<g id="Layer_1" class="st0">
	
		<image style="display:inline;overflow:visible;" width="160" height="140" xlink:href="7CB59AD2.jpg"  transform="matrix(0.9999 0 0 0.9999 151.2832 -4.4003)">
	</image>
	
		<image style="display:inline;overflow:visible;" width="100" height="111" xlink:href="7CB59AD6.jpg"  transform="matrix(0.9999 0 0 0.9999 187.3724 22.9369)">
	</image>
</g>
<g id="Layer_2">
	<circle class="st1" cx="-18.8" cy="249.9" r="20.7"/>
	<path class="st1" d="M46.8,286.7h37.5c0,0-41.7,67-98.8,67s-40.2-63.6-15.3-83.1c0,0-19.9,13.9-18.8,41.6
		c1.2,27.7,38.3,19.3,38.3,19.3S20.7,325,46.8,286.7z"/>
	<path class="st1" d="M-15,284.8H5.4c0,0-19.1,26-37.9,24.9c-18.8-1.1-14.6-26.8,3.1-39.1c0,0-14.8,21.7-1,22.8
		C-22.6,294.1-15,284.8-15,284.8z"/>
	<path class="st1" d="M18.8,284.8h24.1c0,0,21.1-41.7-15.3-45.6c0,0-13.8-1.1-24.1,7.3c0,0,26.4-10.7,26,11.9
		C29.1,280.9,18.8,284.8,18.8,284.8z"/>
	<path class="st2" d="M13.9,4.9v131.7c0,0,18.9-5.5,61-5.5s53.6,5.5,53.6,5.5v-35.5H57.3V15.5C57.3,15.5,40.1,17.7,13.9,4.9z"/>
	<path class="st2" d="M84.1,15.5v66.2h37.2V4.9C121.3,4.9,110.9,12.4,84.1,15.5z"/>
</g>
</svg>
