<?xml version="1.0" encoding="utf-8"?>
<!-- Generator: Adobe Illustrator 25.1.0, SVG Export Plug-In . SVG Version: 6.00 Build 0)  -->
<svg version="1.1" id="Layer_1" xmlns="http://www.w3.org/2000/svg" xmlns:xlink="http://www.w3.org/1999/xlink" x="0px" y="0px"
	 viewBox="0 0 301.9 60.1" style="enable-background:new 0 0 301.9 60.1;" xml:space="preserve">
<style type="text/css">
	.st0{fill:#FBB584;}
	.st1{fill:#F89B6C;}
	.st2{fill:#F37321;}
	.st3{fill:#1C1C1B;}
</style>
<g>
	<g>
		<path class="st0" d="M24.2,30.2C23.4,22.9,31.2,17,41.5,17c10.3,0.1,19.4,6.1,20.2,13.5c0.8,7.4-6.9,13.3-17.3,13.2
			C34.1,43.6,25,37.6,24.2,30.2 M63.6,32.5c-0.9-9.1-11.3-16.6-23.2-16.7C28.5,15.7,19.6,23,20.5,32.2c0.9,9.1,11.3,16.6,23.2,16.7
			C55.7,49,64.5,41.7,63.6,32.5"/>
		<path class="st1" d="M45.6,49.1c-5.9,6.1-15.3,6.6-21,1.1c-5.7-5.5-5.6-14.9,0.2-21c5.9-6.1,15.3-6.6,21-1.1
			C51.6,33.5,51.5,43,45.6,49.1 M23.9,29c-6.8,7.1-6.9,18.1-0.3,24.5c6.7,6.4,17.6,5.8,24.4-1.3c6.8-7.1,6.9-18.1,0.3-24.5
			C41.7,21.3,30.7,21.9,23.9,29"/>
		<path class="st2" d="M24.5,6.1c12.2-4.6,24.2,0.1,26.9,10.3c2.7,10.3-5,22.3-17.2,26.9C22.1,47.8,10,43.2,7.3,32.9
			C4.6,22.7,12.4,10.6,24.5,6.1 M13.2,10C0.6,20-2.6,34.5,6,42.4c8.7,7.9,26,6.2,38.6-3.9c12.7-10,15.9-24.5,7.2-32.4
			C43.2-1.8,25.9,0,13.2,10"/>
	</g>
	<g>
		<path class="st3" d="M86.3,23.4H72.1v-2.3h14.2V23.4z M79.2,33.4c-1.8,0-3.3-0.4-4.4-1.4c-1.1-0.9-1.7-2-1.7-3.2
			c0-1.2,0.6-2.3,1.7-3.2c1.1-0.9,2.6-1.3,4.4-1.3s3.2,0.4,4.4,1.3c1.1,0.9,1.7,2,1.7,3.2c0,1.3-0.6,2.3-1.7,3.2
			C82.4,32.9,81,33.4,79.2,33.4z M80.3,38.6h12.3V41h-13c-2.8,0-4.2-1.3-4.2-3.9v-2.5h3.2v2.2C78.4,38,79,38.6,80.3,38.6z M75.5,18
			h7.3v2.3h-7.3V18z M79.2,31.1c0.8,0,1.5-0.2,2.1-0.7c0.6-0.4,0.9-1,0.9-1.7c0-0.7-0.3-1.2-0.9-1.7c-0.6-0.4-1.3-0.7-2.1-0.7
			c-0.8,0-1.5,0.2-2.1,0.7c-0.6,0.5-0.9,1-0.9,1.7c0,0.7,0.3,1.3,0.9,1.7C77.6,30.9,78.3,31.1,79.2,31.1z M92.4,24.2h3.3v2.5h-3.3v8
			h-3.1V18.4h3.1V24.2z"/>
		<path class="st3" d="M103.9,33.2c-1.1-0.2-2.1-0.6-2.9-1.3c-1.1-0.9-1.6-2-1.6-3.2c0-1.2,0.6-2.3,1.7-3.2c1.1-0.9,2.6-1.3,4.4-1.3
			c1.8,0,3.2,0.4,4.4,1.3c1.1,0.9,1.7,2,1.7,3.2c0,1.3-0.6,2.3-1.6,3.2c-0.8,0.6-1.7,1.1-2.8,1.3v2.4h3.5c3.2,0,4.8-1.2,4.8-3.7
			V18.4h3.1V26h3.3v2.5h-3.3v12.6h-3.1v-4.3c-1,0.8-2.4,1.3-4.2,1.3H97.8v-2.5h6.1V33.2z M112.5,23.4H98.3v-2.3h14.2V23.4z
			 M101.9,18h7.3v2.3h-7.3V18z M105.5,31.1c0.8,0,1.5-0.2,2.1-0.7c0.6-0.4,0.9-1,0.9-1.7c0-0.7-0.3-1.2-0.9-1.7
			c-0.6-0.4-1.3-0.7-2.1-0.7c-0.8,0-1.5,0.2-2.1,0.7c-0.6,0.5-0.9,1-0.9,1.7c0,0.7,0.3,1.3,0.9,1.7C104,30.9,104.7,31.1,105.5,31.1z
			"/>
		<path class="st3" d="M131.4,19.6c0,2.8,0.5,4.9,1.6,6.1c0.9,1,2,1.6,3.1,1.8V30c-2-0.3-3.7-1.1-5.2-2.4c-0.4-0.4-0.8-0.8-1.1-1.3
			c-0.3,0.5-0.7,0.9-1.1,1.3c-1.5,1.4-3.2,2.2-5.2,2.4v-2.5c1.2-0.2,2.2-0.8,3.1-1.8c1.1-1.2,1.6-3.2,1.6-6.1v-0.9h3.1V19.6z
			 M144.8,36.2c0,1.5-0.7,2.8-2,3.9c-1.4,1.1-3.1,1.7-5.2,1.7c-2.1,0-3.8-0.6-5.2-1.7c-1.4-1.1-2.1-2.4-2.1-3.9
			c0-1.5,0.7-2.8,2.1-3.9c1.3-1.1,3.1-1.6,5.2-1.6c2.1,0,3.8,0.6,5.2,1.6C144.1,33.4,144.8,34.7,144.8,36.2z M137.6,33.1
			c-1.2,0-2.2,0.3-3,0.9c-0.8,0.6-1.1,1.4-1.1,2.2c0,0.9,0.4,1.6,1.1,2.2c0.7,0.6,1.7,1,3,1c1.2,0,2.2-0.3,3-1
			c0.7-0.6,1.1-1.3,1.1-2.2c0-0.8-0.4-1.6-1.1-2.2C139.7,33.4,138.8,33.1,137.6,33.1z M142.6,18.4h3.1v12h-3.1v-5.2h-2.1v4.6h-3
			V18.4h3v4.4h2.1V18.4z"/>
		<path class="st3" d="M162.8,29.6h-9c-2.5,0-3.7-1.3-3.7-3.9v-7h11c1.1,0,1.7,0.6,1.7,1.7v0.4h4.6v-2.5h3.1v12.2h-3.1v-2.9h-4.6
			V29.6z M159.7,21.2h-6.5v4.6c0,1,0.4,1.5,1.3,1.5h5.1V21.2z M170.4,36.2c0,1.5-0.7,2.8-2,3.9c-1.3,1.1-3.1,1.7-5.2,1.7
			c-2.1,0-3.8-0.6-5.1-1.7c-1.3-1.1-2-2.4-2-3.9c0-1.5,0.7-2.8,2-3.9c1.3-1.1,3-1.6,5.1-1.6c2.1,0,3.8,0.6,5.2,1.6
			C169.8,33.4,170.4,34.7,170.4,36.2z M163.3,33.1c-1.2,0-2.2,0.3-2.9,0.9c-0.7,0.6-1.1,1.4-1.1,2.2c0,0.9,0.3,1.6,1.1,2.2
			c0.7,0.6,1.7,1,2.9,1c1.2,0,2.2-0.3,2.9-1c0.7-0.6,1.1-1.3,1.1-2.2c0-0.8-0.4-1.6-1.1-2.2C165.4,33.4,164.5,33.1,163.3,33.1z
			 M162.8,23.4v2h4.6v-2H162.8z"/>
		<path class="st3" d="M190.9,18.7c2.6,0,4,1.2,4,3.6v5.5h2.9v2.5h-23.2v-2.5h17.1v-5c0-1.2-0.7-1.7-2-1.7h-12.9v-2.4H190.9z
			 M195,34.3V41h-13.8c-2.5,0-3.8-1.2-3.8-3.5v-5h15.8C194.4,32.5,195,33.1,195,34.3z M191.8,34.9h-11.3v2.5c0,0.9,0.4,1.3,1.3,1.3
			h10V34.9z"/>
		<path class="st3" d="M200.7,28.5h23.2V31h-5.7v2.5c0.3,0.1,0.5,0.2,0.8,0.3c1.6,0.7,2.4,1.8,2.4,3.3s-0.8,2.6-2.4,3.3
			c-1.6,0.7-3.8,1.1-6.6,1.1c-2.8,0-5-0.3-6.6-1.1c-1.6-0.7-2.4-1.8-2.4-3.3s0.8-2.6,2.4-3.3c0.2-0.1,0.4-0.2,0.7-0.3V31h-5.7V28.5z
			 M203,22.8c0-1.5,0.8-2.7,2.4-3.4c1.6-0.7,3.9-1.1,6.9-1.1c3,0,5.3,0.4,6.9,1.1c1.6,0.7,2.4,1.9,2.4,3.4c0,1.6-0.8,2.7-2.4,3.4
			c-1.6,0.7-3.9,1.1-6.9,1.1c-3,0-5.3-0.3-6.9-1.1C203.8,25.5,203,24.4,203,22.8z M206.2,22.9c0,0.8,0.5,1.4,1.6,1.7
			c1.1,0.3,2.5,0.4,4.4,0.4c1.8,0,3.3-0.1,4.4-0.4c1.1-0.3,1.6-0.8,1.6-1.7c0-0.8-0.6-1.4-1.6-1.7c-1.1-0.3-2.6-0.5-4.4-0.5
			c-1.8,0-3.3,0.2-4.4,0.5C206.8,21.5,206.2,22.1,206.2,22.9z M212.3,39c1.7,0,3.1-0.1,4.2-0.4c1-0.3,1.5-0.8,1.5-1.5
			c0-0.7-0.5-1.2-1.5-1.5c-1.1-0.3-2.5-0.4-4.2-0.4c-1.7,0-3.1,0.2-4.1,0.4c-1.1,0.3-1.6,0.8-1.6,1.5c0,0.7,0.5,1.2,1.6,1.5
			C209.2,38.9,210.5,39,212.3,39z M214.9,32.9V31h-5.4v1.9c0.8-0.1,1.8-0.1,2.8-0.1C213.3,32.8,214.1,32.8,214.9,32.9z"/>
		<path class="st3" d="M235.5,22.1c0,3.9,0.6,6.7,1.9,8.5c1.1,1.5,2.4,2.6,4,3.2v2.5c-2.4-0.5-4.5-1.7-6.2-3.7
			c-0.5-0.6-0.9-1.2-1.3-2c-0.4,0.8-0.8,1.4-1.3,2c-1.7,2-3.8,3.3-6.2,3.7v-2.5c1.6-0.6,3-1.7,4-3.2c1.2-1.8,1.9-4.6,1.9-8.5v-3.4
			h3.1V22.1z M245,41.1V27.7h-5.9v-2.6h5.9v-6.7h3.1v22.7H245z"/>
		<path class="st3" d="M265.7,35.9h-8.5c-2.8,0-4.2-1.4-4.2-4.2V18.8h3.1v5.5h6.5v-5.5h3.1V35.9z M262.6,33.4v-6.8h-6.5v4.9
			c0,1.3,0.6,1.9,1.7,1.9H262.6z M269.6,41.1V18.4h3.2v22.7H269.6z"/>
		<path class="st3" d="M299.8,38.7h-23.2v-2.6h23.2V38.7z M289.8,20c0,3.3,0.9,5.8,2.7,7.5c1.7,1.6,3.6,2.4,5.7,2.6v2.4
			c-2.9-0.1-5.5-1-7.7-2.8c-1-0.7-1.7-1.7-2.3-2.7c-0.6,1.1-1.4,2-2.3,2.7c-2.3,1.8-4.9,2.7-7.7,2.8V30c2.1-0.1,4-1,5.7-2.6
			c1.8-1.7,2.7-4.2,2.7-7.5v-1.2h3.2V20z"/>
	</g>
</g>
</svg>
